<svg id="Слой_1" xmlns="http://www.w3.org/2000/svg" viewBox="0 0 185.7 164.3"><path d="M45.1 85.3c.4.3.9.6 1.4.8.2.1.5.2.8.2h.4s.6 0 .9-.1c.2 0 .3 0 .4-.1.3-.1 3.9-.9 4-.9v15.3h5V66.3h-5V81.2s0 .1-.1.1c-.1.1-.1.1-.2.1h-4.1-.1c-.1 0-.1 0-.2-.1-.1 0-.1-.1-.1-.2V66.3h-5V81.1c0 .5.1 1.1.3 1.6.2 1.1.8 2 1.6 2.6z"/><path d="M52.4 86c-1.1.3-3.2.7-3.3.8h-.4c-.3.1-.9.1-.9.1h-.5c-.3 0-.6-.1-.9-.2-.5-.2-1-.5-1.5-.9l-.6-.6c.3.4.7.7 1 1.1.5.4 1 .7 1.5.9.3.1.6.2.9.2h.5c.1 0 .6 0 1-.1h.4c.1 0 1.7-.4 2.9-.7l-.1-.6zM48.7 80.8h.6V66.3h-.6zM59.1 66.3h-.6v34.9l-5.6-.1v.5l6.2.1zM71.7 96.8h4.5v-.4h-5.1l-.6 4.7-5.7.1-.1.4h6.4z"/><path d="M77 66.3h-6.7l-5.4 34.2H70l.6-4.8h6l.7 4.8h5.1L77 66.3zM71.3 91l2.3-17.2L76 91h-4.7z"/><path d="M72.6 90.4l1.3-10.1-.3-2.4-1.7 12.5zM78.1 66.3h-.5l5.5 34.8h-5.7l.1.5h6.2zM92.7 66.3c-2.8 0-5.1 2.4-5.1 5.3v23.6c0 2.9 2.3 5.3 5.1 5.3h4.7c2.8 0 5.1-2.4 5.1-5.3v-8.5h-5v8.5c0 .2-.2.4-.4.4h-4c-.2 0-.4-.2-.4-.4V71.6c0-.2.2-.4.4-.4h4c.2 0 .4.2.4.4v8.5h5v-8.5c0-2.9-2.3-5.3-5.1-5.3h-4.7z"/><path d="M93.8 95.1V72.2h3.1v-.4h-3.7v23.3zM99.8 66.3c1.9.9 3.2 3 3.2 5.3v9.1h-5.6v.4h6.2v-9.2c.1-2.6-1.5-4.8-3.8-5.6zM97.9 101.6c3.2 0 5.7-2.7 5.7-6v-8.9h-.6v8.5c0 .4 0 .8-.1 1.2-.2 1.5-1.1 2.7-2.2 3.5-.9.7-2.1 1.1-3.3 1.1h-4.7c-1.3 0-2.5-.5-3.5-1.3 1 1.1 2.4 1.7 4 1.7h4.7v.2zM21.9 95.3c0 2.9 2.3 5.3 5.1 5.3h4.7c2.8 0 5.1-2.4 5.1-5.3v-8.5h-5v8.5c0 .2-.2.4-.4.4h-4c-.2 0-.4-.2-.4-.4V71.6c0-.2.2-.4.4-.4h4c.2 0 .4.2.4.4v8.5h5v-8.5c0-2.9-2.3-5.3-5.1-5.3H27c-2.8 0-5.1 2.4-5.1 5.3v23.7z"/><path d="M28.1 95.1V72.2h3.1v-.4h-3.7v23.3zM37.9 71.9c0-2.6-1.6-4.8-3.9-5.6 1.9.9 3.2 3 3.2 5.3v9.1h-5.6v.4h6.2v-9.2h.1zM37.9 86.7h-.6v8.5c0 .4 0 .8-.1 1.2-.2 1.5-1.1 2.7-2.2 3.5-.9.7-2.1 1.1-3.3 1.1H27c-1.3 0-2.5-.5-3.5-1.3 1 1.1 2.4 1.7 4 1.7h4.7c3.2 0 5.7-2.7 5.7-6v-8.7zM122.2 66.3H108v4.9h4.6v29.3h5V71.2h4.6z"/><path d="M118.8 72.1h4.6v-5.8h-.6v5.4h-4.6v29.4h-5.6v.4h6.2zM133.1 66.3h-5v34.2h10.5c2.5-.3 4.5-2.5 4.5-5.2v-9.5c0-.8-.2-1.6-.5-2.3-.3-.7-.9-1.4-1.5-1.9s-1.3-.9-2.1-1c-.1 0-.6-.1-1 0h-.1c-.2 0-.4.1-.6.1-.4.1-.8.2-1.3.3l-2.8.7-.1-15.4zm0 19.5v-.2c0-.1.1-.1.1-.1.1 0 .1-.1.2-.1h4.1c.1 0 .1 0 .2.1.1 0 .1.1.1.1v9.6c0 .2-.2.4-.4.4h-4.5l.2-9.8z"/><path d="M133.6 95.1h.7v-8.7h3V86h-3.7zM134.3 66.3h-.6v14.5c.2 0 .4-.1.6-.2V66.3z"/><path d="M141.3 81.1c.7.6 1.3 1.3 1.6 2.1.4.8.6 1.7.6 2.6v10.1c-.1 1.4-.7 2.7-1.7 3.6-.9.9-2 1.5-3.3 1.7H128v.4h11.1c2.9-.4 5-2.9 5-5.9v-9.4c0-.9-.2-1.8-.6-2.7-.4-.8-.9-1.5-1.7-2.1-.7-.6-1.5-1-2.3-1.1.7 0 1.3.3 1.8.7zM149.2 66.3v34.2h13.1v-4.9h-8.1v-9.8h6.6v-4.9h-6.6v-9.7h8.1v-4.9z"/><path d="M162.8 71.7h-8v8.6h.7v-8.2h8v-5.8h-.7zM162 80.9h-.7l.1 5.5h-6.6V95h.7v-8.3h6.5zM163.5 95.6h-.6v5.5h-13.7v.3h14.3zM73 142.3c-.1 0-.3-.1-.4-.1h-.3l-.6 3.2h.2l.2-1.2h.7c.5-.1.8-.5.8-1 0-.4-.2-.7-.6-.9zm-.3 1.7H72.1l.3-1.5h.5c.3.1.4.3.4.6.1.5-.2.8-.6.9zM75.1 145.1c0 .2 0 .3.1.4h.2v-.3c0-.2 0-.4.1-.7v-.2c0-.2.1-.4.1-.6 0-.5-.3-.6-.6-.6-.2 0-.5.1-.7.2v.2c.2-.1.4-.2.7-.2.3 0 .4.1.4.4v.3H75c-.3 0-.6.1-.8.2-.2.1-.3.3-.3.6s.2.6.6.6c.1.1.4-.1.6-.3zm-.7.2c-.2 0-.3-.1-.3-.4 0-.2.1-.3.2-.4.2-.1.4-.2.7-.2h.2v.2c-.1.5-.5.8-.8.8zM77.3 143.2h-.2c-.2 0-.5.2-.6.5l.1-.5h-.2l-.5 2.3h.2l.2-1c.1-.7.5-1.1.7-1.1h.2l.1-.2zM77.9 143.2h-.2l-.5 2.3h.3zM79.1 143.3c.1 0 .3 0 .4.1v-.2c-.1-.1-.3-.1-.5-.1-.5 0-.7.3-.7.6 0 .6.7.6.7 1.1 0 .3-.2.4-.5.4-.2 0-.4-.1-.5-.1l-.1.2c.1.1.3.2.6.2.4 0 .8-.2.8-.6 0-.6-.7-.7-.7-1.1.1-.3.3-.5.5-.5zM84 144.6c0-.9-1-.9-1-1.6 0-.4.3-.5.6-.5.2 0 .4.1.6.1l.1-.2c-.2-.1-.4-.1-.6-.1-.5 0-.9.3-.9.8 0 .8 1 .8 1 1.6 0 .5-.4.6-.7.6-.3 0-.5-.1-.6-.2l-.1.2c.1.1.4.2.7.2.5 0 .9-.3.9-.9zM86.2 144.3c0-.2.1-.4.1-.6 0-.5-.3-.6-.6-.6-.2 0-.5.1-.7.2v.2c.2-.1.4-.2.7-.2.3 0 .4.1.4.4v.3h-.4c-.3 0-.6.1-.8.2-.2.1-.3.3-.3.6s.2.6.6.6c.3 0 .6-.2.7-.4 0 .2 0 .3.1.4h.2v-.3-.8zm-.3.2c-.1.4-.4.8-.8.8-.2 0-.3-.1-.3-.4 0-.2.1-.3.2-.4.2-.1.4-.2.7-.2h.2v.2zM87.1 143.2l-.5 2.3h.2l.5-2.3zM88.9 143.4c.2 0 .3.1.3.3v.4l-.3 1.4h.2l.3-1.4c0-.2.1-.3.1-.4 0-.4-.2-.5-.5-.5s-.6.2-.8.5l.1-.5H88l-.5 2.3h.2l.2-1.1c.1-.3.1-.5.2-.6.3-.3.6-.4.8-.4zM90.5 143.4h.5l.1-.2h-.6l.1-.6-.3.1-.1.5h-.3v.2h.3l-.3 1.5v.2c0 .2.1.4.4.4.2 0 .3-.1.5-.2l-.1-.2c-.1.1-.2.1-.4.1s-.2-.1-.2-.2v-.2l.4-1.4zM94.2 142.3c-.1 0-.3-.1-.4-.1h-.3l-.6 3.2h.1l.2-1.2h.7c.5-.1.8-.5.8-1 .1-.4-.1-.7-.5-.9zm-.3 1.7H93.3l.3-1.5h.5c.3.1.4.3.4.6 0 .5-.2.8-.6.9zM96.5 145.1c-.2.1-.4.2-.6.2-.4 0-.6-.3-.6-.8v-.2h1.4c.1-.1.1-.3.1-.5 0-.4-.2-.7-.7-.7-.6 0-1.1.6-1.1 1.4 0 .6.4 1 .8 1 .2 0 .5-.1.7-.2v-.2zm-.4-1.7c.4 0 .4.3.4.5v.3h-1.2c.2-.5.5-.8.8-.8zM96.7 142.2h-.3l-.3.7h.2zM97.3 145.1c0 .2.1.4.4.4.2 0 .3-.1.5-.2l-.1-.2c-.1.1-.2.1-.4.1s-.2-.1-.2-.2v-.2l.3-1.5h.6l.1-.2h-.6l.1-.6-.3.1-.1.5h-.3v.2h.3l-.3 1.5v.3zM100.3 144.3c.1-.1.1-.3.1-.5 0-.4-.2-.7-.7-.7-.6 0-1.1.6-1.1 1.4 0 .6.4 1 .8 1 .2 0 .5-.1.7-.2l-.1-.2c-.2.1-.4.2-.6.2-.4 0-.6-.3-.6-.8v-.2h1.5zm-.6-.9c.4 0 .4.3.4.5v.3h-1.2c.1-.5.4-.8.8-.8zM101.8 143.4h.2l.1-.2h-.2c-.2 0-.5.2-.6.5l.1-.5h-.4l-.5 2.3h.2l.2-1c.3-.8.6-1.1.9-1.1zM103.1 143.1c-.5 0-.7.3-.7.6 0 .6.7.6.7 1.1 0 .3-.2.4-.5.4-.2 0-.4-.1-.5-.1l-.1.2c.1.1.3.2.6.2.4 0 .8-.2.8-.6 0-.6-.7-.7-.7-1.1 0-.3.2-.4.4-.4.1 0 .3 0 .4.1v-.2c-.1-.2-.3-.2-.4-.2zM105.7 143.9c0-.5-.3-.8-.6-.8s-.6.2-.7.5c0-.2.1-.3.1-.4l.2-1.1h-.2l-.7 3.4c.1 0 .3.1.5.1.8-.1 1.4-.8 1.4-1.7zm-1.4 1.4h-.3l.2-.9c.1-.4.2-.6.3-.7.2-.2.3-.3.5-.3.3 0 .4.3.4.6 0 .7-.5 1.3-1.1 1.3zM108 144c0-.4-.2-.8-.8-.8-.6 0-1.1.6-1.1 1.6 0 .4.2.8.8.8.5-.1 1.1-.7 1.1-1.6zm-1.2 1.3c-.4 0-.5-.3-.5-.6 0-.6.3-1.3.9-1.3.4 0 .5.3.5.6 0 .6-.3 1.3-.9 1.3zM110.2 143.2h-.2l-.2 1.2c-.1.4-.4.9-.9.9-.2 0-.3-.1-.3-.3v-.4l.3-1.4h-.2l-.3 1.4c0 .2-.1.3-.1.4 0 .4.2.5.5.5s.6-.2.8-.5v.5h.2v-.3c0-.2 0-.4.1-.7l.3-1.3zM111.6 143.4h.2l.1-.2h-.2c-.2 0-.5.2-.6.5l.1-.5h-.2l-.5 2.3h.2l.2-1c.1-.8.4-1.1.7-1.1zM113.7 143.2c-.1-.1-.4-.1-.6-.1-.9 0-1.3.8-1.3 1.6 0 .5.2.8.6.8.2 0 .5-.1.7-.4l-.1.4c-.1.6-.3.9-.8.9-.2 0-.4 0-.5-.2l-.1.2c.2.1.4.2.6.2.7 0 .9-.5 1-1l.5-2.4zm-1.3 2.1c-.3 0-.4-.3-.4-.6 0-.7.4-1.3 1.1-1.3h.4l-.2.8c-.2.8-.6 1.1-.9 1.1zM83.9 110.8l-1.7.1.2-1.3h1.4l.1-.4h-1.4l.2-1.2h1.5l.1-.4-2 .1-.6 3.6 2.1-.1zM86.2 110.7s-.1.1-.2.1-.2.1-.3.1h-.4c-.1 0-.2-.1-.3-.1l-.1.4c.1 0 .2.1.3.1h.4c.1 0 .3 0 .4-.1.1 0 .2-.1.3-.2.1-.1.2-.2.2-.3 0-.1.1-.2.1-.4 0-.1 0-.2-.1-.3 0-.1-.1-.1-.2-.2s-.1-.1-.2-.1-.2-.1-.2-.1c-.1 0-.1 0-.2-.1 0 0-.1 0-.1-.1l-.1-.1v-.1-.2l.1-.1s.1-.1.2-.1h.5c.1 0 .2.1.3.1l.1-.4s-.1 0-.2-.1H85.9c-.1 0-.2 0-.3.1-.1 0-.2.1-.3.2-.1.1-.1.2-.2.3 0 .1-.1.2-.1.4 0 .1 0 .2.1.2 0 .1.1.1.1.2 0 0 .1.1.2.1s.1.1.2.1.1.1.2.1.1 0 .2.1c.1 0 .1.1.1.1V110.6c.1 0 .1 0 .1.1zM88.4 110.3l.3-1.5h.7l.1-.4h-.7l.1-.7h-.4l-.1.7h-.5l-.1.4h.5l-.3 1.6v.2c0 .2.1.3.2.4s.3.1.5.1h.4l.1-.4h-.7s-.1-.1-.1-.2v-.2c0 .1 0 .1 0 0zM90.6 111l.1-.5h-.5l-.1.5zM95.7 110.6h-1.4c.2-.2.4-.4.6-.5l.5-.5c.1-.1.2-.3.3-.4.1-.1.2-.2.2-.4.1-.1.1-.2.1-.4v-.4c0-.1 0-.2-.1-.3 0-.1-.1-.2-.2-.3-.1-.1-.2-.1-.3-.2-.1 0-.2-.1-.4-.1-.1 0-.3 0-.4.1-.1 0-.3.1-.5.2l-.1.4c.1-.1.3-.1.4-.2.1 0 .3-.1.4-.1h.2c.1 0 .1.1.2.1 0 0 .1.1.1.2v.2c0 .2 0 .3-.1.5s-.2.4-.4.6c-.2.2-.4.4-.6.7-.2.3-.5.5-.8.8v.3h2.1l.2-.3zM98.9 107.4c-.1-.1-.2-.1-.4-.1s-.4 0-.5.1-.3.2-.4.3c-.1.1-.2.3-.3.5-.1.2-.1.4-.2.6 0 .2-.1.4-.1.6v1c0 .1.1.3.1.4.1.1.2.2.3.2.1 0 .2.1.4.1s.3 0 .5-.1c.1-.1.3-.2.4-.4.1-.1.2-.3.3-.5.1-.2.1-.4.2-.6s.1-.4.1-.6v-.5-.5c0-.1-.1-.3-.1-.4-.1 0-.2-.1-.3-.1zm0 1.3v.3c0 .1 0 .3-.1.4 0 .1-.1.3-.1.4s-.1.2-.1.3c-.1.1-.1.2-.2.3l-.2.2c-.1 0-.2.1-.3.1-.2 0-.3-.1-.3-.2-.1-.1-.1-.3-.1-.6v-.3-.4c0-.1 0-.2.1-.4 0-.1.1-.3.1-.4s.1-.2.1-.3c.1-.1.1-.2.2-.3l.2-.2c.1-.1.2-.1.3-.1.2 0 .3.1.3.2.1.1.1.3.1.6.1.2.1.3 0 .4zM101.1 111.1c.2 0 .3 0 .5-.1.1-.1.3-.2.4-.3.1-.1.2-.3.3-.5.1-.2.1-.4.2-.6s.1-.4.1-.6v-.5-.5c0-.1-.1-.3-.1-.4-.1-.1-.1-.2-.3-.2-.1-.1-.2-.1-.4-.1s-.3 0-.5.1c-.1.1-.3.2-.4.3-.1.1-.2.3-.3.5-.1.2-.1.4-.2.6s-.1.4-.1.6v1c0 .1.1.3.1.4.1.1.1.2.2.2.2 0 .4.1.5.1zm-.4-1.5v-.3c0-.1 0-.2.1-.4 0-.1.1-.3.1-.4s.1-.2.2-.3c.1-.1.1-.2.2-.3l.2-.2c.1 0 .2-.1.3-.1.2 0 .3.1.3.2.1.1.1.3.1.6v.6c0 .1-.1.3-.1.4s-.1.2-.1.4c0 .1-.1.2-.1.3-.1.1-.1.2-.2.3l-.2.2c-.1 0-.2.1-.3.1-.2 0-.3-.1-.3-.2-.1-.1-.1-.3-.1-.6-.1 0-.1-.1-.1-.3zM104 109.3c-.1.1-.2.1-.3.2-.1.1-.1.2-.2.3 0 .1-.1.3-.1.4v.3c0 .1.1.2.2.3.1.1.2.1.3.2.1.1.3.1.4.1.2 0 .3 0 .5-.1s.3-.1.4-.2.2-.2.3-.4c.1-.1.1-.3.1-.5v-.3c0-.1-.1-.1-.1-.2s-.1-.1-.2-.2c-.1 0-.1-.1-.2-.1.1 0 .2-.1.3-.1.1-.1.2-.1.3-.2.1-.1.1-.2.2-.3 0-.1.1-.2.1-.3 0-.1 0-.2-.1-.3 0-.1-.1-.2-.2-.3-.1-.1-.2-.1-.3-.2-.1 0-.3-.1-.4-.1-.2 0-.3 0-.4.1-.1 0-.3.1-.4.2l-.3.3c-.1.1-.1.3-.1.4v.3c0 .1.1.1.1.2s.1.1.1.2c.1 0 .1.1.2.1 0 .1-.1.2-.2.2zm.3-.9c0-.1 0-.2.1-.3 0-.1.1-.2.1-.2.1-.1.1-.1.2-.1h.3c.2 0 .3.1.4.2s.1.2.1.4c0 .1 0 .2-.1.3 0 .1-.1.2-.2.2l-.2.2c-.1 0-.2.1-.3.1-.1 0-.1-.1-.2-.1s-.1-.1-.1-.1-.1-.1-.1-.2v-.4zm.1 1.1c.1 0 .2-.1.3-.1.1 0 .2 0 .2.1.1 0 .1.1.2.1 0 0 .1.1.1.2v.2c0 .1 0 .2-.1.3 0 .1-.1.2-.2.2-.1.1-.2.1-.3.2-.1 0-.2.1-.3 0-.2 0-.3-.1-.4-.2s-.1-.2-.1-.4c0-.1 0-.2.1-.3 0-.1.1-.2.2-.3.1.1.2 0 .3 0z"/><ellipse cx="21.6" cy="109.6" rx=".5" ry=".5"/><ellipse cx="25" cy="109.6" rx=".5" ry=".5"/><ellipse cx="28.4" cy="109.6" rx=".5" ry=".5"/><ellipse cx="31.8" cy="109.6" rx=".5" ry=".5"/><ellipse cx="35.2" cy="109.6" rx=".5" ry=".5"/><ellipse cx="38.6" cy="109.6" rx=".5" ry=".5"/><ellipse cx="42" cy="109.6" rx=".5" ry=".5"/><ellipse cx="45.4" cy="109.6" rx=".5" ry=".5"/><ellipse cx="48.8" cy="109.6" rx=".5" ry=".5"/><ellipse cx="52.2" cy="109.6" rx=".5" ry=".5"/><ellipse cx="55.6" cy="109.6" rx=".5" ry=".5"/><ellipse cx="59" cy="109.6" rx=".5" ry=".5"/><ellipse cx="62.4" cy="109.6" rx=".5" ry=".5"/><ellipse cx="65.8" cy="109.6" rx=".5" ry=".5"/><ellipse cx="69.2" cy="109.6" rx=".5" ry=".5"/><ellipse cx="72.6" cy="109.6" rx=".5" ry=".5"/><ellipse cx="76" cy="109.6" rx=".5" ry=".5"/><ellipse cx="109.4" cy="109.6" rx=".5" ry=".5"/><ellipse cx="112.8" cy="109.6" rx=".5" ry=".5"/><ellipse cx="116.2" cy="109.6" rx=".5" ry=".5"/><ellipse cx="119.6" cy="109.6" rx=".5" ry=".5"/><ellipse cx="123" cy="109.6" rx=".5" ry=".5"/><ellipse cx="126.4" cy="109.6" rx=".5" ry=".5"/><ellipse cx="129.8" cy="109.6" rx=".5" ry=".5"/><ellipse cx="133.2" cy="109.6" rx=".5" ry=".5"/><ellipse cx="136.6" cy="109.6" rx=".5" ry=".5"/><ellipse cx="140" cy="109.6" rx=".5" ry=".5"/><ellipse cx="143.4" cy="109.6" rx=".5" ry=".5"/><ellipse cx="146.8" cy="109.6" rx=".5" ry=".5"/><ellipse cx="150.2" cy="109.6" rx=".5" ry=".5"/><ellipse cx="153.6" cy="109.6" rx=".5" ry=".5"/><ellipse cx="156.9" cy="109.6" rx=".5" ry=".5"/><ellipse cx="160.3" cy="109.6" rx=".5" ry=".5"/><ellipse cx="163.7" cy="109.6" rx=".5" ry=".5"/><path d="M43.3 119.8h-1.8V118h1.8l.3-.7h-2.9v5.8h.8v-2.6h1.8zM48.5 123.1h.8l-2.2-5.8h-.6l-2.1 5.8h.8l.5-1.5h2.2l.6 1.5zM46 121l.5-1.5c.2-.5.3-.8.3-1 .1.2.2.5.3 1l.5 1.5H46zM51 123.1h1.6c1.3 0 1.9-.7 1.9-1.7 0-.7-.4-1.3-1.1-1.4.4-.2.7-.7.7-1.2 0-.8-.5-1.5-1.7-1.5H51v5.8zm.7-5.1h.6c.7 0 1 .4 1 .9 0 .6-.4.9-1 .9h-.6V118zm0 2.5h.9c.7 0 1.1.4 1.1 1 0 .7-.5 1-1.2 1h-.8v-2zM56.7 120.7h.6c.2 0 .4.3.6.8l.9 1.6h.9l-1-1.7c-.3-.5-.5-.8-.7-.9.7-.2 1.1-.7 1.1-1.5 0-.5-.2-1-.7-1.3-.3-.2-.7-.3-1.2-.3H56v5.8h.8l-.1-2.5zm0-2.7h.5c.4 0 .6.1.8.2.2.2.4.5.4.8 0 .4-.2.7-.5.9-.2.1-.4.2-.7.2h-.5V118zM61.1 117.3h.8v5.8h-.8zM66.2 117.3c-1.6 0-2.7 1.2-2.7 3 0 1.5.8 2.6 2 2.9.5.8 1.2 1.4 2.2 1.4.3 0 .6-.1.9-.2l-.2-.6c-.1.1-.4.1-.6.1-.5 0-.9-.2-1.3-.7 1.5-.1 2.5-1.2 2.5-2.9-.1-1.8-1.2-3-2.8-3zm0 5.2c-1.2 0-2-.9-2-2.3s.8-2.3 2-2.3 1.9 1 1.9 2.3c0 1.5-.8 2.3-1.9 2.3zM74.6 122c.1-.3.2-.6.2-1v-3.7H74v3.6c0 .3 0 .6-.1.8-.2.5-.6.8-1.3.8-.7 0-1.1-.3-1.3-.8-.1-.2-.1-.5-.1-.8v-3.6h-.8v3.7c0 .4.1.7.2 1 .3.8 1 1.2 2 1.2s1.7-.4 2-1.2zM79.1 118l.3-.7h-2.8v5.8h2.8v-.6h-2.1v-2h1.8v-.7h-1.8V118zM83.3 117.3v5.8h1.4c2 0 3-1.2 3-2.9s-1-2.9-3-2.9h-1.4zm3.7 2.9c0 1.2-.6 2.3-2.2 2.3h-.7V118h.7c1.5 0 2.2.9 2.2 2.2zM92.6 122.5h-2.1v-2h1.8v-.7h-1.8V118h1.9l.2-.7h-2.8v5.8h2.8zM99 123.2c.5 0 1.1-.1 1.6-.4l-.2-.6c-.4.2-.8.4-1.3.4-1.2 0-2-.9-2-2.3 0-1.3.8-2.3 2-2.3.6 0 1 .1 1.4.4v-.7c-.3-.2-.8-.3-1.4-.3-1.7 0-2.8 1.3-2.8 3 0 1.6 1 2.8 2.7 2.8zM106.5 123.1v-5.8h-.8v2.5h-2.9v-2.5h-.7v5.8h.7v-2.6h2.9v2.6zM110.8 117.3c-1.6 0-2.7 1.2-2.7 3s1.2 3 2.7 3c1.6 0 2.7-1.2 2.7-3s-1.1-3-2.7-3zm0 5.2c-1.2 0-2-.9-2-2.3s.8-2.3 2-2.3 1.9 1 1.9 2.3c.1 1.5-.7 2.3-1.9 2.3zM119.2 122.8l-.2-.6c-.4.2-.8.4-1.3.4-1.2 0-2-.9-2-2.3 0-1.3.8-2.3 2-2.3.6 0 1 .1 1.4.4v-.7c-.3-.2-.8-.3-1.4-.3-1.7 0-2.8 1.3-2.8 3s1 2.9 2.7 2.9c.5-.1 1-.2 1.6-.5zM123.1 117.3c-1.6 0-2.7 1.2-2.7 3s1.2 3 2.7 3c1.6 0 2.7-1.2 2.7-3 .1-1.8-1.1-3-2.7-3zm0 5.2c-1.2 0-2-.9-2-2.3s.8-2.3 2-2.3 1.9 1 1.9 2.3c.1 1.5-.7 2.3-1.9 2.3zM127.5 117.3v5.8h2.7v-.6h-2v-5.2zM135.8 123.1l-2.2-5.8h-.6l-2.1 5.8h.8l.5-1.5h2.2l.5 1.5h.9zm-3.3-2.1l.5-1.5c.2-.5.3-.8.3-1 .1.2.2.5.3 1l.5 1.5h-1.6zM136.5 117.3v.7h1.6v5.1h.8V118h1.5l.2-.7zM144.4 118l.2-.7h-2.8v5.8h2.8v-.6h-2.1v-2h1.9v-.7h-1.9V118zM74.5 135.9h-1.8v-6.5h-1.2v7.5h3zM78.7 130.5v-1.1h-3.1v7.5h3.1v-1h-2v-2.3h1.6v-1h-1.6v-2.1zM85.6 135.1v-.6c0-.8-.2-1.4-.9-1.6.5-.2.7-.7.7-1.5v-.3c0-1.2-.5-1.7-1.7-1.7H82v7.6h1.8c1.2-.1 1.8-.7 1.8-1.9zm-2.4-4.6h.6c.4 0 .6.2.6.8v.4c0 .6-.3.8-.7.8h-.4l-.1-2zm1.2 4.6c0 .6-.2.7-.6.7h-.7v-2.3h.5c.5 0 .7.2.7.9l.1.7zM90.1 135.1v-3.9c0-1.2-.6-1.9-1.7-1.9s-1.7.7-1.7 1.9v3.9c0 1.2.6 1.9 1.7 1.9s1.7-.7 1.7-1.9zm-1.1.1c0 .5-.2.7-.6.7s-.6-.2-.6-.7v-4.1c0-.5.2-.7.6-.7s.6.2.6.7v4.1zM95 129.4h-1v4.5l-1.2-4.5h-1.4v7.5h1v-5.4l1.4 5.4H95zM98.8 136.9h1.2v-7.5h-1.2v3.2h-1.3v-3.2h-1.1v7.5h1.1v-3.2h1.3zM104.4 135.9h-1.9v-2.3h1.5v-1h-1.5v-2.1h1.9v-1.1h-3.1v7.5h3.1zM107.3 137c1.1 0 1.7-.7 1.7-1.9v-5.8h-1.1v5.8c0 .5-.2.7-.6.7s-.6-.2-.6-.7v-5.8h-1.1v5.8c0 1.2.6 1.9 1.7 1.9zM113.7 131.7v-.6c0-1.2-.5-1.7-1.7-1.7h-1.7v7.6h1.1v-3.1h.4c.5 0 .7.3.7 1v1.2c0 .6 0 .7.1.9h1.2c-.1-.3-.1-.6-.1-.9v-1.2c0-.8-.2-1.4-.8-1.6.6-.3.8-.8.8-1.6zm-1.1.3c0 .6-.3.8-.7.8h-.4v-2.3h.6c.4 0 .6.2.6.8l-.1.7zM134.5 131.7c0-.5-.1-1-.6-1.2-1-.6-2.1.3-2.1.3 1-.5 1.6-.1 1.9 0 .3.2.5.6.4.9 0 .3-.3.6-.6.8-1.2.6-4 .2-5.6-.7.1-.5.2-1 .1-1.4 0-.4-.3-.9-.7-1-.3-.1-.7 0-.9.2-.1.2-.3.7.1 1.5.2.3.5.6.9.9-.7 1.7-2.8 2.4-4.6 2.6-4.8.6-6-1.3-6-1.3 0 .1.9 1.8 4.6 1.8.5 0 1.1 0 1.7-.1 3.1-.4 4.3-1.6 4.8-2.8 1.7.9 4.4 1.5 5.7.9.4-.4.9-1 .9-1.4zm-6.9-.2c-.3-.2-.5-.4-.6-.7-.2-.4-.2-.7-.1-.9.1-.1.2-.1.3-.1h.2c.1 0 .4.1.4.5-.1.4-.1.8-.2 1.2zM68.6 133.1s-1.2 1.8-6 1.3c-1.8-.2-3.9-.9-4.6-2.6.4-.3.7-.6.9-.9.4-.8.3-1.3.1-1.5s-.6-.3-.9-.2c-.4.1-.7.6-.7 1 0 .5 0 1 .1 1.4-1.6.9-4.3 1.3-5.6.7-.4-.2-.6-.4-.6-.8 0-.3.1-.6.4-.9.2-.2.9-.5 1.9 0 0 0-1.1-.9-2.1-.3-.4.3-.6.8-.6 1.2 0 .5.5 1 1 1.3 1.4.6 4 .1 5.7-.9.5 1.3 1.7 2.5 4.8 2.8.6.3 1.1.3 1.6.3 3.7 0 4.6-1.8 4.6-1.9zm-10.9-2.8c0-.3.3-.5.4-.5h.2c.1 0 .2 0 .3.1.1.2.1.5-.1.9-.1.2-.3.5-.6.7-.2-.4-.2-.8-.2-1.2zM116.7 53.9c-4.4 4.2-11.5 7.1-17.4 5.1 4 .6 8.6.6 11.5-2.3 1.3-1.3 1.6-3.9-.4-4.5-1.8-.6-2.3 1.5-1.9 2.8.1.2.5.1.5-.1l-.2-1.2c1.1-1 1.9-1.1 2.4-.3 1.2 1.7-.9 3.7-2.1 4.4-1.4.9-3.3 1-4.9 1.1-2.1.1-4.3-.1-6.3-.5-.1 0-.1-.1-.2-.1-.2-.1-.6.1-.4.3.1 0 .2.1.3.1h.1c5.3 2.6 11.7.8 16.4-2.2 2.8-1.8 5.2-4.2 7.5-6.6.8-.5 1.8-.6 2.6 0 .6.4.9 1.2.8 2-.2.8-1.5-.2-.9-.9.1-.1-.4 0-.4 0-.6.7.2 1.6 1 1.4 1-.2 1-1.2.6-2-.7-1.4-2-1.4-3.3-.8 1.8-1.8 3.5-3.6 5.4-5.1 1.3-1 2.8-2 4.5-2.2 1-.1 1.9.3 2.8.6.9.5 1.4 1.3 1.6 2.3v1.4c-.3 2.4-2.1 2.9-5.2 1.4 0-.2-.5-.1-.5.1.2 1.4 1.6 2.3 3.1 1.9 2-.7 3-2 3.2-4.2.3-3.5-4-4.4-6.4-3.5-5.5 1.8-9.9 7.9-13.8 11.6zM54.9 48.1c0-.2-.5-.1-.5.1-2.7 1.6-4.4 1.3-5-.9-.2-.7-.3-1.4-.1-2.1.2-2.3 2.7-2.9 4.3-2.8 1.5 0 2.8 1 4 1.8 2.2 1.6 4.2 3.5 6.1 5.4-1.2-.5-2.4-.4-3.3.8-.5.7-.6 2.2.5 2.1.7-.1 1.6-.8 1-1.6-.1-.1-.5.1-.4.2.5.7-.6 1.6-.9.7-.3-.7.3-1.5.8-2 1-.9 2.7.1 3.5.9 1.8 1.8 3.6 3.6 5.5 5.2 4.6 3.7 11.8 5.6 17.3 2.9h.1c.1 0 .1-.1.2-.1s.1-.1.2-.1c.3-.2 0-.4-.2-.2-.1 0-.1.1-.2.1h-.1c-1.9.4-3.8.5-5.7.5-1.7 0-3.5-.2-5.1-.9-1-.4-1.7-1.2-2.4-2.1-.5-.7-.6-1.5-.4-2.3.5-1.3 1.3-.9 2.3 1.3-.1.3.4.3.5.1 1.3-4.1-5.1-3-2.8 1.2 2.1 3.9 8.3 3.5 12.3 2.8-5.2 1.9-11.3-.3-15.6-3.4-5.4-3.8-9.4-11.2-15.9-13.4-2.7-.9-5.9.7-6.2 3.7-.4 3.5 5.5 6.2 6.2 2.1zM93.1 46.9c0-.3-.3-.3-.4-.5-.3.3.1.8.4.5zM106.7 7.3c-.3-1.7-2.1-1.8-2.6-3.3-.9 2.3 1.8 2.2 2.6 3.3zM100.6 6c-.3.6-.7 1.1-.9 1.8.7 0 1.6-1.2.9-1.8zM104.1 8.8c-.5-.7-.3-2.1-1.1-2.6-.3 1 .2 2.4 1.1 2.6zM106.2 7.5c-1.2.3-1.3-.5-2.1-.7-.1 1.2.5 1.7 1.4 1.8.3-.2.7-.5.7-1.1zM74.7 39.3c.4 1 0 2.7.8 3.3.4-.8 0-1.7.3-2.7-.5-.2-.6-.6-1.1-.6zM84.6 40.7c.4 1.3 2.5 1.5 3.7 1.5-.6-1.2-2.2-1.3-3.7-1.5zM79.6 42.2c-.4-.2-.7-.6-1.1-.8 0 .6.7 1.5 1.1.8zM107.7 41.8c-.2 0-.2-.2-.4-.1-.1.5-.8.4-.8 1 .1.2.3.2.5.3.4-.4.7-.7.7-1.2zM77.7 44.3c.3-.1.3-.6.3-1.1-.9.4-1.2-1-1.4-.4.1.7.4 1.3 1.1 1.5zM82.7 45c-.6-.6-1.1-1.4-1.6-2.2-1.3-.5-3.2 1-2.2 1.9.2-1.3 1.4-1.2 2.5-1-.1.5.4.8.1 1.1-.5-.2-.8-.7-1.4-.8-.3.1-.5.4-.4 1 1-.2.7 1.1 1.2 1.5.4-.1.1-.9.4-1.1h.4c.1.9-.3 1.4-.9 1.6-.3-.1-.2-.4-.7-.3-.4.1-.7.9-.4 1.4.5.1.6-.4 1.2-.3-.2.5-.9.6-1.7.5.4 1.5 2.3 0 2.6-.7 1.3.7 1 3.3 2.8 3.5-1.9-1.6-1.6-5.9-.3-8-.5-.1-.4.3-.8.3.1-.2.2-.2 0-.4-.4.1-.7.3-.7.8.3.1.5-.6.7-.1-.5.3-.5 1-.8 1.3zM103.9 44.7c.2-.7.7-1.1.8-1.9-.7-.1-.7.6-1.1 1-.8-.3-.8 0-1.7-.4.4 1.3 1.3 2 1 3.8.2.3.7-.3.8.3-.3 1.1-.7 2.1-.9 3.4 1.1-.4.5-2.5 1.8-2.7.3.9 1.6 1.5 2.8 1.1.1-.6-.6-.3-.5-.8h.5c.1-1.2.7-1.3.8-2.2.1-1.6-1.7-3.9-3.3-2.9-.1.4-.1.4 0 .8-.8 0-.7.9-1.2 1.2-.3-.3-.8-1.1-.7-1.4.5.2.6.6.9.7zM70.6 44.5c.3.1.5.4.9.4-.2-.6 0-.6.1-1.1-.4-.2-.7-.4-1.3-.4.2.4.6.5.3 1.1z"/><path d="M74 43.7c-.3.7-1.5.5-1.8 1.1.3.7.9.1 1.6.1.2.4.3 1.1.8 1.2.1-.5-.1-1 .4-1.4.5.2.8-.4 1.1 0-.2.8-.6.3-1.2.3-.1.7.2 1 .7 1.1.5 0 .5-.4.9-.4.5.5.7 1.3 1.6 1.5-.8-1.1-.6-3.2-1.8-3.8-.5.4-1.3.4-1.8.7-.3-.2-.2-.5-.5-.4zM85.5 47.3c.8.4 1.5.9 2.2 1.4.7-.2 1-.8 1.6-1.2 0 1.3-.9 1.8-.8 2.6h-.2c0 .1.1.3.1.3-.5 0-.3-.5-.6-.7-.6.1-1.4.1-1.6-.5.3 0 .5.2.9.1-.5-1-1.7-1.4-2.6-1.5-.4 2.4 1.5 2.9 3.2 2.7-.2.7-1.4.4-1.6 1.1.4.2 1.3 0 1.7-.3.7 1.2 2.6.8 3.5 0 .3.5 1.9 1.3 2.2.5-.8-.4-1.5-.9-2.4-1.2-.6.3-1.9 1.2-2.5.3 2.4-.2 2.7-2.6 3.3-4.7h.2c0-.5.5-.4.5-.8-.2-.1-.3-.1-.5 0 .1-.3.3-.6.5-.9-.5-.4-.6.5-1.2.5 0-.2 0-.4-.1-.5-1.3.3-.9-1.1-2-1.1 1.1 1.5 2.3 5.6-.3 6.4 0-.2-.2-.2-.3-.4 2.6-.8 1-3.3-.1-4.6.2 0 .7.1.5-.3 0-.3-.4-.3-.4-.5-.7.1-1.5.1-1.7.7.3.6 1.6.2 1.4 1.2-.5-.3-1.4-.2-2-.4-.2.4-.1 1.3-.3 1.4-.3-.2.1-1.1-.3-1.2.2-.4 1.1-.6.8-1.1-.6-.9-1.2.6-1.7.3-.1-.5.4-.6.3-1.1-.6-.2-.9.9-1.2 1.4 1.4.1 1.3 1.3 1.5 2.1z"/><path d="M95.9 43.7c-.1.5.5.3.4.8-.2 0-.1.5-.4.4-.5.1-.6-.2-1.1-.1-.4.5.6.8.3 1.1 0-.2-.3-.1-.5-.1.6.8.7 2.3-.3 2.9V48c-.7-.1-.9.3-1 .8-.3 0-.2-.5-.7-.4-.2.4-.5.8-.5 1.4.7.3.9 1.1 1.8 1.1.1-.7-.5-.6-.4-1.2.8 0 .8.7 1 1.2-.1.5-.4.6-.5 1.1.7.3 1.2.2 1.7-.1.5.7 2.3.5 2.9 0 .3.5 1.6.6 2.2.3 0-.8-1.1-.6-1.3-1.2 1-.2 2-.3 2.2-1.2-.2-.2-.4-.3-.4-.7 1.1-.6.3-2.4.9-3.3-.4-.6-.7-1.3-1.5-1.5-.4.3.3.9-.1 1.1-.5-.2-.8-.7-1.3-.4-.1.8.8.6.9 1.4.1.8-.5 1.8-1.3 1.6.7-.5 1.1-1.1.8-2-.5.2-1.4.3-2 .1.3-.4.6-.8 1.3-.7.2-.9-1.3-.8-1.6-.8-.4.4.1.6.1 1-1.8.9-.3 3.5 1.4 3.5.8-.7 1.8-1.2 2.1-2.5.6 1.4-.5 2.2-1.4 2.5-.2.4 0 .5 0 1-.2.2-.8.1-1.2.1-.1.3-.1.7-.4.8-.2-.2-.1-.8-.1-1.2-.7-.2-.5.6-1.1.5-2-1.5-1.1-4.9.1-6.5-.2.3-.6-.5-1-.1zM71 42.2c0 1.1.8 1.3 1.4 1.8.8-.2 1.4-.6 2.1-.7-.1-1.5-1.3-3-.9-4.2-.6-1.8-3.3-.7-2.2 1.2.5-.1.9-1.2 1.4-.8-.1.8-1.1.7-1.2 1.6.2.4.7.5.9.8.1-.1 0-.5.4-.4 1.2 1.7-1 1.5-1.9.7zM110 46.1c.1.4.9.4 1 .4 0 .5-.8.6-.4 1.1 1.2-.1 1.3-1.3 1.7-2.2.4-.3.7.3 1.1.4.3-.2.4-.6.5-1-1.3-.5-2.3-.6-3.4-1.1.1-.5.4-1 .8-1.2.1-.9-.4-1.6.5-1.6-.1 1 .3 1.7 0 2.5.5.6 1.6 1 2.4.5.7-1.7.1-3.4-1.3-4.1-.6-.1-.5.6-1.2.4.6-1.7 2.1-.2 3 .1.4-.6-.3-1.2-.5-1.6-2.1-.4-2.8.6-4.1 1.1 0 .6.6 1.4 0 1.8-.1-.3-.2-.7-.4-1-.4-.1-.3.4-.8.3 0 .9-.3 1.5-.5 2.2.8-.1.6-1.2 1.1-1.6 1 2.2-.7 4.2-1.3 6.1 1 0 .9-1.2 1.8-1.5zM116.4 20.6c.7.2.4-.7.8-.8 1.1-.3 2-.3 2.8.3-.5-1.1-.2-1.4-.2-2.5-.9 0-1.7-.1-2.1.4-.1.4.4.3.3.7-.9.4-1.5.9-1.6 1.9zM68.1 19.9c.4.2.1 1 .8.8-.2-1-.7-1.5-1.5-1.9-.1-.4.4-.3.3-.7-.4-.4-1.2-.4-2.1-.4-.1 1.1.2 1.4-.2 2.5.7-.6 1.5-.6 2.7-.3zM87.1 8.6c-.3.5.7 1 1 1 .4 0 .6-.1.9-.3s.7-.6 1-.5c0 0 .1 0 .1-.1-.1-.3-.8 0-1 .1-.3.1-.6.2-1 .2-.4.1-.6-.3-1-.4zM104.4 19.4c-1.4.4-3.1.2-4.1 1.1.1.1.2.1.2.2.1.1.2.1.3.1.1 0 .2.2.1.3.3.6 1 .5 1.6.4h.2c.3-.1.2-.6-.1-.6H101.4v-.1c.7-.9 2.9-.1 3-1.4zM85.4 10.1c0 .6.5.6 1 .7 0-.5-.5-.6-1-.7zM85.6 14.1c-.5-.5-2-1.2-2.8-.8-.5.2-.7.9-.4 1.5.3-.4.7-.4.8-.1-.1.3-.4.4-.4.8.3-.1.3-.1.4-.1.2 0 .3-.1.4.1 0 0 .2.4.6.2.1-.7.5-.4.9-.5 0-.9-1.3-.5-1.7-.8 0-.5 1.7-.4 2.2-.3zM83.9 3.5c-.8-.2-.9-1.2-1.7-1.4.3.7 1.1 1.5 1.7 1.4zM102.9 14.1c.6-.2 1.2-.5 1.7-.8-.5-.8-1.7 0-1.7.8zM105.2 14c-2.1-.5-3.1 2-.5 1.4.2-.2-.1-.4-.1-.7.2-.2.6-.2.6-.7zM120.2 6.4c-.5.5-1 .8-1.3 1.5.3.3.2.9.8 1 .1-.8.6-1.9.5-2.5zM84.9 6c-.5-1.1-2-2.2-2.9-3.3.5 1.6 1.8 2.4 2.9 3.3zM97.1 2.8c1 0 2.1-.9 3-.9-.7-.5-2.8.2-3 .9zM84.3 3.2c.7.5 1.6.8 2.4.6.1 0 .1-.1 0-.1-.1-.1-.3-.1-.4-.1-.3-.2-.5-.4-.6-.8-.1-.3-.2-.5-.3-.7-.1-.1-.1-.2-.2-.2.2 0 .5.1.8.2.8.3 1.7.6 2.4 1.1-1.1-1.1-2.5-1.5-3.9-1.9-.2-.1-.4-.2-.6-.2.3.2.5.4.7.7s.3.6.5.9v.1c-.2-.2-.5-.3-.7-.5-.5-.4-1.1-.8-1.7-1.1.5.8.9 1.5 1.6 2zM90.2 20.3c.2-.2.3-.4.5-.7 0 0 0-.1-.1-.1-.2.1-.4.2-.5.4-.2.2-.4.2-.5.5 0 .1 0 .2.1.2.2 0 .4-.2.5-.3zM105.6 13.4c.6.8-.3.7-.3 1.6 1.1 0 1.4-2 .3-1.6zM84.8 6.6c-.5-.6-.8-1.3-1.6-1.4.3.6 1.1 1.4 1.6 1.4z"/><path d="M91.7 9.1c-.1 0-.1-.1 0 0-.3-.3-.7-.5-1.1-.4v.1c.2.1.4.2.5.4 0 0 0 .1.1.1.1.2.2.4.2.6v.1c-.5-.5-1.3-.9-1.7-.2 1.4.3 2 2 2.2 3.2.1.5 0 1.1-.1 1.7 0 .1.1.1.1 0 .3-.4.5-1.1.6-1.7.1.3.1.8.2 1.2-.1.2-.2.5-.3.7-.3.7-.6 1.3-1 1.9 0-.1 0-.2-.1-.4-.6-.3-1 1.1-1.4.7 0-.5.9-.8.7-1.5-.3-.2-.6.3-.7 0 .6-.3 1.6-2.1.4-2.6-.3.3.1 1.3-.5 1.2-.3-.5-.3-1.8-.9-1.9-.4 2.7-.3 3.1-.4 5.4 0 1.5-.5 1.7-1.1 2.5.7-.5 1.7-1.5 2.9-2.1.1 0 .3 0 .2.2-.5.6-.9.6-1.3 1.4.5.3 1.8-1.5 2.1-1.2.1.2.1.3.1.5-.1.8-.5 1.7-1.7 3-.4.4-1.6.9-2.1 1.4-.5.4-1.7 2.8-1.9 3.2-.6 1.1-.8 2.3-1.5 3.3-.1.1 1.5.4 2-.1.9-.7-.7-1.5 0-2.3.6-.7 1.5-1.1 2-1.9.3-.4.9-2.1 1.4-2.8.3-.5 1.5-1.5 2-2.2.2-.2.8-2.4.9-1.4.1.8-.5 2.5-1.2 3.5s-1.1 2.1-1.5 4.3c-.3 1.4-1.7 3.8-1.7 3.9-.5 1.8.2 2.1.4 4 .1.4.9.1.9.7-1 0-1.1 2.1-2.4 2.3-1.8-.7-2.5-3.2-2.1-5.7-1.4.4-2.7 1.9-3 3.8.2.2.7.1 1 .1 1.2 2 3.8 2.6 6 3.4-2.9-.3-5-1.5-7.2-2.4.6 1.5 2.6 1.5 3.7 2.4-.4 0-.8-.4-.9.1 1.3.5 3.7.8 4.9.7 1.7-.2 4 .3 5.3-.7-2.3.2-3.5-.7-4.6-1.8.3-.2-.1-1.2.5-1.1.2.2 0 .9.3 1.1.6.2.2-.6.7-.5-.2.7-.4 1 .1 1.5 1.5-.5 3.5 0 4.7-1-.6-.3-1.6 0-2.2.1-.1-.2-.4-.3-.3-.8.9-.2 1.4-.7 1.7-1.4-.3-.3-1.1.3-1.4-.1.2-.3.3-.7.1-1.1h-.9c-.2-1-.6-1.8-1.3-2.3-.2-.9.6-1.9 1-2.2l.9-.6c2.1-1.4 3.3-1.9 4.1-3.9.2.1.5.3.7.3-.2-2.3-3.7-2.3-2.7-6.5.8 1.3 2.4 2.9 3.2 3.1-3.1-3.6-2.4-4.6-1.5-5.5.3-.4-.6-.6 0-.6.8-.1 1-.6 2-.4.6 1.1-.1 3.5 1.1 3.8.3-.4.6-.7.6-1.6-.1-.2-1.1 0-.7-1 .8-1.9.1-3.6-1.4-4-.9.3-2.3.9-3.1 1.7.7-1.3 1-2.7 1-3.8-.2.3-.6.6-.9.6-.5.1-.9-.1-1.1-.5V11c.2.1.4.1.7.1.3-.1.6-.2.8-.7 1.1-2.6 2.6-2.5 3.4-4.3-.5.3-1.6.6-2.2.3.2-.2.4-.3.5-.4.9-.7 1.7-1.3 2.3-2.4.1-.1-.1-.2-.1-.1l-.6.3c-.2.1-.3.2-.5.3-.1.1-.3.2-.4.3-.2.1-.4.2-.6.1.5-.8 1.3-1.3 2.1-2-1.7-.3-2.1 1.6-3.1 2.4-.5.7-1.2 1.3-1.9 1.1v-.1c.4-.5.9-.9 1.4-1.4l.3-.3c-.4 0-.2-.1-.1-.2l.6-.6c0-.1.1-.2.1-.2-1.2.2-1.5 2-2.7 1.9.1-.8.9-.8.9-1.6-2.1.8-2 4-3.2 5.4.2 0 .4-.1.6-.2 0 .2-.1.3-.1.5s0 .3-.1.5c0 .1-.1.2-.1.2-1.5-1.8-1.6-5.7-4.2-5.9 1.3 1.2 2.2 2.9 2.6 5.1.1 0 0 0 0 0zM66.7 7.5c-1-1-2-2.1-3.3-1.9-.8.1-1.6.2-1.7 1.3.9-.1 2.2.3 2.4.8-1 1.6-.2 3.4.8 4.4-.4.2-1.1.1-.9.8.6.3 1.1-.4 1.8-.4 0-.9-.8-1.6-.6-2.7 0-1.1.9-1.6 1.5-2.3zM68.6 6.1c.6.9 1.1 2 1.8 2.8.3.3.7.5 1.2.5.1 0 .2.1.3.1.1 0 .2 0 .2-.1l.6-.3.3-.3v-.1h.1c.1 0 0-.1 0-.1-.7 0-1.3-.6-1.8-1-.4-.3-.7-.6-1.1-.9-.2-.4-.5-.8-.8-1.2-1-.9-2.4-1.9-3.8-1.4v.1h-.2v.1c1.4 0 2.4.8 3.2 1.8zM81.2 17.6c-.4.1-.4.1-.2.6.2 0 .4 0 .5-.1 0-.4-.1-.6-.3-.5zM31.3 46.2h.1c.2 0 .3-.2.3-.5 0-.2-.2-.3-.4-.3s-.3.2-.3.5c-.1.2.1.3.3.3zM6.1 83.4c0 .2.1.4.3.4.2 0 .4-.2.4-.4v-.1c0-.2-.1-.4-.3-.4-.2.1-.4.2-.4.5zM32.2 131.7c.1 0 .1 0 0 0 .3 0 .4-.1.5-.3 0-.2-.1-.4-.3-.5-.2 0-.4.1-.4.3-.2.3 0 .5.2.5zM9.3 70.3c-.1.2 0 .5.2.6h.2c.1 0 .3-.1.3-.2.1-.2 0-.4-.2-.5-.2-.2-.4-.1-.5.1zM10.2 69.7c.1 0 .3-.1.3-.2.1-.2 0-.4-.2-.5s-.4 0-.5.2c-.1.2 0 .4.2.5h.2zM34.8 131.6c-.2-.1-.4.1-.5.3s.1.4.3.5h.1c.2 0 .3-.1.4-.3.1-.2 0-.4-.3-.5zM34.6 45.1c.3-.1.4-.3.3-.5s-.3-.3-.5-.2c-.2.1-.3.3-.2.5.1.1.3.2.4.2zM6 84.7c0 .2.1.4.4.4.2 0 .4-.2.4-.4s-.1-.4-.3-.4c-.3 0-.5.1-.5.4zM33.4 45.5c.3-.1.4-.3.3-.5s-.3-.3-.5-.2c-.2.1-.3.3-.2.5.1.1.3.2.4.2zM32.3 45.9c.3-.1.4-.3.4-.5-.1-.2-.3-.3-.5-.3h-.1c-.2.1-.3.3-.3.5.2.2.4.3.5.3zM31 130.7c-.2 0-.4.1-.4.3s.1.4.3.4h.2c.2 0 .3-.1.4-.3-.1-.1-.2-.3-.5-.4zM6.6 79.3c0 .3.1.5.3.5H7c.2 0 .3-.1.4-.3v-.1c0-.2-.1-.4-.3-.4-.2 0-.4.1-.5.3zM6.4 80.6c0 .3.1.5.3.5h.1c.2 0 .3-.1.4-.3 0-.2-.1-.4-.3-.4-.3-.1-.5 0-.5.2zM6.9 78c-.1.3.1.5.3.5h.1c.2 0 .3-.1.4-.3 0-.2-.1-.4-.3-.5-.3 0-.5.1-.5.3zM8.8 71.6c-.1.2 0 .5.2.6h.1c.1 0 .3-.1.3-.2.1-.2 0-.4-.2-.5-.1-.2-.3-.1-.4.1zM6.2 82c0 .3.1.5.3.5.2 0 .3-.1.4-.3v-.1c0-.2-.1-.4-.3-.4-.2-.1-.4.1-.4.3zM7.9 74.1c-.1.2 0 .5.2.5h.1c.2 0 .3-.1.4-.3v-.1c.1-.2 0-.4-.2-.5-.2.1-.4.2-.5.4zM8.3 72.8c-.1.2 0 .5.2.5h.1c.2 0 .3-.1.3-.3v-.1c.1-.2 0-.4-.2-.5-.1.1-.3.2-.4.4zM7.2 76.7c-.1.3.1.5.3.5h.1c.2 0 .3-.1.4-.3.1-.2-.1-.4-.3-.5-.3 0-.5.1-.5.3zM7.5 75.4c-.1.3 0 .5.2.5h.1c.2 0 .3-.1.4-.3l-.3-.1.4.1c.1-.2-.1-.4-.2-.5-.3 0-.5.1-.6.3zM33.6 131.2c-.2 0-.4.1-.4.3s.1.4.3.5h.2c.2 0 .3-.1.4-.3-.2-.2-.3-.4-.5-.5zM49.5 31.2s.1 0 0 0c.2 0 .4-.1.4-.3 0-.2-.1-.4-.3-.4-.2 0-.4.1-.4.3-.1.2.1.4.3.4zM35.8 44.5h.2c.2-.1.3-.3.2-.5s-.3-.3-.5-.2c-.2.1-.3.3-.2.5 0 .2.2.2.3.2zM48.1 143.7c.1.1.2.2.3.2s.1 0 .2-.1c.2-.1.2-.4.1-.5-.1-.2-.3-.2-.5-.1-.2 0-.2.3-.1.5zM50.4 147c.3 0 .4-.2.4-.4s-.2-.4-.4-.4-.4.2-.4.4c0 .3.2.4.4.4zM49.3 146c.1.1.2.2.3.2h.2c.2-.1.3-.3.2-.5-.1-.2-.3-.3-.5-.2-.2 0-.3.3-.2.5 0-.1 0 0 0 0zM48.8 144.8c.1.1.2.2.3.2h.2c.2-.1.2-.3.1-.5s-.3-.2-.5-.1c-.2-.1-.3.2-.1.4zM47.2 32.5c-.1.2 0 .5.1.6h.2c.1 0 .3-.1.3-.2.1-.2 0-.4-.2-.5-.1-.1-.3-.1-.4.1zM46.7 33.6c-.1.2-.1.5.1.6.1 0 .1.1.2.1s.2-.1.3-.2c.1-.2 0-.4-.1-.5-.2-.2-.4-.2-.5 0zM46.7 140.9c-.2.1-.2.4-.1.5.1.1.2.2.3.2s.2 0 .2-.1c.2-.1.2-.4.1-.5-.1-.2-.4-.2-.5-.1zM47.4 142.6c.1.1.2.2.3.2s.2 0 .2-.1c.2-.1.2-.4.1-.5-.1-.2-.3-.2-.5-.1-.2 0-.2.3-.1.5zM48.6 30.2c-.2-.1-.4 0-.5.2-.1.2 0 .4.2.5h.1c.1 0 .3-.1.3-.2.2-.2.1-.4-.1-.5zM37.3 132.4c-.2-.1-.4 0-.5.2s0 .4.2.5h.1c.1 0 .3-.1.3-.2.2-.1.1-.4-.1-.5zM36.9 43.9h.2c.2-.1.2-.3.2-.5-.1-.2-.3-.3-.5-.2-.2.1-.2.3-.1.5 0 .2.1.2.2.2zM35.8 132.7h.2c.2 0 .3-.1.4-.3.1-.2 0-.4-.2-.5-.2-.1-.4 0-.5.2-.2.3-.1.5.1.6zM38.3 43.2c.2-.1.3-.4.2-.6-.1-.2-.3-.2-.5-.1s-.2.3-.1.5c.1.1.2.2.4.2-.2.1-.1.1 0 0zM52 31.3c.2 0 .4-.2.4-.4s-.2-.4-.4-.4h-.1c-.2 0-.4.2-.3.4.1.3.2.4.4.4zM51.6 146.2c-.2 0-.4.2-.4.4s.2.4.4.4h.1c.2 0 .4-.2.4-.4-.2-.2-.3-.4-.5-.4zM52.8 146.2c-.2 0-.4.2-.4.4s.2.4.4.4h.1c.2 0 .4-.2.4-.4s-.3-.4-.5-.4zM38.2 133.7c.1 0 .1.1.2.1s.3-.1.3-.2c.1-.2 0-.4-.2-.5-.2-.1-.4 0-.5.2-.1.1 0 .3.2.4zM53.1 31.2c.2 0 .4-.2.4-.4s-.2-.4-.4-.3H53c-.2 0-.3.2-.3.4 0 .1.2.3.4.3zM50.8 31.4c.2 0 .4-.2.4-.4s-.2-.4-.4-.4-.4.2-.4.4.1.4.4.4zM15.4 111.4c.1.1.2.1.3.1s.2 0 .3-.1.2-.4 0-.5c-.1-.2-.4-.2-.5 0-.2.1-.2.4-.1.5zM14.5 110.5s.1 0 0 0c.1.1.2.1.3.1s.2 0 .3-.1c.1-.2.1-.4 0-.5-.1-.2-.4-.2-.5 0-.2.1-.2.3-.1.5zM15.5 61.8c.1-.2.1-.4 0-.5-.2-.1-.4-.1-.5 0-.1.2-.1.4.1.5.1.1.2.1.2.1 0 .1.1 0 .2-.1zM16.4 60.8c.1-.2.1-.4 0-.5-.2-.1-.4-.1-.5 0-.1.2-.1.4 0 .5 0 .1.1.2.1.2.1 0 .3-.1.4-.2zM17.2 59.8c.1-.2.1-.4 0-.5-.2-.1-.4-.1-.5 0-.1.2-.1.4 0 .5s.2.1.2.1c.1.1.2 0 .3-.1zM16.3 112.4c.1.1.2.1.3.1.1 0 .2 0 .3-.1.1-.1.2-.4 0-.5-.1-.2-.4-.2-.5 0-.2.1-.2.3-.1.5zM14.6 62.8c.2-.2.1-.4 0-.6-.2-.1-.4-.1-.5 0-.1.2-.1.4.1.5.1.1.2.1.2.1 0 .2.2.1.2 0zM12.7 108.6c.1.1.2.1.3.1s.2 0 .3-.1.2-.4 0-.5c-.1-.2-.4-.2-.5 0-.2.1-.2.3-.1.5zM13.8 63.9c.2-.2.1-.4 0-.6-.2-.1-.4-.1-.5.1-.1.2-.1.4.1.5.1.1.1.1.2.1s.2 0 .2-.1zM13.6 109.6c.1.1.2.1.3.1s.2 0 .3-.1c.1-.2.1-.4 0-.5-.1-.2-.4-.2-.5 0-.3.1-.3.3-.1.5zM19.6 116.4c.1.1.2.2.3.2.1 0 .1 0 .2-.1.2-.1.2-.4.1-.5-.1-.2-.4-.2-.5-.1-.2.1-.2.3-.1.5zM20.2 55.9c.1 0 .2-.1.3-.1.1-.2.1-.4-.1-.5s-.4-.1-.5.1c-.1.2-.1.4.1.5h.2zM12.8 65.1c.1 0 .2-.1.3-.2.1-.2.1-.4-.1-.5-.2-.1-.4-.1-.5.1-.1.2-.1.4.1.5 0 .1.1.1.2.1zM20.7 54.2c-.1.2-.1.4.1.6.1.1.1.1.2.1s.2-.1.3-.2c.1-.2.1-.4-.1-.5-.1-.2-.3-.2-.5 0zM20.3 117.5c.1.1.2.2.3.2.1 0 .1 0 .2-.1.2-.1.2-.4.1-.5-.1-.2-.3-.2-.5-.1-.2 0-.2.3-.1.5zM19.7 56.8c.1-.2.1-.4-.1-.5s-.4-.1-.5.1c-.1.2-.1.4.1.5.1.1.2.1.2.1.1-.1.2-.1.3-.2zM18.1 58.8c.1-.2.1-.4 0-.5-.2-.1-.4-.1-.5 0-.1.2-.1.4 0 .5s.2.1.2.1c.1.1.2 0 .3-.1zM5.9 86.1c0 .2.2.4.4.4s.4-.2.4-.4-.2-.4-.4-.4c-.2-.1-.4.1-.4.4zM18.9 115.4c.1.1.2.1.3.1.1 0 .2 0 .2-.1.2-.1.2-.4.1-.5-.1-.2-.4-.2-.5-.1-.3.1-.3.4-.1.6zM18.1 114.4c.1.1.2.1.3.1.1 0 .2 0 .2-.1.2-.1.2-.4 0-.5-.1-.2-.4-.2-.5 0-.2 0-.2.2 0 .5zM18.9 57.8c.1-.2.1-.4 0-.5-.2-.1-.4-.1-.5 0-.1.2-.1.4.1.5.1.1.2.1.2.1 0 .1.1 0 .2-.1zM17.2 113.4c.1.1.2.1.3.1.1 0 .2 0 .2-.1.2-.1.2-.4 0-.5-.1-.2-.4-.2-.5 0-.1 0-.2.3 0 .5zM7 95.8c.3 0 .4-.2.4-.4v-.1c0-.2-.2-.4-.4-.3-.2 0-.3.2-.3.4s.1.4.3.4zM6.6 93.1c.2 0 .4-.2.4-.4v-.1c0-.2-.2-.4-.4-.3-.2 0-.3.2-.3.4v.1c0 .2.1.3.3.3zM7.4 99.4c0 .2.2.3.4.3h.1c.2 0 .3-.3.3-.5v-.1c0-.2-.3-.3-.4-.3-.3.1-.4.3-.4.6zM7.2 97.1s.1 0 0 0c.3 0 .4-.3.4-.5s-.2-.3-.4-.3-.3.2-.3.5v.1s.1.2.3.2zM7.1 98.1c0 .2.2.3.4.3h.1c.2 0 .3-.3.3-.5v-.1c0-.2-.2-.3-.4-.3-.3.1-.4.3-.4.6zM6.7 94.4c.1 0 .1 0 0 0 .3 0 .4-.2.4-.4v-.1c0-.2-.2-.4-.4-.3-.2 0-.3.2-.3.4 0 .3.2.4.3.4zM6.3 89.1c.2 0 .4-.2.4-.4h-.4.4c0-.2-.2-.4-.4-.4s-.4.2-.4.4v.1c.1.2.2.3.4.3zM11.9 107.6c.1.1.2.1.3.1s.2 0 .2-.1c.2-.1.2-.4 0-.5-.1-.2-.4-.2-.5 0-.2.1-.2.3 0 .5zM6.4 90.5c.2 0 .4-.2.4-.4s-.2-.4-.4-.4c-.2-.1-.4.1-.4.3v.1c0 .2.2.4.4.4zM6.5 91.8c.2 0 .4-.2.4-.4s-.2-.4-.4-.3c-.2 0-.4.2-.3.4v.1c-.1 0 .1.2.3.2zM5.9 87.4c0 .2.2.4.4.4s.4-.2.4-.4h-.4.4c0-.2-.2-.4-.4-.4s-.4.1-.4.4zM7.8 100.7c0 .2.2.3.4.3h.1c.2-.1.3-.3.2-.5v-.1c-.1-.2-.3-.3-.5-.3-.2.1-.3.3-.2.6zM11 106.6c.1.1.2.1.3.1s.2 0 .2-.1c.2-.1.2-.4.1-.5-.1-.2-.4-.2-.5 0-.2 0-.3.3-.1.5zM11.9 66.2c.1 0 .1.1.2.1s.2-.1.3-.2c.1-.2 0-.4-.1-.5-.2-.1-.4 0-.5.1-.1.2-.1.4.1.5zM11.1 68.3c.1-.2.1-.5-.1-.6-.2-.1-.4 0-.5.2-.1.2 0 .4.1.5h.2c.1.1.2.1.3-.1zM11.8 67.1c.1-.2 0-.4-.1-.5-.2-.1-.4 0-.5.1-.1.2 0 .4.1.5.1 0 .1.1.2.1 0 .1.2 0 .3-.2zM8.8 103.2c.1.1.2.2.3.2h.2c.2-.1.2-.3.2-.5-.1-.2-.3-.3-.5-.2-.3.1-.3.3-.2.5zM8.2 102c.1.1.2.2.3.2h.1c.2-.1.3-.3.2-.5-.1-.2-.3-.3-.5-.2-.1 0-.2.2-.1.5zM10.2 105.5c.1.1.2.2.3.2s.2 0 .2-.1c.2-.1.2-.4.1-.5-.1-.2-.4-.2-.5-.1-.2.1-.3.3-.1.5zM9.5 104.5c.1.1.2.2.3.2s.2 0 .2-.1c.2-.1.2-.4.1-.5-.1-.2-.4-.2-.5-.1-.3 0-.3.2-.1.5zM56.9 30.5c.3 0 .4-.3.4-.5s-.2-.3-.4-.3-.3.3-.3.5.1.3.3.3zM85.3 155.6c-.2 0-.4.1-.4.3s.1.4.3.4h.1c.2 0 .3-.1.4-.3 0-.2-.1-.4-.4-.4zM86.5 156.5c.1 0 .1 0 0 0 .3 0 .4-.1.5-.3 0-.2-.1-.4-.3-.4-.2 0-.4.1-.4.3-.2.2 0 .4.2.4zM83.9 156.1c.1 0 .1 0 0 0 .3 0 .4-.1.5-.3 0-.2-.1-.4-.3-.4-.2 0-.4.1-.4.3-.1.1 0 .3.2.4zM68.3 149.9c.1 0 .1.1.2.1s.3-.1.3-.2c.1-.2 0-.4-.2-.5-.2-.1-.4 0-.5.2-.1.1 0 .3.2.4zM81.4 155.5c.1 0 .1 0 0 0 .3 0 .4-.1.5-.3s-.1-.4-.3-.5h-.1c-.2-.1-.4.1-.5.3.1.2.2.4.4.5zM90.4 156c-.2 0-.4.2-.4.4s.2.4.4.4.4-.2.4-.4-.2-.4-.4-.4zM91.7 156c-.2 0-.4.2-.4.4s.2.4.4.4.4-.2.4-.4-.2-.4-.4-.4zM80.4 154.4c-.2-.1-.4.1-.5.3s0 .4.2.5h.2c.2 0 .3-.1.4-.3 0-.2-.1-.4-.3-.5zM89.1 156.7c.3 0 .4-.2.4-.4s-.1-.4-.3-.4h-.1c-.2 0-.4.2-.4.4s.2.4.4.4zM93 156c-.3 0-.4.2-.4.4s.2.4.4.4.4-.2.4-.4-.2-.4-.4-.4zM87.8 155.9c-.2 0-.4.1-.4.3s.1.4.3.4h.1c.2 0 .4-.2.4-.4 0-.1-.1-.3-.4-.3zM73.3 151.5c-.2-.1-.4 0-.5.2s0 .4.2.5h.2c.1 0 .3-.1.3-.2.1-.2 0-.4-.2-.5zM72.2 150.9c-.2-.1-.5 0-.5.2-.1.2 0 .4.2.5h.2c.1 0 .3-.1.3-.2 0-.2-.1-.4-.2-.5zM70.6 151c.1 0 .1.1.2.1s.3-.1.3-.2c.1-.2 0-.4-.2-.5-.2-.1-.4 0-.5.2 0 .1 0 .3.2.4zM69.5 150.4c.1 0 .1.1.2.1s.3-.1.3-.2c.1-.2 0-.4-.2-.5-.2-.1-.4 0-.5.2-.1.1 0 .3.2.4zM74.4 152c-.2-.1-.4 0-.5.2s0 .4.2.5h.2c.1 0 .3-.1.3-.2.1-.2.1-.4-.2-.5zM77.7 154.3h.2c.2 0 .3-.1.3-.3.1-.2 0-.4-.2-.5-.2-.1-.4 0-.5.2-.1.3 0 .5.2.6zM76.8 153.1c-.2-.1-.5 0-.5.2-.1.2 0 .4.2.5h.1c.1 0 .3-.1.3-.2.2-.2.1-.4-.1-.5zM75.3 153.3c.1 0 .1.1.2.1s.3-.1.3-.2c.1-.2 0-.4-.2-.5-.2-.1-.4 0-.5.2-.1 0 0 .3.2.4zM79.2 154c-.2-.1-.4 0-.5.2s0 .4.2.5h.1c.2 0 .3-.1.4-.3.1-.1 0-.3-.2-.4zM82.9 155.1c-.2-.1-.4.1-.5.3 0 .2.1.4.3.5h.1c.2 0 .3-.1.4-.3 0-.3-.1-.5-.3-.5zM110.4 153.1c.3-.1.4-.3.3-.5-.1-.2-.3-.3-.5-.2-.2.1-.3.3-.2.5.1.1.3.2.4.2zM111.6 152.5h.2c.2-.1.3-.3.2-.5-.1-.2-.3-.3-.5-.2-.2.1-.3.3-.2.5 0 .1.1.2.3.2zM106.8 153.8c-.2.1-.3.3-.3.5.1.2.2.3.3.3h.1c.2-.1.3-.3.2-.5.1-.3-.1-.4-.3-.3zM108 154.1c.3-.1.4-.3.3-.5-.1-.2-.3-.3-.5-.2-.2.1-.3.3-.2.5.1.1.3.2.4.2zM109.1 152.8c-.2.1-.3.3-.2.5.1.1.2.2.3.2h.1c.2-.1.3-.3.2-.5 0-.2-.2-.2-.4-.2zM112.6 151.2c-.2.1-.3.3-.2.5.1.1.2.2.3.2H113c.2-.1.3-.3.2-.5-.2-.2-.4-.3-.6-.2zM119.7 147.9c-.2.1-.3.3-.3.5.1.2.2.2.3.2h.1c.2-.1.3-.3.2-.5.1-.2-.1-.3-.3-.2zM118.5 148.4c-.2.1-.3.3-.2.5.1.1.2.2.3.2h.1c.2-.1.3-.3.2-.5 0-.2-.2-.3-.4-.2zM113.9 151.4h.2c.2-.1.3-.3.2-.5-.1-.2-.3-.3-.5-.2-.2.1-.3.3-.2.5 0 .1.2.2.3.2zM98.1 156.6c.3 0 .4-.2.4-.4s-.2-.4-.4-.3H98c-.2 0-.4.2-.3.4 0 .1.2.3.4.3zM99.3 155.7c-.2 0-.3.2-.3.4s.2.3.4.3.3-.2.3-.4-.1-.4-.4-.3zM94.2 156c-.2 0-.4.2-.4.4s.2.4.4.4.4-.2.4-.4-.1-.4-.4-.4zM96.8 156.7c.3 0 .4-.2.4-.4s-.2-.4-.4-.4-.4.2-.3.4c-.1.2.1.4.3.4zM95.6 156c-.3 0-.4.2-.4.4s.2.4.4.4.4-.2.4-.4c-.1-.3-.2-.4-.4-.4zM103.1 154.9c-.2.1-.4.3-.3.5 0 .2.2.3.4.3h.1c.2 0 .3-.3.3-.5-.1-.2-.3-.3-.5-.3zM100.6 156.2s.1 0 0 0c.3 0 .4-.2.4-.4s-.2-.3-.4-.3-.3.2-.3.4.1.3.3.3zM105.6 155c.3-.1.4-.3.3-.5-.1-.2-.3-.3-.5-.3h-.1c-.2.1-.3.3-.2.5.2.2.4.3.5.3zM104.3 154.6c-.2.1-.4.3-.3.5 0 .2.2.3.4.3h.2c.2-.1.3-.3.3-.5-.2-.3-.4-.4-.6-.3zM101.9 156c.3 0 .4-.2.4-.5 0-.2-.2-.3-.4-.3h-.1c-.2 0-.3.2-.3.5.1.2.2.3.4.3zM63 28.6c.3-.1.4-.3.3-.5s-.3-.3-.5-.2h-.1c-.2.1-.3.3-.2.5.2.1.4.2.5.2zM64.3 28c.3-.1.4-.3.3-.5-.1-.2-.3-.3-.5-.2H64c-.2.1-.3.3-.2.5.2.1.3.2.5.2zM41 40.3c-.2.2-.2.4-.1.6.1.1.2.1.3.1s.2 0 .2-.1c.2-.1.2-.4.1-.5-.1-.3-.3-.3-.5-.1zM40.4 135c.1 0 .1.1.2.1s.2-.1.3-.2c.1-.2.1-.4-.1-.5-.2-.1-.4-.1-.5.1-.1.1-.1.4.1.5zM42.3 136.1c-.1.2-.1.4 0 .5.1.1.2.1.2.1.1 0 .2 0 .3-.1.1-.2.1-.4 0-.5-.1-.2-.4-.2-.5 0zM40.2 41.8c.1 0 .2 0 .2-.1.2-.1.2-.4.1-.5-.1-.2-.4-.2-.5-.1-.2.1-.2.4-.1.5.1.1.2.2.3.2zM41.3 135.2c-.1.2-.1.4.1.5.1.1.2.1.2.1.1 0 .2 0 .3-.1.1-.2.1-.4-.1-.5-.1-.2-.4-.1-.5 0zM42.4 40c.2-.2.2-.4.1-.6-.1-.2-.4-.2-.5 0-.2.1-.2.4 0 .5.1.1.2.1.3.1 0 .1.1.1.1 0zM39.4 42.5c.2-.1.3-.4.1-.6-.1-.2-.3-.2-.5-.1s-.2.4-.1.5c.1.1.2.2.3.2 0 .1.1 0 .2 0zM117.3 148.9c-.2.1-.3.3-.2.5.1.1.2.2.3.2h.2c.2-.1.3-.3.2-.5s-.3-.3-.5-.2zM120.9 147.5c-.2.1-.3.3-.3.5.1.2.2.3.4.3h.2c.2-.1.3-.3.2-.5-.1-.3-.3-.4-.5-.3zM39.3 134.3c.1 0 .1.1.2.1s.2-.1.3-.2c.1-.2 0-.4-.1-.5-.2-.1-.4 0-.5.1-.1.1-.1.4.1.5zM44.2 138.5c.1.1.2.1.3.1s.2 0 .3-.1.2-.4 0-.5c-.1-.2-.4-.2-.5 0-.3.1-.3.3-.1.5zM45.9 139.9c-.2.1-.2.4-.1.5.1.1.2.1.3.1s.2 0 .2-.1c.2-.1.2-.4 0-.5 0-.1-.3-.1-.4 0zM45 138.9c-.2.1-.2.4 0 .5.1.1.2.1.3.1s.2 0 .2-.1c.2-.1.2-.4 0-.5-.1-.1-.3-.1-.5 0zM43.4 39.1c.2-.2.2-.4 0-.6-.1-.2-.4-.2-.5 0-.1.1-.2.4 0 .5.1.1.2.1.3.1 0 .1.1.1.2 0zM46 34.7c-.1.2-.1.5.1.6.1 0 .1.1.2.1s.2-.1.3-.2c.1-.2.1-.4-.1-.5-.1-.3-.4-.2-.5 0zM45.4 35.5c-.2.2-.1.4 0 .6.1.1.1.1.2.1s.2-.1.3-.2c.1-.2.1-.4-.1-.5 0-.2-.3-.1-.4 0zM44.3 38.1c.2-.2.2-.4 0-.6-.2-.1-.4-.1-.5 0-.1.2-.1.4 0 .5s.2.1.3.1c0 .1.1.1.2 0zM43.3 137.6c.1.1.2.1.3.1s.2 0 .3-.1c.1-.2.1-.4 0-.5-.1-.1-.4-.1-.5 0-.3 0-.3.3-.1.5zM116.1 149.5c-.2.1-.3.3-.2.5.1.1.2.2.3.2h.2c.2-.1.3-.3.2-.5-.1-.2-.3-.3-.5-.2zM45.2 37.1c.2-.2.1-.4 0-.6-.2-.1-.4-.1-.5 0-.1.2-.1.4 0 .5s.2.1.2.1c.1.1.2.1.3 0zM66.2 148.1c-.2-.1-.4 0-.5.2s0 .4.2.5h.2c.1 0 .3-.1.3-.2.2-.2.1-.4-.2-.5zM21 118.6c.1.1.2.2.3.2.1 0 .1 0 .2-.1.2-.1.2-.3.1-.5s-.3-.3-.5-.2c-.2.2-.2.4-.1.6zM56.2 146.2c-.2 0-.4.2-.4.4s.2.4.4.4.4-.2.4-.4-.1-.4-.4-.4zM55.6 30.8s.1 0 0 0c.3 0 .4-.2.4-.5 0-.2-.2-.3-.4-.3h-.1c-.2 0-.3.2-.3.5.1.2.3.3.4.3zM57.4 146.2c-.2 0-.4.2-.4.4s.1.4.4.4h.1c.2 0 .4-.2.4-.4-.1-.2-.3-.4-.5-.4zM115.1 150.8h.2c.2-.1.3-.3.2-.5-.1-.2-.3-.3-.5-.2-.2.1-.3.3-.2.5 0 .1.1.2.3.2zM58.1 30.2c.1 0 .1 0 0 0 .3-.1.4-.3.4-.5-.1-.2-.3-.3-.5-.3-.2.1-.3.3-.3.5.1.2.3.3.4.3zM67.4 148.6c-.2-.1-.4 0-.5.2s0 .4.2.5h.2c.1 0 .3-.1.3-.2.2-.1.1-.4-.2-.5zM55.1 146.2c-.2 0-.4.2-.4.4s.2.4.4.4h.1c.2 0 .4-.2.4-.4s-.3-.4-.5-.4zM54.4 31c.3 0 .4-.2.4-.5 0-.2-.2-.4-.4-.3-.2 0-.3.2-.3.4-.1.3.1.4.3.4zM54 146.2c-.2 0-.4.2-.4.4s.2.4.4.4h.1c.2 0 .4-.2.4-.4s-.3-.4-.5-.4zM58.6 146.3c-.2 0-.4.1-.4.4 0 .2.1.4.3.4.2 0 .4-.2.4-.4.2-.2 0-.4-.3-.4zM47.7 31.5c-.1.2 0 .5.1.6h.2c.1 0 .3-.1.3-.2.1-.2 0-.4-.2-.5-.1-.1-.3-.1-.4.1zM63.8 147.3c-.2-.1-.5 0-.5.2-.1.2.1.4.3.5h.1c.2 0 .3-.1.4-.3 0-.2-.1-.4-.3-.4zM62.5 146.9c-.2 0-.4.1-.4.3s.1.4.3.5h.1c.2 0 .3-.1.4-.3 0-.2-.1-.4-.4-.5zM65 147.7c-.2-.1-.4 0-.5.2s0 .4.2.5h.1c.2 0 .3-.1.3-.3.3-.1.2-.4-.1-.4zM59.4 29.8c.3-.1.4-.3.4-.5-.1-.2-.3-.3-.5-.3h-.1c-.2.1-.3.3-.2.5s.2.3.4.3zM59.9 146.4c-.2 0-.4.1-.4.3s.1.4.3.4c.2 0 .3-.1.4-.3.1-.2 0-.4-.3-.4zM60.6 29.4c.3-.1.4-.3.3-.5s-.3-.3-.5-.2c-.2.1-.3.3-.2.5.1.1.2.2.4.2zM61.8 29c.3-.1.4-.3.3-.5s-.3-.3-.5-.2c-.2.1-.3.3-.2.5.1.1.3.2.4.2zM61.2 146.6c-.2 0-.4.1-.4.3s.1.4.3.4h.1c.2 0 .3-.1.4-.3 0-.1-.1-.3-.4-.4zM176.8 102.2c.1 0 .3-.1.3-.2.1-.2 0-.4-.2-.5s-.4 0-.5.2c-.1.2 0 .4.2.5h.2zM178.7 81.7c-.2 0-.3.2-.3.4v.1c0 .2.2.3.4.3s.3-.2.3-.4V82c0-.2-.2-.4-.4-.3zM178.3 79c-.2 0-.3.2-.3.5 0 .2.2.3.4.3h.1c.2 0 .3-.2.3-.4v-.1c-.1-.2-.3-.3-.5-.3zM179.4 88.7c0-.2-.1-.4-.4-.4-.2 0-.4.2-.4.4v.1c0 .2.2.4.4.4.3-.1.4-.2.4-.5zM178.2 76.7c-.1-.2-.3-.3-.5-.3-.2.1-.3.3-.3.5v.1c0 .2.2.3.4.3h.1c.2-.1.4-.3.3-.6zM178.5 78c0-.2-.2-.3-.4-.3s-.3.2-.3.5v.1c0 .2.2.3.4.3h.1c.1-.1.3-.3.2-.6zM178.6 80.3c-.2 0-.3.2-.3.4s.2.3.4.3h.1c.2 0 .3-.2.3-.4v-.1c-.2 0-.3-.2-.5-.2zM179.5 87.4c0-.2-.2-.4-.4-.4s-.4.2-.4.4v.1c0 .2.2.4.4.4.2-.1.4-.3.4-.5zM178.9 83c-.2 0-.4.2-.3.4v.1c0 .2.2.4.4.4s.4-.2.3-.4v-.1c0-.3-.2-.4-.4-.4zM179.1 85.7c-.2 0-.4.2-.4.4v.1c0 .2.2.4.4.4s.4-.2.4-.4c-.1-.4-.2-.5-.4-.5zM24.6 49.7c.1 0 .2-.1.3-.2.1-.2.1-.4-.1-.5s-.4-.1-.5.1c-.1.2-.1.4.1.5.1.1.1.1.2.1zM177.9 75.4c-.1-.2-.3-.3-.5-.3-.2.1-.3.3-.3.5s.2.3.4.3h.1c.2 0 .3-.2.3-.5zM174.3 66.8c-.1-.2-.3-.2-.5-.1s-.2.3-.1.5c.1.1.2.2.3.2s.1 0 .2-.1.2-.3.1-.5zM173.8 106.1c-.2.2-.1.4 0 .6.1.1.2.1.2.1.1 0 .2 0 .3-.1.1-.2.1-.4 0-.5-.1-.3-.3-.3-.5-.1zM174.9 67.9c-.1-.2-.3-.3-.5-.2-.2.1-.2.3-.1.5.1.1.2.2.3.2h.2c.2 0 .2-.2.1-.5zM173 107.1c-.2.2-.2.4 0 .6.1.1.2.1.2.1.1 0 .2 0 .3-.1.1-.2.1-.4 0-.5-.1-.3-.4-.3-.5-.1zM173.6 65.6c-.1-.2-.3-.2-.5-.1s-.2.4-.1.5c.1.1.2.2.3.2s.1 0 .2-.1c.2 0 .2-.3.1-.5zM176.6 71.6c-.1-.2-.3-.3-.5-.2-.2.1-.3.3-.2.5v.1c.1.1.2.2.3.2h.1c.3-.1.4-.4.3-.6zM172.9 64.5c-.1-.2-.3-.2-.5-.1s-.2.4-.1.5c.1.1.2.2.3.2s.1 0 .2-.1c.2-.1.2-.3.1-.5zM177 72.8c-.1-.2-.3-.3-.5-.2-.2.1-.3.3-.2.5v.1c.1.2.2.3.3.3h.1c.3-.2.4-.4.3-.7zM153.9 131.5s.1 0 0 0h.1c.2 0 .3-.2.3-.4s-.2-.4-.4-.3c-.2 0-.3.2-.3.4s.1.3.3.3zM176.1 70.4c-.1-.2-.3-.3-.5-.2-.2.1-.3.3-.2.5.1.1.2.2.3.2h.2c.2-.1.3-.3.2-.5zM177.5 74.1c-.1-.2-.3-.3-.5-.2-.2.1-.3.3-.2.5.1.2.2.3.4.3h.1c.1-.1.3-.3.2-.6zM156.3 130.5c-.2 0-.4.2-.3.4 0 .2.2.3.4.3s.4-.2.3-.4c.1-.2-.1-.3-.4-.3zM157.5 131.1c.3 0 .4-.2.4-.4s-.2-.4-.4-.4-.4.2-.3.4c0 .3.1.4.3.4zM156.7 46.6c.2 0 .4-.2.4-.4s-.1-.4-.3-.4c-.2 0-.4.1-.4.4-.1.2 0 .4.3.4zM179.4 90.1c0-.2-.1-.4-.3-.4s-.4.1-.4.4v.1c0 .2.1.4.3.4.2-.1.4-.3.4-.5zM157.8 46.6c.2 0 .4-.2.4-.4s-.2-.4-.4-.4h-.1c-.2 0-.4.2-.4.4.1.3.3.4.5.4zM175.6 104.6c.1 0 .2-.1.3-.2.1-.2.1-.4-.1-.5-.2-.1-.4-.1-.5.1-.1.2-.1.4.1.5.1.1.1.1.2.1zM152.7 131c-.2 0-.4.3-.3.5 0 .2.2.3.4.3h.2c.2 0 .3-.2.3-.5-.2-.2-.4-.3-.6-.3zM153.1 45.9s.1 0 0 0c.3 0 .4-.1.5-.3s-.1-.4-.3-.5c-.2-.1-.4.1-.5.3 0 .2.1.4.3.5zM151.9 45.5h.1c.2 0 .3-.1.4-.3.1-.2 0-.4-.2-.5h-.1c-.2-.1-.4 0-.5.2-.1.3 0 .5.3.6zM151.5 131.4c-.2.1-.4.3-.3.5 0 .2.2.3.4.3h.1c.2 0 .3-.3.3-.5-.1-.3-.3-.4-.5-.3zM174.6 105c-.1.2-.1.4 0 .6.1.1.1.1.2.1s.2-.1.3-.2c.1-.2.1-.4-.1-.5 0-.2-.3-.1-.4 0zM179 94.1c0-.3-.1-.5-.3-.5s-.4.1-.4.3v.1c0 .2.1.4.3.4h.1c.1.1.2-.1.3-.3zM179.1 92.8c0-.3-.1-.5-.3-.5s-.4.1-.4.3v.1c0 .2.1.4.3.4.2 0 .4-.1.4-.3zM178.8 95.5c0-.3-.1-.5-.3-.5s-.4.1-.4.3c0 .2.1.4.3.4h.1c.1.1.2 0 .3-.2zM179.3 91.5c0-.3-.1-.4-.3-.5-.2 0-.4.1-.4.3v.1c0 .2.1.4.3.4.2 0 .3-.1.4-.3zM178.3 98.1c.1-.3-.1-.5-.3-.5s-.4.1-.4.3v.1c0 .2.1.4.3.5h.1c.1-.1.2-.2.3-.4zM178 99.4c.1-.3-.1-.5-.3-.5-.2-.1-.4.1-.5.3v.1c0 .2.1.4.3.5h.1c.2-.1.3-.2.4-.4zM177.6 100.7c.1-.3 0-.5-.2-.5-.2-.1-.4.1-.5.3-.1.2 0 .4.2.5h.1c.2 0 .4-.1.4-.3zM176.3 103.4c.1 0 .3-.1.3-.2.1-.2 0-.4-.1-.5-.2-.1-.4 0-.5.2-.1.2 0 .4.2.5h.1zM178.5 96.8c.1-.3-.1-.5-.3-.5s-.4.1-.4.3v.1c0 .2.1.4.3.5h.1c.1-.1.3-.2.3-.4zM175.5 69.1c-.1-.2-.3-.3-.5-.2-.2.1-.3.3-.2.5.1.1.2.2.3.2h.2c.2 0 .3-.2.2-.5zM161.8 124.7c.1-.2 0-.5-.2-.5-.2-.1-.4 0-.5.2v.1c-.1.2 0 .4.2.5h.1c.2 0 .4-.1.4-.3zM162.8 122.3c.1-.2 0-.5-.2-.6s-.4 0-.5.2c-.1.2 0 .4.2.5h.1c.2.1.3 0 .4-.1zM162.3 123.5c.1-.3 0-.5-.2-.6s-.4 0-.5.2c-.1.2 0 .4.2.5h.1c.2.1.3 0 .4-.1zM163.8 119.8c.1-.2 0-.5-.2-.6s-.4 0-.5.2v.1c-.1.2 0 .4.2.5h.2c.1.1.3 0 .3-.2zM163.9 53.1c-.1-.2-.4-.2-.5-.1-.2.1-.2.4-.1.5.1.1.2.2.3.2s.2 0 .2-.1c.2 0 .2-.2.1-.5zM163.3 121c.1-.2 0-.5-.2-.6s-.4 0-.5.2c-.1.2 0 .4.2.5h.2c.1.2.2.1.3-.1zM160.7 128.2c.1-.3-.1-.5-.3-.5s-.4.1-.4.3c-.1.2.1.4.3.5h.1c.1 0 .3-.1.3-.3zM160.5 129.5c.1-.3-.1-.5-.3-.5s-.4.1-.4.3c-.1.2.1.4.3.5h.1c.1 0 .2-.1.3-.3zM161.1 127c.1-.3 0-.5-.2-.5-.2-.1-.4.1-.5.3-.1.2 0 .4.2.5h.1c.2 0 .3-.1.4-.3zM161.4 125.9c.1-.2 0-.5-.2-.5-.2-.1-.4 0-.5.2v.1c-.1.2 0 .4.2.5h.1c.2 0 .3-.1.4-.3zM159.8 131c.3 0 .4-.2.4-.4s-.2-.4-.4-.4-.4.2-.4.4c.1.2.2.4.4.4zM159.8 47c-.1-.2-.3-.2-.5-.1s-.2.4-.1.5c.1.1.2.2.3.2s.1 0 .2-.1c.2-.1.3-.3.1-.5zM159.3 46c-.1-.2-.3-.2-.5-.1s-.2.3-.1.5c.1.1.2.2.3.2s.1 0 .2-.1c.2-.1.2-.3.1-.5zM158.7 130.3c-.2 0-.4.2-.4.4s.2.4.4.4h.1c.2 0 .4-.2.3-.4 0-.3-.2-.5-.4-.4zM163.1 52.1c-.1-.2-.4-.2-.5-.1-.2.1-.2.4-.1.5.1.1.2.2.3.2s.2 0 .2-.1c.2-.1.3-.3.1-.5z"/><path d="M183.3 75.7c-1.7-7.1-4.9-13.5-9.3-18.4-7-7.8-11-15.2-11-15.2l-1-1.9-.3-.6-.6.2-2 .5c-.2 0-.6.1-1.2.1-1.1 0-5.1-.3-9.7-4-5.3-4.2-6.3-8.9-6.4-8.9l-.6-3.2-.2-1-.9.3-3 1.1c-.7.3-1.6.4-2.6.4-3.4 0-7.8-1.4-11.9-3.1-.1-.3-.2-.5-.2-.5 1.1-.5.9-1.5.9-1.9 0-.2 0-.5-.1-.7 0-.1.1-.1.2-.1.1.1.2.2.4.3.2.3.6.3.7.3h.2c1.5-.1 2.3-1.5 2.4-2.4 0-1.1-.3-1.8-1.2-2.7.4-.8.7-.5 1.9-.7 1.5-.3 2.6-3.4.9-4.5 1-1 2.2-4.1.6-5.5-1.8.2-3.2-.6-4.6-.5-.5 0-1 0-1.5.1-.8.1-2.9.9-3.7 2 .5-.2 1.1-.3 1.6-.5.4-.1 1.4-.6 1.5-.6 1-.2 1.5.1 2.4 0-.1.3-.3.5-.3 1 .5 0 .2-.8.8-.8-.4 1.1-.8 2.3-1.9 2.3-.9 0-1.1-1.3-2-1.1-.2 1.3-.1 1.9.5 2.6 1.1-.2 1.7-.6 2.9-.2-.2.4-.4.6-.4.9 1.8-.9 3.2-1.8 3.9-3.1.3.9.1 1.3-.4 1.8-.5.6-.9.8-1.5 1.5-.5.6-1.6 1.5-1 2.4-1 .1-1.7.5-2.4.9-.3-.1-.1-.8-.6-.7.1 1-1 1.5-.7 2.5.8 0 .9-.4 1.6-.4.3.1 1.1.1 1.6.6.2.2 0 .6.3 1 .5.7 1 .4 1.2 1 .2.8-.3 2.3-1.2 2.2-.3 0-.7-.1-.5-.7-.4 0-.7.2-1.2.1-.6-.6-.9-1.4-2-1.5.1.5.6 1.6.4 2.9-.2.8-1.8.2-1.9 1.1.5.3 1 .7 1.3 1.3.1.3.3.6.3.9.1.4.2.7.2 1.1 0 .3-.1.6-.2.7s-.3.1-.4-.1c-.2-.2-.3-.4-.5-.5s-.4.1-.3.3c.1.1.2.3.2.4.2.6-.6.5-1.1.5-.5 1.1-1 3-2.3 2.7h-.1c.3-.1.6-.2.7-.6 0-.1-.1-.2-.2-.1s-.3.2-.4.2-.2.1-.4 0l-.1-.1c1.2-.7 0-2.7 1-3.5.7 0 1.4-.1 1.6-.9-.6-.6-.7-1.8-1.6-2.1-.2 1.3-.1 2.8-1.1 3.3-1.3-.4-1.3-2.1-1.9-3.2 1-1.7-.5-3.2.4-4.7.3.3.6.5 1.3.4 0-.6-.4-.8-.4-1.5.7-.4 1.8.4 2.4-.2.2-.7-.7-.8-.1-1.6-.4-.4-.9.5-1.3 0-.2-1.1 1.1-1.6.2-2.2-.4.1-.2.7-.4 1-1.2-.1-1.5 3.2-2.6 3.3-.5.1-1.5-.4-1.3-1.7.5.4 1 .1 1.4.6.1-2.7 1.6-3.8 3.2-4.9-1.5-.5-2.7.5-3.4 1.3-.5-.5-1.2-.1-1.5.4-.3.7-.1 2.2-1.3 2.2.2-.7.2-1.5.2-2.2 0-.8-.4-1.2-.6-1.7.6 0 1.3.6 1.5 1.1 0-1.6 1.3-2.5 2.3-3 1.1-.5 1.5-.6 2.4-1.5-1.4.1-2 .5-3.3 1.2-1.2.7-1.8 1.3-2.1 1.3-1.7.4-1.9-1.8-2.7-3.2-1.1-1.8-2.8-3.1-5.1-3.5 1.2.7 2.4 1.3 3.1 2 .7.6 1.1 1.4 1.5 2.2.3.6.2.8-.2 1 1.6 1.3.3 3.7-1.5 3.3.3 1.1 1.7 1.3 2.4.7 0 0 1.1.9.6 2.6-.8-.2-1.1-.2-1.4-1.3-.1.5-.3 1-.2 1.6.1.9.6 1.8 1.6 1.7.9-.1 1.3-1.7 1.3-1.6 0 .8 0 2.4-.9 3-.7.5-1.3.2-1.8-.1 0 .2-.2.7.1 1.3.4.8.9.7.9 1.6.1.3.1.6.1.6-.1.9-.6 1.9-.6 1.9-.6.5-1.3 1.2-2.6 2.1.9 1.6 4.6 4.7 5.4 5.9 1.1 1 1 2.2 1.1 2.5-.4.9-1.6 1-2.6.8-1.1-.7-2.4-1.6-3.4-2.8-.2-.2-.3-.4-.5-.7-.8-1.2-1.4-2.6-1.8-3.8-.6-1.8-.2-2.5.7-3.2 1-.8 2.9-1.9 2.9-3 0-.7-.3-.7-.3-.8-.1.3-.3.5-.5.8-1.1 1.4-3.5 3.8-4.8 3.9-1.1.1-2.8-1.2-2.8-1.1 0 .2.3.4.4.9.1.6.1.8.1 1.4-.1 1.9-.8 3.9-1.5 5.5 0 .1-.5 1.7-.8 2.3-.5 1-1.6 1.7-1.6 2.7 2.2 0 3.3-2.3 3.4-4.8l.1-.1c.2-.5.1-1.2.2-1.7 1-.3 1.5-1.3 1.2-2.7.3-.4.7-1.1 1.2-.8.8.4 1 1.5 1.5 2.9.4.9.7 1.7 1.2 2.4.2.4.3.9.4 1.4-1 1-1.9 2.1-3.3 2.6-.3-1.4 1.4-2.9 1.1-4.2 0 0-.3-.6-.6-.9-.2.2-.4.4-.6.7-.1.1-.1.2-.1.3-.4.6-.8 1.1-1.2 1.7-.4.7-.5 1.4-.9 2-.9 1.6-2.9 1.2-4.2 2.5.6.4 1-.4 1.6-.4 1.8.8 2.5-1.3 4.7-1 0 .4-.8.1-.7.7 2.2 2.1 5.2-1.3 6.8-1.9-1.2 3.5-6.3 2.9-9.1 4.6 1.8.3 3-.7 4.3-.4-.5.8-1.9.8-2.9 1.1-.1 1.1-1.5.8-1.8 1.6 2.7-.1 4.8-1.5 6.8-1.8-.2.5-.8.4-1.1.8 2.5-.4 4.9-2 7.2-3 0 .5-.5.5-.4 1.1.5-.1.9-.3.9-1 .1-.6-.6-.3-.5-.8.2-.3.5-.5.9-.5.1.3-.2 1.1.3 1 1.2-1 .4-2.2 0-3.5 0-.7 1.6-1.8 1.8-.5-.4.2-.9.1-.9.7-.2.6.8-.2.9.3s-.2.7-.1 1.1c.7-.1.7-.3 1.2-.3-.2-.7-.3-.8.3-1.1-.2-.6-.5-1.1-.7-1.7.3 0 .6.1.9.1s.6.1.9.1c-.4.3-.9.4-1 1 .7.4.7-.5 1.4-.4.4.3.4 1 .8 1.4-.8.6 0 1.2-.5 2-.8.5-1.3-.4-1.8-.5-.3.5.1.9-.1 1.4-.8-.6-1.1 1-1.7.5 0-.9.9-.8 1.2-1.5-.2-.3-.4-.6-.8-.7-.4.8-1.5 1-1.1 2.3.5.2 1 .5 1.2 1.1.7-.5 1.7-.7 1.8-1.8.1.1.2.2.3.4-.1 1.3-1 1.9-1.8 2 .2 1.2.1 1.3.5 2.7.9-.4.5-1.9.8-2.6.2-.5.7-.8 1.1-1.1 1.3-1.3 2.2-4.1 2.6-5.7.2-.5.3-.9.3-1.2 0-.6-1-2.4-.9-3 .3-1.2 1.2-2.2 1.2-2.2.3.1.9.1 1.4-.1 4.1 1.6 8.4 2.8 12 2.8 1.3 0 2.5-.2 3.5-.5.4 1.4 2 6.4 7.7 10.9 5.5 4.4 10.3 4.9 12.1 4.9.7 0 1.3-.1 1.9-.2.7 1.3 4.8 8.4 11.4 15.8 8.8 9.8 11.7 24.8 7.9 40.1-1.2 4.7-4.2 7.8-7.3 11.1-2.6 2.7-5.3 5.5-6.9 9.3-1.7 4-3.5 8.5-3.3 11.5-1.8 0-11 .2-16 4.1-4.7 3.6-8.5 9.7-8.9 12.2-.9-.1-3.6-.2-6.3-.2-2.2 0-4 .1-5.3.3-3.6.6-6.8 2.2-10.2 3.9-5.3 2.6-11.3 5.6-20.5 5.6H91c-9.1 0-15.1-3-20.5-5.6-3.4-1.7-6.6-3.3-10.2-3.9-1.4-.2-3.3-.3-5.6-.3-2.6 0-5.1.1-5.9.2-.4-2.5-4.2-8.5-8.9-12.2-4.8-3.8-13.4-4.1-16-4.1h-.1c.1-3-1.5-7.3-3.3-11.5-1.6-3.8-4.3-6.6-6.9-9.3-3.2-3.3-6.1-6.4-7.3-11.1-3.8-15.4-.9-30.4 7.9-40.1 6.7-7.4 10.7-14.5 11.4-15.8.6.1 1.2.2 1.9.2 1.8 0 6.7-.5 12.1-4.9 5.7-4.6 7.3-9.6 7.7-10.9 1 .3 2.2.5 3.5.5 3.6 0 8-1.3 12.1-2.9.5.2 1.1.2 1.5.1 0 0 .9 1 1.2 2.2.2.6-.9 2.4-.9 3 0 .2.1.6.3 1.2.4 1.6 1.3 4.4 2.6 5.7.3.3.8.6 1.1 1.1.3.7-.1 2.2.8 2.6.1-.2.1-.4.1-.6.2-.8.1-1 .3-2.1-.6-.1-1.4-.6-1.7-1.5v-.6c.1-.1.2-.2.2-.3.2 1.1 1.1 1.3 1.8 1.8.1-.6.7-.9 1.2-1.1.5-1.3-.6-1.5-1.1-2.3-.4 0-.6.4-.8.7.2.7 1.2.6 1.2 1.5-.6.4-.9-1.2-1.7-.5-.2-.5.2-.9-.1-1.4-.5.2-1 1.1-1.8.5-.5-.9.2-1.4-.5-2v-.1c.3-.3.3-1 .7-1.3.8-.1.8.8 1.4.4 0-.6-.6-.7-1-1 .3 0 .7-.1.9-.1.3 0 .6-.1.9-.1-.2.6-.4 1.1-.7 1.7.6.3.5.4.3 1.1.5 0 .5.2 1.2.3 0-.4-.2-.6-.1-1.1s1.1.3.9-.3c0-.6-.6-.5-.9-.7.2-1.3 1.8-.1 1.8.5-.4 1.3-1.2 2.6 0 3.5.5.1.2-.6.3-1 .4.1.7.3.9.5.1.6-.6.3-.5.8 0 .6.4.8.9 1 .1-.6-.4-.6-.4-1.1.3.1.6.3.9.4l.1-2.4h.1c1.2 1.7 2.6 3.9 4.7 4.2-.2-.4-1.1-.8-.9-1.1 1.8 1 4 2.3 6 2.6-.8-1.2-2.6-1.5-3.7-2.4-.6-.6-1.1-1.3-1.4-1.9.4 0 .8.1.9-.1-.1-.7.2-1.1.5-1.6-1.7-.3 0-2.6-1.4-3.1-.3.4-.4 1.1-.8 1.4-.3-.5-.7-1-1.1-1.5 0 0-2.1-2.2-1.8-4.9-1.5-1.4-.7-5.1 1-5.2 1.4-.1 2.2 2.2 3.4 3.2.6.5 1.3.1 1 .9-.4 1-.7-.2-1.4.2 0 .8.5.4.4 1.2-.7.5-1.4 1.8-1.1 2.9.1-.9.8-1.7 1.3-2.3 1.3-1.6 3.2-3.3 4.8-4.5.9-.6 1.5-1.2 1.7-1.5-.6.2-1.3.6-2.4.7-.4.1-.8-.1-1.1.2-.1.1-.3.5-.6.7-.4.2-.7.3-1.1.2-.7-.1-.6-.7-.4-.8.4-.3.9-.3 1.2-.9.1-.2 0-.4 0-.4s-.1 0-.1-.1c-.4-.2-1.2.2-1.1-.5.5 0 .8-.2 1.3-.3.3-.1.6-.1.9-.3.3-.2.4-.4.1-.6-1.2.2-3.3.7-3.1-.9.4 0 .1.8.7.7.5-2-1.2-1.6-.7-2.6.8-1.5.9-1.9.3-3.4-.6-1.4-1.1-1.4-2.5-.6.8-1.1 2.5-1.1 3.5-.6 0-1.1-1-1.3-1.6-1.9 1.2.1 1.9 1.1 2.5 1-.6-.6-.7-1.2-.2-1 .9.4 2.1.9 3 .7-1.6-.7-3.4-1.5-4.3-2.9 0-.2.2-.1.4-.1 0-.7-1-1.2-.8-1.7.5.3 1 1.1 1.7.7-.8-1-3.3-2.3-2.3-3.9 0 .7.3 1.2.9 1.4-.2-.6-.3-1.3-.8-1.7.3-.9 1.7-1 2.2-1.4-2.7 0-4.6 1.4-5.6 3.2.6-.5.7-.9 2-1.2-.7.5-1.8 1.1-2.3 2.9-.1-.1-.1-.4 0-1.2-.9 1.2-1 2.3-1.5 3-.4.7-1 1.4-1.7 1.8.4-.1.9-.3 1.3-.1-.7.5-.8.9-1.1 1.5-.2.5-.1 1.9.5 2.5-1.1-.1-1.6-1-1.4-2.4-.6.7-1.4-.2-2.3-1.1l-.4-.4c-.8-.7-1.7-1.2-2.7-.6-.5.3-.9 1-.5 1.8.8-1.3 2.7-.7 2.7.5 0 1.8-1.4 2.4-2.8 1.7.2 1.4-.8 2.1-.8 2.1 1.4.6 2.1-.6 3.1 0 .4.3.8.5.9 1.1.1 0 .1 0 .2.1-.1.9.1 1.4.2 2.1-.5.1-.5-.5-.9-.2.1.8 1.2 1.8 1.8 2.7-.7 1.7-1 2.8-1.9 3.1-.9-.5-.9-2-1.1-3.3-.9.3-1 1.4-1.6 2.1.2.9.9.9 1.6.9 1 .8-.3 2.8 1 3.5l-.1.1c-.1.1-.2 0-.4 0-.1 0-.2-.1-.4-.2-.1-.1-.2 0-.2.1.1.3.4.5.7.6h-.1c-1.2.3-1.7-1.6-2.3-2.7-.5-.1-1.3 0-1.1-.5 0-.1.1-.3.2-.4.1-.2-.1-.4-.3-.3-.2.1-.4.3-.5.5-.1.1-.3.2-.4.1-.1-.1-.2-.3-.2-.7 0-.4.1-.7.2-1.1l.3-.9c.3-.6-.5-1 0-1.3 0-.1 0-.2-.1-.3l.1-.1c-.1-.3-.3-.4-.4-.4H63c-.2 0-.3 0-.5-.1-.1-.1-.2-.3-.2-.4-.1-.5 0-1 .1-1.7.2-.7.7-1.1 1.3-1.4.2-.1.2-.3 0-.4.1-.1.1-.3-.1-.4-.4-.2-.9.4-1.2.6-1.5.6-2.1 2.1-4.1 2.1.2-.8-.5-.8-.5-1.4.4-.4.9-.7.9-1.5.5-.5 1.7-.2 2.1-.7-.4-.5-1.2-.4-1.8-.3-.3-.7-.8-1-1-1.7.2-.5 1.1-.2 1.3-.7-.3-.7-1.3-1.7-1.3-2.4.9-.3 1.2.7 2 1 .5-.4-.7-.6-.3-1 1.3.1 1.4.6 2.4 1.1.4.2 1.1.7 1.3.3-.6-.6-.9-2-1.7-2.4-2 .7-4-.6-5-2.1-1 .1-1.7-.2-2.1-.7.1-.5-.2-1.4.3-1.5 1 .4 1.3 1.6 2.5 1.8.2-.6-.8-1-.8-1.8.5 0 .3.6.8.7 0-.2-.1-.7.3-.5.2.2.3.5.5.7-.4.1-.7.3-.5 1 .9-.1 1-.3 1.7-.5 0-.6-.5-.7-.4-1.4.4.2.3.9.8 1 .5-.2-.5-.7 0-1 .7-.2.4.6.8.7.3-.2.6-.3.9-.3.1 0 .2 0 .3-.1h.6c.6-.1 1.2 0 1.7-.2v-.1c-.5-.1-1.1-.2-1.6-.3h-.7l-.1-.1c-.5-.3-.9-.4-1.3-.5-1.4-.8-2.9.4-5.4.2-2.3 1.2-.6 4.4.5 5.6-.5.6-1.1.6-1.2 1.4-.4 2.5 2.8 2.7 4 3.9-.4.5-.8.7-1.1 1.4-.5 1.3.4 2.3.4 2.3.2.6.7.9 1.4.9.3 0 .7.2 1 .1 0 0 2.1-1.3 1.6.5l-.6.2c0 .4-.1 1.3.9 1.9 0 0 .1.4.1 1v-.2c-3.9 1.5-7.9 2.7-11.1 2.7-1 0-1.9-.1-2.6-.4l-2.9-1.1-.9-.3-.2 1-.6 3.2s-1.1 4.7-6.4 8.9c-4.6 3.7-8.6 4-9.7 4-.6 0-1-.1-1.2-.1l-2-.5-.6-.2-.3.6-1 1.9c-.2.3-4.1 7.6-11 15.2-4.4 4.9-7.6 11.3-9.3 18.4-1.9 8.1-1.7 16.7.5 25.6 1.4 5.8 4.9 9.5 8.3 13 2.5 2.6 4.8 5 6.1 8.1.8 1.9 3.2 7.5 3 9.8l-.4 4.2h1l3.1-.1h.3c4.7 0 10.7 1 13.6 3.2 4.1 3.2 7 8.2 7.3 9.4v3.9l.9-.1 3-.2c.3 0 3.4-.2 6.6-.2 1.5 0 2.9.1 4.4.3 2.6.4 5 1.6 7.8 3l1.2.6c.4.2.7.4 1.1.5 5.3 2.7 11.4 5.8 20.4 5.8h4.8c9 0 15.1-3.1 20.4-5.8.4-.2.7-.4 1.1-.5.7-.3 1.3-.7 2-1 2.4-1.3 4.7-2.5 7-2.8 1-.2 2.5-.2 4.4-.2 3 0 6 .2 6.6.3l3 .3.9.1V149c.3-1.2 3.2-6.2 7.3-9.4 3.1-2.4 9.3-3.2 13.6-3.2h.3l3.1.1h1l-.1-1-.3-3.2c-.2-2.3 2.2-7.9 3-9.8 1.4-3.1 3.7-5.6 6.1-8.1 3.4-3.5 6.9-7.2 8.3-13 2.2-8.9 2.3-17.5.4-25.7zm-1.3 25.4c-1.4 5.6-4.8 9.1-8.1 12.6-2.5 2.6-4.9 5.1-6.3 8.4-.9 2.1-3.3 7.7-3.1 10.2l.3 3.2-3.1-.1h-.3c-4.5 0-10.9.9-14.1 3.4-4.2 3.3-7.4 8.6-7.7 10.1v3l-3-.3s-3.3-.3-6.7-.3h-.7c-1.6 0-2.9.1-3.8.3-3.1.5-5.9 2.3-9.2 3.9-5.5 2.7-11.7 6.2-21.1 6.2h-4.8c-9.5 0-15.7-3.5-21.1-6.2-3.3-1.7-6.2-3.3-9.2-3.8-1.1-.2-2.6-.3-4.5-.3-3.3 0-6.6.2-6.7.2l-3 .2v-3c-.3-1.4-3.5-6.8-7.7-10.1-2.5-2-7-3-11-3.3-1.1-.1-2.2-.1-3.2-.1h-.4l-3.1.1.3-3.2c.2-2.6-2.2-8.1-3.1-10.2-1.4-3.3-3.8-5.8-6.3-8.4-3.3-3.5-6.7-7-8.1-12.6-2-8.6-2.2-17.1-.3-25 1.6-7 4.8-13.2 9.1-18 7.1-7.9 11.1-15.3 11.1-15.4l1-1.9 2 .5c.3.1.7.1 1.4.1 1.2 0 5.4-.3 10.2-4.2 5.5-4.4 6.6-9.3 6.7-9.5l.6-3.2 2.9 1.1c.8.3 1.7.4 2.9.4 3.2 0 7.2-1.2 11.1-2.7 0 .7.1 1.4.1 1.9 0 .3.1.5.2.6-4 1.5-8.1 2.7-11.5 2.7-1.4 0-2.6-.2-3.6-.6l-.4-.1-.1.4c0 .1-1.2 5.8-7.6 10.9-5.3 4.3-10 4.7-11.7 4.7-.7 0-1.4-.1-2-.2l-.2-.1-.1.2c0 .1-4.2 7.8-11.5 15.9-8.9 9.9-11.9 25.2-8 40.8 1.2 4.9 4.4 8.2 7.5 11.4 2.6 2.7 5.2 5.4 6.8 9.1 1.8 4.1 3.5 8.7 3.3 11.5v.4h.8c1.8 0 10.8.2 15.6 3.9 5 3.9 8.6 10.2 8.6 12v.4h.3s3-.2 6.2-.2c2.3 0 4.2.1 5.5.3 3.5.5 6.7 2.1 10 3.8 5.4 2.7 11.5 5.7 20.7 5.7h3.3c9.3 0 15.4-3 20.7-5.7 3.4-1.7 6.5-3.3 10-3.8 1.3-.2 3-.3 5.2-.3 3.3 0 6.5.2 6.6.2h.4v-.4c0-1.8 3.7-8.1 8.6-12 4.8-3.7 13.8-3.9 15.6-3.9h.8v-.4c-.3-2.8 1.5-7.4 3.3-11.5 1.6-3.7 4.2-6.5 6.8-9.1 3.1-3.2 6.3-6.5 7.5-11.4 3.9-15.6.9-30.8-8-40.8-7.3-8.1-11.4-15.8-11.5-15.9l-.1-.2-.2.1c-.6.1-1.3.2-2 .2-1.8 0-6.4-.5-11.7-4.7-6.3-5.1-7.5-10.9-7.6-10.9l-.1-.4-.4.1c-1 .4-2.3.6-3.6.6-3.4 0-7.4-1.1-11.3-2.6.2-.2.3-.4.3-.7 0-.5-.2-1.3-.4-2 4 1.6 8.2 2.8 11.5 2.8 1.1 0 2.1-.1 2.9-.4l2.9-1.1.6 3.2c0 .2 1.1 5 6.7 9.4 4.8 3.9 9.1 4.2 10.2 4.2.7 0 1.2-.1 1.4-.1l2-.5 1 1.9c0 .1 4.1 7.5 11.1 15.4 4.3 4.8 7.4 11 9.1 18 1.9 8 1.8 16.5-.4 25.2z"/><path d="M161.7 50c-.1-.2-.3-.2-.5-.1s-.2.4-.1.5c.1.1.2.2.3.2s.1 0 .2-.1c.2 0 .3-.2.1-.5zM162.4 51c-.1-.2-.4-.2-.5-.1-.2.1-.2.4-.1.5.1.1.2.2.3.2s.1 0 .2-.1c.2-.1.2-.3.1-.5zM160.4 48c-.1-.2-.3-.2-.5-.1s-.2.4-.1.5c.1.1.2.2.3.2s.1 0 .2-.1c.2 0 .2-.3.1-.5zM161 49c-.1-.2-.3-.2-.5-.1s-.2.4-.1.5c.1.1.2.2.3.2s.1 0 .2-.1c.2 0 .3-.3.1-.5zM166.8 113.9c-.1.2-.1.4 0 .6.1.1.2.1.2.1.1 0 .2 0 .3-.1.1-.2.1-.4-.1-.5-.1-.3-.3-.3-.4-.1zM169.6 60.3c-.1-.2-.4-.2-.5 0-.2.1-.2.4 0 .5.1.1.2.1.3.1s.2 0 .3-.1c0 0 .1-.3-.1-.5zM169.4 110.9c-.2.2-.2.4 0 .6.1.1.2.1.3.1s.2 0 .3-.1c.1-.2.1-.4 0-.5-.2-.3-.4-.3-.6-.1zM168.5 111.8c-.2.2-.2.4 0 .6.1.1.2.1.3.1s.2 0 .3-.1c.1-.2.1-.4 0-.5-.2-.2-.4-.2-.6-.1zM168.7 59.3c-.1-.2-.4-.2-.5 0-.2.1-.2.4 0 .5.1.1.2.1.3.1s.2 0 .2-.1c.2 0 .2-.3 0-.5zM164.1 118.9c.1 0 .3-.1.3-.2.1-.2 0-.4-.1-.5-.2-.1-.4 0-.5.1-.1.2 0 .4.1.5 0 .1.1.1.2.1zM171.2 109c-.1.2-.1.4 0 .5s.2.1.3.1.2 0 .3-.1c.1-.2.1-.4 0-.5-.2-.2-.4-.2-.6 0zM167.6 112.8c-.2.2-.1.4 0 .6.1.1.2.1.2.1.1 0 .2 0 .3-.1.1-.2.1-.4 0-.5-.1-.2-.3-.2-.5-.1zM172.1 63.4c-.1-.2-.4-.2-.5-.1-.2.1-.2.4-.1.5.1.1.2.2.3.2s.2 0 .2-.1c.2-.1.3-.3.1-.5zM170.3 109.9c-.2.2-.2.4 0 .6.1.1.2.1.3.1s.2 0 .3-.1c.1-.2.1-.4 0-.5-.2-.2-.4-.2-.6-.1zM171.3 62.3c-.1-.2-.4-.2-.5 0-.2.1-.2.4 0 .5.1.1.2.1.3.1s.2 0 .2-.1c.1 0 .2-.3 0-.5zM170.5 61.3c-.1-.2-.4-.2-.5 0-.2.1-.2.4 0 .5.1.1.2.1.3.1s.2 0 .2-.1c.1-.1.1-.3 0-.5zM164.4 117.1c-.1.2-.1.5.1.6.1 0 .1.1.2.1s.2-.1.3-.2c.1-.2.1-.4-.1-.5-.1-.2-.4-.2-.5 0zM165.4 55.2c-.1-.2-.4-.2-.5-.1-.2.1-.2.4-.1.5.1.1.2.1.3.1s.2 0 .2-.1c.3.1.3-.1.1-.4zM164.7 54.2c-.1-.2-.4-.2-.5-.1-.2.1-.2.4-.1.5.1.1.2.1.3.1s.2 0 .2-.1c.2.1.2-.2.1-.4zM165.2 116c-.1.2-.1.5.1.6.1 0 .1.1.2.1s.2-.1.3-.2c.1-.2.1-.4-.1-.5-.2-.3-.4-.2-.5 0zM167.1 57.3c-.1-.2-.4-.2-.5-.1-.2.1-.2.4 0 .5.1.1.2.1.3.1s.2 0 .2-.1c.1.1.1-.2 0-.4zM167.9 58.3c-.1-.2-.4-.2-.5 0-.2.1-.2.4 0 .5.1.1.2.1.3.1s.2 0 .2-.1c.1 0 .2-.3 0-.5zM166.2 56.3c-.1-.2-.4-.2-.5-.1-.2.1-.2.4 0 .5.1.1.2.1.3.1s.2 0 .2-.1c.2 0 .2-.2 0-.4zM172.1 108c-.2.2-.2.4 0 .6.1.1.2.1.3.1s.2 0 .3-.1c.1-.2.1-.4 0-.5-.2-.2-.4-.2-.6-.1zM166 114.9c-.2.2-.1.5 0 .6s.1.1.2.1.2-.1.3-.1c.1-.2.1-.4-.1-.5-.1-.3-.3-.3-.4-.1zM179 84.3c-.2 0-.4.2-.4.4v.1c0 .2.2.4.4.4s.4-.2.3-.4c.1-.3-.1-.5-.3-.5zM123.5 29c.3 0 .4-.1.5-.3.1-.2 0-.4-.2-.5-.2-.1-.4 0-.5.2-.2.3-.1.5.2.6zM123.4 146.8c-.2.1-.4.3-.3.5 0 .2.2.3.4.3h.1c.2 0 .3-.3.3-.5-.1-.3-.3-.4-.5-.3zM132.4 146.2c-.2 0-.4.2-.4.4s.2.4.4.4h.1c.2 0 .4-.2.4-.4-.1-.2-.2-.4-.5-.4zM29 46.6c.2 0 .4-.2.4-.4s-.2-.4-.4-.4h-.1c-.2 0-.4.2-.3.4 0 .2.2.4.4.4zM124.7 29.4c.3 0 .4-.1.5-.3.1-.2 0-.4-.2-.5h-.1c-.2-.1-.4.1-.5.3 0 .2.1.4.3.5zM124.7 146.5c-.2 0-.3.2-.3.4s.2.3.4.3h.2c.2 0 .3-.2.3-.4-.2-.2-.4-.3-.6-.3zM29.6 130.5c-.2 0-.4.1-.4.3s.1.4.3.4h.1c.2 0 .3-.1.4-.3 0-.2-.1-.3-.4-.4zM30.2 46.5c.2 0 .4-.2.3-.4 0-.2-.2-.4-.4-.3-.2 0-.3.2-.3.4 0 .1.1.3.4.3-.1 0 0 0 0 0zM122.2 147.1c-.2.1-.4.3-.3.5 0 .2.2.3.4.3h.1c.2-.1.3-.3.3-.5-.1-.3-.3-.4-.5-.3zM122.3 28.6c.3 0 .4-.1.4-.3.1-.2 0-.4-.2-.5-.2-.1-.4 0-.5.2-.1.2 0 .5.3.6zM121 28c.3 0 .4-.1.4-.3.1-.2 0-.4-.2-.5-.2-.1-.4 0-.5.2 0 .3.1.5.3.6zM125.9 29.8c.3 0 .4-.1.5-.3.1-.2-.1-.4-.3-.5-.2-.1-.4.1-.5.3 0 .2.1.4.3.5zM131.1 146.2c-.2 0-.4.2-.4.4s.2.4.4.4h.1c.2 0 .4-.2.4-.4s-.2-.4-.5-.4zM127.2 30.2c.3 0 .4-.1.4-.3.1-.2-.1-.4-.3-.5-.2-.1-.4.1-.4.3-.1.2.1.4.3.5zM129.8 146.2c-.2 0-.4.2-.4.4s.2.4.4.4h.1c.2 0 .4-.2.4-.4s-.2-.4-.5-.4zM132.3 31.2c.2 0 .4-.1.4-.3 0-.2-.1-.4-.3-.4-.2 0-.4.1-.4.3-.1.2 0 .4.3.4zM131 31c.2 0 .4-.1.4-.3 0-.2-.1-.4-.3-.4-.2 0-.4.1-.4.3-.1.2 0 .4.3.4zM128.4 30.5c.1 0 .1 0 0 0 .3 0 .4-.1.4-.3 0-.2-.1-.4-.3-.5h-.1c-.2 0-.4.1-.4.3.1.2.2.4.4.5zM127.3 146.3c-.2 0-.4.2-.3.4 0 .2.2.4.4.4s.4-.2.4-.4c-.1-.3-.3-.5-.5-.4zM128.5 146.2c-.2 0-.4.2-.4.4s.2.4.4.4.4-.2.4-.4c.1-.2-.1-.4-.4-.4zM129.7 30.8s.1 0 0 0c.2 0 .4-.1.4-.3 0-.2-.1-.4-.3-.5-.2 0-.4.1-.4.3-.1.2.1.4.3.5zM126 146.4c-.2 0-.4.2-.3.4 0 .2.2.4.4.4h.1c.2 0 .4-.2.3-.4s-.3-.5-.5-.4zM21.6 119.8c.1.1.2.2.3.2h.2c.2-.1.3-.3.2-.5-.1-.2-.3-.3-.5-.2-.3 0-.4.3-.2.5zM22.1 121c.1.1.2.2.3.2h.2c.2-.1.3-.3.2-.5-.1-.2-.3-.3-.5-.2-.2 0-.3.3-.2.5zM23.1 123.5c.1.1.2.2.3.2h.1c.2-.1.3-.3.2-.5-.1-.2-.3-.3-.5-.2-.1 0-.2.2-.1.5zM23.5 124.7c.1.2.2.2.3.2h.1c.2-.1.3-.3.2-.5-.1-.2-.3-.3-.5-.2-.1 0-.1.2-.1.5zM22.6 122.2c.1.1.2.2.3.2h.1c.2-.1.3-.3.2-.5-.1-.2-.3-.3-.5-.2-.1.1-.2.3-.1.5zM21.5 53.1c-.2.2-.1.4 0 .6.1.1.1.1.2.1s.2-.1.3-.2c.1-.2.1-.4-.1-.5 0-.2-.3-.1-.4 0zM25.1 48c-.1.2-.1.5.1.6.1 0 .1.1.2.1s.2-.1.3-.2c.1-.2.1-.4-.1-.5-.2-.3-.4-.2-.5 0zM23.6 50.1c-.1.2-.1.5.1.6.1 0 .1.1.2.1s.2-.1.3-.2c.1-.2.1-.4-.1-.5-.1-.2-.3-.2-.5 0zM154.4 46.2c.2 0 .4-.1.4-.3s-.1-.4-.3-.5h-.1c-.2 0-.4.1-.4.3 0 .3.1.5.4.5zM22.9 51.1c-.1.2-.1.5.1.6.1 0 .1.1.2.1s.2-.1.3-.2c.1-.2.1-.4-.1-.5-.1-.2-.3-.2-.5 0zM25.6 46.9c-.1.2-.1.5.1.6.1 0 .1.1.2.1s.2-.1.3-.2c.1-.2.1-.4-.1-.5-.1-.2-.3-.1-.5 0zM27 130.3c-.2 0-.4.1-.4.4 0 .2.1.4.3.4.2 0 .4-.2.4-.4.1-.2-.1-.4-.3-.4zM28.3 130.4c-.2 0-.4.1-.4.3s.1.4.3.4h.1c.2 0 .4-.2.4-.4 0-.1-.1-.3-.4-.3zM26.5 46.5c.3 0 .4-.2.4-.4s-.2-.4-.4-.4-.4.2-.4.4.2.4.4.4zM27.7 46.6c.2 0 .4-.2.4-.4s-.2-.4-.4-.4h-.1c-.2 0-.4.2-.3.4 0 .2.2.4.4.4zM25.6 131c.1 0 .1 0 0 0 .3 0 .4-.2.4-.4s-.1-.4-.4-.4c-.2 0-.4.2-.4.4.1.2.2.3.4.4zM24.4 127.2c0 .2.2.3.4.3h.1c.2-.1.3-.3.2-.5v-.1c-.1-.2-.3-.3-.5-.3-.2.1-.3.3-.2.6zM24.7 128.5c0 .2.2.3.4.3h.1c.2-.1.3-.3.3-.5v-.1c-.1-.2-.3-.3-.5-.3-.2.1-.3.3-.3.6zM24 125.9c.1.2.2.3.3.3h.1c.2-.1.3-.3.2-.5-.1-.2-.3-.3-.5-.2-.1 0-.2.2-.1.4zM25.3 129.9c.3 0 .4-.2.4-.4v-.1c0-.2-.2-.3-.4-.3s-.3.2-.3.4c0 .3.1.4.3.4zM22.3 52.1s-.1 0 0 0c-.1.2-.1.4.1.5.1 0 .1.1.2.1s.2-.1.3-.2c.1-.2.1-.4-.1-.5s-.4-.1-.5.1zM138.6 33.7c-.1-.2-.3-.2-.5-.1s-.2.3-.1.5c.1.1.2.2.3.2s.1 0 .2-.1c.2-.1.2-.3.1-.5zM138.1 32.6c-.1-.2-.3-.3-.5-.2s-.3.3-.2.5c.1.1.2.2.3.2h.2c.3 0 .3-.2.2-.5zM137.3 143.7c.1-.2.1-.5-.1-.6-.2-.1-.4-.1-.5.1-.1.2-.1.4.1.5.1 0 .1.1.2.1.1.1.2 0 .3-.1zM137.4 30.4c-.1-.2-.3-.3-.5-.2-.2.1-.3.3-.2.5.1.1.2.2.3.2h.1c.3 0 .4-.2.3-.5zM137.7 31.5c-.1-.2-.3-.3-.5-.2-.2.1-.3.3-.2.5.1.1.2.2.3.2h.1c.3 0 .4-.2.3-.5zM137.7 142.8c.1 0 .2-.1.3-.2.1-.2.1-.4-.1-.5-.2-.1-.4-.1-.5.1-.1.2-.1.4.1.5 0 .1.1.1.2.1zM139 140c-.2.2-.1.5 0 .6s.2.1.2.1c.1 0 .2 0 .3-.1.1-.2.1-.4 0-.5-.2-.3-.4-.3-.5-.1zM140 35.7c-.1-.2-.4-.2-.5-.1-.2.1-.2.4-.1.5.1.1.2.2.3.2s.2 0 .2-.1c.2 0 .2-.3.1-.5zM138.4 141.7c.1 0 .2-.1.3-.2.1-.2.1-.4-.1-.5-.2-.1-.4-.1-.5.1-.1.2-.1.4.1.5.1.1.2.1.2.1zM139.3 34.6c-.1-.2-.3-.2-.5-.1s-.2.4-.1.5c.1.1.2.2.3.2s.1 0 .2-.1c.2 0 .2-.2.1-.5zM135.6 146.2h.2c.1 0 .3-.1.3-.2.1-.2 0-.4-.2-.5s-.4 0-.5.2c-.1.2 0 .4.2.5zM150.6 45s0 .1 0 0h.2c.1 0 .3-.1.3-.2.1-.2 0-.4-.2-.5-.2-.1-.4 0-.5.2s0 .5.2.5zM155.1 130.6c-.2 0-.3.2-.3.4s.2.3.4.3.3-.2.3-.4-.1-.4-.4-.3zM150.4 132.5h.1c.2-.1.3-.3.3-.5-.1-.2-.3-.3-.5-.3h-.1c-.2.1-.3.3-.3.5.2.2.3.3.5.3zM155.5 46.5c.2 0 .4-.2.4-.4s-.1-.4-.3-.4c-.2 0-.4.1-.4.4-.1.2 0 .4.3.4zM139.8 139c-.2.2-.2.4 0 .6.1.1.2.1.2.1.1 0 .2 0 .3-.1.1-.2.1-.4 0-.5-.1-.3-.4-.3-.5-.1zM134.7 31.4c.3 0 .4-.2.4-.4s-.2-.4-.4-.4-.4.2-.4.4.1.4.4.4zM136.4 145.1c.1 0 .2-.1.3-.2.1-.2.1-.4-.1-.5-.2-.1-.4-.1-.5.1-.1.2-.1.4.1.5 0 0 .1.1.2.1zM135.9 31.3c.2 0 .4-.2.4-.4s-.2-.4-.4-.3h-.1c-.2 0-.3.2-.3.4.1.1.2.3.4.3zM135 147.1c.3 0 .4-.2.4-.4s-.1-.4-.3-.4h-.1c-.2 0-.4.2-.4.4s.2.4.4.4zM144.5 134.4c-.2.1-.2.4-.1.5.1.1.2.2.3.2s.1 0 .2-.1c.2-.1.2-.4.1-.5 0-.2-.3-.2-.5-.1zM146.9 133c-.2.1-.3.3-.2.5.1.1.2.2.3.2h.2c.2-.1.3-.3.2-.5-.1-.2-.4-.3-.5-.2zM147.5 42.6c-.2-.1-.4-.1-.6.1-.1.2 0 .4.1.5.1 0 .1.1.2.1s.2-.1.3-.2c.3-.2.2-.4 0-.5zM146.4 41.8c-.2-.1-.4-.1-.5.1-.1.2-.1.4.1.5.1 0 .1.1.2.1s.2-.1.3-.2c.2-.1.1-.3-.1-.5zM145.4 41.1c-.2-.1-.4-.1-.5.1-.1.2-.1.4.1.5.1 0 .1.1.2.1s.2-.1.3-.2c.1-.1.1-.4-.1-.5zM145.7 133.6c-.2.1-.3.4-.2.6.1.1.2.2.3.2s.1 0 .2-.1c.2-.1.2-.3.1-.5 0-.2-.2-.3-.4-.2zM147.9 132.5c-.2.1-.3.3-.2.5s.2.2.3.2h.1c.2-.1.3-.3.2-.5 0-.2-.2-.3-.4-.2zM149 132.1c-.2.1-.3.3-.2.5s.2.3.4.3h.1c.2-.1.3-.3.2-.5 0-.3-.2-.4-.5-.3zM148.6 43.2c-.2-.1-.4-.1-.5.1-.1.2 0 .4.2.5h.2c.1 0 .3-.1.3-.2.1 0 0-.3-.2-.4zM133.7 146.3c-.2 0-.4.2-.4.4s.1.4.4.4h.1c.2 0 .4-.2.4-.4-.1-.3-.2-.4-.5-.4zM149.8 43.8c-.2-.1-.4 0-.5.2s0 .4.2.5h.2c.1 0 .3-.1.3-.2 0-.2-.1-.4-.2-.5zM141.4 38.3c.1 0 .2 0 .3-.1.2-.1.2-.4 0-.5-.1-.2-.4-.2-.5 0-.1.1-.2.4 0 .5 0 0 .1.1.2.1zM140.5 37.3c.1 0 .2 0 .2-.1.2-.1.2-.4 0-.5-.1-.2-.4-.2-.5-.1-.2.1-.2.4 0 .5.1.1.2.2.3.2zM141.6 137c-.2.2-.2.4 0 .6.1.1.2.1.3.1s.2 0 .3-.1c.1-.1.1-.4 0-.5-.2-.2-.5-.2-.6-.1zM140.9 138.7c.1 0 .2 0 .3-.1.1-.2.1-.4 0-.5s-.4-.1-.5 0c-.1.2-.1.4 0 .5 0 0 .1.1.2.1zM142 39.1c.1.1.2.1.3.1s.2 0 .3-.1c.1-.2.1-.4 0-.5-.1-.1-.4-.1-.5 0-.3.1-.3.3-.1.5zM142.5 136.1c-.2.2-.2.4-.1.6.1.1.2.1.3.1s.2 0 .2-.1c.2-.1.2-.4 0-.5 0-.2-.2-.3-.4-.1zM144.4 40.3c-.2-.1-.4-.1-.5.1-.1.2-.1.4.1.5.1.1.2.1.2.1.1 0 .2 0 .3-.1.1-.2.1-.5-.1-.6zM143.5 135.2c-.2.2-.2.4-.1.6.1.1.2.1.3.1s.2 0 .2-.1c.2-.1.2-.4.1-.5-.1-.2-.3-.2-.5-.1zM143.2 40.1c.1 0 .2 0 .3-.1.1-.2.1-.4 0-.5-.2-.1-.4-.1-.5 0-.1.2-.1.4 0 .5 0 .1.1.1.2.1zM133.6 31.3c.2 0 .4-.2.4-.4s-.1-.4-.4-.4c-.2 0-.4.2-.4.4s.1.4.4.4z"/></svg>