<svg id="Слой_1" xmlns="http://www.w3.org/2000/svg" viewBox="0 0 22 27"><style>.st0{fill-rule:evenodd;clip-rule:evenodd;fill:#3c3c3b}</style><path class="st0" d="M17.4 8.9c-.3-2.5-1-5.4-2.6-7.2C13.8.6 12.5 0 11 0S8.2.6 7.2 1.7C5.5 3.5 4.9 6.4 4.6 8.9H0V27h22V8.9h-4.6zM8.1 2.7c.8-.9 1.7-1.3 2.9-1.3s2.1.4 2.8 1.3c1.3 1.5 2 4 2.2 6.2H5.9c.4-2.8 1.1-5 2.2-6.2zm12.5 22.9H1.4v-2.1h19.3v2.1zm0-3.6H1.4v-1.5h19.3V22zm0-2.9H1.4v-8.8h3.1c-.1 1.7-.1 2.9 0 3.1l1.4-.1s-.1-1.3.1-3h10.4c.1 1.7.1 3 .1 3l1.4.1c0-.1.1-1.4 0-3.1H21v8.8z"/></svg>