<svg id="Слой_1" xmlns="http://www.w3.org/2000/svg" xmlns:xlink="http://www.w3.org/1999/xlink" viewBox="0 0 22 27"><style>.st0{clip-path:url(#SVGID_2_);fill:#3c3c3b}</style><defs><path id="SVGID_1_" d="M18.4 8.3c0 .5-.4.9-.9.9h-1.2c-.5 0-.9-.4-.9-.9V7.1c0-.5.4-.9.9-.9h1.2c.5 0 .9.4.9.9v1.2zm0 12.8H3.6v-9.6h2.7c-.3.6-.5 1.4-.5 2.1 0 2.9 2.3 5.2 5.2 5.2s5.2-2.3 5.2-5.2c0-.8-.2-1.5-.5-2.1h2.7v9.6zm-9.8-9.6c.6-.7 1.4-1.1 2.4-1.1s1.8.4 2.4 1.1c.5.6.8 1.3.8 2.1 0 1.8-1.4 3.2-3.2 3.2-1.8 0-3.2-1.4-3.2-3.2 0-.8.3-1.6.8-2.1zm10.7-7.3H2.7c-.6 0-1.1.5-1.1 1.1V22c0 .6.5 1.1 1.1 1.1h16.6c.6 0 1.1-.5 1.1-1.1V5.4c0-.7-.5-1.2-1.1-1.2z"/></defs><use xlink:href="#SVGID_1_" overflow="visible" fill-rule="evenodd" clip-rule="evenodd" fill="#3c3c3b"/><clipPath id="SVGID_2_"><use xlink:href="#SVGID_1_" overflow="visible"/></clipPath><path class="st0" d="M-3.4-.8h28.8V28H-3.4z"/></svg>