<svg id="Слой_1" xmlns="http://www.w3.org/2000/svg" xmlns:xlink="http://www.w3.org/1999/xlink" viewBox="0 0 22 27"><style>.st0{clip-path:url(#SVGID_2_);fill:#3c3c3b}</style><defs><path id="SVGID_1_" d="M7.1 22.6C3 20.9.1 16 1.6 10.9 3.2 5.6 8.7 2.7 14 4.4c5.2 1.7 8 7.4 6.1 12.6-1.9 5.2-7.4 7.4-11.9 6 0 0 0-.1.1-.1.4-.7.7-1.3.9-2.1.2-.8.4-1.6.6-2.5v-.1c.3.5.8.8 1.3 1 .5.2 1.1.2 1.6.2 1-.1 1.9-.5 2.6-1.2.7-.6 1.2-1.4 1.5-2.3.3-.8.5-1.6.5-2.4.1-.7 0-1.5-.2-2.2-.5-1.5-1.4-2.6-2.8-3.4-.7-.4-1.5-.6-2.3-.7-1.4-.1-2.8 0-4.1.6-1.7.8-2.8 2-3.4 3.8-.4 1.2-.4 2.5.1 3.7.4.7.9 1.2 1.5 1.6.1 0 .2.1.4.1.2.1.4 0 .4-.2.1-.3.2-.6.2-1 0-.1-.1-.2-.1-.3-.1-.2-.3-.4-.4-.6-.2-.5-.3-1-.3-1.5 0-.7.2-1.4.5-2 .7-1.4 1.8-2.2 3.3-2.5.9-.2 1.8-.1 2.7.2 1.3.5 2.1 1.4 2.3 2.8.1.5.1 1.1 0 1.6-.1.6-.2 1.3-.4 1.9-.2.6-.5 1.1-1 1.6s-1 .8-1.7.8-1.4-.5-1.5-1.3c-.1-.3 0-.6.1-.8l.6-2.1c.1-.4.2-.8.2-1.3 0-.4-.1-.8-.5-1.1-.4-.4-.9-.4-1.4-.2-.5.2-.8.6-1 1-.3.6-.3 1.1-.3 1.7 0 .4.1.8.3 1.1v.1c-.4 1.7-.8 3.5-1.2 5.2-.2.7-.2 1.4-.2 2.1v.4"/></defs><use xlink:href="#SVGID_1_" overflow="visible" fill-rule="evenodd" clip-rule="evenodd" fill="#3c3c3b"/><clipPath id="SVGID_2_"><use xlink:href="#SVGID_1_" overflow="visible"/></clipPath><path class="st0" d="M-3.8-1.1h29.6v29.6H-3.8z"/></svg>