<svg id="Слой_1" xmlns="http://www.w3.org/2000/svg" viewBox="0 0 56.5 12.3"><style>.st0{fill:#4a4a4a}</style><path class="st0" d="M.9 11c1.5 1.7 5 2 5.8-.6.3-.9-1-1.2-1.3-.4-.3 1.2-1.9 1.1-2.8.7-1.3-.6-1.4-2.1-1.2-3.3.5-2.8 3.6-3.6 6-3.7 5-.4 9.7 2.8 14.1 4.9 3 1.4 6.1 2.6 9.4 2.8 2.2.2 4.9 0 6.3-2 .5.3 1 .6 1.3.7 3.6 1.5 7.9 1.7 11.5.7 2.8-.8 6.2-3.4 6.4-6.7.1-2.8-1.9-4.7-4.7-4-2 .5-2.6 3.7-.7 4.7.8.4 1.4-.8.7-1.2-1.4-.7.1-2.2 1-2.3 1.5-.2 2.3 1 2.4 2.4.2 2.1-1.9 4-3.4 4.9-3.6 2.2-8.6 1.7-12.4.3-.5-.2-1-.4-1.5-.7.2-.6.2-1.4-.2-2.1-.3-.7-1.5-1.8-2.3-1.2-1.6 1.3-.6 2.8.8 3.9-.6.6-1.5 1.1-2.1 1.2-2.7.7-5.8-.1-8.3-1C18.8 6.5 10.1-1 2.5 3.8.3 5.1-1 8.9.9 11zm35.8-3.4c-.3-.3-.5-.6-.7-.9-.5-1.2.3-.1.5.1.2.3.2.5.2.8z"/></svg>