<svg width="194" height="126" viewBox="0 0 194 126" xmlns="http://www.w3.org/2000/svg"><title>angels_contacts</title><g id="Page-1" fill="none" fill-rule="evenodd" opacity=".109"><g id="angels_contacts" fill="#2F3232"><g id="Page-1"><g id="Imported-Layers"><path d="M100.01422,112.54635 C100.033055,111.7683 99.3455793,111.69711 98.8797282,111.40416 C98.1608608,112.11228 99.3123042,113.26896 100.01422,112.54635" id="Fill-1"/><path d="M134.507294,15.38586 C133.855605,11.12895 129.165702,10.92546 127.832188,7.37352 C125.727696,13.05864 132.468725,12.726 134.507294,15.38586" id="Fill-2"/><path d="M119.161204,12.38013 C118.482518,13.9104 117.315379,14.98896 116.830065,16.72524 C118.633825,16.68618 120.944874,13.82031 119.161204,12.38013" id="Fill-3"/><path d="M127.833443,19.06128 C126.535715,17.35335 126.997799,13.89402 125.162647,12.7197 C124.347094,15.26427 125.548136,18.52137 127.833443,19.06128" id="Fill-4"/><path d="M133.169385,16.05744 C130.169605,16.72524 129.853178,14.71176 127.832188,14.38353 C127.552175,17.35335 128.999955,18.56925 131.507515,18.73431 C132.372667,18.16227 133.196382,17.52786 133.169385,16.05744" id="Fill-5"/><path d="M53.085055,93.94119 C54.0694951,96.29424 53.1760906,100.52469 55.0865825,101.97684 C56.1802654,100.07928 55.1393204,97.86546 55.7470615,95.27553 C54.778945,94.91391 54.5001877,93.87 53.085055,93.94119" id="Fill-6"/><path d="M78.4400388,97.28586 C79.5029579,100.36656 84.852712,100.87182 87.7871974,100.96002 C86.2351974,98.16723 82.1586861,97.91334 78.4400388,97.28586" id="Fill-7"/><path d="M65.7678835,100.96128 C64.8198576,100.36152 64.0670874,99.53937 63.0851586,98.95599 C62.7498964,100.6992 64.7652362,102.67551 65.7678835,100.96128" id="Fill-8"/><path d="M137.190019,99.96714 C136.753049,99.94635 136.710984,99.53748 136.18235,99.62253 C136.045482,100.93104 134.266835,100.61919 134.178311,101.9781 C134.381728,102.42225 134.890272,102.58794 135.508686,102.63519 C136.347469,102.03165 137.095217,101.34306 137.190019,99.96714" id="Fill-9"/><path d="M60.7628091,106.31754 C61.5231133,105.97167 61.4565631,104.77404 61.4220324,103.63626 C59.1379806,104.6871 58.323055,101.1213 57.7586343,102.63519 C58.3180324,104.30343 59.181301,105.65982 60.7628091,106.31754" id="Fill-10"/><path d="M73.443754,107.99397 C71.8346214,106.47945 70.6335793,104.57181 69.4312816,102.63519 C66.1841359,101.49993 61.3579935,105.02478 63.7537994,107.32302 C64.3389385,104.20011 67.2671456,104.35005 70.1043172,104.9769 C69.907178,106.21674 71.1377282,106.91352 70.4389515,107.65125 C69.1085761,107.11134 68.4493528,105.85638 66.754835,105.65163 C65.9060065,105.90174 65.6052751,106.7157 65.7678835,107.99397 C68.3595728,107.62038 67.4806084,110.73321 68.7701748,111.66939 C69.6654628,111.34998 69.1085761,109.56456 69.765288,108.99504 L70.7779806,108.99504 C70.9801424,111.31974 70.0239547,112.47957 68.4349126,113.00373 C67.7970356,112.8645 67.832822,112.04739 66.754835,112.3416 C65.6347832,112.59549 64.9177994,114.4962 65.7678835,115.69068 C67.1440906,115.85322 67.2388932,114.70977 68.7701748,115.01721 C68.2145437,116.36163 66.3888091,116.41518 64.4349968,116.35848 C65.3353074,119.98854 70.306479,116.37801 71.1082201,114.68457 C74.5003948,116.5185 73.5460906,122.71707 78.1135663,123.37668 C73.3338835,119.38311 74.1149061,108.98496 77.4436699,103.63563 C76.2005631,103.29417 76.4987832,104.47605 75.4364919,104.3091 C75.5758706,103.83534 75.8408155,103.75722 75.4364919,103.30299 C74.432589,103.51215 73.7356958,104.04891 73.7727379,105.32088 C74.6259612,105.66927 74.9405049,103.86621 75.4364919,104.9769 C74.302,105.50799 74.3961748,107.27766 73.443754,107.99397" id="Fill-11"/><path d="M127.49567,107.32239 C128.005469,105.59619 129.329566,104.70474 129.50222,102.63393 C127.682764,102.47013 127.738013,104.21523 126.831424,104.97753 C124.893935,104.34879 124.78532,104.91768 122.496874,103.97583 C123.418531,107.0622 125.719534,108.77265 125.162647,113.337 C125.608408,113.99346 126.933761,112.67046 127.161663,114.01236 C126.364945,116.77176 125.285702,119.26593 124.83743,122.38191 C127.738013,121.49739 126.207987,116.18271 129.50222,115.69005 C130.271942,117.9801 133.481417,119.45304 136.521379,118.36314 C136.773767,116.98659 134.913502,117.73314 135.17468,116.35848 L136.521379,116.35848 C136.712239,113.53482 138.371599,113.28471 138.515372,111.00789 C138.758343,107.19765 134.3089,101.43378 130.175883,103.97583 C129.872013,104.96178 129.872013,105.0021 130.175883,105.98364 C128.232117,106.04916 128.272926,108.09477 127.161663,108.9963 C126.466026,108.22959 125.184621,106.31754 125.498537,105.65226 C126.379385,105.99372 126.623612,106.96896 127.49567,107.32239 L127.49567,107.32239 L127.49567,107.32239 Z M130.175883,106.31754 C132.408453,104.82318 134.195262,105.31647 135.2789,106.70499 C134.880854,106.81083 134.558149,106.99227 134.20154,107.14095 C133.877579,106.85115 133.411728,106.69869 133.168129,106.31754 C132.112744,107.03889 131.416479,108.11934 129.838738,108.31842 C129.599534,107.3016 130.413832,107.33373 130.175883,106.31754 L130.175883,106.31754 L130.175883,106.31754 Z M130.175883,110.00367 C131.704654,109.80018 129.982511,112.87395 131.835243,112.34097 C132.21257,110.83338 132.678421,109.42785 133.804123,108.67689 C133.770848,108.74871 133.723761,108.82116 133.644654,108.89739 C134.462718,109.03977 134.74901,108.63909 135.244997,108.44316 C135.140777,107.78355 135.295223,107.38035 135.486712,107.01117 C136.65134,108.79218 136.812065,111.71412 135.509942,114.01236 C133.57622,113.98464 132.902557,112.92183 131.50877,114.01236 C130.586485,113.49387 128.415443,111.00789 130.175883,110.00367 L130.175883,110.00367 L130.175883,110.00367 Z" id="Fill-12"/><path d="M42.7352492,106.65144 C43.575288,106.9362 44.0386278,107.57187 45.0657605,107.65062 C44.6545307,106.19091 44.9841424,106.16382 45.4104401,104.97627 C44.4027702,104.53968 43.5947508,103.89771 42.0772816,103.97583 C42.4765825,104.96934 43.5909838,105.26796 42.7352492,106.65144" id="Fill-13"/><path d="M51.4106278,104.64867 C50.5988414,106.27848 47.7032816,105.83433 46.7276311,107.32239 C47.5664142,109.10403 48.9532945,107.57943 50.745754,107.65062 C51.3792362,108.69201 51.4947573,110.23803 52.7485372,110.66895 C53.0059482,109.53369 52.5959741,108.18171 53.7449061,107.32239 C54.9120453,107.793 55.8763948,106.38306 56.4182136,107.32239 C56.0302136,109.2798 54.8812816,108.1521 53.4215728,107.99334 C53.2263172,109.63575 53.849754,110.45538 55.0865825,110.66895 C56.2826019,110.75337 56.3026926,109.66095 57.4221165,109.66095 C58.711055,110.92158 59.2415728,112.95459 61.4220324,113.337 C59.3658835,110.7225 59.9842977,105.41097 56.7559871,103.97583 C55.5970097,104.93847 53.5245372,104.96934 52.0698511,105.65163 C52.0528997,105.12621 52.1238447,104.49432 51.4106278,104.64867" id="Fill-14"/><path d="M80.7831068,113.67594 C82.8367443,114.63669 84.5362848,115.93071 86.449288,117.02754 C88.2712557,116.4933 89.09811,114.98382 90.4617605,114.01173 C90.5025696,117.18063 88.2430032,118.3266 88.3346667,120.32181 C88.1977994,120.29031 88.0515146,120.26889 87.9052298,120.24747 C87.9246926,120.6135 88.0446084,120.87621 88.251165,121.05198 C87.0965825,121.16097 87.482699,119.71449 86.7989903,119.3598 C85.3505825,119.67606 83.1305696,119.70252 82.778356,118.0179 C83.554356,118.12689 84.0315081,118.54899 85.1189126,118.36377 C83.9341942,115.95402 80.8509126,114.92271 78.4400388,114.68457 C77.5196375,120.50199 82.2723236,121.69962 86.449288,121.37013 C86.0085502,123.15492 82.8945049,122.26473 82.4412104,124.04448 C83.5311262,124.62975 85.7888091,123.94557 86.7989903,123.37668 C88.6090291,126.31311 93.5092557,125.25219 95.7977023,123.37668 C96.6565761,124.62408 100.688511,126.56763 101.478951,124.71228 C99.4849579,123.69168 97.6617346,122.5098 95.4567896,121.70403 C94.022822,122.46948 90.5722589,124.677 89.1288738,122.38254 C95.2288867,121.82184 96.0124207,115.92378 97.6152751,110.85669 C97.8155534,110.88063 98.0152039,110.9052 98.1972751,110.94804 C98.1225631,109.7397 99.4278252,109.90728 99.5596699,108.89802 C99.1722977,108.74619 98.738466,108.76824 98.3134239,108.88983 C98.6405243,108.08658 99.0128285,107.32932 99.4648673,106.65207 C98.2569191,105.76188 97.8337605,107.96877 96.4644595,107.99397 C96.4939676,107.40744 96.4123495,106.95132 96.1266861,106.65207 C92.8387314,107.38791 93.7440647,103.91976 91.12789,103.97646 C93.9437152,107.69031 96.8857346,117.67518 90.4617605,119.70252 C90.3826537,119.22183 89.8985955,119.13615 89.7937476,118.69326 C96.2792492,116.75475 92.2429191,110.5272 89.4597411,107.32302 C90.0436246,107.24616 91.12789,107.65692 90.7938835,106.65207 C90.6978252,105.97104 89.8860388,105.99435 89.7937476,105.32088 C88.0891845,105.61131 85.9702524,105.50799 85.4516634,106.98408 C86.2276634,108.43812 89.426466,107.47485 89.1288738,110.00304 C87.9215534,109.1979 85.6205502,109.48392 84.1237994,108.99504 C83.5173139,109.92429 83.7960712,112.08015 83.4513916,112.3416 C82.5987961,111.9699 83.5851197,109.74852 82.778356,109.32768 C83.1676117,108.23022 85.5835081,107.86545 84.7924401,106.65207 C83.2825049,104.55039 81.7305049,108.23022 80.439055,107.32302 C80.2211974,105.98742 81.3337152,105.97104 81.1120906,104.64867 C79.6875405,104.10309 78.9165631,106.81713 78.1135663,107.99397 C80.2864919,108.60318 80.0341036,111.636 80.7831068,113.67594 L80.7831068,113.67594 L80.7831068,113.67594 Z M89.4597411,113.33763 C88.7345955,113.85171 88.6837411,115.01721 87.4444013,115.01721 C88.4759288,113.22297 86.8655405,112.3416 86.449288,111.00852 C88.131877,111.10491 89.0265372,111.99321 89.4597411,113.33763 L89.4597411,113.33763 L89.4597411,113.33763 Z M86.1253269,114.34059 C85.0416893,114.43068 84.513055,113.95314 84.4465049,113.00373 C85.5452104,112.9149 86.0587767,113.39874 86.1253269,114.34059 L86.1253269,114.34059 L86.1253269,114.34059 Z" id="Fill-15"/><path d="M107.143249,104.64867 C106.955528,105.83496 108.338013,105.4746 108.142129,106.65081 C107.509903,106.68987 107.911715,107.76402 107.143249,107.65125 C105.907676,107.89758 105.713049,107.08803 104.473709,107.32302 C103.376259,108.58932 105.928395,109.23192 105.146117,110.00304 C105.07266,109.50408 104.34312,109.69056 103.809463,109.66221 C105.290518,111.65364 105.508375,115.2963 103.143333,116.68545 L103.143333,115.35174 C101.449443,115.22322 100.819728,116.14554 100.481327,117.35766 C99.6864919,117.25434 99.8553786,116.19909 98.8081553,116.35911 C98.2186214,117.33435 97.5863948,118.24722 97.4645955,119.70252 C99.2149903,120.3993 99.771877,122.30505 102.140686,122.38254 C102.395586,120.77415 100.954084,120.89322 101.14055,119.3598 C103.106291,119.28861 103.206117,121.09167 103.809463,122.38254 C103.663178,123.56442 102.690039,123.92352 102.468414,125.05059 C104.255851,125.82297 105.4751,125.54451 106.81301,124.71102 C108.15657,126.32949 112.714628,125.93889 114.14734,124.71102 C114.951592,125.88597 118.248337,126.06804 119.818544,125.37882 C119.801592,123.2973 117.066757,123.9021 116.491663,122.38254 C118.975994,121.96422 121.634233,121.74372 122.160356,119.3598 C121.7711,118.86147 121.207307,118.54962 121.153942,117.6903 C123.845456,116.24697 121.900434,111.70908 123.508311,109.66221 C122.402071,108.30708 121.799353,106.44606 119.818544,105.98742 C118.763159,106.67349 120.458304,108.17478 119.493327,108.65673 C118.274078,108.2844 117.418971,107.03385 116.155146,107.65125 C116.023301,109.53369 118.201249,109.10277 118.503236,111.00726 C118.797689,113.0535 117.239411,115.44435 115.138686,115.01784 C116.978233,113.82588 117.814505,112.36113 117.14712,110.00304 C115.755217,110.45601 113.608032,110.62737 112.144557,110.33253 C112.796246,109.29429 113.612427,108.45387 115.495294,108.65673 C115.948589,106.33455 112.295864,106.64073 111.477799,106.65081 C110.558026,107.5725 111.781042,108.0576 111.814317,108.99567 C107.135715,111.30336 111.141909,117.6147 115.495294,117.6903 C117.644362,116.05671 119.998731,114.63669 120.823702,111.66939 C122.299735,115.09155 119.642751,117.13275 117.14712,117.6903 C116.696337,118.74996 117.081825,118.81233 117.14712,120.03327 C116.607184,120.59082 115.200841,120.29661 114.14734,120.37158 C113.894951,121.11498 113.964013,122.18472 113.152227,122.38254 C112.585294,121.82751 112.886026,120.40812 112.81822,119.3598 C110.97679,118.85013 111.628479,120.8592 110.146168,120.69981 C105.092123,117.00234 107.383081,108.62901 110.477663,104.64867 C109.098317,105.71463 108.139618,103.85613 107.143249,104.64867 L107.143249,104.64867 L107.143249,104.64867 Z M113.82589,116.01639 C112.714628,115.89858 112.368693,115.01784 111.814317,114.34059 C112.130744,112.98294 113.009081,112.18977 114.485113,111.99888 C114.168058,113.35968 112.843961,114.34941 113.82589,116.01639 L113.82589,116.01639 L113.82589,116.01639 Z M109.144777,123.04467 C110.243482,123.05727 110.805392,123.61356 112.144557,123.37668 C111.924816,124.52076 108.855346,125.01846 109.144777,123.04467 L109.144777,123.04467 L109.144777,123.04467 Z" id="Fill-16"/><path d="M43.7441748,100.96128 C43.7761942,103.59468 45.9045437,104.14026 47.4050615,105.32088 C49.4882071,104.91831 50.8575081,103.91976 52.7472816,103.63689 C52.3887896,99.97344 49.4009385,96.18273 50.4130032,93.27465 C48.8459353,88.89237 41.9134175,91.61145 44.735521,96.28353 C46.0539676,95.9301 46.9467443,93.36789 48.4051974,94.27509 C48.0605178,96.25455 45.4870356,96.01515 45.4104401,98.28819 C45.9798835,99.1683 47.078589,99.50787 47.7434628,100.29915 C48.0981877,99.99108 47.854589,99.06183 48.7435987,99.28863 C51.6705502,103.41891 46.1249126,102.94389 43.7441748,100.96128 L43.7441748,100.96128 L43.7441748,100.96128 Z M47.4050615,98.28819 C47.4446149,97.44588 47.8928867,96.99165 48.7435987,96.95385 C48.7034175,97.7949 48.2513786,98.24598 47.4050615,98.28819 L47.4050615,98.28819 L47.4050615,98.28819 Z" id="Fill-17"/><path d="M142.862479,110.66832 C143.233528,111.74688 145.100071,111.53457 145.518835,111.67002 C145.444751,112.79394 143.570045,113.23368 144.533139,114.34122 C147.536686,114.13647 147.887644,111.26178 148.858272,108.99567 C149.832667,108.18171 150.607411,109.71576 151.53723,110.00304 C152.332065,109.58787 152.613961,108.62964 152.860699,107.65125 C149.562699,106.50717 147.058278,106.06302 144.182181,104.97753 C144.539417,103.65327 145.189851,102.64275 146.184964,101.9781 C146.398427,99.76365 145.197385,98.13636 147.512828,97.96059 C147.175683,100.32876 148.355379,102.15387 147.512828,103.9752 C148.809929,105.35868 151.564227,106.52481 153.535618,105.32088 C155.378304,101.05011 153.689437,96.86628 150.189903,95.27616 C148.590816,95.00778 148.98635,96.73965 147.188867,96.28416 C148.75468,92.14191 152.426867,95.87025 154.865994,96.62247 C155.861107,95.0355 154.192958,93.60981 153.535618,92.59614 C148.322104,91.73682 146.431702,94.17429 143.185812,95.27616 C143.145003,96.63633 144.813152,98.77518 143.185812,99.62253 C142.822298,98.87787 142.637715,97.96059 142.185049,97.2783 C141.14222,97.12017 141.426628,98.30898 140.178498,97.96059 C140.068,100.07172 139.423845,101.66688 138.846867,103.31055 C140.842744,103.0869 140.378149,100.38042 141.518919,99.28926 C144.114375,104.75325 139.83633,109.62 138.186388,114.34122 C140.913689,114.30216 140.771172,111.36762 142.862479,110.66832 L142.862479,110.66832 L142.862479,110.66832 Z M150.189903,101.30841 C151.686654,102.2301 152.283722,100.55367 153.194078,101.30841 C152.689301,102.34602 151.304304,102.50919 150.853521,103.63626 C149.545748,103.59342 149.879126,102.1419 150.189903,101.30841 L150.189903,101.30841 L150.189903,101.30841 Z M143.185812,107.99397 C144.283262,108.00846 144.84266,108.55719 146.184964,108.31716 C145.74046,109.10592 144.697003,109.28043 143.859476,109.66221 C143.715074,109.02339 142.897638,109.05678 143.185812,107.99397 L143.185812,107.99397 L143.185812,107.99397 Z" id="Fill-18"/><path d="M159.107625,48.07089 C160.904479,48.53646 160.164893,46.44234 161.126104,46.07253 C164.031709,45.39528 166.231631,45.39843 168.175398,46.81845 C166.941081,44.14221 167.793676,43.40007 167.551333,40.75848 C165.365223,40.66902 163.223689,40.62177 162.200324,41.70978 C161.924078,42.75306 163.094356,42.3738 162.862058,43.40322 C160.949055,44.29341 159.560919,45.69642 159.107625,48.07089" id="Fill-19"/><path d="M36.3545955,46.35162 C37.3164337,46.72143 36.5768479,48.81555 38.3737023,48.34998 C37.9197799,45.97551 36.5322718,44.5725 34.6186408,43.68294 C34.3869709,42.65289 35.5566214,43.03278 35.2803754,41.98887 C34.2576375,40.90086 32.1161036,40.94811 29.9299935,41.03757 C29.6876505,43.67916 30.540246,44.42193 29.3059288,47.09754 C31.2496958,45.67752 33.4489903,45.67437 36.3545955,46.35162" id="Fill-20"/><path d="M84.7886731,18.61839 C84.7886731,18.61083 84.778,18.61839 84.7717217,18.62154 C83.9260324,19.88406 86.4700065,21.10248 87.3835016,21.18816 C88.277534,21.27636 88.9285955,20.98593 89.6656699,20.49327 C90.3883042,20.01069 91.3771392,19.04553 92.3220259,19.29186 C92.403644,19.31643 92.5128867,19.23075 92.4752168,19.13814 C92.1173528,18.2826 90.4253463,19.10097 89.8628091,19.26477 C89.0478835,19.49409 88.2229126,19.80153 87.3696893,19.80153 C86.1968997,19.80531 85.7605566,18.7992 84.7886731,18.61839" id="Fill-21"/><path d="M128.674738,45.05634 C125.223547,45.99063 120.855094,45.49797 118.34879,47.85543 C118.552835,48.01608 118.75123,48.15657 118.959042,48.27942 C119.225243,48.40983 119.511534,48.51252 119.82545,48.58056 C120.186453,48.64923 120.244841,48.97809 120.124926,49.23135 C120.862,50.71626 122.70343,50.3874 124.207715,50.21667 C124.330142,50.20659 124.446291,50.19651 124.568718,50.17572 C124.582531,50.17572 124.602621,50.17572 124.613294,50.17194 C124.684867,50.16186 124.749534,50.15871 124.817968,50.148 C125.680608,49.98042 125.421314,48.70467 124.609528,48.67317 C123.920796,48.63915 123.238971,48.73176 122.546472,48.7179 C122.277133,48.7179 121.950032,48.69396 121.618537,48.63915 C121.59154,48.55347 121.57145,48.46464 121.546964,48.37581 C122.921916,46.24389 128.370867,48.27627 128.674738,45.05634" id="Fill-22"/><path d="M80.3586926,22.38579 C80.4233592,23.77494 81.729877,23.90472 83.0087702,24.09687 C82.838,22.82679 81.5930097,22.5981 80.3586926,22.38579" id="Fill-23"/><path d="M80.9074175,32.25474 C79.6800065,30.99915 75.7516634,29.31894 73.6886084,30.24945 C72.4159935,30.82779 71.9080777,32.55588 72.7198641,33.8562 C73.5994563,32.81229 74.4966278,32.86395 74.6805825,33.71256 C74.4589579,34.46919 73.5617864,34.62921 73.6333592,35.75565 C74.3327638,35.56728 74.3327638,35.56728 74.7490162,35.48475 C75.3523625,35.42994 75.4886019,35.3619 75.6392816,35.63217 C75.6970421,35.74179 76.0241424,36.63828 77.1837476,36.18972 C77.4631327,34.55046 78.4902654,35.14266 79.4006214,34.98579 C79.4075275,32.76126 76.1026214,33.65775 75.1721748,33.03846 C75.3592686,31.65246 79.6322913,32.00841 80.9074175,32.25474" id="Fill-24"/><path d="M76.5019223,6.22377 C74.4865825,5.64921 74.2134757,3.36987 72.1811845,2.81232 C72.9176311,4.42008 75.0214951,6.43923 76.5019223,6.22377" id="Fill-25"/><path d="M124.790343,32.25789 C126.294628,31.65246 127.825282,31.06719 129.158796,30.27969 C128.013003,28.11375 124.909631,30.26646 124.790343,32.25789" id="Fill-26"/><path d="M130.809366,31.97754 C125.575133,30.86244 122.812673,36.78885 129.441948,35.3241 C130.062874,34.74261 129.301942,34.35201 129.124893,33.64767 C129.817392,33.22305 130.826945,33.12792 130.809366,31.97754" id="Fill-27"/><path d="M167.448997,19.25091 C167.875294,17.4069 169.181812,14.70987 168.82646,13.22496 C167.650531,14.37471 166.183916,15.25041 165.457515,16.88274 C166.289392,17.50266 166.040142,19.18665 167.448997,19.25091" id="Fill-28"/><path d="M79.1174693,12.29697 C77.9308673,9.66924 73.9711327,6.94197 71.8365049,4.15674 C72.9446278,8.16732 76.3211068,9.93951 79.1174693,12.29697" id="Fill-29"/><path d="M110.174421,4.39614 C112.606013,4.37535 115.416188,2.24028 117.751722,2.14074 C116.077294,0.89208 110.676058,2.80791 110.174421,4.39614" id="Fill-30"/><path d="M77.5554239,5.42934 C79.2744272,6.69942 81.6583042,7.45542 83.748356,6.75045 C83.9122201,6.68871 83.9122201,6.47325 83.748356,6.41844 C83.3735405,6.28488 83.0181877,6.19983 82.6741359,6.12423 C81.9138317,5.60763 81.4021489,5.11812 81.1158576,4.20462 C80.9074175,3.56076 80.6864207,3.05172 80.260123,2.51055 C80.1132104,2.31588 79.9323948,2.12058 79.7446731,1.93221 C80.5087443,2.16846 81.2929061,2.35683 82.006123,2.62395 C84.0553657,3.38688 86.2138511,4.15044 88.0144725,5.4054 C88.0420971,5.42934 88.076,5.38524 88.0552816,5.35815 C85.2727314,2.53764 81.7568738,1.7577 78.1625372,0.77553 C77.6577605,0.5292 77.1228479,0.37548 76.5866796,0.39249 C76.5496375,0.39249 76.5289191,0.4473 76.5559159,0.47061 C77.2276958,1.0395 77.8454822,1.51137 78.3464919,2.25036 C78.8004142,2.93202 79.069754,3.8178 79.6084337,4.43016 C79.6423366,4.46796 79.6800065,4.51269 79.7176764,4.56057 C79.1450939,4.14666 78.5442589,3.76992 77.9478188,3.35979 C76.6143042,2.44566 75.2054498,1.30599 73.6779353,0.7686 C73.6270809,0.75159 73.5793657,0.82026 73.6101294,0.86184 C74.8959288,2.56536 75.8062848,4.1328 77.5554239,5.42934" id="Fill-31"/><path d="M124.357139,40.98717 L123.017346,40.97709 C122.737961,42.27048 124.609528,42.29127 124.357139,40.98717" id="Fill-32"/><path d="M92.67989,47.23551 C93.2016181,46.7838 93.5324854,46.25082 93.828822,45.63468 C93.8765372,45.53577 93.7742006,45.39843 93.6687249,45.47025 C93.2323819,45.79533 92.7514628,46.04481 92.3389773,46.38753 C91.8618252,46.7712 91.250945,46.98981 91.0054628,47.5713 C90.9100324,47.7666 91.0224142,47.97576 91.2408997,47.99214 C91.8580583,48.03687 92.2429191,47.61603 92.67989,47.23551" id="Fill-33"/><path d="M131.825825,30.30363 C133.401683,32.18985 130.963184,32.11047 131.109469,34.33878 C133.820447,34.43139 134.553754,29.43171 131.825825,30.30363" id="Fill-34"/><path d="M78.7627443,13.62501 C77.6200906,12.31776 76.9382654,10.5525 74.7760129,10.23057 C75.4854628,11.81565 77.521521,13.65588 78.7627443,13.62501" id="Fill-35"/><path d="M96.7821424,19.86705 C96.5944207,19.86705 96.4512751,19.8324 96.3150356,19.7883 C96.2943172,19.76751 96.2773657,19.74735 96.2641812,19.73034 C95.6024466,19.12113 94.5213204,18.54909 93.6109644,18.85779 C93.5393916,18.88173 93.5393916,18.97749 93.6109644,19.00458 C94.0680259,19.16901 94.5075081,19.57284 94.8484207,20.05857 C94.9036699,20.18205 94.9752427,20.28789 95.063767,20.37987 C95.3469191,20.87316 95.5377799,21.4074 95.5277346,21.86226 C95.5277346,21.95424 95.5377799,22.05378 95.5547314,22.14954 C94.2588867,20.98593 92.2159223,19.87083 91.1454693,21.58884 C91.1354239,21.59136 91.1454693,21.609 91.1586537,21.609 C94.6920906,22.25538 96.1857023,26.44047 96.8744337,29.56464 C97.1506796,30.84165 96.9391003,32.25474 96.731288,33.69177 C96.7143366,33.82911 96.8813398,33.90408 96.9629579,33.78438 C97.6755469,32.7096 98.3065178,30.99915 98.4088544,29.60622 C98.6235728,30.45105 98.7397217,31.49118 98.8521036,32.58297 C98.5319094,33.1443 98.2217605,33.71256 97.962466,34.34886 C97.3044984,35.9604 96.4613204,37.50012 95.4793916,38.93778 C95.5202006,38.64735 95.4900647,38.34558 95.2646731,37.99341 C93.6756311,37.30923 92.6491262,40.72446 91.8235275,39.67047 C91.8172492,38.41047 94.0196828,37.63746 93.6109644,35.96733 C92.7790874,35.51625 91.9773463,36.68994 91.9333981,35.95032 C93.3654822,35.13258 96.0795987,30.78306 93.0038511,29.56464 C92.2397799,30.26646 93.2016181,32.7096 91.6326667,32.58297 C90.8623172,31.4433 90.8999871,28.27503 89.3617994,27.91215 C88.393055,34.57503 88.4853463,35.40285 88.3283883,41.12073 C88.2360971,44.72433 87.042589,45.29889 85.5044013,47.35269 C87.2340777,46.03473 89.743521,43.64955 92.9322783,42.13377 C93.1608091,42.03486 93.6417282,42.13377 93.3278123,42.51051 C92.1066796,43.97526 91.0770356,44.06787 89.9651456,45.9837 C91.1586537,46.66473 94.4290291,42.20559 95.1799159,42.96537 C95.5440583,43.33833 95.5170615,43.71822 95.4115858,44.25561 C95.0568608,46.10718 94.2551197,48.37266 91.1247508,51.55479 C90.2244401,52.47207 87.0764919,53.78247 85.8321294,54.92214 C84.6248091,55.8873 81.4121942,61.75953 81.0850939,62.748 C79.6731003,65.47527 79.0528026,68.29137 77.2107443,70.77609 C77.0098382,71.04636 80.9074175,71.64171 82.3470356,70.51905 C84.5463301,68.80167 80.4817476,66.75543 82.2855081,64.79487 C83.8645049,63.06615 86.206945,62.21124 87.3872686,60.12027 C88.1576181,59.09337 89.7742848,55.0179 90.8692233,53.33769 C91.6602913,52.11927 94.5721748,49.72023 96.0048867,48.006 C96.4280453,47.49948 97.9210291,42.11676 98.3611392,44.65881 C98.6819612,46.51731 97.1029644,50.88069 95.3092492,53.29296 C93.5770615,55.63089 92.6252686,58.46715 91.3809061,63.86688 C90.6005113,67.2399 87.0601683,73.30302 87.0206149,73.43091 C87.0155922,73.43784 87.0093139,73.44855 87.0049191,73.45548 L87.0124531,73.45548 C85.6601036,77.7861 87.5228803,78.49044 88.131877,83.23371 C88.4558382,84.24108 90.5069644,83.51973 90.4617605,84.90888 C87.870699,84.98007 87.5825243,89.97471 84.4465049,90.59463 C79.9637864,88.80732 78.0815469,82.79082 79.1086796,76.5513 C75.6273528,77.41629 72.2866602,81.2826 71.440343,85.91247 C71.9269126,86.42718 73.1518123,86.20983 74.1029773,86.24889 C77.0280453,91.24164 83.6422524,92.52369 89.4597411,94.60269 C81.9973333,93.94812 76.7769126,91.03752 71.1094757,88.59375 C72.5654175,92.25846 77.6489709,92.27673 80.439055,94.60269 C79.4596375,94.69971 78.4180647,93.67218 78.1135663,94.9473 C81.4209838,96.25455 87.5731068,96.95448 90.4617605,96.62247 C94.7398058,96.12414 100.738738,97.37406 103.809463,94.9473 C98.0666861,95.35302 94.7850097,93.29166 92.1211197,90.59463 C92.8977476,90.02385 91.8115987,87.59961 93.4634239,87.92028 C94.0893722,88.4079 93.508,90.10953 94.1308091,90.59463 C95.5685437,91.03311 94.5351327,89.00325 95.7977023,89.25147 C95.3764272,90.9342 94.8785566,91.80045 96.1266861,92.93445 C100.056285,91.80045 105.003599,92.94201 108.143385,90.59463 C106.504117,89.73594 104.112706,90.69606 102.46967,90.9342 C102.173961,90.33129 101.540479,90.07866 101.801657,88.91631 C103.963909,88.52823 105.249709,87.24807 106.139346,85.57542 C105.458149,84.86856 103.442809,86.23755 102.46967,85.24278 C103.020278,84.43323 103.332939,83.61801 102.80556,82.57788 L100.482583,82.57788 C99.9765502,80.05914 98.9293269,78.09858 97.1356117,76.87953 C96.6892233,74.7054 98.6166667,72.15264 99.5596699,71.36577 L99.5590421,71.36577 C100.349482,70.90461 101.178848,70.3899 101.952337,69.8796 C107.211055,66.3957 110.289942,65.1672 112.435243,60.34266 C113.048634,60.48945 113.594848,61.18119 114.099625,61.04385 C113.57099,55.34235 104.680265,55.377 107.224239,45.16533 C109.215722,48.25611 113.274026,52.28055 115.242278,52.68375 C107.47035,43.81083 109.192492,41.51763 111.32712,39.07827 C112.125094,38.16477 109.819696,37.6173 111.32712,37.49382 C113.26712,37.32939 113.915042,36.05301 116.374259,36.53559 C117.792531,39.24963 115.998816,45.11115 119.283003,45.96354 C120.15255,44.95743 120.885858,44.17371 120.69123,42.03486 C120.490324,41.45337 117.891728,42.04116 119.00299,39.57471 C121.069812,34.94106 119.286142,30.74526 115.450091,29.85192 C113.287838,30.5613 109.724265,31.98762 107.691974,34.0956 C109.451159,30.87252 110.112893,27.51147 110.211463,24.71616 C109.751262,25.39656 108.595424,26.12925 107.978265,26.29683 C106.7609,26.61876 105.642104,26.1702 105.079566,25.17102 C105.031223,25.08912 105.07266,24.99336 105.168091,25.01415 C105.734395,25.14078 106.303838,25.27686 106.9549,25.14708 C107.602822,25.02045 108.452278,24.63048 108.926291,23.54877 C111.69189,17.27964 115.545521,17.39934 117.60167,13.01958 C116.35354,13.70061 113.554039,14.39172 111.889657,13.6836 C112.349858,13.29993 112.786201,12.92697 113.171689,12.63591 C115.541754,10.87065 117.489288,9.34794 119.016803,6.77817 C119.149903,6.54507 118.883702,6.28866 118.652032,6.41844 C118.144117,6.70572 117.649385,6.9867 117.172233,7.27083 C116.715172,7.47873 116.292641,7.77042 115.889573,8.0577 C115.555566,8.27001 115.228466,8.4861 114.907644,8.71857 C114.37901,9.01593 113.857282,9.16965 113.297883,8.94411 C114.648977,6.94575 116.60279,5.70339 118.587366,3.98601 C114.259722,3.20544 113.30165,7.95501 110.65534,9.88785 C109.40721,11.67831 107.654304,13.04352 105.730628,12.49983 C105.662194,12.47904 105.645243,12.39714 105.689819,12.34548 C106.764039,11.13777 107.995217,10.12788 109.144777,8.98506 C109.362634,8.76582 109.577353,8.53335 109.792071,8.30088 C110.010557,7.96194 110.297476,7.67403 110.600718,7.41825 C111.094822,6.8733 111.589553,6.34347 112.107515,5.85018 C112.206712,5.66559 112.288958,5.47092 112.339812,5.2479 C109.215722,5.70654 108.414608,10.25136 105.591249,9.87462 C105.809107,7.96194 107.85521,7.9065 107.981405,5.86782 C102.593353,7.82523 102.808071,15.74307 99.8038964,19.22004 C100.414149,19.23075 100.857398,19.04553 101.262977,18.837 C101.287463,18.86724 101.318227,18.89496 101.352129,18.91197 C101.283696,19.31958 101.222168,19.73034 101.175081,20.14047 C101.10288,20.54745 101.055793,20.95821 101.031307,21.37968 C100.959735,21.57057 100.888162,21.75894 100.792731,21.92022 C97.0313916,17.51211 96.8166731,7.86618 90.2106278,7.36974 C93.5324854,10.4328 95.8140259,14.50197 96.7821424,19.86705 L96.7821424,19.86705 L96.7821424,19.86705 Z M89.1288738,88.24977 C89.3938188,87.63237 89.6807379,87.02883 89.7950032,86.24889 C90.5320777,87.6078 91.1523754,88.515 91.4631521,90.9342 C89.4440453,91.27503 90.7128932,88.33671 89.1288738,88.24977 L89.1288738,88.24977 L89.1288738,88.24977 Z M113.045495,33.1443 C112.332906,34.09245 111.572602,35.01603 110.010557,35.11557 C110.409858,33.83919 111.572602,33.33267 113.045495,33.1443 L113.045495,33.1443 L113.045495,33.1443 Z M103.398233,31.42629 C103.715288,30.95064 104.230738,30.67722 105.048803,30.70809 C104.854175,31.64238 104.203113,32.83686 104.601786,33.52734 C104.601786,33.52734 104.591741,33.52104 104.588602,33.52104 C104.816505,33.95889 105.048803,34.43454 105.127282,34.90011 C105.144233,35.00595 105.018039,35.05761 104.95965,34.97508 C104.294777,34.0956 103.05732,34.05465 102.890317,32.79906 C102.821883,32.2686 103.026557,31.76901 103.398233,31.42629 L103.398233,31.42629 L103.398233,31.42629 Z M103.309709,37.07298 C104.905657,37.15488 105.908304,37.83906 105.614479,39.79332 C104.769417,39.91617 103.759864,39.86892 102.603398,40.43025 C101.907761,39.46824 102.740265,37.80819 103.309709,37.07298 L103.309709,37.07298 L103.309709,37.07298 Z M104.264013,41.10687 C105.358951,42.09975 104.721702,44.92971 102.965029,45.12123 C101.382893,45.28881 102.11934,42.90741 104.264013,41.10687 L104.264013,41.10687 L104.264013,41.10687 Z M104.905657,52.96095 C105.181903,53.59095 106.910324,62.10792 104.946466,63.63756 C104.922608,63.65457 101.9831,66.3957 100.901974,67.26195 C100.942783,65.29383 102.11934,55.85265 104.905657,52.96095 L104.905657,52.96095 L104.905657,52.96095 Z" id="Fill-36"/><path d="M32.8782913,15.83253 C30.3167379,13.46436 27.8926796,10.62054 24.3969126,11.06217 C22.3407638,11.32614 20.2770809,11.55168 20.1515146,14.36841 C22.4700971,14.02254 25.6381359,15.21324 26.1598641,16.44174 C23.5851262,20.47626 25.5427055,24.66828 28.0797735,27.21789 C27.1179353,27.72441 25.3895146,27.42957 25.7065696,29.20554 C27.1901359,30.02013 28.5745049,28.17171 30.3857994,28.25739 C30.4397929,25.97868 28.4344984,24.36714 28.7961294,21.52017 C29.1477152,18.77526 31.4323948,17.55369 32.8782913,15.83253" id="Fill-37"/><path d="M29.6179612,7.79058 C33.1645825,8.19378 35.763178,10.00503 37.8199547,12.52692 C39.3305178,14.78547 40.5171197,17.40312 42.3177411,19.36053 C43.0610939,20.16126 44.1729838,20.63061 45.2848738,20.70873 C45.5203107,20.79504 45.7551197,20.86938 45.9974628,20.93112 C46.2567573,20.99601 46.4783819,20.83158 46.5499547,20.61675 C47.1124919,20.49327 47.6379871,20.24694 48.0774693,19.87713 C48.429055,19.68561 48.7561553,19.43928 48.9507832,19.14822 C48.9915922,19.08648 48.9915922,19.02852 48.9746408,18.97749 C48.9846861,18.96741 48.9915922,18.96048 49.0016375,18.94977 C49.1071133,18.9189 49.2132168,18.88173 49.3186926,18.837 C49.4863236,18.75825 49.3833592,18.522 49.2301683,18.5157 C47.3717864,18.4023 45.9359353,17.06481 44.5308479,15.97995 C43.6135858,15.2712 42.6931845,14.54922 41.7752945,13.83039 C41.1512298,12.82113 40.5918317,11.75013 39.7021942,10.93554 C37.192123,8.62974 33.6385955,6.25149 30.1566408,7.53732 C30.1089256,7.55811 30.085068,7.61922 30.1020194,7.67088 C29.9381553,7.6608 29.7780583,7.6608 29.614822,7.66395 C29.5325761,7.67088 29.536343,7.7805 29.6179612,7.79058" id="Fill-38"/><path id="Fill-39" d="M50.3182006,45.70335 C50.3797282,45.70335 50.3828673,45.60696 50.3213398,45.60696 C50.2635793,45.60696 50.2604401,45.70335 50.3182006,45.70335"/><path d="M69.6233981,40.69674 C68.7230874,40.92228 68.7331327,41.04261 69.1054369,42.0966 C69.6711133,42.12999 70.1382201,42.02793 70.4483689,41.77152 C70.492945,40.92606 70.1658447,40.56696 69.6233981,40.69674" id="Fill-40"/><path d="M26.9308414,66.16197 C26.9528155,66.15567 26.9747896,66.15756 26.9967638,66.15 L27.1047508,66.11094 C27.5944595,65.93391 27.8487314,65.39274 27.6729385,64.90134 C27.4971456,64.41057 26.9572104,64.15794 26.4681294,64.33119 L26.3400518,64.37781 C26.0543883,64.48491 25.85411,64.71738 25.7712362,64.98954 C26.2201359,65.32596 26.6131586,65.71971 26.9308414,66.16197" id="Fill-41"/><path d="M126.628006,73.04913 C126.628006,73.04913 125.829405,71.53461 125.049638,70.89957 C124.578764,71.50878 124.074615,71.97057 123.56921,72.68877 C123.416647,72.91305 123.28543,73.15686 123.216997,73.37484 C122.122686,74.77344 121.072951,76.12857 120.157573,77.55237 C119.085864,79.20486 118.796434,80.95878 117.823294,82.57725 C115.439417,86.50845 110.57121,85.55337 107.143249,88.59501 C108.623676,89.56899 109.631346,87.63363 111.151327,87.59268 C115.762123,89.63325 117.614854,84.35574 123.171793,85.24215 C123.138518,86.33016 121.17466,85.47651 121.496738,86.92488 C126.970803,91.99008 134.677437,83.64573 138.846867,82.23453 C135.887896,90.74205 122.924427,89.24391 115.83244,93.60225 C120.28565,94.2858 123.425437,91.8729 126.831424,92.59551 C125.444544,94.55985 122.052369,94.49811 119.492071,95.27553 C119.331346,98.0154 115.645346,97.21404 114.821003,99.28863 C121.607236,99.08073 126.996544,95.66487 132.173016,94.94793 C131.759275,96.10209 130.025832,95.91624 129.50222,96.95385 C135.742867,95.95215 142.011767,92.10978 147.862531,89.60112 C147.939126,90.90459 146.659605,90.84663 146.866162,92.27547 C148.096712,91.94976 149.192278,91.49301 149.192278,89.92179 C149.460362,88.54713 147.594447,89.29998 147.862531,87.92091 C148.444531,87.28272 149.104382,86.71887 150.191159,86.57964 C150.446058,87.34635 149.598485,89.19603 150.854777,88.91694 C153.855812,86.56074 151.995547,83.47185 150.854777,80.22105 C150.932628,78.58242 154.932544,75.79845 155.537146,78.89238 C154.620511,79.32078 153.182149,79.20486 153.195333,80.56062 C152.755851,82.03167 155.174887,79.96527 155.537146,81.23535 C155.793301,82.48716 155.132194,82.83114 155.194977,83.90718 C156.883845,83.69487 156.871288,83.28978 158.216731,83.23497 C157.70756,81.57681 157.370414,81.33552 158.874071,80.56062 C158.332252,78.99192 157.698142,77.87052 157.208434,76.39128 C158.012686,76.47192 158.818194,76.54059 159.622447,76.62438 C160.37145,76.69557 161.177586,76.77432 162.03646,76.85874 C161.142427,77.59269 159.664511,77.73444 159.542084,79.21746 C161.252926,80.25129 161.286201,77.95746 163.20046,78.22584 C164.245172,78.96483 164.210641,80.78994 165.206382,81.57555 C163.215528,83.09952 165.110951,84.42126 163.874123,86.57964 C161.819858,87.85476 160.597469,85.72032 159.204311,85.24215 C158.4371,86.45049 159.349968,87.35517 158.874071,88.59501 C156.726887,87.07797 156.127307,90.97389 154.543288,89.92179 C154.51378,87.69033 156.946628,87.88941 157.528,86.24889 C156.986809,85.57668 156.634595,84.69531 155.537146,84.57939 C154.51378,86.48829 151.610058,87.0282 152.861955,90.25884 C154.179773,90.84663 155.517683,91.3878 155.868641,92.93445 C157.70756,91.78155 160.152964,91.21392 160.537197,88.59501 C160.782052,88.90749 161.089061,89.15949 161.303152,89.50788 C161.015605,92.5848 158.698278,94.26816 156.819806,94.45842 C157.335256,97.4736 156.962951,97.66701 158.079864,100.96128 C160.328129,99.92493 159.235074,96.41142 160.090181,94.60206 C160.664647,93.41892 161.982466,92.6667 162.759722,91.93527 C166.041398,88.84575 168.338006,81.9063 169.432945,77.97195 C169.911353,76.64454 170.15244,75.6567 170.16123,75.10482 C170.188227,73.59597 167.588375,69.26724 167.970725,67.7817 C168.717845,64.90071 171.036427,62.48781 171.036427,62.48781 C171.916019,62.69697 173.295994,62.67051 174.520265,62.27928 C174.597489,62.30763 174.674712,62.33535 174.751935,62.3637 C175.586324,61.28829 176.403761,60.32817 177.11321,59.20677 C177.124511,57.89007 176.584576,56.10591 175.968673,54.48681 C176.767275,54.78921 177.568388,55.08405 178.370757,55.37511 C178.302324,54.91206 178.159806,54.39231 177.939437,53.76483 C177.820149,53.42589 177.742298,53.10018 177.69521,52.78455 C176.737139,52.42734 175.779696,52.06572 174.827903,51.69465 C174.823508,51.70347 174.820369,51.71292 174.815974,51.72174 C174.483223,50.97078 174.260971,50.48001 174.306803,50.46615 C177.004595,49.13874 176.632919,46.69245 176.567625,45.80541 C176.51677,45.23463 176.442058,44.62227 176.400621,44.07417 C176.380531,43.8039 176.71077,43.74594 176.874634,43.88265 C177.181644,44.12898 177.481748,44.37468 177.78499,44.62857 C178.405916,45.34047 179.320039,45.28188 179.650906,45.36756 C179.760149,45.36756 179.872531,45.35748 179.98868,45.35748 C180.049579,45.35748 180.121152,45.35055 180.189586,45.35055 C183.913256,45.13131 186.08932,41.78853 186.18789,39.56778 C186.307806,36.75105 185.359152,35.02989 183.036803,32.85324 C183.933974,30.94371 184.929715,31.70034 187.790744,31.09491 C191.719715,30.26331 194.345307,22.74867 190.198479,20.16126 C192.728641,17.65575 195.879728,9.98802 191.692091,6.74037 C187.112058,7.35273 183.48068,5.34114 180.094155,5.58054 C178.825307,5.66874 177.505605,5.68953 176.288239,5.85774 C174.282945,6.14124 168.864129,7.98966 166.862602,10.84671 C168.046065,10.30932 169.648919,10.20663 170.852472,9.69381 C171.991359,9.39204 174.426091,8.3349 174.549146,8.28324 C177.123883,7.67088 178.358201,8.51949 180.62279,8.30781 C180.318919,9.03672 179.743197,9.43992 179.927152,10.64763 C181.206045,10.58967 180.537405,8.5743 181.96635,8.65683 C180.827463,11.41812 179.872531,14.37786 177.199223,14.32368 C175.033204,14.26509 174.429858,11.05209 172.206078,11.57877 C171.752783,14.71365 171.953689,16.26408 173.481832,17.97075 C176.178997,17.47179 177.78499,16.51356 180.85132,17.36532 C180.295061,18.28575 179.780239,18.90567 179.756382,19.6686 C184.387896,17.55684 187.910032,15.13071 189.608945,12.08529 C190.352298,14.17311 189.884563,15.26427 188.704867,16.59546 C187.385165,18.09108 186.426466,18.52956 184.939761,20.21607 C183.626964,21.66003 180.998233,23.98725 182.447269,26.12232 C180.015676,26.47197 178.098906,27.34767 176.386809,28.42182 C175.571883,28.11753 176.049663,26.53623 174.736867,26.72838 C174.866201,29.29437 172.093696,30.51279 173.007819,32.7474 C174.94468,32.83686 175.340214,31.67262 177.01778,31.78917 C177.80257,31.9536 179.851812,32.12811 181.02523,33.17517 C181.553236,33.6546 181.106848,34.73883 181.693243,35.53263 C182.962091,37.35648 184.329508,36.60048 184.660375,37.91781 C185.161385,39.86892 183.998641,43.6464 181.611625,43.26651 C180.878317,43.14744 179.821049,43.00317 180.27811,41.56929 C179.159942,41.57937 178.610589,42.11676 177.260123,41.87043 C175.78723,40.45041 174.951586,38.37708 172.27765,38.12634 C172.581521,39.23262 173.798887,42.11676 173.201819,45.19305 C172.673184,47.1303 168.72789,45.59373 168.465456,47.82771 C169.648919,48.56733 171.030149,49.59423 171.759061,51.05898 C172.093696,51.73623 172.431469,52.41033 172.608518,53.15625 C172.827003,54.07353 172.997146,54.76086 173.014097,55.83249 C173.034816,56.67732 172.864673,57.2733 172.587799,57.51585 C172.301508,57.76533 171.919786,57.66264 171.64354,57.30039 C171.261819,56.80773 170.845566,56.43414 170.269217,56.17773 C169.849825,55.98621 169.307379,56.40012 169.590531,56.86191 C169.750628,57.10887 169.979159,57.65256 170.07145,57.92976 C170.54923,59.33277 168.62932,59.09337 167.360472,59.25402 C166.037003,62.06382 164.714162,66.55005 161.603883,65.90682 C161.539217,65.89296 161.473922,65.86839 161.413023,65.83437 C162.173327,65.67057 162.865825,65.25288 163.128259,64.48302 C163.230595,64.19259 162.978207,64.06911 162.688149,64.30788 C162.316472,64.63044 161.989372,64.82511 161.699314,64.91772 C161.375353,65.02041 161.109152,65.05821 160.744382,64.9278 C160.642045,64.89378 160.519618,64.77345 160.508945,64.71234 C163.619223,62.95338 160.430466,58.149 162.961256,56.15379 C164.689676,56.04417 166.504738,55.95534 167.087366,53.86122 C165.624518,52.30764 165.426751,49.50477 163.114447,48.78279 C162.599625,51.88995 162.735864,55.61325 160.341942,56.82096 C157.163858,55.73988 157.071566,51.62661 155.397139,49.0392 C157.924162,44.8749 154.145871,41.21397 156.539165,37.62738 C157.255521,38.37393 158.149553,38.92077 159.871068,38.66373 C159.915644,37.07928 158.817566,36.60741 158.926809,34.95807 C160.635139,33.95196 163.602272,35.99442 164.92888,34.35201 C165.491417,32.59683 163.169068,32.43618 164.645728,30.31434 C163.718421,29.3391 162.449573,31.4811 161.293735,30.27654 C160.665903,27.55242 164.031709,26.46819 161.696175,24.91083 C160.642045,25.08912 161.245392,26.69373 160.73057,27.42957 C157.556252,27.23427 156.897657,35.17353 154.210537,35.58114 C152.934783,35.78967 150.408388,34.63614 150.912537,31.51512 C152.236006,32.56596 153.347896,31.77216 154.572168,32.89797 C154.800699,26.34156 158.749761,23.60043 162.735864,20.89017 C158.957573,19.77507 155.833482,22.15269 153.988913,24.15798 C152.658537,22.82679 150.861683,23.85684 150.25143,25.0614 C149.364932,26.79642 149.920563,30.49578 146.89567,30.46491 C147.39668,28.8225 147.403586,26.7624 147.318201,25.09605 C147.22277,23.14872 146.343178,22.14639 145.793825,21.01995 C147.430583,21.07161 149.013346,22.57416 149.627366,23.65902 C149.705217,19.83996 153.047165,17.43399 155.509521,16.38378 C158.387502,15.14772 159.2131,14.83965 161.504686,12.75624 C158.023359,13.03659 156.342026,13.94694 153.081696,15.75 C149.968278,17.46486 148.382375,18.91197 147.679832,19.05246 C143.236667,19.92501 142.724984,14.52843 140.719689,11.25369 C137.974181,6.72273 133.56178,3.62628 127.753709,2.71593 C130.713935,4.32747 133.981172,5.97681 135.747262,7.5033 C137.425456,8.95419 138.584434,10.96326 139.536227,12.91689 C140.23877,14.36841 140.074906,14.8743 139.018265,15.26742 C143.055851,18.41238 139.887812,24.42825 135.253159,23.28543 C135.90422,26.0442 139.56699,26.55009 141.265275,25.08912 C141.265275,25.08912 144.054731,27.20025 142.864362,31.54662 C140.787495,31.02624 140.150246,30.94056 139.212265,28.36701 C138.840589,29.47266 138.49277,30.90276 138.745159,32.25096 C139.099883,34.47549 140.266395,36.64836 142.898893,36.35415 C145.166621,36.10467 146.080117,32.12433 146.080117,32.52501 C146.124693,34.56432 145.991592,38.46591 143.90154,39.79647 C142.148634,40.9122 140.665068,40.3578 139.416939,39.54006 C139.290744,40.14234 139.014498,41.2713 139.710136,42.74298 C140.668207,44.78607 141.900013,44.49186 142.080201,46.76427 C142.240298,47.56122 142.315638,48.2013 142.315638,48.2013 C142.148634,50.38425 140.736641,52.8444 140.736641,52.8444 C139.321508,54.0288 137.524026,55.8054 134.199657,58.02615 C136.48057,61.95042 145.882977,69.59547 147.959217,72.44244 C150.866706,74.94039 150.583553,77.80248 150.854777,78.5547 C149.742887,80.77419 146.680951,81.12384 144.180926,80.56062 C141.454252,78.83379 138.166298,76.66281 135.655599,73.58211 C135.260065,73.0548 134.877715,72.52434 134.509806,71.98065 C132.446123,68.9283 130.880939,65.58489 129.827437,62.55018 C128.275437,58.0734 129.196466,56.45871 131.60734,54.58005 C134.185845,52.57098 138.89521,49.92939 138.885165,47.16117 C138.881398,45.37449 138.028803,45.32976 138.015618,45.30645 C137.753184,45.95976 137.377113,46.44927 136.74677,47.23551 C133.946641,50.69547 127.832188,56.55447 124.531049,56.78001 C121.615398,56.98917 117.298427,53.81019 117.339236,53.96391 C117.461663,54.47736 118.147256,55.06578 118.301074,56.05488 C118.529605,57.49191 118.515793,58.10427 118.50512,59.54508 C118.246453,64.21275 116.595883,69.03099 114.569871,72.95211 C114.443676,73.18143 113.320485,77.07546 112.472285,78.55344 C111.141909,80.92728 108.426537,82.62261 108.481159,85.24341 C113.995405,85.3587 116.830693,79.62066 117.20488,73.52478 C117.28022,73.44162 117.343003,73.34208 117.383812,73.22931 C117.854058,71.98758 117.646246,70.29036 118.014155,69.00012 C120.643515,68.24097 121.884738,65.74239 121.110621,62.45694 C121.919269,61.57746 122.785049,59.78826 124.156233,60.46866 C126.079282,61.41681 126.67635,64.26378 128.094621,67.56624 C129.052065,69.75297 129.978744,71.72802 131.164091,73.44288 C131.623663,74.49813 131.992828,75.60126 132.173016,76.8789 C129.607068,79.21746 127.468673,81.97182 123.837294,83.23497 C123.006045,79.9092 127.293508,76.22937 126.628006,73.04913 L126.628006,73.04913 L126.628006,73.04913 Z M157.842544,73.18521 C157.931068,73.12032 160.785191,70.98147 161.808557,70.56063 C162.459618,70.29351 163.169068,70.48881 163.718421,70.89957 C164.898117,70.78995 165.815379,71.83701 165.379036,72.82611 C164.819638,74.09241 162.728958,74.52333 161.174447,74.55735 C160.212608,74.57814 159.25077,74.54727 158.292699,74.56113 C157.29633,74.57814 156.948511,73.88325 157.842544,73.18521 L157.842544,73.18521 L157.842544,73.18521 Z M141.742427,59.66478 C143.945489,59.69187 150.026039,62.29629 151.028686,64.03131 C150.44543,60.85611 147.472019,53.57016 147.727547,52.28055 C148.249275,49.61124 152.737016,52.82802 154.060485,58.37454 C154.889223,61.87923 156.358977,67.62105 152.396104,74.1951 C151.213269,70.40691 146.097696,64.26378 141.742427,59.66478 L141.742427,59.66478 L141.742427,59.66478 Z" id="Fill-42"/><path d="M1.3303754,22.90932 C0.276245955,29.04867 8.342,29.64717 11.6086084,32.42925 C10.6021942,33.7743 9.50474434,34.12332 8.88381877,35.74179 C7.67335922,38.87289 9.90027832,41.38092 9.90027832,41.38092 C10.4420971,42.75369 11.5816117,43.65018 13.4431327,43.51977 C14.2856828,43.46118 15.3285113,43.90407 16.0781424,43.74594 C16.0781424,43.74594 21.291657,40.53672 20.2262265,45.05697 L18.4996893,45.88731 C18.4230939,46.82727 18.1386861,49.17276 20.7674175,50.46615 C20.8358511,50.48631 20.9017735,51.54786 20.9714628,52.98804 C20.9507443,52.82991 20.9268867,52.67745 20.9074239,52.51617 C20.3398641,52.72974 19.7710485,52.94079 19.2016052,53.14932 C19.344123,53.88201 19.463411,54.61407 19.5613528,55.34487 C20.0598511,55.16406 20.5583495,54.98199 21.0549644,54.79677 C21.1296764,56.44674 21.2100388,58.22838 21.3029579,59.48397 C21.3406278,60.10452 21.5679029,60.61167 21.9081877,61.03062 C21.2533592,61.26939 20.5972751,61.50438 19.9399353,61.73559 C20.4378058,62.17659 21.011644,62.56908 21.6175016,62.9181 C22.2867702,62.67807 22.9541553,62.43363 23.6202848,62.18667 C24.906712,62.66673 26.4310874,62.71272 27.3766019,62.48781 C27.3766019,62.48781 29.6951845,64.90071 30.4423042,67.7817 C30.8246537,69.26724 28.2248026,73.59597 28.2517994,75.10482 C28.260589,75.6567 28.5016764,76.64454 28.9800841,77.97195 C30.0743948,81.9063 32.3716311,88.84512 35.6533074,91.93527 C36.4305631,92.6667 37.7483819,93.41892 38.3228479,94.60269 C39.1785825,96.41142 38.0848997,99.9243 40.333165,100.96065 C40.3375599,100.94742 40.3413269,100.93671 40.3457217,100.92348 C40.3683236,100.93482 40.3865307,100.94994 40.4103883,100.96065 C40.6062718,100.38168 40.7217929,99.91485 40.7858317,99.5148 C41.3458576,97.52274 41.1662977,96.95637 41.5932233,94.45842 C39.9765566,94.29462 38.0378123,93.02202 37.3453139,90.70929 C37.296343,90.25065 37.2844142,89.75799 37.3132945,89.23068 C37.4947379,89.01144 37.7006667,88.81803 37.8758317,88.59501 C38.2600647,91.21392 40.7054693,91.78155 42.5443883,92.93445 C42.8953463,91.3878 44.2332557,90.846 45.5510744,90.25821 C46.8029709,87.0282 43.8992492,86.48829 42.8758835,84.57939 C41.7784337,84.69468 41.4268479,85.57668 40.8850291,86.24826 C41.4664013,87.88941 43.8992492,87.6897 43.8697411,89.92179 C42.2857217,90.97452 41.6861424,87.07797 39.5389579,88.59501 C39.0630615,87.35517 39.9759288,86.45049 39.2087184,85.24215 C37.8155599,85.72032 36.5931715,87.85476 34.5389061,86.57964 C33.3271909,84.4641 35.1133722,83.15244 33.3114951,81.66627 C33.3240518,81.58374 33.3416311,81.5031 33.3560712,81.4212 C34.1917152,80.57574 34.2275016,78.92262 35.2125696,78.22584 C37.1268285,77.95746 37.1601036,80.25192 38.870945,79.21809 C38.7485178,77.73507 37.2706019,77.59269 36.3771974,76.85874 C37.2354434,76.77432 38.0415793,76.69557 38.7905825,76.62375 C39.594835,76.54059 40.400343,76.47192 41.2045955,76.39191 C40.7148867,77.87052 40.0807767,78.99192 39.5389579,80.56062 C41.0426149,81.33552 40.7054693,81.57618 40.1962977,83.23497 C41.5417411,83.28978 41.5291845,83.69487 43.2180518,83.90718 C43.280835,82.83114 42.6197282,82.48716 42.8758835,81.23598 C43.2381424,79.96527 45.657178,82.03167 45.2176958,80.56062 C45.2308803,79.20486 43.7925178,79.32015 42.8758835,78.89238 C43.4804854,75.79845 47.4804013,78.58242 47.5582524,80.22042 C46.4174822,83.47122 44.5572168,86.56074 47.5582524,88.91694 C48.8145437,89.19603 47.9669709,87.34635 48.2218706,86.57964 C49.3086472,86.71887 49.9684984,87.28209 50.5504984,87.92091 C50.8185825,89.30061 48.9526667,88.54713 49.2207508,89.92179 C49.2207508,91.49238 50.3163172,91.94976 51.5468673,92.27484 C51.7534239,90.846 50.4739029,90.90459 50.5504984,89.60112 C51.3020129,89.92242 52.0598058,90.26766 52.823877,90.62424 L51.8438317,83.51406 C51.9191715,83.53485 51.9945113,83.55501 52.0711068,83.57454 C55.1393204,87.75774 58.6740129,93.24189 64.0865502,93.94182 C63.6144207,92.95776 61.3937799,91.97433 61.7623172,91.26747 C66.4026214,93.65265 71.925657,96.89463 77.1058964,97.61598 C75.0120777,94.72995 70.5425437,94.02435 67.7637605,91.60704 C66.1841359,90.21789 65.0126019,88.37955 64.0865502,86.92551 C64.9818382,86.92551 65.9945307,87.05277 66.4321294,86.57964 C66.2262006,84.9366 66.9237217,83.94057 67.7637605,82.57725 C63.3570097,81.86157 67.7970356,76.27473 64.0865502,74.87109 C63.370822,75.92697 63.1787055,77.52717 62.0887896,78.22584 C61.2606796,76.98222 60.2617994,75.76758 59.2773592,74.50695 C59.3583495,74.50254 53.9740647,69.13053 54.8228932,62.44686 C50.9968867,58.91256 53.107657,49.88466 57.3059676,49.69629 C60.9034434,49.53942 62.915644,55.17477 65.9229579,57.519 C67.5735275,58.77522 69.2686731,57.74139 68.4807443,59.82165 C67.5465307,62.29629 66.6355469,59.23701 64.8933139,60.20217 C64.8763625,62.21061 66.1037735,61.15032 66.0014369,63.24381 C64.2968738,64.44585 62.4516764,67.72689 63.2050744,70.33131 C63.4681359,68.01102 65.1387961,66.17646 66.486123,64.57563 C69.7665437,60.6816 74.6058706,56.39634 78.6465955,53.5941 C80.9488544,52.00335 82.4594175,50.61357 83.0018641,49.92246 C81.4398188,50.49387 79.6800065,51.30909 76.9922589,51.6978 C76.0649515,51.82884 74.9266926,51.51384 74.1249515,52.11927 C73.8794693,52.30134 73.3885049,53.2728 72.4982395,53.72766 C71.5740712,54.19638 70.7007573,54.47736 69.6849256,54.33687 C67.9728285,54.10062 68.2151715,52.6428 68.5692686,52.31709 C69.5141553,51.46911 70.9669579,51.46911 71.6186472,50.23053 C71.768699,49.65597 71.7002654,49.32333 71.4924531,49.12866 C71.4202524,49.08078 71.3486796,49.03983 71.2739676,48.98124 C70.3290809,48.57363 68.153644,49.44996 68.3790356,47.80125 C69.7665437,47.88945 70.5199417,47.32182 71.6864531,47.18133 C72.5013786,47.04462 73.3062589,46.92177 74.0326602,46.45935 C74.8783495,45.92196 74.9430162,45.48726 74.3258576,44.97129 C71.2771068,45.56916 65.9474434,46.6137 66.4176893,42.72912 C67.4988155,42.77007 66.6355469,44.74827 68.0720259,44.43012 C69.306343,39.46824 64.9479353,40.52916 66.1722071,38.15406 C68.0990227,34.4106 68.3375987,33.3837 66.8301748,29.8935 C65.3949515,26.5608 63.9591003,26.55072 60.5932945,28.50057 C62.7002977,25.79346 67.0210356,25.78023 69.578822,26.98857 C69.6133528,24.27768 66.9532298,23.81967 65.6297605,22.23144 C68.7161812,22.43304 70.567657,24.94863 71.9080777,24.77412 C70.3874693,23.25834 70.1382201,21.82446 71.3041036,22.29696 C73.6817023,23.24763 76.6482071,24.56559 79.0082265,24.05529 C75.0252621,22.40595 70.4483689,20.47941 68.0236828,16.87203 C68.0783042,16.48899 68.545411,16.52364 69.0332362,16.55451 C68.9516181,14.83965 66.5369773,13.70061 67.0448932,12.4929 C68.272932,13.167 69.5348738,15.25797 71.3932557,14.22099 C69.2347702,11.77722 62.9087379,8.55414 65.4665243,4.75902 C65.5136117,6.58917 66.209877,7.80066 67.7712945,8.14653 C67.2803301,6.64083 66.9463236,4.97763 65.8206214,4.09122 C66.7077476,1.94922 70.0496958,1.6317 71.5294951,0.61803 C64.5662136,0.64575 59.7576505,3.96774 57.3329644,8.51256 C58.7411909,7.25382 59.1505372,6.30252 62.4447702,5.62086 C60.5863883,6.88716 57.7693074,8.28324 56.6881812,12.72915 C56.4627896,12.37635 56.4565113,11.46285 56.6982265,9.67302 C54.4750744,12.69828 54.1479741,15.21639 52.8144595,16.98228 C51.7640971,18.76518 50.3213398,20.33262 48.6130097,21.31794 C49.7079482,21.06153 50.809165,20.68479 51.8965696,21.07854 C50.1612427,22.37886 49.8134239,23.38119 49.1793139,24.73947 C48.5514822,26.08137 48.9878252,29.33217 50.4613463,30.81708 C47.7327896,30.50208 46.4099482,28.25802 46.7954369,24.88689 C45.2233463,26.52615 43.2726731,24.38415 41.001178,22.26231 C40.68789,21.91329 40.3093074,21.58128 39.8999612,21.28014 C37.8670421,19.55898 35.6062201,18.29268 33.1438641,19.86705 C31.8655987,20.68479 30.8014239,22.29003 31.7764466,24.23736 C33.9186084,21.13335 38.5356828,22.41981 38.5457282,25.46208 C38.5633074,29.90358 34.9413463,31.32675 31.3878188,29.60622 C31.8618317,33.09957 29.4164272,34.8579 29.4271003,34.86546 C32.9530032,36.39573 34.7642977,33.36669 37.2505113,34.88625 C38.2732492,35.51625 39.2313204,36.07695 39.4837087,37.4661 C39.6475728,37.3842 39.8145761,37.42893 40.0223883,37.75401 C39.691521,39.95397 40.3978317,41.1516 40.6225955,42.8085 C39.3236117,43.10901 39.258945,41.48739 38.2870615,42.43869 C38.4389968,44.48808 41.3276505,46.9098 42.9518511,49.14756 C41.1418123,53.38053 40.5070744,55.99251 38.0710874,56.82096 C35.677165,55.61325 35.8134045,51.89058 35.2985825,48.78279 C32.9862783,49.50477 32.7885113,52.30764 31.3256634,53.86122 C31.9089191,55.95597 33.7233528,56.04417 35.4517735,56.15379 C37.9825631,58.149 34.7938058,62.95338 37.9040841,64.71234 C37.893411,64.77345 37.770356,64.89378 37.6686472,64.92843 C37.303877,65.05758 37.0376764,65.02041 36.7137152,64.91772 C36.423657,64.82511 36.0965566,64.63044 35.7248803,64.30788 C35.434822,64.06974 35.1824337,64.19196 35.2847702,64.48239 C35.5472039,65.25288 36.2397023,65.66994 37.0000065,65.83437 C36.9391068,65.86839 36.8738123,65.89296 36.8091456,65.90682 C33.6988673,66.55005 32.3760259,62.06382 31.0525566,59.25465 C29.7843366,59.09274 27.8637994,59.33277 28.3415793,57.93039 C28.4338706,57.65256 28.6624013,57.10887 28.8224984,56.86191 C29.1056505,56.40012 28.5632039,55.98621 28.1438123,56.17773 C27.5674628,56.43414 27.1512104,56.8071 26.7694887,57.29976 C26.4932427,57.66264 26.111521,57.76533 25.8252298,57.51585 C25.548356,57.27267 25.3782136,56.67732 25.398932,55.83249 C25.4158835,54.76086 25.5860259,54.07353 25.8045113,53.15625 C25.9821877,52.41033 26.3193333,51.7356 26.6539676,51.05835 C27.3835081,49.59423 25.425301,48.5667 26.6087638,47.82834 C26.5767443,47.55303 26.4875922,47.33568 26.3563754,47.16117 C26.4116246,47.11644 26.4593398,47.07801 26.5177282,47.03076 C26.2791521,46.32579 25.8773398,46.04481 25.3895146,45.94275 C24.8985502,45.83313 24.3215728,45.89802 23.7219935,45.87723 C23.3226926,45.864 22.9202524,45.81297 22.5247184,45.64854 C22.2723301,45.32976 22.1021877,44.98515 21.9822718,44.62857 C21.6175016,43.47189 21.8767961,42.0966 22.3269515,40.51152 C22.9102071,38.89305 24.0114239,37.8567 25.5226149,37.0692 C25.999767,36.81972 25.9112427,36.27162 25.5866537,35.99442 C25.8158123,35.69328 25.8296246,35.36883 25.3141748,35.07084 C24.3523366,34.51329 22.9302977,35.99442 22.3300906,36.64521 C22.3169061,36.62442 22.3030939,36.59418 22.2892816,36.56961 C18.4802265,37.98963 16.9589903,41.75388 11.8440453,41.83956 C12.3726796,39.7593 10.6430032,39.90609 10.5381553,38.45898 C11.5062718,37.42893 12.8259741,36.73782 12.9182654,34.78293 C14.0979612,33.60987 17.1705696,34.39674 18.2855987,33.17202 C17.3513851,31.89186 15.2814239,32.23773 13.6170421,32.45319 C12.9728867,30.85173 11.4824142,30.10581 10.9707314,28.39095 C11.4108414,27.153 13.8731974,27.9531 14.3472104,26.74161 C13.3100324,24.71931 10.8759288,22.42674 10.718343,20.65455 C13.1260777,19.81224 13.7501424,22.47462 15.717767,23.05611 C16.8842783,22.16655 13.8593851,21.55419 15.0736117,20.6955 C18.3333139,21.03381 18.6641812,22.09158 21.0819612,23.46372 C22.1561812,24.066 23.7728479,25.11999 24.4446278,24.30162 C22.9001618,22.82679 22.0984207,19.45944 20.1069385,18.39852 C15.1006084,20.16126 9.90341748,16.90038 7.44168932,13.22496 C4.87322977,13.42656 3.21952104,12.72537 2.10763107,11.49687 C2.3261165,10.24758 1.59594822,8.01927 2.81394175,7.79751 C5.40186408,8.80362 6.00897735,11.76714 9.12239482,12.23901 C9.60708091,10.88766 7.18930097,9.78579 7.17862783,7.84539 C8.50900324,7.75593 8.06198706,9.40212 9.14625243,9.54954 C9.24544984,8.95356 8.84614887,7.8624 9.84879612,8.21205 C10.5821036,8.48232 10.6674887,9.39582 11.1622201,9.90549 C10.0635146,10.03212 9.50097735,10.69614 9.80798706,12.24279 C12.2188608,12.06135 12.3456828,11.39103 14.1764401,10.94247 C14.0841489,9.57033 12.9314498,9.27549 13.1976505,7.58205 C14.1764401,8.07093 13.9340971,9.73791 15.1828544,9.94644 C16.3317864,9.52938 13.9240518,8.14338 15.2098511,7.60221 C16.952712,7.09632 16.1101618,9.14949 17.1944272,9.2925 C17.9892621,8.88552 18.7495663,8.61903 19.4897799,8.44452 C19.8206472,8.51949 20.1031715,8.4168 20.3116117,8.22213 C20.8132492,8.2971 21.3450227,8.33427 21.9621812,8.26686 C23.4419806,8.11251 24.9424984,8.30025 26.3814887,7.83909 C26.4769191,7.81137 26.4976375,7.64694 26.3814887,7.62993 C24.9494045,7.41825 23.5644078,7.11585 22.1461359,6.85251 C21.552835,6.74352 20.9733463,6.82542 20.3831845,6.77817 C20.3285631,6.72336 20.2607573,6.66855 20.1785113,6.6276 C18.8318123,5.89491 17.982356,5.58684 16.829657,5.52195 C13.3100324,3.49272 9.55559871,6.3945 3.16176052,5.78907 C-2.63940453,8.79669 1.55890615,16.50033 4.36908091,19.57977 C3.104,20.93112 1.62043366,21.16737 1.3303754,22.90932 L1.3303754,22.90932 L1.3303754,22.90932 Z M60.4193851,31.64238 C61.2644466,30.67029 63.2904595,30.55752 63.8699482,31.86477 C64.0137217,32.16906 63.6790874,32.44626 63.4166537,32.2245 C62.9464078,31.80618 62.199288,31.91895 61.6298447,31.80618 C61.2644466,31.72743 60.6749126,31.9914 60.4193851,31.6764 C60.412479,31.6701 60.412479,31.65876 60.4193851,31.64238 L60.4193851,31.64238 L60.4193851,31.64238 Z M58.7788608,39.65661 C58.7889061,39.61503 59.9761359,38.99574 60.6202913,38.46591 C61.5375534,37.70235 62.0969515,36.77877 62.0630485,36.53559 C62.0523754,36.48771 61.244356,36.21051 60.610246,35.83755 C59.7783689,35.34489 59.4744984,34.95807 59.3413981,34.82451 C59.2974498,34.77978 59.3112621,34.67772 59.379068,34.66701 C59.938466,34.58511 62.3424337,35.27937 62.4071003,35.29638 C63.5597994,35.54271 63.8052816,36.13491 63.826,36.34407 C63.8699482,36.72333 63.6690421,39.52998 62.154712,42.62013 C61.7114628,44.26947 64.4701553,47.12652 63.508945,48.23532 C60.5047702,46.935 59.2390615,44.4402 58.7311456,41.40486 C58.5603754,40.42332 58.6319482,40.0428 58.7788608,39.65661 L58.7788608,39.65661 L58.7788608,39.65661 Z M49.6250744,80.35587 C48.7373204,80.00559 47.9958511,79.42725 47.5582524,78.55407 C47.705165,78.14772 47.7045372,77.12334 48.127068,75.87468 C49.4693722,76.63257 49.6853463,78.55155 49.6250744,80.35587 L49.6250744,80.35587 L49.6250744,80.35587 Z M54.1561359,73.04913 C56.2273528,77.49126 60.4319417,80.36847 62.4284466,83.57391 C62.5000194,84.99708 60.334,83.95695 59.752,83.90655 C59.8687767,84.99708 61.5243689,85.63464 60.4338252,86.92488 C57.8546926,85.81545 55.9291327,84.07098 55.424356,80.90019 C53.215644,79.6635 50.6051197,75.07899 50.6076311,75.07899 C50.5913074,75.0267 50.5800065,74.96811 50.5643107,74.91456 C50.424932,74.30598 50.2365825,73.04913 50.2365825,73.04913 C50.2039353,72.60183 50.1920065,72.1413 50.2259094,71.65557 C50.2089579,71.51382 50.2020518,71.37144 50.2120971,71.23158 C50.2378382,70.92981 50.3119223,70.60284 50.4111197,70.27524 C50.4173981,70.24689 50.4186537,70.22043 50.424932,70.19271 L50.4374887,70.20216 C50.6584854,69.52239 51.0464854,68.85648 51.7364725,68.46588 C52.2242977,68.18868 52.5482589,68.19183 52.752932,68.80482 C53.290356,70.41258 54.1561359,73.04913 54.1561359,73.04913 L54.1561359,73.04913 L54.1561359,73.04913 Z M44.3525437,58.37454 C44.8202783,56.41398 46.8601036,53.23185 48.1722718,51.29838 C48.3399029,51.35445 48.5106731,51.40989 48.6845825,51.4584 C48.6946278,51.4521 48.701534,51.43824 48.7115793,51.42501 C48.8716764,51.27759 49.022356,51.14781 49.1893592,51.03441 C49.1655016,50.87691 49.1516893,50.71626 49.1485502,50.55876 C48.1697605,48.46464 49.8165631,46.0278 50.0074239,43.58151 C50.2120971,40.48758 48.425288,39.2049 47.7196052,37.16496 C49.973521,37.71621 50.6522071,39.81411 53.3939482,39.91365 C55.7539676,45.78147 50.1951456,48.68388 50.883877,55.00404 C49.5202265,56.79072 47.6919806,58.09041 47.474123,61.02306 C48.7869191,61.33176 49.3086472,59.09022 50.1581036,60.04782 C50.6923883,62.34291 50.6842265,64.30284 50.3119223,66.00006 C50.2164919,66.68865 49.996123,67.49568 49.7060647,68.34303 C48.3643883,70.32879 46.2693139,73.38555 46.0169256,74.19447 C42.0540518,67.62042 43.5238058,61.87923 44.3525437,58.37454 L44.3525437,58.37454 L44.3525437,58.37454 Z M34.6952362,70.89957 C35.2439612,70.48881 35.9527832,70.29351 36.6044725,70.56063 C37.6272104,70.98147 40.4819612,73.12032 40.5704854,73.18521 C41.4645178,73.88325 41.116699,74.57814 40.1203301,74.56113 C39.1622589,74.54727 38.2004207,74.57814 37.2392104,74.55735 C35.6840712,74.52333 33.5933916,74.09241 33.0339935,72.82611 C32.5976505,71.83701 33.5149126,70.78932 34.6952362,70.89957 L34.6952362,70.89957 L34.6952362,70.89957 Z" id="Fill-43"/><path id="Fill-44" d="M164.714162,87.49881 C164.708511,87.51519 164.694071,87.5196 164.687165,87.53535 C164.702233,87.51078 164.716673,87.48621 164.731741,87.46101 C164.724835,87.47424 164.721068,87.48558 164.714162,87.49881"/></g></g></g></g></svg>