<svg id="Слой_1" xmlns="http://www.w3.org/2000/svg" viewBox="0 0 22 27"><style>.st0{fill:#3c3c3b}</style><path class="st0" d="M12.5,23.8h-3c-1.3,0-2.5-0.1-2.9-1.1c-0.3-0.8-0.2-1.7,0-2.5c0.1-0.8,0.2-1.5,0.1-2.3c-0.9-0.3-1.7-0.6-2-1.6 C3.9,16.3,3.1,16,3,14.6c-0.6-0.3-1.5-1-1.1-1.9c-0.1-0.1-0.1-0.1-0.2-0.2c-0.4-0.4-0.9-0.9-0.6-1.5c-0.3-0.2-0.7-0.7-0.7-1.2 c0-0.4,0.2-0.5,0.3-0.6C0.8,9,1,9,1.3,9c1,0,2.8,0.9,4.5,1.7c1.1,0.5,2,1,2.8,1.3c0.1-0.2,0-0.4-0.1-0.6c-0.6-0.4-0.9-0.8-1.2-1.4 c0,0-0.1-0.1-0.2-0.2C6.9,9.6,6.7,9.4,6.6,9c-0.2-0.6-0.1-1,0-1.3l0-0.1c0-0.2,0-0.4,0-0.6c0-0.3,0-0.6,0.1-0.9 C6.9,5.8,7,5.6,7.2,5.5c0.1-0.1,0.1-0.1,0.2-0.2C7.5,5.3,7.6,5.2,7.7,5l0.1-0.3C7.9,4.5,8,4.3,8.2,4.1c0.3-0.2,0.6-0.3,0.9-0.3 c0.1,0,0.2,0,0.2,0c0.1,0,0.3-0.1,0.3-0.1C10,3.4,10.3,3.2,11,3.2c0,0,0,0,0,0c0.7,0,1,0.2,1.3,0.4c0.1,0.1,0.3,0.1,0.4,0.1 c0.1,0,0.1,0,0.2,0c0.3,0,0.6,0.1,0.9,0.3c0.2,0.2,0.3,0.4,0.4,0.6L14.3,5c0.1,0.1,0.1,0.2,0.2,0.3c0.1,0.1,0.1,0.1,0.2,0.2 c0.2,0.2,0.4,0.3,0.5,0.6c0.1,0.3,0.1,0.6,0.1,0.9c0,0.2,0,0.4,0,0.6l0,0.1c0.1,0.3,0.1,0.8,0,1.3c-0.1,0.4-0.3,0.6-0.4,0.7 c-0.1,0.1-0.2,0.2-0.2,0.2c-0.3,0.6-0.6,0.9-1.2,1.4c-0.1,0.2-0.2,0.4-0.1,0.6c0.7-0.3,1.7-0.7,2.7-1.2c2.2-1.1,4.4-2.1,5.1-1.5 c0.1,0,0.3,0.2,0.2,0.6c0,0.5-0.4,1-0.7,1.2c0.3,0.6-0.2,1.1-0.5,1.5c-0.1,0.1-0.2,0.2-0.2,0.2c0.4,0.9-0.5,1.6-1.1,1.9 c-0.1,1.4-0.9,1.7-1.7,1.8c-0.3,1.1-1.2,1.3-2,1.6c-0.2,0.8,0,1.5,0.1,2.3c0.1,0.8,0.3,1.7,0,2.5C15,23.7,13.8,23.8,12.5,23.8z M2.1,11.3c0,0.1,0.1,0.2,0.3,0.4c0.1,0.1,0.2,0.2,0.2,0.3c0.2,0.3,0.3,0.7,0.2,1c-0.1,0.2,0.4,0.5,0.6,0.6C3.7,13.8,4,14.1,4,14.5 c0.1,0.7,0.3,0.8,0.8,0.9c0.4,0,0.7,0.3,0.8,0.7C5.8,16.5,6.1,16.7,7,17c0.3,0.1,0.6,0.4,0.7,0.8c0.2,1,0.1,1.8-0.1,2.6 c-0.1,0.8-0.2,1.4,0,2c0.1,0.3,0.5,0.5,1.9,0.5h3c1.5,0,1.8-0.2,1.9-0.5c0.2-0.6,0.1-1.2,0-2c-0.1-0.8-0.3-1.7-0.1-2.6 c0.1-0.4,0.3-0.6,0.7-0.7c0.8-0.3,1.1-0.4,1.3-0.9c0.1-0.4,0.4-0.6,0.8-0.7c0.6-0.1,0.8-0.2,0.8-0.9c0-0.4,0.3-0.7,0.6-0.8 c0.2-0.1,0.6-0.4,0.6-0.6c-0.1-0.3-0.1-0.7,0.2-1c0.1-0.1,0.2-0.2,0.2-0.3c0.2-0.2,0.3-0.4,0.4-0.4c-0.2-0.4-0.1-1,0.4-1.2 c0,0,0.1-0.1,0.1-0.1c-0.9,0.2-2.4,0.9-3.7,1.6c-1.1,0.5-2.1,1-2.9,1.3c-0.5,0.2-1-0.1-1.2-0.5c-0.2-0.5-0.1-1,0.2-1.5 c0.1-0.1,0.2-0.2,0.3-0.3c0.5-0.3,0.7-0.6,0.9-1C14,9.3,14.2,9.1,14.3,9c0,0,0-0.1,0.1-0.3c0.1-0.3,0-0.7,0-0.9c0-0.1,0-0.1,0-0.2 c0-0.3,0-0.5,0-0.7c0-0.2,0-0.4,0-0.4c-0.1-0.1-0.1-0.1-0.2-0.3c-0.1-0.1-0.2-0.1-0.2-0.2c-0.2-0.2-0.4-0.4-0.5-0.6l-0.1-0.3 c-0.1-0.2-0.1-0.2-0.1-0.3c-0.1,0-0.2-0.1-0.4-0.1c-0.1,0-0.2,0-0.3,0c-0.3,0-0.6-0.2-0.8-0.3c-0.3-0.2-0.4-0.3-0.8-0.3 c0,0,0,0,0,0c-0.4,0-0.5,0.1-0.7,0.3c-0.2,0.1-0.5,0.3-0.8,0.3c-0.1,0-0.2,0-0.3,0c-0.2,0-0.3,0-0.4,0.1c0,0-0.1,0.1-0.1,0.2 L8.6,5.4C8.4,5.7,8.3,5.9,8.1,6.1C8,6.1,7.9,6.2,7.8,6.2C7.7,6.4,7.7,6.4,7.6,6.5c0,0.1,0,0.3,0,0.4c0,0.2,0,0.5,0,0.8 c0,0,0,0.1,0,0.2c0,0.2-0.1,0.5,0,0.9C7.6,9,7.7,9,7.7,9C7.8,9.1,8,9.3,8.1,9.5c0.2,0.4,0.5,0.7,0.9,1c0.1,0.1,0.2,0.2,0.3,0.3 c0.3,0.5,0.4,1,0.2,1.5c-0.2,0.5-0.8,0.7-1.2,0.5c-0.8-0.3-1.8-0.8-2.8-1.3c-1.3-0.6-2.9-1.4-3.7-1.6c0,0,0.1,0.1,0.1,0.1 C2.1,10.4,2.3,10.9,2.1,11.3z"/></svg>