<svg id="layer" xmlns="http://www.w3.org/2000/svg" viewBox="0 0 183.74 161.4"><title>happy_logo</title><path d="M30.4,45.1h0.1c0.2,0,.3-0.2.3-0.5a0.35,0.35,0,0,0-.4-0.3c-0.2,0-.3.2-0.3,0.5S30.2,45.1,30.4,45.1Z"/><path d="M5.5,82.7a0.43,0.43,0,0,0,.4-0.4V82.2a0.35,0.35,0,0,0-.3-0.4,0.54,0.54,0,0,0-.4.5A0.35,0.35,0,0,0,5.5,82.7Z"/><path d="M31.3,130.6a0.46,0.46,0,0,0,.5-0.3,0.55,0.55,0,0,0-.3-0.5,0.35,0.35,0,0,0-.4.3A0.29,0.29,0,0,0,31.3,130.6Z"/><path d="M8.4,69.2a0.48,0.48,0,0,0,.2.6H8.8a0.34,0.34,0,0,0,.3-0.2,0.37,0.37,0,0,0-.2-0.5A0.29,0.29,0,0,0,8.4,69.2Z"/><path d="M9.1,68.6H9.3a0.34,0.34,0,0,0,.3-0.2A0.38,0.38,0,1,0,9.1,68.6Z"/><path d="M33.7,131.3h0.1a0.42,0.42,0,0,0,.4-0.3c0.1-.2,0-0.4-0.3-0.5A0.41,0.41,0,0,0,33.7,131.3Z"/><path d="M34,43.5a0.38,0.38,0,0,0-.7.3,0.76,0.76,0,0,0,.4.2C34,43.9,34.1,43.7,34,43.5Z"/><path d="M5.5,84a0.43,0.43,0,0,0,.4-0.4,0.35,0.35,0,0,0-.3-0.4,0.4,0.4,0,0,0-.5.4A0.37,0.37,0,0,0,5.5,84Z"/><path d="M32.8,43.9a0.38,0.38,0,0,0-.7.3,0.76,0.76,0,0,0,.4.2C32.8,44.3,32.9,44.1,32.8,43.9Z"/><path d="M31.3,44H31.2a0.55,0.55,0,0,0-.3.5,0.91,0.91,0,0,0,.5.3,0.51,0.51,0,0,0,.4-0.5A0.55,0.55,0,0,0,31.3,44Z"/><path d="M29.7,129.9a0.35,0.35,0,0,0,.3.4h0.2a0.42,0.42,0,0,0,.4-0.3,1.08,1.08,0,0,0-.5-0.4A0.35,0.35,0,0,0,29.7,129.9Z"/><path d="M5.7,78.2c0,0.3.1,0.5,0.3,0.5H6.1a0.42,0.42,0,0,0,.4-0.3V78.3a0.35,0.35,0,0,0-.3-0.4A0.55,0.55,0,0,0,5.7,78.2Z"/><path d="M5.5,79.5c0,0.3.1,0.5,0.3,0.5H5.9a0.42,0.42,0,0,0,.4-0.3A0.35,0.35,0,0,0,6,79.3C5.7,79.2,5.5,79.3,5.5,79.5Z"/><path d="M6,76.9a0.35,0.35,0,0,0,.3.5H6.4a0.42,0.42,0,0,0,.4-0.3,0.55,0.55,0,0,0-.3-0.5C6.2,76.6,6,76.7,6,76.9Z"/><path d="M7.9,70.5a0.48,0.48,0,0,0,.2.6H8.2a0.34,0.34,0,0,0,.3-0.2,0.37,0.37,0,0,0-.2-0.5C8.2,70.2,8,70.3,7.9,70.5Z"/><path d="M5.3,80.9c0,0.3.1,0.5,0.3,0.5A0.42,0.42,0,0,0,6,81.1V81a0.35,0.35,0,0,0-.3-0.4A0.3,0.3,0,0,0,5.3,80.9Z"/><path d="M7,73a0.34,0.34,0,0,0,.2.5H7.3a0.42,0.42,0,0,0,.4-0.3V73.1a0.37,0.37,0,0,0-.2-0.5A1,1,0,0,0,7,73Z"/><path d="M7.4,71.7a0.34,0.34,0,0,0,.2.5H7.7A0.27,0.27,0,0,0,8,71.9V71.8a0.37,0.37,0,0,0-.2-0.5A1.51,1.51,0,0,0,7.4,71.7Z"/><path d="M6.3,75.6a0.35,0.35,0,0,0,.3.5H6.7a0.41,0.41,0,0,0,.1-0.8C6.5,75.3,6.3,75.4,6.3,75.6Z"/><path d="M6.8,74.8H6.9a0.42,0.42,0,0,0,.4-0.3L7,74.4l0.4,0.1A0.48,0.48,0,0,0,7.2,74a0.6,0.6,0,0,0-.6.3C6.5,74.6,6.6,74.8,6.8,74.8Z"/><path d="M32.6,130.9h0.2a0.42,0.42,0,0,0,.4-0.3,2.35,2.35,0,0,0-.5-0.5,0.35,0.35,0,0,0-.4.3A0.55,0.55,0,0,0,32.6,130.9Z"/><path d="M49,29.8a0.35,0.35,0,0,0-.7-0.1,0.3,0.3,0,0,0,.3.4A0.35,0.35,0,0,0,49,29.8Z"/><path d="M34.9,43.4h0.2a0.38,0.38,0,1,0-.5-0.2A0.24,0.24,0,0,0,34.9,43.4Z"/><path d="M47.5,142.8a0.2,0.2,0,0,0,.2-0.1,0.35,0.35,0,0,0,.1-0.5,0.33,0.33,0,0,0-.5-0.1c-0.2,0-.2.3-0.1,0.5A0.53,0.53,0,0,0,47.5,142.8Z"/><path d="M49.5,145.9a0.37,0.37,0,0,0,.4-0.4,0.4,0.4,0,0,0-.8,0A0.37,0.37,0,0,0,49.5,145.9Z"/><path d="M48.7,145.1h0.2a0.38,0.38,0,1,0-.3-0.7,0.34,0.34,0,0,0-.2.5A0.53,0.53,0,0,0,48.7,145.1Z"/><path d="M48.2,143.9h0.2a0.36,0.36,0,1,0-.4-0.6c-0.2-.1-0.3.2-0.1,0.4A0.53,0.53,0,0,0,48.2,143.9Z"/><path d="M46.3,31.4a0.61,0.61,0,0,0,.1.6h0.2a0.34,0.34,0,0,0,.3-0.2,0.37,0.37,0,0,0-.2-0.5A0.25,0.25,0,0,0,46.3,31.4Z"/><path d="M45.8,32.5a0.45,0.45,0,0,0,.1.6c0.1,0,.1.1,0.2,0.1a0.53,0.53,0,0,0,.3-0.2,0.44,0.44,0,0,0-.1-0.5C46.1,32.3,45.9,32.3,45.8,32.5Z"/><path d="M45.8,139.8a0.35,0.35,0,0,0-.1.5,0.53,0.53,0,0,0,.3.2c0.1,0,.2,0,0.2-0.1A0.36,0.36,0,1,0,45.8,139.8Z"/><path d="M46.8,141.7c0.1,0,.2,0,0.2-0.1a0.35,0.35,0,0,0,.1-0.5,0.33,0.33,0,0,0-.5-0.1c-0.2,0-.2.3-0.1,0.5A0.53,0.53,0,0,0,46.8,141.7Z"/><path d="M47.7,29.1a0.38,0.38,0,1,0-.3.7h0.1a0.34,0.34,0,0,0,.3-0.2A0.29,0.29,0,0,0,47.7,29.1Z"/><path d="M36.1,132h0.1a0.34,0.34,0,0,0,.3-0.2c0.2-.1.1-0.4-0.1-0.5A0.38,0.38,0,1,0,36.1,132Z"/><path d="M36.2,42.8a0.48,0.48,0,0,0,.2-0.5,0.37,0.37,0,0,0-.5-0.2,0.33,0.33,0,0,0-.1.5,0.16,0.16,0,0,0,.2.2h0.2Z"/><path d="M34.9,131.6h0.2a0.42,0.42,0,0,0,.4-0.3A0.4,0.4,0,1,0,34.9,131.6Z"/><path d="M37.6,41.5a0.36,0.36,0,1,0-.6.4,0.52,0.52,0,0,0,.4.2A0.48,0.48,0,0,0,37.6,41.5Z"/><path d="M37.4,42.1c-0.2.1-.1,0.1,0,0h0Z"/><path d="M51.1,30.2a0.4,0.4,0,1,0,0-.8H51a0.3,0.3,0,0,0-.3.4A0.42,0.42,0,0,0,51.1,30.2Z"/><path d="M50.7,145.1a0.4,0.4,0,0,0,0,.8h0.1a0.43,0.43,0,0,0,.4-0.4A0.89,0.89,0,0,0,50.7,145.1Z"/><path d="M51.9,145.1a0.4,0.4,0,0,0,0,.8H52a0.43,0.43,0,0,0,.4-0.4A0.54,0.54,0,0,0,51.9,145.1Z"/><path d="M37.3,132.6c0.1,0,.1.1,0.2,0.1a0.34,0.34,0,0,0,.3-0.2,0.38,0.38,0,0,0-.7-0.3C37,132.3,37.1,132.5,37.3,132.6Z"/><path d="M52.6,29.7a0.3,0.3,0,0,0-.4-0.3H52.1a0.35,0.35,0,0,0-.3.4,0.45,0.45,0,0,0,.4.3A0.43,0.43,0,0,0,52.6,29.7Z"/><path d="M50.3,29.9a0.4,0.4,0,1,0-.8,0,0.37,0.37,0,0,0,.4.4A0.43,0.43,0,0,0,50.3,29.9Z"/><path d="M14.8,110.4a0.37,0.37,0,0,0,.3-0.1c0.1-.1.2-0.4,0-0.5a0.28,0.28,0,0,0-.5,0,0.35,0.35,0,0,0-.1.5A0.37,0.37,0,0,0,14.8,110.4Z"/><path d="M13.9,109.5a0.37,0.37,0,0,0,.3-0.1,0.45,0.45,0,0,0,0-.5,0.28,0.28,0,0,0-.5,0,0.33,0.33,0,0,0-.1.5A0.37,0.37,0,0,0,13.9,109.5Z"/><path d="M14.6,60.7a0.35,0.35,0,0,0-.5-0.5,0.33,0.33,0,0,0,.1.5,0.31,0.31,0,0,0,.2.1C14.4,60.9,14.5,60.8,14.6,60.7Z"/><path d="M15.5,59.2a0.35,0.35,0,0,0-.5.5,0.35,0.35,0,0,0,.1.2,0.76,0.76,0,0,0,.4-0.2A0.45,0.45,0,0,0,15.5,59.2Z"/><path d="M16.3,58.2a0.35,0.35,0,0,0-.5.5,0.31,0.31,0,0,0,.2.1c0.1,0.1.2,0,.3-0.1A0.45,0.45,0,0,0,16.3,58.2Z"/><path d="M15.7,111.4a0.37,0.37,0,0,0,.3-0.1c0.1-.1.2-0.4,0-0.5a0.28,0.28,0,0,0-.5,0,0.33,0.33,0,0,0-.1.5A0.37,0.37,0,0,0,15.7,111.4Z"/><path d="M13.7,61.7a0.46,0.46,0,0,0,0-.6,0.45,0.45,0,0,0-.5,0,0.33,0.33,0,0,0,.1.5,0.31,0.31,0,0,0,.2.1C13.5,61.9,13.7,61.8,13.7,61.7Z"/><path d="M12.1,107.6a0.37,0.37,0,0,0,.3-0.1c0.1-.1.2-0.4,0-0.5a0.28,0.28,0,0,0-.5,0,0.33,0.33,0,0,0-.1.5A0.37,0.37,0,0,0,12.1,107.6Z"/><path d="M12.9,62.8a0.46,0.46,0,0,0,0-.6,0.36,0.36,0,1,0-.4.6,0.2,0.2,0,0,0,.2.1C12.8,62.9,12.9,62.9,12.9,62.8Z"/><path d="M13,108.6a0.37,0.37,0,0,0,.3-0.1,0.45,0.45,0,0,0,0-.5,0.28,0.28,0,0,0-.5,0c-0.3.1-.3,0.3-0.1,0.5A0.37,0.37,0,0,0,13,108.6Z"/><path d="M19,115.5a0.2,0.2,0,0,0,.2-0.1,0.36,0.36,0,1,0-.4-0.6,0.33,0.33,0,0,0-.1.5A0.53,0.53,0,0,0,19,115.5Z"/><path d="M19.3,54.8c0.1,0,.2-0.1.3-0.1a0.36,0.36,0,1,0-.5.1h0.2Z"/><path d="M11.9,64a0.53,0.53,0,0,0,.3-0.2,0.36,0.36,0,1,0-.5.1C11.7,64,11.8,64,11.9,64Z"/><path d="M20.3,53.1c-0.1-.2-0.3-0.2-0.5,0a0.47,0.47,0,0,0,.1.6,0.2,0.2,0,0,0,.2.1,0.53,0.53,0,0,0,.3-0.2A0.33,0.33,0,0,0,20.3,53.1Z"/><path d="M19.7,116.6a0.2,0.2,0,0,0,.2-0.1A0.35,0.35,0,0,0,20,116a0.33,0.33,0,0,0-.5-0.1c-0.2,0-.2.3-0.1,0.5A0.53,0.53,0,0,0,19.7,116.6Z"/><path d="M18.5,55.9c0.1-.1.2-0.1,0.3-0.2a0.36,0.36,0,1,0-.5.1A0.31,0.31,0,0,0,18.5,55.9Z"/><path d="M17.2,57.7a0.35,0.35,0,0,0-.5-0.5,0.45,0.45,0,0,0,0,.5,0.31,0.31,0,0,0,.2.1C17,57.9,17.1,57.8,17.2,57.7Z"/><path d="M5.4,85.4a0.4,0.4,0,1,0,0-.8C5.2,84.5,5,84.7,5,85A0.43,0.43,0,0,0,5.4,85.4Z"/><path d="M18.3,114.4c0.1,0,.2,0,0.2-0.1a0.36,0.36,0,0,0-.4-0.6,0.34,0.34,0,0,0-.1.6A0.37,0.37,0,0,0,18.3,114.4Z"/><path d="M17.5,113.4c0.1,0,.2,0,0.2-0.1a0.35,0.35,0,0,0-.5-0.5c-0.2,0-.2.2,0,0.5A0.37,0.37,0,0,0,17.5,113.4Z"/><path d="M18,56.2a0.45,0.45,0,0,0-.5,0,0.33,0.33,0,0,0,.1.5,0.31,0.31,0,0,0,.2.1c0,0.1.1,0,.2-0.1A0.45,0.45,0,0,0,18,56.2Z"/><path d="M16.6,112.4c0.1,0,.2,0,0.2-0.1a0.35,0.35,0,0,0-.5-0.5c-0.1,0-.2.3,0,0.5A0.37,0.37,0,0,0,16.6,112.4Z"/><path d="M6.1,94.7a0.37,0.37,0,0,0,.4-0.4V94.2a0.3,0.3,0,0,0-.4-0.3A0.42,0.42,0,0,0,6.1,94.7Z"/><path d="M5.7,92a0.43,0.43,0,0,0,.4-0.4V91.5a0.3,0.3,0,0,0-.4-0.3,0.35,0.35,0,0,0-.3.4v0.1A0.27,0.27,0,0,0,5.7,92Z"/><path d="M6.9,98.6H7a0.46,0.46,0,0,0,.3-0.5V98a0.42,0.42,0,0,0-.4-0.3,0.55,0.55,0,0,0-.4.6A0.35,0.35,0,0,0,6.9,98.6Z"/><path d="M6.3,96a0.45,0.45,0,0,0,.4-0.5,0.35,0.35,0,0,0-.4-0.3c-0.2,0-.3.2-0.3,0.5v0.1A0.37,0.37,0,0,0,6.3,96Z"/><path d="M6.6,97.3H6.7A0.46,0.46,0,0,0,7,96.8V96.7a0.35,0.35,0,0,0-.4-0.3,0.55,0.55,0,0,0-.4.6A0.35,0.35,0,0,0,6.6,97.3Z"/><path d="M5.8,93.3a0.37,0.37,0,0,0,.4-0.4V92.8a0.3,0.3,0,0,0-.4-0.3A0.42,0.42,0,0,0,5.8,93.3Z"/><path d="M5,87.7a0.42,0.42,0,0,0,.4.3,0.4,0.4,0,1,0,0-.8,0.43,0.43,0,0,0-.4.4v0.1Z"/><path d="M11.3,106.6c0.1,0,.2,0,0.2-0.1a0.28,0.28,0,0,0,0-.5,0.28,0.28,0,0,0-.5,0c-0.2.1-.2,0.3,0,0.5A0.37,0.37,0,0,0,11.3,106.6Z"/><path d="M5.5,89.4a0.4,0.4,0,0,0,0-.8,0.3,0.3,0,0,0-.4.3V89A0.43,0.43,0,0,0,5.5,89.4Z"/><path d="M5.6,90.7A0.43,0.43,0,0,0,6,90.3,0.3,0.3,0,0,0,5.6,90a0.3,0.3,0,0,0-.3.4v0.1C5.2,90.5,5.4,90.7,5.6,90.7Z"/><path d="M5.4,86.7a0.4,0.4,0,1,0,0-.8,0.37,0.37,0,0,0-.4.4A0.43,0.43,0,0,0,5.4,86.7Z"/><path d="M7.3,99.9H7.4a0.37,0.37,0,0,0,.2-0.5V99.3A0.55,0.55,0,0,0,7.1,99a0.45,0.45,0,0,0-.2.6A0.35,0.35,0,0,0,7.3,99.9Z"/><path d="M10.4,105.6c0.1,0,.2,0,0.2-0.1a0.35,0.35,0,0,0,.1-0.5,0.28,0.28,0,0,0-.5,0,0.28,0.28,0,0,0-.1.5A0.37,0.37,0,0,0,10.4,105.6Z"/><path d="M11.2,65.2a0.53,0.53,0,0,0,.3-0.2,0.44,0.44,0,0,0-.1-0.5,0.44,0.44,0,0,0-.5.1,0.33,0.33,0,0,0,.1.5C11.1,65.1,11.1,65.2,11.2,65.2Z"/><path d="M10.2,67.2a0.45,0.45,0,0,0-.1-0.6,0.37,0.37,0,0,0-.5.2,0.44,0.44,0,0,0,.1.5H9.9C10,67.4,10.1,67.4,10.2,67.2Z"/><path d="M10.9,66a0.44,0.44,0,0,0-.1-0.5,0.36,0.36,0,0,0-.4.6c0.1,0,.1.1,0.2,0.1S10.8,66.2,10.9,66Z"/><path d="M8.2,102.3H8.4a0.48,0.48,0,0,0,.2-0.5,0.37,0.37,0,0,0-.5-0.2,0.31,0.31,0,0,0-.2.5A0.53,0.53,0,0,0,8.2,102.3Z"/><path d="M7.6,101.1H7.7a0.38,0.38,0,1,0-.3-0.7c-0.1,0-.2.2-0.1,0.5A0.53,0.53,0,0,0,7.6,101.1Z"/><path d="M9.6,104.6c0.1,0,.2,0,0.2-0.1a0.36,0.36,0,0,0-.4-0.6,0.29,0.29,0,0,0-.1.5A0.53,0.53,0,0,0,9.6,104.6Z"/><path d="M8.9,103.6c0.1,0,.2,0,0.2-0.1a0.36,0.36,0,0,0-.4-0.6c-0.3,0-.3.2-0.1,0.5A0.53,0.53,0,0,0,8.9,103.6Z"/><path d="M56.4,28.9a0.35,0.35,0,0,0-.4-0.3,0.46,0.46,0,0,0-.3.5,0.27,0.27,0,0,0,.3.3A0.45,0.45,0,0,0,56.4,28.9Z"/><path d="M84,154.8a0.35,0.35,0,0,0,.3.4h0.1a0.42,0.42,0,0,0,.4-0.3,0.37,0.37,0,0,0-.4-0.4A0.35,0.35,0,0,0,84,154.8Z"/><path d="M85.6,155.4a0.46,0.46,0,0,0,.5-0.3,0.35,0.35,0,0,0-.7-0.1C85.2,155.2,85.4,155.4,85.6,155.4Z"/><path d="M83,155a0.46,0.46,0,0,0,.5-0.3,0.35,0.35,0,0,0-.7-0.1C82.7,154.7,82.8,154.9,83,155Z"/><path d="M67.4,148.8c0.1,0,.1.1,0.2,0.1a0.34,0.34,0,0,0,.3-0.2,0.38,0.38,0,1,0-.7-0.3C67.1,148.5,67.2,148.7,67.4,148.8Z"/><path d="M80.5,154.4a0.46,0.46,0,0,0,.5-0.3,0.42,0.42,0,0,0-.3-0.5H80.6a0.42,0.42,0,0,0-.5.3A1,1,0,0,0,80.5,154.4Z"/><path d="M89.1,155.3a0.4,0.4,0,1,0,.4-0.4A0.43,0.43,0,0,0,89.1,155.3Z"/><path d="M90.4,155.3a0.4,0.4,0,1,0,.4-0.4A0.43,0.43,0,0,0,90.4,155.3Z"/><path d="M79,153.6a0.37,0.37,0,0,0,.2.5h0.2a0.42,0.42,0,0,0,.4-0.3,0.55,0.55,0,0,0-.3-0.5A0.42,0.42,0,0,0,79,153.6Z"/><path d="M88.2,154.8a0.4,0.4,0,0,0,0,.8,0.37,0.37,0,0,0,.4-0.4,0.35,0.35,0,0,0-.3-0.4H88.2Z"/><path d="M91.7,155.3a0.4,0.4,0,1,0,.4-0.4A0.37,0.37,0,0,0,91.7,155.3Z"/><path d="M86.5,155.1a0.35,0.35,0,0,0,.3.4h0.1a0.43,0.43,0,0,0,.4-0.4A0.42,0.42,0,0,0,86.5,155.1Z"/><path d="M71.9,150.6a0.37,0.37,0,0,0,.2.5h0.2a0.34,0.34,0,0,0,.3-0.2A0.38,0.38,0,0,0,71.9,150.6Z"/><path d="M70.8,150a0.37,0.37,0,0,0,.2.5h0.2a0.34,0.34,0,0,0,.3-0.2,0.76,0.76,0,0,0-.2-0.5A0.34,0.34,0,0,0,70.8,150Z"/><path d="M69.5,149.5a0.4,0.4,0,0,0,.2.4c0.1,0,.1.1,0.2,0.1a0.34,0.34,0,0,0,.3-0.2A0.38,0.38,0,1,0,69.5,149.5Z"/><path d="M68.6,149.3c0.1,0,.1.1,0.2,0.1a0.34,0.34,0,0,0,.3-0.2,0.38,0.38,0,0,0-.7-0.3C68.3,149,68.4,149.2,68.6,149.3Z"/><path d="M73.2,151.6h0.2a0.34,0.34,0,0,0,.3-0.2,0.31,0.31,0,0,0-.2-0.5A0.38,0.38,0,0,0,73.2,151.6Z"/><path d="M76.8,153.2H77a0.27,0.27,0,0,0,.3-0.3,0.38,0.38,0,0,0-.7-0.3A0.45,0.45,0,0,0,76.8,153.2Z"/><path d="M75.4,152.2a0.37,0.37,0,0,0,.2.5h0.1a0.34,0.34,0,0,0,.3-0.2,0.29,0.29,0,0,0-.1-0.5A0.34,0.34,0,0,0,75.4,152.2Z"/><path d="M74.4,152.2c0.1,0,.1.1,0.2,0.1a0.34,0.34,0,0,0,.3-0.2,0.38,0.38,0,1,0-.7-0.3C74.1,151.8,74.2,152.1,74.4,152.2Z"/><path d="M77.8,153.1a0.37,0.37,0,0,0,.2.5h0.1a0.42,0.42,0,0,0,.4-0.3c0.1-.1,0-0.3-0.2-0.4A0.37,0.37,0,0,0,77.8,153.1Z"/><path d="M82,154a0.42,0.42,0,0,0-.5.3,0.55,0.55,0,0,0,.3.5h0.1a0.42,0.42,0,0,0,.4-0.3C82.3,154.2,82.2,154,82,154Z"/><path d="M109.5,152c0.3-.1.4-0.3,0.3-0.5a0.38,0.38,0,0,0-.7.3A0.76,0.76,0,0,0,109.5,152Z"/><path d="M110.7,151.4h0.2a0.38,0.38,0,1,0-.5-0.2A0.25,0.25,0,0,0,110.7,151.4Z"/><path d="M105.9,152.7a0.55,0.55,0,0,0-.3.5,0.43,0.43,0,0,0,.3.3H106a0.37,0.37,0,0,0,.2-0.5C106.3,152.7,106.1,152.6,105.9,152.7Z"/><path d="M107.1,153c0.3-.1.4-0.3,0.3-0.5a0.38,0.38,0,0,0-.7.3A0.76,0.76,0,0,0,107.1,153Z"/><path d="M108.2,151.7a0.37,0.37,0,0,0-.2.5,0.53,0.53,0,0,0,.3.2h0.1a0.37,0.37,0,0,0,.2-0.5C108.6,151.7,108.4,151.7,108.2,151.7Z"/><path d="M111.7,150.1a0.37,0.37,0,0,0-.2.5,0.53,0.53,0,0,0,.3.2h0.3a0.37,0.37,0,0,0,.2-0.5A0.52,0.52,0,0,0,111.7,150.1Z"/><path d="M118.8,146.8a0.55,0.55,0,0,0-.3.5,0.28,0.28,0,0,0,.3.2h0.1a0.37,0.37,0,0,0,.2-0.5C119.2,146.8,119,146.7,118.8,146.8Z"/><path d="M117.6,147.3a0.37,0.37,0,0,0-.2.5,0.53,0.53,0,0,0,.3.2h0.1a0.37,0.37,0,0,0,.2-0.5A0.25,0.25,0,0,0,117.6,147.3Z"/><path d="M113,150.3h0.2a0.38,0.38,0,1,0-.5-0.2A0.34,0.34,0,0,0,113,150.3Z"/><path d="M97.2,154.8H97.1a0.3,0.3,0,0,0-.3.4,0.45,0.45,0,0,0,.4.3,0.37,0.37,0,0,0,.4-0.4A0.3,0.3,0,0,0,97.2,154.8Z"/><path d="M98.4,154.6a0.35,0.35,0,1,0,.4.3A0.28,0.28,0,0,0,98.4,154.6Z"/><path d="M92.9,155.3a0.4,0.4,0,1,0,.8,0,0.37,0.37,0,0,0-.4-0.4A0.43,0.43,0,0,0,92.9,155.3Z"/><path d="M95.9,155.6a0.37,0.37,0,0,0,.4-0.4,0.43,0.43,0,0,0-.4-0.4A0.42,0.42,0,0,0,95.9,155.6Z"/><path d="M94.3,155.3a0.4,0.4,0,1,0,.8,0,0.42,0.42,0,0,0-.4-0.4A0.37,0.37,0,0,0,94.3,155.3Z"/><path d="M102.3,154.6h0.1a0.46,0.46,0,0,0,.3-0.5,0.55,0.55,0,0,0-.5-0.3,0.42,0.42,0,0,0-.3.5A0.35,0.35,0,0,0,102.3,154.6Z"/><path d="M99.7,155.1a0.37,0.37,0,0,0,.4-0.4,0.35,0.35,0,0,0-.7.1A0.27,0.27,0,0,0,99.7,155.1Z"/><path d="M104.7,153.9c0.3-.1.4-0.3,0.3-0.5a0.55,0.55,0,0,0-.5-0.3h-0.1a0.37,0.37,0,0,0-.2.5A0.91,0.91,0,0,0,104.7,153.9Z"/><path d="M103.4,153.5a0.42,0.42,0,0,0-.3.5,0.35,0.35,0,0,0,.4.3h0.2a0.55,0.55,0,0,0,.3-0.5Q103.7,153.35,103.4,153.5Z"/><path d="M101,154.9a0.4,0.4,0,0,0,.4-0.5,0.35,0.35,0,0,0-.4-0.3h-0.1c-0.2,0-.3.2-0.3,0.5A0.42,0.42,0,0,0,101,154.9Z"/><path d="M62.4,27a0.37,0.37,0,0,0-.5-0.2H61.8a0.37,0.37,0,0,0-.2.5,1.69,1.69,0,0,0,.5.2C62.4,27.4,62.5,27.2,62.4,27Z"/><path d="M63.7,26.4a0.37,0.37,0,0,0-.5-0.2H63.1a0.37,0.37,0,0,0-.2.5,1.06,1.06,0,0,0,.5.2C63.7,26.8,63.8,26.6,63.7,26.4Z"/><path d="M40.1,39.2a0.47,0.47,0,0,0-.1.6,0.37,0.37,0,0,0,.3.1c0.1,0,.2,0,0.2-0.1a0.35,0.35,0,0,0,.1-0.5C40.5,39,40.3,39,40.1,39.2Z"/><path d="M39.5,133.9c0.1,0,.1.1,0.2,0.1a0.53,0.53,0,0,0,.3-0.2,0.36,0.36,0,0,0-.6-0.4A0.35,0.35,0,0,0,39.5,133.9Z"/><path d="M41.4,135a0.45,0.45,0,0,0,0,.5,0.31,0.31,0,0,0,.2.1,0.37,0.37,0,0,0,.3-0.1,0.45,0.45,0,0,0,0-.5A0.28,0.28,0,0,0,41.4,135Z"/><path d="M39.3,40.7c0.1,0,.2,0,0.2-0.1a0.36,0.36,0,1,0-.5-0.1A0.53,0.53,0,0,0,39.3,40.7Z"/><path d="M40.4,134.1a0.33,0.33,0,0,0,.1.5,0.31,0.31,0,0,0,.2.1,0.37,0.37,0,0,0,.3-0.1,0.33,0.33,0,0,0-.1-0.5C40.8,133.9,40.5,134,40.4,134.1Z"/><path d="M41.4,38.9c0,0.1.1,0.1,0.1,0a0.47,0.47,0,0,0,.1-0.6,0.35,0.35,0,0,0-.5.5A0.37,0.37,0,0,0,41.4,38.9Z"/><path d="M38.5,41.4a0.38,0.38,0,0,0,.1-0.6,0.33,0.33,0,0,0-.5-0.1,0.35,0.35,0,0,0-.1.5,0.53,0.53,0,0,0,.3.2C38.3,41.5,38.4,41.4,38.5,41.4Z"/><path d="M116.4,147.8a0.37,0.37,0,0,0-.2.5,0.53,0.53,0,0,0,.3.2h0.2A0.38,0.38,0,0,0,116.4,147.8Z"/><path d="M120,146.4a0.55,0.55,0,0,0-.3.5,0.42,0.42,0,0,0,.4.3h0.2a0.37,0.37,0,0,0,.2-0.5C120.4,146.4,120.2,146.3,120,146.4Z"/><path d="M38.4,133.2c0.1,0,.1.1,0.2,0.1a0.53,0.53,0,0,0,.3-0.2,0.36,0.36,0,1,0-.6-0.4A0.35,0.35,0,0,0,38.4,133.2Z"/><path d="M43.6,137.5a0.37,0.37,0,0,0,.3-0.1c0.1-.1.2-0.4,0-0.5a0.28,0.28,0,0,0-.5,0c-0.3.1-.3,0.3-0.1,0.5A0.37,0.37,0,0,0,43.6,137.5Z"/><path d="M45,138.8a0.35,0.35,0,0,0-.1.5,0.37,0.37,0,0,0,.3.1c0.1,0,.2,0,0.2-0.1a0.28,0.28,0,0,0,0-.5C45.4,138.7,45.1,138.7,45,138.8Z"/><path d="M44.1,138.3a0.37,0.37,0,0,0,.3.1c0.1,0,.2,0,0.2-0.1a0.28,0.28,0,0,0,0-.5,0.45,0.45,0,0,0-.5,0A0.28,0.28,0,0,0,44.1,138.3Z"/><path d="M42.5,38a0.38,0.38,0,0,0,0-.6,0.28,0.28,0,0,0-.5,0c-0.1.1-.2,0.4,0,0.5a0.37,0.37,0,0,0,.3.1C42.3,38.1,42.4,38.1,42.5,38Z"/><path d="M45.6,33.6c-0.1-.3-0.4-0.2-0.5,0a0.45,0.45,0,0,0,.1.6c0.1,0,.1.1,0.2,0.1a0.53,0.53,0,0,0,.3-0.2A0.33,0.33,0,0,0,45.6,33.6Z"/><path d="M44.9,34.4c0-.2-0.3-0.1-0.4,0a0.46,0.46,0,0,0,0,.6,0.2,0.2,0,0,0,.2.1,0.53,0.53,0,0,0,.3-0.2A0.33,0.33,0,0,0,44.9,34.4Z"/><path d="M43.4,37a0.37,0.37,0,0,0,0-.6,0.35,0.35,0,0,0-.5.5,0.37,0.37,0,0,0,.3.1C43.2,37.1,43.3,37.1,43.4,37Z"/><path d="M42.7,136.6a0.37,0.37,0,0,0,.3-0.1,0.45,0.45,0,0,0,0-.5,0.45,0.45,0,0,0-.5,0c-0.3,0-.3.3-0.1,0.5A0.37,0.37,0,0,0,42.7,136.6Z"/><path d="M115.2,148.4a0.37,0.37,0,0,0-.2.5,0.53,0.53,0,0,0,.3.2h0.2A0.38,0.38,0,0,0,115.2,148.4Z"/><path d="M43.8,35.4a0.45,0.45,0,0,0,0,.5,0.31,0.31,0,0,0,.2.1,0.19,0.19,0,0,0,.3,0,0.46,0.46,0,0,0,0-.6A0.45,0.45,0,0,0,43.8,35.4Z"/><path d="M64.8,147.2a0.37,0.37,0,0,0,.2.5h0.2a0.34,0.34,0,0,0,.3-0.2c0.2-.2.1-0.4-0.2-0.5A0.37,0.37,0,0,0,64.8,147.2Z"/><path d="M20.4,117.7a0.2,0.2,0,0,0,.2-0.1,0.33,0.33,0,0,0,.1-0.5,0.37,0.37,0,0,0-.5-0.2,0.47,0.47,0,0,0-.1.6A0.53,0.53,0,0,0,20.4,117.7Z"/><path d="M54.9,145.5a0.4,0.4,0,1,0,.8,0,0.37,0.37,0,0,0-.4-0.4A0.43,0.43,0,0,0,54.9,145.5Z"/><path d="M55.1,29.2a0.35,0.35,0,0,0-.4-0.3H54.6c-0.2,0-.3.2-0.3,0.5a0.54,0.54,0,0,0,.4.3A0.4,0.4,0,0,0,55.1,29.2Z"/><path d="M56.1,145.5a0.37,0.37,0,0,0,.4.4h0.1a0.43,0.43,0,0,0,.4-0.4,0.66,0.66,0,0,0-.5-0.4A0.43,0.43,0,0,0,56.1,145.5Z"/><path d="M114.1,149a0.37,0.37,0,0,0-.2.5,0.25,0.25,0,0,0,.3.2h0.2A0.38,0.38,0,0,0,114.1,149Z"/><path d="M57.6,28.6a0.41,0.41,0,1,0-.8.2,0.54,0.54,0,0,0,.4.3A0.51,0.51,0,0,0,57.6,28.6Z"/><path d="M66,147.7a0.37,0.37,0,0,0,.2.5h0.2a0.34,0.34,0,0,0,.3-0.2c0.2-.1.1-0.4-0.2-0.5A0.37,0.37,0,0,0,66,147.7Z"/><path d="M53.8,145.5a0.43,0.43,0,0,0,.4.4h0.1a0.43,0.43,0,0,0,.4-0.4,0.54,0.54,0,0,0-.5-0.4A0.43,0.43,0,0,0,53.8,145.5Z"/><path d="M53.9,29.4a0.3,0.3,0,0,0-.4-0.3,0.35,0.35,0,0,0-.3.4,0.28,0.28,0,0,0,.3.4A0.4,0.4,0,0,0,53.9,29.4Z"/><path d="M52.7,145.5a0.43,0.43,0,0,0,.4.4h0.1a0.43,0.43,0,0,0,.4-0.4,0.54,0.54,0,0,0-.5-0.4A0.43,0.43,0,0,0,52.7,145.5Z"/><path d="M57.3,145.6a0.35,0.35,0,0,0,.3.4,0.43,0.43,0,0,0,.4-0.4c0.2-.2,0-0.4-0.3-0.4A0.37,0.37,0,0,0,57.3,145.6Z"/><path d="M46.8,30.4a0.61,0.61,0,0,0,.1.6h0.2a0.34,0.34,0,0,0,.3-0.2,0.37,0.37,0,0,0-.2-0.5A0.25,0.25,0,0,0,46.8,30.4Z"/><path d="M62.4,146.4a0.42,0.42,0,0,0,.3.5h0.1a0.42,0.42,0,0,0,.4-0.3,0.35,0.35,0,0,0-.3-0.4A0.34,0.34,0,0,0,62.4,146.4Z"/><path d="M61.2,146.1a0.55,0.55,0,0,0,.3.5h0.1a0.42,0.42,0,0,0,.4-0.3,0.51,0.51,0,0,0-.4-0.5A0.35,0.35,0,0,0,61.2,146.1Z"/><path d="M63.6,146.8a0.37,0.37,0,0,0,.2.5h0.1a0.27,0.27,0,0,0,.3-0.3c0.3-.1.2-0.4-0.1-0.4A0.37,0.37,0,0,0,63.6,146.8Z"/><path d="M58.5,28.7a0.51,0.51,0,0,0,.4-0.5,0.55,0.55,0,0,0-.5-0.3H58.3a0.37,0.37,0,0,0-.2.5A0.42,0.42,0,0,0,58.5,28.7Z"/><path d="M58.6,145.6a0.35,0.35,0,0,0,.3.4,0.42,0.42,0,0,0,.4-0.3c0.1-.2,0-0.4-0.3-0.4A0.35,0.35,0,0,0,58.6,145.6Z"/><path d="M60,27.8a0.38,0.38,0,0,0-.7.3,0.52,0.52,0,0,0,.4.2C60,28.2,60.1,28,60,27.8Z"/><path d="M61.2,27.4a0.38,0.38,0,1,0-.7.3,0.76,0.76,0,0,0,.4.2C61.2,27.8,61.3,27.6,61.2,27.4Z"/><path d="M59.9,145.8a0.35,0.35,0,0,0,.3.4h0.1a0.42,0.42,0,0,0,.4-0.3,0.51,0.51,0,0,0-.4-0.4A0.35,0.35,0,0,0,59.9,145.8Z"/><path d="M176.2,100.9a0.38,0.38,0,1,0-.5.2h0.2A0.34,0.34,0,0,0,176.2,100.9Z"/><path d="M177.9,81.4a0.35,0.35,0,0,0,.3-0.4V80.9a0.3,0.3,0,0,0-.4-0.3,0.35,0.35,0,0,0-.3.4v0.1A0.35,0.35,0,0,0,177.9,81.4Z"/><path d="M177.4,77.9c-0.2,0-.3.2-0.3,0.5a0.35,0.35,0,0,0,.4.3h0.1a0.35,0.35,0,0,0,.3-0.4V78.2A0.55,0.55,0,0,0,177.4,77.9Z"/><path d="M178.1,87.2a0.43,0.43,0,0,0-.4.4v0.1a0.43,0.43,0,0,0,.4.4,0.45,0.45,0,0,0,.4-0.5A0.37,0.37,0,0,0,178.1,87.2Z"/><path d="M176.8,75.3a0.55,0.55,0,0,0-.3.5v0.1a0.35,0.35,0,0,0,.4.3H177a0.49,0.49,0,0,0,.3-0.6A0.55,0.55,0,0,0,176.8,75.3Z"/><path d="M177.2,76.6c-0.2,0-.3.2-0.3,0.5v0.1a0.35,0.35,0,0,0,.4.3h0.1a0.56,0.56,0,0,0,.2-0.6A0.35,0.35,0,0,0,177.2,76.6Z"/><path d="M177.4,79.6a0.35,0.35,0,0,0,.4.3h0.1a0.35,0.35,0,0,0,.3-0.4V79.4c-0.2,0-.3-0.2-0.5-0.2A0.35,0.35,0,0,0,177.4,79.6Z"/><path d="M178.2,85.9a0.43,0.43,0,0,0-.4.4v0.1a0.43,0.43,0,0,0,.4.4,0.66,0.66,0,0,0,.4-0.5A0.43,0.43,0,0,0,178.2,85.9Z"/><path d="M178,81.9a0.3,0.3,0,0,0-.3.4v0.1a0.43,0.43,0,0,0,.4.4,0.3,0.3,0,0,0,.3-0.4V82.3A0.37,0.37,0,0,0,178,81.9Z"/><path d="M178.2,84.6a0.43,0.43,0,0,0-.4.4v0.1a0.4,0.4,0,0,0,.8,0C178.5,84.7,178.4,84.6,178.2,84.6Z"/><path d="M23.9,47.9a0.36,0.36,0,1,0-.4.6,0.2,0.2,0,0,0,.2.1,0.53,0.53,0,0,0,.3-0.2A0.33,0.33,0,0,0,23.9,47.9Z"/><path d="M176.5,74a0.55,0.55,0,0,0-.3.5,0.35,0.35,0,0,0,.4.3h0.1c0.2,0,.3-0.2.3-0.5A0.55,0.55,0,0,0,176.5,74Z"/><path d="M172.9,65.6a0.33,0.33,0,0,0-.1.5,0.53,0.53,0,0,0,.3.2,0.2,0.2,0,0,0,.2-0.1,0.44,0.44,0,0,0,.1-0.5A0.33,0.33,0,0,0,172.9,65.6Z"/><path d="M172.9,105a0.46,0.46,0,0,0,0,.6,0.31,0.31,0,0,0,.2.1,0.37,0.37,0,0,0,.3-0.1,0.45,0.45,0,0,0,0-.5C173.3,104.8,173.1,104.8,172.9,105Z"/><path d="M173.5,66.6a0.33,0.33,0,0,0-.1.5,0.53,0.53,0,0,0,.3.2h0.2c0.2,0,.2-0.2.1-0.5A0.37,0.37,0,0,0,173.5,66.6Z"/><path d="M172.1,106a0.38,0.38,0,0,0,0,.6,0.31,0.31,0,0,0,.2.1,0.37,0.37,0,0,0,.3-0.1,0.45,0.45,0,0,0,0-.5A0.27,0.27,0,0,0,172.1,106Z"/><path d="M172.2,64.4a0.35,0.35,0,0,0-.1.5,0.53,0.53,0,0,0,.3.2,0.2,0.2,0,0,0,.2-0.1c0.2,0,.2-0.3.1-0.5A0.33,0.33,0,0,0,172.2,64.4Z"/><path d="M175.2,70.3a0.37,0.37,0,0,0-.2.5v0.1a0.53,0.53,0,0,0,.3.2h0.1a0.45,0.45,0,0,0,.3-0.6A0.37,0.37,0,0,0,175.2,70.3Z"/><path d="M171.5,63.3a0.35,0.35,0,0,0-.1.5,0.53,0.53,0,0,0,.3.2,0.2,0.2,0,0,0,.2-0.1A0.36,0.36,0,0,0,171.5,63.3Z"/><path d="M175.6,71.5a0.37,0.37,0,0,0-.2.5v0.1a0.43,0.43,0,0,0,.3.3h0.1a0.55,0.55,0,0,0,.3-0.7A0.37,0.37,0,0,0,175.6,71.5Z"/><path d="M153,129.7a0.35,0.35,0,0,0-.3.4,0.27,0.27,0,0,0,.3.3h0.1a0.35,0.35,0,0,0,.3-0.4A0.3,0.3,0,0,0,153,129.7Z"/><path d="M174.7,69.1a0.37,0.37,0,0,0-.2.5,0.53,0.53,0,0,0,.3.2H175A0.38,0.38,0,1,0,174.7,69.1Z"/><path d="M176.1,72.8a0.37,0.37,0,0,0-.2.5,0.42,0.42,0,0,0,.4.3h0.1a0.56,0.56,0,0,0,.2-0.6A0.37,0.37,0,0,0,176.1,72.8Z"/><path d="M155.1,129.8a0.35,0.35,0,0,0,.4.3,0.3,0.3,0,0,0,.3-0.4c0.1-.2-0.1-0.3-0.4-0.3A0.3,0.3,0,0,0,155.1,129.8Z"/><path d="M156.6,129.2a0.3,0.3,0,0,0-.3.4c0,0.3.1,0.4,0.3,0.4a0.37,0.37,0,0,0,.4-0.4A0.43,0.43,0,0,0,156.6,129.2Z"/><path d="M155.9,44.7a0.37,0.37,0,0,0-.4.4c-0.1.2,0,.4,0.3,0.4a0.43,0.43,0,0,0,.4-0.4A0.35,0.35,0,0,0,155.9,44.7Z"/><path d="M178.2,88.6a0.37,0.37,0,0,0-.4.4v0.1a0.35,0.35,0,0,0,.3.4,0.66,0.66,0,0,0,.4-0.5A0.35,0.35,0,0,0,178.2,88.6Z"/><path d="M157.3,45.1a0.43,0.43,0,0,0-.4-0.4h-0.1a0.43,0.43,0,0,0-.4.4,0.51,0.51,0,0,0,.5.4A0.43,0.43,0,0,0,157.3,45.1Z"/><path d="M174.9,102.8a0.36,0.36,0,1,0-.4.6,0.2,0.2,0,0,0,.2.1,0.53,0.53,0,0,0,.3-0.2A0.33,0.33,0,0,0,174.9,102.8Z"/><path d="M151.5,130.4a0.35,0.35,0,0,0,.4.3h0.2c0.2,0,.3-0.2.3-0.5a0.86,0.86,0,0,0-.6-0.3A0.38,0.38,0,0,0,151.5,130.4Z"/><path d="M152.4,44a0.42,0.42,0,0,0-.5.3,0.55,0.55,0,0,0,.3.5,0.46,0.46,0,0,0,.5-0.3A0.42,0.42,0,0,0,152.4,44Z"/><path d="M151.3,43.6h-0.1a0.37,0.37,0,0,0-.5.2,0.42,0.42,0,0,0,.3.6h0.1a0.42,0.42,0,0,0,.4-0.3A0.37,0.37,0,0,0,151.3,43.6Z"/><path d="M150.3,130.8a0.35,0.35,0,0,0,.4.3h0.1a0.46,0.46,0,0,0,.3-0.5c-0.1-.3-0.3-0.4-0.5-0.3A0.42,0.42,0,0,0,150.3,130.8Z"/><path d="M173.7,103.9a0.64,0.64,0,0,0,0,.6,0.2,0.2,0,0,0,.2.1,0.53,0.53,0,0,0,.3-0.2,0.33,0.33,0,0,0-.1-0.5C174.1,103.7,173.8,103.8,173.7,103.9Z"/><path d="M178.1,93c0-.3-0.1-0.5-0.3-0.5a0.35,0.35,0,0,0-.4.3v0.1a0.35,0.35,0,0,0,.3.4h0.1C177.9,93.4,178,93.2,178.1,93Z"/><path d="M177.9,91.2a0.35,0.35,0,0,0-.4.3v0.1a0.35,0.35,0,0,0,.7.1C178.2,91.4,178.1,91.2,177.9,91.2Z"/><path d="M177.9,94.4c0-.3-0.1-0.5-0.3-0.5a0.35,0.35,0,0,0-.1.7h0.1C177.7,94.7,177.8,94.6,177.9,94.4Z"/><path d="M178.4,90.4a0.46,0.46,0,0,0-.3-0.5,0.35,0.35,0,0,0-.4.3v0.1a0.35,0.35,0,0,0,.3.4A0.42,0.42,0,0,0,178.4,90.4Z"/><path d="M177.1,96.5a0.35,0.35,0,0,0-.4.3v0.1a0.55,0.55,0,0,0,.3.5h0.1a1.38,1.38,0,0,0,.3-0.4A0.35,0.35,0,0,0,177.1,96.5Z"/><path d="M177.1,98.3a0.35,0.35,0,0,0-.3-0.5,0.42,0.42,0,0,0-.5.3v0.1a0.55,0.55,0,0,0,.3.5h0.1A0.78,0.78,0,0,0,177.1,98.3Z"/><path d="M176.7,99.6c0.1-.3,0-0.5-0.2-0.5a0.42,0.42,0,0,0-.5.3,0.37,0.37,0,0,0,.2.5h0.1A0.35,0.35,0,0,0,176.7,99.6Z"/><path d="M175.3,102.3h0.1a0.34,0.34,0,0,0,.3-0.2,0.44,0.44,0,0,0-.1-0.5A0.38,0.38,0,1,0,175.3,102.3Z"/><path d="M177.6,95.7a0.37,0.37,0,1,0-.7-0.2v0.1a0.55,0.55,0,0,0,.3.5h0.1A0.62,0.62,0,0,0,177.6,95.7Z"/><path d="M174.1,67.8a0.37,0.37,0,0,0-.2.5,0.53,0.53,0,0,0,.3.2h0.2c0.2,0,.3-0.2.2-0.5A0.37,0.37,0,0,0,174.1,67.8Z"/><path d="M160.9,123.6a0.34,0.34,0,0,0-.2-0.5,0.37,0.37,0,0,0-.5.2v0.1a0.37,0.37,0,0,0,.2.5h0.1A0.35,0.35,0,0,0,160.9,123.6Z"/><path d="M161.9,121.2a0.48,0.48,0,0,0-.2-0.6,0.38,0.38,0,1,0-.3.7h0.1A0.3,0.3,0,0,0,161.9,121.2Z"/><path d="M161.4,122.4a0.45,0.45,0,0,0-.2-0.6,0.38,0.38,0,0,0-.3.7H161A0.3,0.3,0,0,0,161.4,122.4Z"/><path d="M162.9,118.7a0.48,0.48,0,0,0-.2-0.6,0.37,0.37,0,0,0-.5.2v0.1a0.37,0.37,0,0,0,.2.5h0.2A0.2,0.2,0,0,0,162.9,118.7Z"/><path d="M162.9,52.5c0.2,0,.2-0.2.1-0.5a0.36,0.36,0,0,0-.6.4,0.53,0.53,0,0,0,.3.2C162.8,52.6,162.9,52.6,162.9,52.5Z"/><path d="M162.4,119.9a0.48,0.48,0,0,0-.2-0.6,0.38,0.38,0,0,0-.3.7h0.2C162.2,120.2,162.3,120.1,162.4,119.9Z"/><path d="M159.8,127.1a0.37,0.37,0,1,0-.7-0.2,0.42,0.42,0,0,0,.3.5h0.1A0.32,0.32,0,0,0,159.8,127.1Z"/><path d="M159.6,128.4a0.37,0.37,0,1,0-.7-0.2,0.42,0.42,0,0,0,.3.5h0.1A0.43,0.43,0,0,0,159.6,128.4Z"/><path d="M160.2,125.9c0.1-.3,0-0.5-0.2-0.5a0.42,0.42,0,0,0-.5.3,0.37,0.37,0,0,0,.2.5h0.1A0.42,0.42,0,0,0,160.2,125.9Z"/><path d="M160.5,124.8a0.34,0.34,0,0,0-.2-0.5,0.37,0.37,0,0,0-.5.2v0.1a0.37,0.37,0,0,0,.2.5h0.1A0.42,0.42,0,0,0,160.5,124.8Z"/><path d="M158.9,129.1a0.43,0.43,0,0,0-.4.4,0.54,0.54,0,0,0,.4.4,0.37,0.37,0,0,0,.4-0.4A0.43,0.43,0,0,0,158.9,129.1Z"/><path d="M158.4,45.8a0.35,0.35,0,0,0-.1.5,0.53,0.53,0,0,0,.3.2,0.2,0.2,0,0,0,.2-0.1,0.29,0.29,0,0,0,.1-0.5A0.33,0.33,0,0,0,158.4,45.8Z"/><path d="M157.9,44.8a0.33,0.33,0,0,0-.1.5,0.53,0.53,0,0,0,.3.2,0.2,0.2,0,0,0,.2-0.1A0.36,0.36,0,0,0,157.9,44.8Z"/><path d="M157.4,129.6a0.43,0.43,0,0,0,.4.4h0.1a0.3,0.3,0,0,0,.3-0.4c0-.3-0.2-0.5-0.4-0.4A0.43,0.43,0,0,0,157.4,129.6Z"/><path d="M161.7,50.9a0.35,0.35,0,0,0-.1.5,0.53,0.53,0,0,0,.3.2c0.1,0,.2,0,0.2-0.1a0.29,0.29,0,0,0,.1-0.5A0.35,0.35,0,0,0,161.7,50.9Z"/><path d="M160.3,48.8a0.35,0.35,0,0,0-.1.5,0.53,0.53,0,0,0,.3.2,0.2,0.2,0,0,0,.2-0.1c0.2,0,.3-0.2.1-0.5A0.33,0.33,0,0,0,160.3,48.8Z"/><path d="M161,49.8a0.35,0.35,0,0,0-.1.5,0.53,0.53,0,0,0,.3.2,0.2,0.2,0,0,0,.2-0.1,0.33,0.33,0,0,0,.1-0.5A0.35,0.35,0,0,0,161,49.8Z"/><path d="M159,46.8a0.35,0.35,0,0,0-.1.5,0.53,0.53,0,0,0,.3.2,0.2,0.2,0,0,0,.2-0.1c0.2,0,.2-0.3.1-0.5A0.33,0.33,0,0,0,159,46.8Z"/><path d="M159.6,47.8a0.35,0.35,0,0,0-.1.5,0.53,0.53,0,0,0,.3.2,0.2,0.2,0,0,0,.2-0.1,0.28,0.28,0,0,0,.1-0.5A0.33,0.33,0,0,0,159.6,47.8Z"/><path d="M165.9,112.8a0.64,0.64,0,0,0,0,.6,0.31,0.31,0,0,0,.2.1,0.37,0.37,0,0,0,.3-0.1,0.33,0.33,0,0,0-.1-0.5C166.2,112.6,166,112.6,165.9,112.8Z"/><path d="M168.2,59.2a0.28,0.28,0,0,0,0,.5,0.5,0.5,0,0,0,.6,0,0.52,0.52,0,0,0-.1-0.5A0.28,0.28,0,0,0,168.2,59.2Z"/><path d="M168.5,109.8a0.38,0.38,0,0,0,0,.6,0.5,0.5,0,0,0,.6,0,0.45,0.45,0,0,0,0-.5C168.9,109.6,168.7,109.6,168.5,109.8Z"/><path d="M167.6,110.7a0.37,0.37,0,0,0,0,.6,0.5,0.5,0,0,0,.6,0,0.45,0.45,0,0,0,0-.5A0.47,0.47,0,0,0,167.6,110.7Z"/><path d="M167.3,58.2a0.28,0.28,0,0,0,0,.5,0.37,0.37,0,0,0,.3.1c0.1,0,.2,0,0.2-0.1,0.2,0,.2-0.3,0-0.5A0.28,0.28,0,0,0,167.3,58.2Z"/><path d="M163.2,117.8a0.34,0.34,0,0,0,.3-0.2,0.36,0.36,0,1,0-.5.1C163,117.8,163.1,117.8,163.2,117.8Z"/><path d="M170.3,108.4a0.5,0.5,0,0,0,.6,0,0.45,0.45,0,0,0,0-.5,0.37,0.37,0,0,0-.6,0A0.45,0.45,0,0,0,170.3,108.4Z"/><path d="M166.7,111.7a0.46,0.46,0,0,0,0,.6,0.31,0.31,0,0,0,.2.1,0.37,0.37,0,0,0,.3-0.1,0.45,0.45,0,0,0,0-.5A0.33,0.33,0,0,0,166.7,111.7Z"/><path d="M170.7,62.2a0.35,0.35,0,0,0-.1.5,0.53,0.53,0,0,0,.3.2c0.1,0,.2,0,0.2-0.1a0.29,0.29,0,0,0,.1-0.5A0.35,0.35,0,0,0,170.7,62.2Z"/><path d="M169.4,108.8a0.38,0.38,0,0,0,0,.6,0.5,0.5,0,0,0,.6,0,0.45,0.45,0,0,0,0-.5A0.47,0.47,0,0,0,169.4,108.8Z"/><path d="M169.9,61.2a0.28,0.28,0,0,0,0,.5,0.37,0.37,0,0,0,.3.1c0.1,0,.2,0,0.2-0.1s0.2-.3,0-0.5A0.28,0.28,0,0,0,169.9,61.2Z"/><path d="M169.1,60.2a0.28,0.28,0,0,0,0,.5,0.37,0.37,0,0,0,.3.1c0.1,0,.2,0,0.2-0.1a0.45,0.45,0,0,0,0-.5A0.28,0.28,0,0,0,169.1,60.2Z"/><path d="M163.8,116.7a0.53,0.53,0,0,0,.3-0.2,0.33,0.33,0,0,0-.1-0.5,0.28,0.28,0,0,0-.5,0,0.45,0.45,0,0,0,.1.6C163.7,116.6,163.7,116.7,163.8,116.7Z"/><path d="M164,54a0.35,0.35,0,0,0-.1.5,0.37,0.37,0,0,0,.3.1c0.1,0,.2,0,0.2-0.1,0.3,0.1.3-.1,0.1-0.4A0.35,0.35,0,0,0,164,54Z"/><path d="M163.3,53a0.35,0.35,0,0,0-.1.5,0.37,0.37,0,0,0,.3.1c0.1,0,.2,0,0.2-0.1,0.2,0.1.2-.2,0.1-0.4A0.35,0.35,0,0,0,163.3,53Z"/><path d="M164.3,114.9a0.45,0.45,0,0,0,.1.6c0.1,0,.1.1,0.2,0.1a0.53,0.53,0,0,0,.3-0.2,0.33,0.33,0,0,0-.1-0.5C164.6,114.6,164.4,114.7,164.3,114.9Z"/><path d="M165.7,56.1a0.28,0.28,0,0,0,0,.5,0.37,0.37,0,0,0,.3.1c0.1,0,.2,0,0.2-0.1,0.1,0.1.1-.2,0-0.4A0.35,0.35,0,0,0,165.7,56.1Z"/><path d="M166.5,57.2a0.28,0.28,0,0,0,0,.5,0.37,0.37,0,0,0,.3.1c0.1,0,.2,0,0.2-0.1s0.2-.3,0-0.5A0.28,0.28,0,0,0,166.5,57.2Z"/><path d="M164.8,55.1a0.28,0.28,0,0,0,0,.5,0.37,0.37,0,0,0,.3.1c0.1,0,.2,0,0.2-0.1,0.2,0,.2-0.2,0-0.4A0.35,0.35,0,0,0,164.8,55.1Z"/><path d="M171.2,107.5a0.5,0.5,0,0,0,.6,0,0.45,0.45,0,0,0,0-.5,0.47,0.47,0,0,0-.6-0.1A0.37,0.37,0,0,0,171.2,107.5Z"/><path d="M165.1,113.8a0.45,0.45,0,0,0,0,.6,0.2,0.2,0,0,0,.2.1c0.1,0,.2-0.1.3-0.1a0.33,0.33,0,0,0-.1-0.5C165.4,113.6,165.2,113.6,165.1,113.8Z"/><path d="M178.1,83.2a0.43,0.43,0,0,0-.4.4v0.1a0.43,0.43,0,0,0,.4.4,0.3,0.3,0,0,0,.3-0.4A0.35,0.35,0,0,0,178.1,83.2Z"/><path d="M123.1,27.6a0.38,0.38,0,0,0-.7-0.3,0.35,0.35,0,0,0,.2.6A0.46,0.46,0,0,0,123.1,27.6Z"/><path d="M122.5,145.7a0.42,0.42,0,0,0-.3.5,0.35,0.35,0,0,0,.4.3h0.1a0.46,0.46,0,0,0,.3-0.5C122.9,145.7,122.7,145.6,122.5,145.7Z"/><path d="M131.1,145.5a0.43,0.43,0,0,0,.4.4h0.1a0.43,0.43,0,0,0,.4-0.4,0.54,0.54,0,0,0-.5-0.4A0.43,0.43,0,0,0,131.1,145.5Z"/><path d="M28.5,45.1a0.43,0.43,0,0,0-.4-0.4H28a0.3,0.3,0,0,0-.3.4A0.4,0.4,0,0,0,28.5,45.1Z"/><path d="M124.3,28a0.37,0.37,0,0,0-.2-0.5H124a0.42,0.42,0,0,0-.5.3,0.55,0.55,0,0,0,.3.5A0.46,0.46,0,0,0,124.3,28Z"/><path d="M123.5,145.8a0.35,0.35,0,0,0,.4.3h0.2a0.35,0.35,0,0,0,.3-0.4,0.86,0.86,0,0,0-.6-0.3A0.35,0.35,0,0,0,123.5,145.8Z"/><path d="M28.6,130.1h0.1a0.35,0.35,0,1,0,0-.7A0.35,0.35,0,0,0,28.6,130.1Z"/><path d="M29.6,45a0.3,0.3,0,0,0-.4-0.3,0.35,0.35,0,1,0,.1.7A0.3,0.3,0,0,0,29.6,45Z"/><path d="M121.3,146a0.42,0.42,0,0,0-.3.5,0.35,0.35,0,0,0,.4.3h0.1a0.55,0.55,0,0,0,.3-0.5C121.7,146,121.5,145.9,121.3,146Z"/><path d="M121.8,27.2a0.38,0.38,0,0,0-.7-0.3,0.45,0.45,0,0,0,.3.6C121.7,27.5,121.8,27.4,121.8,27.2Z"/><path d="M120.5,26.6a0.38,0.38,0,0,0-.7-0.3,0.6,0.6,0,0,0,.3.6C120.4,26.9,120.5,26.8,120.5,26.6Z"/><path d="M125.5,28.4a0.41,0.41,0,0,0-.8-0.2,0.55,0.55,0,0,0,.3.5A0.46,0.46,0,0,0,125.5,28.4Z"/><path d="M129.8,145.5a0.43,0.43,0,0,0,.4.4h0.1a0.43,0.43,0,0,0,.4-0.4,0.46,0.46,0,0,0-.5-0.4A0.43,0.43,0,0,0,129.8,145.5Z"/><path d="M126.7,28.8a0.42,0.42,0,0,0-.3-0.5,0.3,0.3,0,0,0-.4.3,0.42,0.42,0,0,0,.3.5C126.6,29.1,126.7,29,126.7,28.8Z"/><path d="M128.5,145.5a0.43,0.43,0,0,0,.4.4H129a0.43,0.43,0,0,0,.4-0.4,0.46,0.46,0,0,0-.5-0.4A0.43,0.43,0,0,0,128.5,145.5Z"/><path d="M131.8,29.8a0.35,0.35,0,0,0-.7-0.1c-0.1.2,0,.4,0.3,0.4A0.35,0.35,0,0,0,131.8,29.8Z"/><path d="M130.5,29.6a0.35,0.35,0,0,0-.7-0.1c-0.1.2,0,.4,0.3,0.4A0.35,0.35,0,0,0,130.5,29.6Z"/><path d="M127.9,29.1a0.55,0.55,0,0,0-.3-0.5h-0.1a0.35,0.35,0,0,0-.4.3,1,1,0,0,0,.4.5C127.8,29.4,127.9,29.3,127.9,29.1Z"/><path d="M126.4,145.2a0.3,0.3,0,0,0-.3.4,0.4,0.4,0,0,0,.8,0C126.8,145.3,126.6,145.1,126.4,145.2Z"/><path d="M127.2,145.5a0.4,0.4,0,1,0,.8,0c0.1-.2-0.1-0.4-0.4-0.4A0.43,0.43,0,0,0,127.2,145.5Z"/><path d="M129.2,29.4a0.55,0.55,0,0,0-.3-0.5,0.35,0.35,0,0,0-.4.3,0.42,0.42,0,0,0,.3.5A0.35,0.35,0,0,0,129.2,29.4Z"/><path d="M125.1,145.3a0.3,0.3,0,0,0-.3.4,0.43,0.43,0,0,0,.4.4h0.1a0.3,0.3,0,0,0,.3-0.4C125.5,145.5,125.3,145.2,125.1,145.3Z"/><path d="M21,118.9h0.2a0.38,0.38,0,1,0-.3-0.7,0.28,0.28,0,0,0-.2.5A0.53,0.53,0,0,0,21,118.9Z"/><path d="M21.5,120.1h0.2a0.38,0.38,0,1,0-.3-0.7,0.34,0.34,0,0,0-.2.5A0.53,0.53,0,0,0,21.5,120.1Z"/><path d="M22.5,122.6h0.1a0.38,0.38,0,0,0-.3-0.7c-0.1,0-.2.2-0.1,0.5A0.53,0.53,0,0,0,22.5,122.6Z"/><path d="M22.9,123.8H23a0.38,0.38,0,0,0-.3-0.7c-0.1,0-.1.2-0.1,0.5A0.28,0.28,0,0,0,22.9,123.8Z"/><path d="M22,121.3h0.1a0.38,0.38,0,1,0-.3-0.7,0.44,0.44,0,0,0-.1.5A0.53,0.53,0,0,0,22,121.3Z"/><path d="M21.1,52.5A0.33,0.33,0,0,0,21,52c0-.2-0.3-0.1-0.4,0a0.46,0.46,0,0,0,0,.6,0.2,0.2,0,0,0,.2.1A0.53,0.53,0,0,0,21.1,52.5Z"/><path d="M24.5,47.6a0.53,0.53,0,0,0,.3-0.2,0.33,0.33,0,0,0-.1-0.5c-0.2-.3-0.4-0.2-0.5,0a0.45,0.45,0,0,0,.1.6C24.4,47.5,24.4,47.6,24.5,47.6Z"/><path d="M23.2,49c-0.1-.2-0.3-0.2-0.5,0a0.45,0.45,0,0,0,.1.6c0.1,0,.1.1,0.2,0.1a0.53,0.53,0,0,0,.3-0.2A0.33,0.33,0,0,0,23.2,49Z"/><path d="M153.6,44.3h-0.1a0.35,0.35,0,0,0-.4.3,0.4,0.4,0,0,0,.4.5,0.35,0.35,0,0,0,.4-0.3A0.55,0.55,0,0,0,153.6,44.3Z"/><path d="M22.5,50c-0.1-.2-0.3-0.2-0.5,0a0.45,0.45,0,0,0,.1.6c0.1,0,.1.1,0.2,0.1a0.53,0.53,0,0,0,.3-0.2A0.33,0.33,0,0,0,22.5,50Z"/><path d="M25.2,45.8c-0.1-.2-0.3-0.1-0.5,0a0.45,0.45,0,0,0,.1.6c0.1,0,.1.1,0.2,0.1a0.53,0.53,0,0,0,.3-0.2A0.33,0.33,0,0,0,25.2,45.8Z"/><path d="M26,130a0.43,0.43,0,0,0,.4-0.4,0.3,0.3,0,0,0-.3-0.4,0.37,0.37,0,0,0-.4.4A0.35,0.35,0,0,0,26,130Z"/><path d="M27,129.6a0.35,0.35,0,0,0,.3.4h0.1a0.43,0.43,0,0,0,.4-0.4A0.42,0.42,0,0,0,27,129.6Z"/><path d="M26,45a0.4,0.4,0,1,0-.4.4A0.37,0.37,0,0,0,26,45Z"/><path d="M26.8,45.5a0.4,0.4,0,0,0,0-.8H26.7a0.3,0.3,0,0,0-.3.4A0.43,0.43,0,0,0,26.8,45.5Z"/><path d="M24.7,129.9a0.4,0.4,0,1,0,0-.8,0.43,0.43,0,0,0-.4.4A0.78,0.78,0,0,0,24.7,129.9Z"/><path d="M23.9,126.4H24a0.37,0.37,0,0,0,.2-0.5v-0.1a0.55,0.55,0,0,0-.5-0.3,0.45,0.45,0,0,0-.2.6A0.35,0.35,0,0,0,23.9,126.4Z"/><path d="M24.2,127.7h0.1a0.55,0.55,0,0,0,.3-0.5v-0.1a0.55,0.55,0,0,0-.5-0.3,0.6,0.6,0,0,0-.3.6A0.35,0.35,0,0,0,24.2,127.7Z"/><path d="M23.4,125.1h0.1a0.38,0.38,0,0,0-.3-0.7,0.27,0.27,0,0,0-.1.4A0.43,0.43,0,0,0,23.4,125.1Z"/><path d="M24.4,128.8a0.37,0.37,0,0,0,.4-0.4v-0.1a0.35,0.35,0,1,0-.7.1C24.1,128.7,24.2,128.8,24.4,128.8Z"/><path d="M21.4,51a0.33,0.33,0,0,0,.1.5c0.1,0,.1.1,0.2,0.1a0.53,0.53,0,0,0,.3-0.2A0.36,0.36,0,0,0,21.4,51Z"/><path d="M137.2,32.5a0.33,0.33,0,0,0-.1.5,0.53,0.53,0,0,0,.3.2,0.2,0.2,0,0,0,.2-0.1A0.36,0.36,0,0,0,137.2,32.5Z"/><path d="M136.7,31.3a0.37,0.37,0,0,0-.2.5,0.53,0.53,0,0,0,.3.2H137c0.3,0,.3-0.2.2-0.5A0.37,0.37,0,0,0,136.7,31.3Z"/><path d="M136.1,142.7c0.1,0.1.2,0,.3-0.1a0.45,0.45,0,0,0-.1-0.6,0.36,0.36,0,0,0-.4.6C136,142.6,136,142.7,136.1,142.7Z"/><path d="M136,29.1a0.37,0.37,0,0,0-.2.5,0.53,0.53,0,0,0,.3.2h0.1c0.3,0,.4-0.2.3-0.5A0.37,0.37,0,0,0,136,29.1Z"/><path d="M136.3,30.2a0.37,0.37,0,0,0-.2.5,0.53,0.53,0,0,0,.3.2h0.1c0.3,0,.4-0.2.3-0.5A0.37,0.37,0,0,0,136.3,30.2Z"/><path d="M136.6,141.6c0,0.1.1,0.1,0.2,0.1a0.53,0.53,0,0,0,.3-0.2A0.36,0.36,0,1,0,136.6,141.6Z"/><path d="M138.1,138.9a0.45,0.45,0,0,0,0,.6,0.31,0.31,0,0,0,.2.1,0.37,0.37,0,0,0,.3-0.1,0.45,0.45,0,0,0,0-.5C138.4,138.7,138.2,138.7,138.1,138.9Z"/><path d="M138.6,34.5a0.35,0.35,0,0,0-.1.5,0.53,0.53,0,0,0,.3.2c0.1,0,.2,0,0.2-0.1,0.2,0,.2-0.3.1-0.5A0.35,0.35,0,0,0,138.6,34.5Z"/><path d="M137.3,140.5a0.31,0.31,0,0,0,.2.1,0.53,0.53,0,0,0,.3-0.2A0.36,0.36,0,1,0,137.3,140.5Z"/><path d="M137.9,33.4a0.35,0.35,0,0,0-.1.5,0.53,0.53,0,0,0,.3.2,0.2,0.2,0,0,0,.2-0.1c0.2,0,.2-0.2.1-0.5A0.33,0.33,0,0,0,137.9,33.4Z"/><path d="M134.7,145.1h0.2a0.34,0.34,0,0,0,.3-0.2A0.38,0.38,0,1,0,134.7,145.1Z"/><path d="M149.9,43.9a0.34,0.34,0,0,0,.3-0.2,0.38,0.38,0,0,0-.7-0.3,0.34,0.34,0,0,0,.2.5h0.2Z"/><path d="M153.9,129.9a0.35,0.35,0,0,0,.7-0.1,0.28,0.28,0,0,0-.4-0.3A0.35,0.35,0,0,0,153.9,129.9Z"/><path d="M149.4,130.6h-0.1a0.55,0.55,0,0,0-.3.5,0.68,0.68,0,0,0,.5.3h0.1A0.41,0.41,0,0,0,149.4,130.6Z"/><path d="M155,45a0.35,0.35,0,0,0-.3-0.4,0.37,0.37,0,0,0-.4.4c-0.1.2,0,.4,0.3,0.4A0.43,0.43,0,0,0,155,45Z"/><path d="M138.9,137.9a0.38,0.38,0,0,0,0,.6,0.31,0.31,0,0,0,.2.1,0.37,0.37,0,0,0,.3-0.1,0.45,0.45,0,0,0,0-.5A0.27,0.27,0,0,0,138.9,137.9Z"/><path d="M134.2,29.9a0.4,0.4,0,1,0-.8,0A0.4,0.4,0,0,0,134.2,29.9Z"/><path d="M135.5,144a0.53,0.53,0,0,0,.3-0.2,0.36,0.36,0,1,0-.5.1A0.35,0.35,0,0,0,135.5,144Z"/><path d="M135.4,29.8a0.3,0.3,0,0,0-.4-0.3h-0.1a0.35,0.35,0,0,0-.3.4,0.62,0.62,0,0,0,.4.3A0.43,0.43,0,0,0,135.4,29.8Z"/><path d="M134.1,146a0.37,0.37,0,0,0,.4-0.4,0.35,0.35,0,0,0-.3-0.4h-0.1A0.4,0.4,0,0,0,134.1,146Z"/><path d="M143.6,133.3a0.35,0.35,0,0,0-.1.5,0.53,0.53,0,0,0,.3.2,0.2,0.2,0,0,0,.2-0.1,0.35,0.35,0,0,0,.1-0.5C144.1,133.2,143.8,133.2,143.6,133.3Z"/><path d="M146,131.9a0.37,0.37,0,0,0-.2.5,0.53,0.53,0,0,0,.3.2h0.2a0.37,0.37,0,0,0,.2-0.5A0.39,0.39,0,0,0,146,131.9Z"/><path d="M146.6,41.5a0.47,0.47,0,0,0-.6.1,0.44,0.44,0,0,0,.1.5c0.1,0,.1.1,0.2,0.1a0.53,0.53,0,0,0,.3-0.2C146.9,41.8,146.8,41.6,146.6,41.5Z"/><path d="M145,40.8a0.33,0.33,0,0,0,.1.5c0.1,0,.1.1,0.2,0.1a0.53,0.53,0,0,0,.3-0.2c0.2-.1.1-0.3-0.1-0.5A0.33,0.33,0,0,0,145,40.8Z"/><path d="M144.5,40a0.36,0.36,0,0,0-.4.6c0.1,0,.1.1,0.2,0.1a0.53,0.53,0,0,0,.3-0.2A0.35,0.35,0,0,0,144.5,40Z"/><path d="M144.6,133.1a0.53,0.53,0,0,0,.3.2,0.2,0.2,0,0,0,.2-0.1,0.33,0.33,0,0,0,.1-0.5,0.25,0.25,0,0,0-.4-0.2A0.48,0.48,0,0,0,144.6,133.1Z"/><path d="M147,131.4a0.37,0.37,0,0,0-.2.5,0.28,0.28,0,0,0,.3.2h0.1a0.37,0.37,0,0,0,.2-0.5A0.25,0.25,0,0,0,147,131.4Z"/><path d="M148.1,131a0.37,0.37,0,0,0-.2.5,0.42,0.42,0,0,0,.4.3h0.1a0.37,0.37,0,0,0,.2-0.5C148.6,131,148.4,130.9,148.1,131Z"/><path d="M147.7,42.1a0.33,0.33,0,0,0-.5.1,0.37,0.37,0,0,0,.2.5h0.2a0.34,0.34,0,0,0,.3-0.2C148,42.5,147.9,42.2,147.7,42.1Z"/><path d="M132.4,145.6a0.37,0.37,0,0,0,.4.4h0.1a0.43,0.43,0,0,0,.4-0.4,0.45,0.45,0,0,0-.5-0.4A0.43,0.43,0,0,0,132.4,145.6Z"/><path d="M148.4,42.9a0.37,0.37,0,0,0,.2.5h0.2a0.34,0.34,0,0,0,.3-0.2,0.76,0.76,0,0,0-.2-0.5A0.37,0.37,0,0,0,148.4,42.9Z"/><path d="M140.8,36.6a0.28,0.28,0,0,0-.5,0c-0.1.1-.2,0.4,0,0.5a0.35,0.35,0,0,0,.2.1,0.37,0.37,0,0,0,.3-0.1A0.28,0.28,0,0,0,140.8,36.6Z"/><path d="M139.8,35.6a0.35,0.35,0,0,0-.5-0.1,0.28,0.28,0,0,0,0,.5,0.53,0.53,0,0,0,.3.2c0.1,0,.2,0,0.2-0.1A0.28,0.28,0,0,0,139.8,35.6Z"/><path d="M140.7,135.9a0.37,0.37,0,0,0,0,.6,0.5,0.5,0,0,0,.6,0,0.45,0.45,0,0,0,0-.5A0.48,0.48,0,0,0,140.7,135.9Z"/><path d="M139.8,137a0.45,0.45,0,0,0,0,.5,0.35,0.35,0,0,0,.2.1,0.37,0.37,0,0,0,.3-0.1,0.45,0.45,0,0,0,0-.5A0.45,0.45,0,0,0,139.8,137Z"/><path d="M141.7,38a0.45,0.45,0,0,0,0-.5,0.45,0.45,0,0,0-.5,0c-0.3.1-.3,0.3-0.1,0.5A0.5,0.5,0,0,0,141.7,38Z"/><path d="M141.6,135a0.47,0.47,0,0,0-.1.6,0.37,0.37,0,0,0,.3.1c0.1,0,.2,0,0.2-0.1a0.28,0.28,0,0,0,0-.5C142,134.9,141.8,134.8,141.6,135Z"/><path d="M143.3,39.9a0.37,0.37,0,0,0,.3-0.1,0.45,0.45,0,0,0-.1-0.6,0.36,0.36,0,1,0-.4.6A0.31,0.31,0,0,0,143.3,39.9Z"/><path d="M142.6,134.1a0.47,0.47,0,0,0-.1.6,0.37,0.37,0,0,0,.3.1c0.1,0,.2,0,0.2-0.1a0.35,0.35,0,0,0,.1-0.5A0.33,0.33,0,0,0,142.6,134.1Z"/><path d="M142.3,39a0.37,0.37,0,0,0,.3-0.1,0.35,0.35,0,1,0-.5,0C142.1,39,142.2,39,142.3,39Z"/><path d="M133.1,29.8a0.37,0.37,0,0,0-.4-0.4,0.43,0.43,0,0,0-.4.4,0.37,0.37,0,0,0,.4.4A0.43,0.43,0,0,0,133.1,29.8Z"/><path d="M72.1,141.2c-0.1,0-.3-0.1-0.4-0.1H71.4l-0.6,3.2H71l0.2-1.2h0.7a1,1,0,0,0,.8-1A1,1,0,0,0,72.1,141.2Zm-0.3,1.7H71.2l0.3-1.5H72a0.55,0.55,0,0,1,.4.6A0.73,0.73,0,0,1,71.8,142.9Z"/><path d="M74.3,144.4h0.2v-0.3a2,2,0,0,1,.1-0.7v-0.2c0-.2.1-0.4,0.1-0.6a0.53,0.53,0,0,0-.6-0.6,1.85,1.85,0,0,0-.7.2v0.2a1.45,1.45,0,0,1,.7-0.2,0.33,0.33,0,0,1,.4.4v0.3H74.1a1.88,1.88,0,0,0-.8.2,0.6,0.6,0,0,0-.3.6,0.58,0.58,0,0,0,.6.6,0.68,0.68,0,0,0,.6-0.3A0.48,0.48,0,0,0,74.3,144.4Zm-0.8-.2c-0.2,0-.3-0.1-0.3-0.4a0.52,0.52,0,0,1,.2-0.4,1.45,1.45,0,0,1,.7-0.2h0.2v0.2A0.94,0.94,0,0,1,73.5,144.2Z"/><path d="M76.3,142.3l0.1-.2H76.2a0.74,0.74,0,0,0-.6.5l0.1-.5H75.5L75,144.4h0.2l0.2-1a1.22,1.22,0,0,1,.7-1.1h0.2Z"/><path d="M77 142.1L76.8 142.1 76.3 144.4 76.6 144.4 77 142.1z"/><path d="M78.6,142.1a0.75,0.75,0,0,0-.5-0.1,0.61,0.61,0,0,0-.7.6c0,0.6.7,0.6,0.7,1.1a0.4,0.4,0,0,1-.5.4,4.33,4.33,0,0,1-.5-0.1l-0.1.2a0.85,0.85,0,0,0,.6.2,0.7,0.7,0,0,0,.8-0.6c0-.6-0.7-0.7-0.7-1.1a0.63,0.63,0,0,1,.5-0.5,0.6,0.6,0,0,1,.4.1v-0.2Z"/><path d="M83.1,143.5c0-.9-1-0.9-1-1.6a0.5,0.5,0,0,1,.6-0.5c0.2,0,.4.1,0.6,0.1l0.1-.2a1.27,1.27,0,0,0-.6-0.1,0.82,0.82,0,0,0-.9.8c0,0.8,1,.8,1,1.6a0.6,0.6,0,0,1-.7.6,0.85,0.85,0,0,1-.6-0.2l-0.1.2a1.17,1.17,0,0,0,.7.2A0.84,0.84,0,0,0,83.1,143.5Z"/><path d="M85,143.9a0.48,0.48,0,0,0,.1.4h0.2v-1.1c0-.2.1-0.4,0.1-0.6a0.53,0.53,0,0,0-.6-0.6,1.85,1.85,0,0,0-.7.2v0.2a1.45,1.45,0,0,1,.7-0.2,0.33,0.33,0,0,1,.4.4v0.3H84.8a1.88,1.88,0,0,0-.8.2,0.6,0.6,0,0,0-.3.6,0.58,0.58,0,0,0,.6.6A0.84,0.84,0,0,0,85,143.9Zm-0.8.3c-0.2,0-.3-0.1-0.3-0.4a0.52,0.52,0,0,1,.2-0.4,1.45,1.45,0,0,1,.7-0.2H85v0.2A1,1,0,0,1,84.2,144.2Z"/><path d="M86.2 142.1L85.7 144.4 85.9 144.4 86.4 142.1 86.2 142.1z"/><path d="M88.1,142.1a1,1,0,0,0-.8.5l0.1-.5H87.1l-0.5,2.3h0.2l0.2-1.1a2,2,0,0,1,.2-0.6,1.2,1.2,0,0,1,.8-0.4,0.27,0.27,0,0,1,.3.3V143L88,144.4h0.2l0.3-1.4a2.27,2.27,0,0,1,.1-0.4A0.43,0.43,0,0,0,88.1,142.1Z"/><path d="M89.6,142.3h0.5l0.1-.2H89.6l0.1-.6-0.3.1-0.1.5H89v0.2h0.3L89,143.8V144a0.37,0.37,0,0,0,.4.4,1.06,1.06,0,0,0,.5-0.2l-0.1-.2a0.48,0.48,0,0,1-.4.1,0.16,0.16,0,0,1-.2-0.2v-0.2Z"/><path d="M93.3,141.2c-0.1,0-.3-0.1-0.4-0.1H92.6L92,144.3h0.1l0.2-1.2H93a1,1,0,0,0,.8-1A0.76,0.76,0,0,0,93.3,141.2ZM93,142.9H92.4l0.3-1.5h0.5a0.55,0.55,0,0,1,.4.6A0.8,0.8,0,0,1,93,142.9Z"/><path d="M95.6,144a1.42,1.42,0,0,1-.6.2,0.65,0.65,0,0,1-.6-0.8v-0.2h1.4a0.75,0.75,0,0,0,.1-0.5,0.63,0.63,0,0,0-.7-0.7,1.27,1.27,0,0,0-1.1,1.4,0.92,0.92,0,0,0,.8,1,1.85,1.85,0,0,0,.7-0.2V144Zm-0.4-1.7a0.39,0.39,0,0,1,.4.5v0.3H94.4A1.06,1.06,0,0,1,95.2,142.3Z"/><path d="M95.4 141.8L95.8 141.1 95.5 141.1 95.2 141.8 95.4 141.8z"/><path d="M97,142l0.1-.6-0.3.1-0.1.5H96.4v0.2h0.3l-0.3,1.5V144a0.37,0.37,0,0,0,.4.4,1.06,1.06,0,0,0,.5-0.2l-0.1-.2a0.48,0.48,0,0,1-.4.1,0.16,0.16,0,0,1-.2-0.2v-0.2l0.3-1.5h0.6l0.1-.2H97Z"/><path d="M99.4,143.2a0.75,0.75,0,0,0,.1-0.5,0.63,0.63,0,0,0-.7-0.7,1.27,1.27,0,0,0-1.1,1.4,0.92,0.92,0,0,0,.8,1,1.85,1.85,0,0,0,.7-0.2l-0.1-.2a1.42,1.42,0,0,1-.6.2,0.65,0.65,0,0,1-.6-0.8v-0.2h1.5Zm-0.6-.9a0.39,0.39,0,0,1,.4.5v0.3H98A0.86,0.86,0,0,1,98.8,142.3Z"/><path d="M100.9,142.3h0.2l0.1-.2H101a0.74,0.74,0,0,0-.6.5l0.1-.5h-0.4l-0.5,2.3h0.2l0.2-1C100.3,142.6,100.6,142.3,100.9,142.3Z"/><path d="M102.5,143.8c0-.6-0.7-0.7-0.7-1.1a0.37,0.37,0,0,1,.4-0.4,0.6,0.6,0,0,1,.4.1v-0.2a0.4,0.4,0,0,0-.4-0.2,0.61,0.61,0,0,0-.7.6c0,0.6.7,0.6,0.7,1.1a0.4,0.4,0,0,1-.5.4,4.33,4.33,0,0,1-.5-0.1l-0.1.2a0.85,0.85,0,0,0,.6.2A0.7,0.7,0,0,0,102.5,143.8Z"/><path d="M104.8,142.8a0.71,0.71,0,0,0-.6-0.8,0.75,0.75,0,0,0-.7.5,2.27,2.27,0,0,1,.1-0.4l0.2-1.1h-0.2l-0.7,3.4a4.34,4.34,0,0,0,.5.1A1.65,1.65,0,0,0,104.8,142.8Zm-1.4,1.4h-0.3l0.2-.9a1.54,1.54,0,0,1,.3-0.7,0.68,0.68,0,0,1,.5-0.3,0.49,0.49,0,0,1,.4.6A1.23,1.23,0,0,1,103.4,144.2Z"/><path d="M107.1,142.9a0.73,0.73,0,0,0-.8-0.8c-0.6,0-1.1.6-1.1,1.6a0.73,0.73,0,0,0,.8.8A1.59,1.59,0,0,0,107.1,142.9Zm-1.2,1.3a0.5,0.5,0,0,1-.5-0.6,1.15,1.15,0,0,1,.9-1.3,0.5,0.5,0,0,1,.5.6A1.15,1.15,0,0,1,105.9,144.2Z"/><path d="M108.9,144.4v-0.3a2,2,0,0,1,.1-0.7l0.3-1.3h-0.2l-0.2,1.2a1.06,1.06,0,0,1-.9.9,0.27,0.27,0,0,1-.3-0.3v-0.4l0.3-1.4h-0.2l-0.3,1.4a2.27,2.27,0,0,1-.1.4,0.43,0.43,0,0,0,.5.5,1,1,0,0,0,.8-0.5v0.5h0.2Z"/><path d="M110.7,142.3h0.2l0.1-.2h-0.2a0.74,0.74,0,0,0-.6.5l0.1-.5h-0.2l-0.5,2.3h0.2l0.2-1C110.1,142.6,110.4,142.3,110.7,142.3Z"/><path d="M112.2,142a1.4,1.4,0,0,0-1.3,1.6,0.65,0.65,0,0,0,.6.8,0.87,0.87,0,0,0,.7-0.4l-0.1.4a0.82,0.82,0,0,1-.8.9,0.48,0.48,0,0,1-.5-0.2l-0.1.2a1.42,1.42,0,0,0,.6.2,1,1,0,0,0,1-1l0.5-2.4A1.08,1.08,0,0,0,112.2,142Zm-0.7,2.2a0.49,0.49,0,0,1-.4-0.6,1.16,1.16,0,0,1,1.1-1.3h0.4l-0.2.8A1.18,1.18,0,0,1,111.5,144.2Z"/><path d="M83 109.7L81.3 109.8 81.5 108.5 82.9 108.5 83 108.1 81.6 108.1 81.8 106.9 83.3 106.9 83.4 106.5 81.4 106.6 80.8 110.2 82.9 110.1 83 109.7z"/><path d="M84.8,109.8H84.4c-0.1,0-.2-0.1-0.3-0.1l-0.1.4c0.1,0,.2.1,0.3,0.1h0.4a0.6,0.6,0,0,0,.4-0.1,0.92,0.92,0,0,0,.5-0.5,2.27,2.27,0,0,0,.1-0.4,0.37,0.37,0,0,0-.1-0.3,0.38,0.38,0,0,0-.2-0.2,0.2,0.2,0,0,0-.2-0.1,0.35,0.35,0,0,1-.2-0.1,0.2,0.2,0,0,1-.2-0.1,0.1,0.1,0,0,1-.1-0.1l-0.1-.1v-0.3l0.1-.1a0.35,0.35,0,0,1,.2-0.1h0.5c0.1,0,.2.1,0.3,0.1l0.1-.4a0.31,0.31,0,0,1-.2-0.1H85a0.37,0.37,0,0,0-.3.1,0.53,0.53,0,0,0-.3.2c-0.1.1-.1,0.2-0.2,0.3a2.27,2.27,0,0,0-.1.4c0,0.1,0,.2.1,0.2s0.1,0.1.1,0.2a0.35,0.35,0,0,0,.2.1c0.1,0,.1.1,0.2,0.1s0.1,0.1.2,0.1a0.2,0.2,0,0,1,.2.1,0.1,0.1,0,0,1,.1.1v0.3c0.1,0,.1,0,0.1.1a0.35,0.35,0,0,1-.2.1C85,109.7,84.9,109.8,84.8,109.8Z"/><path d="M87.5,109.2l0.3-1.5h0.7l0.1-.4H87.9l0.1-.7H87.6l-0.1.7H87l-0.1.4h0.5l-0.3,1.6v0.2a0.52,0.52,0,0,0,.2.4,0.75,0.75,0,0,0,.5.1h0.4l0.1-.4H87.6a0.35,0.35,0,0,1-.1-0.2v-0.2Z"/><path d="M89.7 109.9L89.8 109.4 89.3 109.4 89.2 109.9 89.7 109.9z"/><path d="M94.3,107.4a2.09,2.09,0,0,1-.4.6,4.35,4.35,0,0,0-.6.7,6,6,0,0,1-.8.8v0.3h2.1l0.2-.3H93.4A2.65,2.65,0,0,1,94,109l0.5-.5c0.1-.1.2-0.3,0.3-0.4a0.52,0.52,0,0,0,.2-0.4,0.48,0.48,0,0,0,.1-0.4v-0.4a0.37,0.37,0,0,0-.1-0.3,0.53,0.53,0,0,0-.2-0.3c-0.1-.1-0.2-0.1-0.3-0.2a2.27,2.27,0,0,0-.4-0.1,0.6,0.6,0,0,0-.4.1,1.69,1.69,0,0,0-.5.2l-0.1.4c0.1-.1.3-0.1,0.4-0.2s0.3-.1.4-0.1h0.2c0.1,0,.1.1,0.2,0.1a0.35,0.35,0,0,1,.1.2v0.2A0.9,0.9,0,0,1,94.3,107.4Z"/><path d="M96.5,109.9a2.27,2.27,0,0,0,.4.1,0.9,0.9,0,0,0,.5-0.1,1.51,1.51,0,0,0,.4-0.4,2.19,2.19,0,0,0,.3-0.5c0.1-.2.1-0.4,0.2-0.6a1.27,1.27,0,0,0,.1-0.6v-1c0-.1-0.1-0.3-0.1-0.4s-0.2-.1-0.3-0.1a0.48,0.48,0,0,0-.4-0.1,0.75,0.75,0,0,0-.5.1c-0.1.1-.3,0.2-0.4,0.3a2.19,2.19,0,0,0-.3.5c-0.1.2-.1,0.4-0.2,0.6s-0.1.4-.1,0.6v1c0,0.1.1,0.3,0.1,0.4A0.53,0.53,0,0,0,96.5,109.9Zm0.1-1.4v-0.4a0.76,0.76,0,0,1,.1-0.4c0-.1.1-0.3,0.1-0.4s0.1-.2.1-0.3,0.1-.2.2-0.3l0.2-.2a0.37,0.37,0,0,1,.3-0.1,0.25,0.25,0,0,1,.3.2,0.92,0.92,0,0,1,.1.6,0.3,0.3,0,0,1,0,.4v0.3a0.6,0.6,0,0,1-.1.4c0,0.1-.1.3-0.1,0.4s-0.1.2-.1,0.3-0.1.2-.2,0.3l-0.2.2c-0.1,0-.2.1-0.3,0.1a0.25,0.25,0,0,1-.3-0.2,0.92,0.92,0,0,1-.1-0.6v-0.3Z"/><path d="M101.3,106.3a0.48,0.48,0,0,0-.4-0.1,0.9,0.9,0,0,0-.5.1c-0.1.1-.3,0.2-0.4,0.3a2.19,2.19,0,0,0-.3.5c-0.1.2-.1,0.4-0.2,0.6a1.27,1.27,0,0,0-.1.6v1c0,0.1.1,0.3,0.1,0.4a0.38,0.38,0,0,0,.2.2,4.33,4.33,0,0,1,.5.1,0.9,0.9,0,0,0,.5-0.1c0.1-.1.3-0.2,0.4-0.3a2.19,2.19,0,0,0,.3-0.5c0.1-.2.1-0.4,0.2-0.6a1.27,1.27,0,0,0,.1-0.6v-1c0-.1-0.1-0.3-0.1-0.4A0.34,0.34,0,0,0,101.3,106.3Zm0,1.3v0.3c0,0.1-.1.3-0.1,0.4a2.27,2.27,0,0,0-.1.4c0,0.1-.1.2-0.1,0.3s-0.1.2-.2,0.3l-0.2.2c-0.1,0-.2.1-0.3,0.1a0.25,0.25,0,0,1-.3-0.2,0.92,0.92,0,0,1-.1-0.6c-0.1,0-.1-0.1-0.1-0.3v-0.3a0.76,0.76,0,0,1,.1-0.4c0-.1.1-0.3,0.1-0.4a0.53,0.53,0,0,1,.2-0.3c0.1-.1.1-0.2,0.2-0.3l0.2-.2c0.1,0,.2-0.1.3-0.1a0.25,0.25,0,0,1,.3.2,0.92,0.92,0,0,1,.1.6v0.3Z"/><path d="M103.1,108.2c-0.1.1-.2,0.1-0.3,0.2s-0.1.2-.2,0.3-0.1.3-.1,0.4v0.3a0.53,0.53,0,0,0,.2.3c0.1,0.1.2,0.1,0.3,0.2a0.6,0.6,0,0,0,.4.1,0.9,0.9,0,0,0,.5-0.1,1.46,1.46,0,0,0,.4-0.2,1.38,1.38,0,0,0,.3-0.4,0.75,0.75,0,0,0,.1-0.5v-0.3c0-.1-0.1-0.1-0.1-0.2a0.38,0.38,0,0,0-.2-0.2c-0.1,0-.1-0.1-0.2-0.1,0.1,0,.2-0.1.3-0.1s0.2-.1.3-0.2,0.1-.2.2-0.3,0.1-.2.1-0.3a0.37,0.37,0,0,0-.1-0.3,0.53,0.53,0,0,0-.2-0.3c-0.1-.1-0.2-0.1-0.3-0.2s-0.3-.1-0.4-0.1a0.48,0.48,0,0,0-.4.1,0.76,0.76,0,0,0-.4.2l-0.3.3a0.6,0.6,0,0,0-.1.4v0.3c0,0.1.1,0.1,0.1,0.2s0.1,0.1.1,0.2,0.1,0.1.2,0.1A0.22,0.22,0,0,1,103.1,108.2Zm0.3-.9a0.37,0.37,0,0,1,.1-0.3,0.35,0.35,0,0,1,.1-0.2,0.2,0.2,0,0,1,.2-0.1h0.3a0.52,0.52,0,0,1,.4.2,0.48,0.48,0,0,1,.1.4,0.37,0.37,0,0,1-.1.3,0.22,0.22,0,0,1-.2.2l-0.2.2c-0.1,0-.2.1-0.3,0.1s-0.1-.1-0.2-0.1a0.1,0.1,0,0,1-.1-0.1,0.35,0.35,0,0,1-.1-0.2v-0.4Zm0.1,1.1c0.1,0,.2-0.1.3-0.1s0.2,0,.2.1,0.1,0.1.2,0.1a0.35,0.35,0,0,1,.1.2v0.2a0.37,0.37,0,0,1-.1.3,0.22,0.22,0,0,1-.2.2c-0.1.1-.2,0.1-0.3,0.2a0.32,0.32,0,0,1-.3,0,0.52,0.52,0,0,1-.4-0.2,0.48,0.48,0,0,1-.1-0.4,0.37,0.37,0,0,1,.1-0.3,0.53,0.53,0,0,1,.2-0.3A0.32,0.32,0,0,0,103.5,108.4Z"/><circle cx="20.7" cy="108.5" r=".5"/><circle cx="24.1" cy="108.5" r=".5"/><circle cx="27.5" cy="108.5" r=".5"/><circle cx="30.9" cy="108.5" r=".5"/><circle cx="34.3" cy="108.5" r=".5"/><circle cx="37.7" cy="108.5" r=".5"/><circle cx="41.1" cy="108.5" r=".5"/><circle cx="44.5" cy="108.5" r=".5"/><circle cx="47.9" cy="108.5" r=".5"/><circle cx="51.3" cy="108.5" r=".5"/><circle cx="54.7" cy="108.5" r=".5"/><circle cx="58.1" cy="108.5" r=".5"/><circle cx="61.5" cy="108.5" r=".5"/><circle cx="64.9" cy="108.5" r=".5"/><circle cx="68.3" cy="108.5" r=".5"/><circle cx="71.7" cy="108.5" r=".5"/><circle cx="75.1" cy="108.5" r=".5"/><circle cx="108.5" cy="108.5" r=".5"/><circle cx="111.9" cy="108.5" r=".5"/><circle cx="115.3" cy="108.5" r=".5"/><circle cx="118.7" cy="108.5" r=".5"/><circle cx="122.1" cy="108.5" r=".5"/><circle cx="125.5" cy="108.5" r=".5"/><circle cx="128.9" cy="108.5" r=".5"/><circle cx="132.3" cy="108.5" r=".5"/><circle cx="135.7" cy="108.5" r=".5"/><circle cx="139.1" cy="108.5" r=".5"/><circle cx="142.5" cy="108.5" r=".5"/><circle cx="145.9" cy="108.5" r=".5"/><circle cx="149.3" cy="108.5" r=".5"/><circle cx="152.7" cy="108.5" r=".5"/><circle cx="156" cy="108.5" r=".5"/><circle cx="159.4" cy="108.5" r=".5"/><circle cx="162.8" cy="108.5" r=".5"/><path d="M42.4 118.7L40.6 118.7 40.6 116.9 42.4 116.9 42.7 116.2 39.8 116.2 39.8 122 40.6 122 40.6 119.4 42.4 119.4 42.4 118.7z"/><path d="M47.6,122h0.8l-2.2-5.8H45.6L43.5,122h0.8l0.5-1.5H47Zm-2.5-2.1,0.5-1.5a3.26,3.26,0,0,0,.3-1,4.05,4.05,0,0,1,.3,1l0.5,1.5H45.1Z"/><path d="M50.1,122h1.6a1.64,1.64,0,0,0,1.9-1.7,1.32,1.32,0,0,0-1.1-1.4,1.39,1.39,0,0,0,.7-1.2,1.48,1.48,0,0,0-1.7-1.5H50.1V122Zm0.7-5.1h0.6a0.9,0.9,0,1,1,0,1.8H50.8v-1.8Zm0,2.5h0.9a1,1,0,0,1,1.1,1,1,1,0,0,1-1.2,1H50.8v-2Z"/><path d="M56.3,116.3H55.1v5.8h0.8l-0.1-2.5h0.6a1.08,1.08,0,0,1,.6.8l0.9,1.6h0.9l-1-1.7a2.47,2.47,0,0,0-.7-0.9,1.43,1.43,0,0,0,1.1-1.5,1.46,1.46,0,0,0-.7-1.3A2.13,2.13,0,0,0,56.3,116.3Zm0.7,2.5a1.45,1.45,0,0,1-.7.2H55.8v-2.1h0.5a1.55,1.55,0,0,1,.8.2,1.23,1.23,0,0,1,.4.8A1.05,1.05,0,0,1,57,118.8Z"/><path d="M60.2 116.2H61V122H60.2z"/><path d="M65.3,116.2a2.71,2.71,0,0,0-2.7,3,2.78,2.78,0,0,0,2,2.9,2.58,2.58,0,0,0,2.2,1.4,2.92,2.92,0,0,0,.9-0.2l-0.2-.6a1.08,1.08,0,0,1-.6.1,1.57,1.57,0,0,1-1.3-.7,2.65,2.65,0,0,0,2.5-2.9A2.85,2.85,0,0,0,65.3,116.2Zm0,5.2a2.34,2.34,0,1,1,1.9-2.3C67.2,120.6,66.4,121.4,65.3,121.4Z"/><path d="M73.7,120.9a3,3,0,0,0,.2-1v-3.7H73.1v3.6a2,2,0,0,1-.1.8,1.46,1.46,0,0,1-2.6,0,2,2,0,0,1-.1-0.8v-3.6H69.5v3.7a3,3,0,0,0,.2,1A2.27,2.27,0,0,0,73.7,120.9Z"/><path d="M78.2 116.9L78.5 116.2 75.7 116.2 75.7 122 78.5 122 78.5 121.4 76.4 121.4 76.4 119.4 78.2 119.4 78.2 118.7 76.4 118.7 76.4 116.9 78.2 116.9z"/><path d="M82.4,116.2V122h1.4a2.9,2.9,0,1,0,0-5.8H82.4Zm3.7,2.9a2.07,2.07,0,0,1-2.2,2.3H83.2v-4.5h0.7A2,2,0,0,1,86.1,119.1Z"/><path d="M91.7 121.4L89.6 121.4 89.6 119.4 91.4 119.4 91.4 118.7 89.6 118.7 89.6 116.9 91.5 116.9 91.7 116.2 88.9 116.2 88.9 122 91.7 122 91.7 121.4z"/><path d="M98.1,122.1a3.17,3.17,0,0,0,1.6-.4l-0.2-.6a2.84,2.84,0,0,1-1.3.4,2,2,0,0,1-2-2.3,2.09,2.09,0,0,1,2-2.3,2.12,2.12,0,0,1,1.4.4v-0.7a2.65,2.65,0,0,0-1.4-.3,2.79,2.79,0,0,0-2.8,3A2.6,2.6,0,0,0,98.1,122.1Z"/><path d="M101.2 116.2L101.2 122 101.9 122 101.9 119.4 104.8 119.4 104.8 122 105.6 122 105.6 116.2 104.8 116.2 104.8 118.7 101.9 118.7 101.9 116.2 101.2 116.2z"/><path d="M107.2,119.2a2.77,2.77,0,0,0,2.7,3A3,3,0,1,0,107.2,119.2Zm2.7-2.4a2,2,0,0,1,1.9,2.3c0.1,1.5-.7,2.3-1.9,2.3A2.32,2.32,0,0,1,109.9,116.8Z"/><path d="M118.3,121.7l-0.2-.6a2.84,2.84,0,0,1-1.3.4,2,2,0,0,1-2-2.3,2.09,2.09,0,0,1,2-2.3,2.12,2.12,0,0,1,1.4.4v-0.7a2.65,2.65,0,0,0-1.4-.3,2.79,2.79,0,0,0-2.8,3,2.63,2.63,0,0,0,2.7,2.9A5.82,5.82,0,0,0,118.3,121.7Z"/><path d="M119.5,119.2a2.77,2.77,0,0,0,2.7,3,2.71,2.71,0,0,0,2.7-3,2.66,2.66,0,0,0-2.7-3A2.71,2.71,0,0,0,119.5,119.2Zm2.7-2.4a2,2,0,0,1,1.9,2.3c0.1,1.5-.7,2.3-1.9,2.3A2.32,2.32,0,0,1,122.2,116.8Z"/><path d="M126.6 116.2L126.6 122 129.3 122 129.3 121.4 127.3 121.4 127.3 116.2 126.6 116.2z"/><path d="M134.9,122l-2.2-5.8h-0.6L130,122h0.8l0.5-1.5h2.2L134,122h0.9Zm-3.3-2.1,0.5-1.5a3.26,3.26,0,0,0,.3-1,4.05,4.05,0,0,1,.3,1l0.5,1.5h-1.6Z"/><path d="M139.7 116.2L135.6 116.2 135.6 116.9 137.2 116.9 137.2 122 138 122 138 116.9 139.5 116.9 139.7 116.2z"/><path d="M140.9 122L143.7 122 143.7 121.4 141.6 121.4 141.6 119.4 143.5 119.4 143.5 118.7 141.6 118.7 141.6 116.9 143.5 116.9 143.7 116.2 140.9 116.2 140.9 122z"/><path d="M73.6 134.8L71.8 134.8 71.8 128.3 70.6 128.3 70.6 135.8 73.6 135.8 73.6 134.8z"/><path d="M77.8 134.8L75.8 134.8 75.8 132.5 77.4 132.5 77.4 131.5 75.8 131.5 75.8 129.4 77.8 129.4 77.8 128.3 74.7 128.3 74.7 135.8 77.8 135.8 77.8 134.8z"/><path d="M84.7,134v-0.6a1.41,1.41,0,0,0-.9-1.6,1.4,1.4,0,0,0,.7-1.5V130a1.45,1.45,0,0,0-1.7-1.7H81.1v7.6h1.8A1.71,1.71,0,0,0,84.7,134Zm-1.8.7H82.2v-2.3h0.5c0.5,0,.7.2,0.7,0.9l0.1,0.7C83.5,134.6,83.3,134.7,82.9,134.7Zm0.6-4.1a0.67,0.67,0,0,1-.7.8H82.4l-0.1-2h0.6c0.4,0,.6.2,0.6,0.8v0.4Z"/><path d="M89.2,134v-3.9a1.71,1.71,0,1,0-3.4,0V134A1.71,1.71,0,1,0,89.2,134Zm-1.1.1a0.61,0.61,0,1,1-1.2,0V130a0.61,0.61,0,1,1,1.2,0v4.1Z"/><path d="M94.1 128.3L93.1 128.3 93.1 132.8 91.9 128.3 90.5 128.3 90.5 135.8 91.5 135.8 91.5 130.4 92.9 135.8 94.1 135.8 94.1 128.3z"/><path d="M97.9 135.8L99.1 135.8 99.1 128.3 97.9 128.3 97.9 131.5 96.6 131.5 96.6 128.3 95.5 128.3 95.5 135.8 96.6 135.8 96.6 132.6 97.9 132.6 97.9 135.8z"/><path d="M103.5 134.8L101.6 134.8 101.6 132.5 103.1 132.5 103.1 131.5 101.6 131.5 101.6 129.4 103.5 129.4 103.5 128.3 100.4 128.3 100.4 135.8 103.5 135.8 103.5 134.8z"/><path d="M106.4,135.9a1.64,1.64,0,0,0,1.7-1.9v-5.8H107V134a0.61,0.61,0,1,1-1.2,0v-5.8h-1.1V134A1.64,1.64,0,0,0,106.4,135.9Z"/><path d="M112.8,130.6V130a1.45,1.45,0,0,0-1.7-1.7h-1.7v7.6h1.1v-3.1h0.4c0.5,0,.7.3,0.7,1V135a1.74,1.74,0,0,0,.1.9h1.2a2.77,2.77,0,0,1-.1-0.9v-1.2a1.46,1.46,0,0,0-.8-1.6A1.54,1.54,0,0,0,112.8,130.6Zm-1.1.3a0.67,0.67,0,0,1-.7.8h-0.4v-2.3h0.6c0.4,0,.6.2,0.6,0.8Z"/><path d="M133,129.4a2,2,0,0,0-2.1.3,2,2,0,0,1,1.9,0,0.87,0.87,0,0,1,.4.9,1.16,1.16,0,0,1-.6.8c-1.2.6-4,.2-5.6-0.7a3.44,3.44,0,0,0,.1-1.4,1.09,1.09,0,0,0-.7-1,1,1,0,0,0-.9.2,1.58,1.58,0,0,0,.1,1.5,3.82,3.82,0,0,0,.9.9c-0.7,1.7-2.8,2.4-4.6,2.6-4.8.6-6-1.3-6-1.3s0.9,1.8,4.6,1.8a10.29,10.29,0,0,0,1.7-.1c3.1-.4,4.3-1.6,4.8-2.8,1.7,0.9,4.4,1.5,5.7.9a2.78,2.78,0,0,0,.9-1.4A1.14,1.14,0,0,0,133,129.4Zm-6.3,1a1.34,1.34,0,0,1-.6-0.7,1,1,0,0,1-.1-0.9,0.37,0.37,0,0,1,.3-0.1h0.2a0.45,0.45,0,0,1,.4.5C126.8,129.6,126.8,130,126.7,130.4Z"/><path d="M67.7,132s-1.2,1.8-6,1.3c-1.8-.2-3.9-0.9-4.6-2.6a3.82,3.82,0,0,0,.9-0.9,1.34,1.34,0,0,0,.1-1.5,1,1,0,0,0-.9-0.2,1.09,1.09,0,0,0-.7,1,6.15,6.15,0,0,0,.1,1.4c-1.6.9-4.3,1.3-5.6,0.7a0.84,0.84,0,0,1-.6-0.8,1.22,1.22,0,0,1,.4-0.9,1.71,1.71,0,0,1,1.9,0,2,2,0,0,0-2.1-.3,1.56,1.56,0,0,0-.6,1.2,1.82,1.82,0,0,0,1,1.3c1.4,0.6,4,.1,5.7-0.9,0.5,1.3,1.7,2.5,4.8,2.8a3.23,3.23,0,0,0,1.6.3C66.8,133.9,67.7,132.1,67.7,132Zm-10.9-2.8a0.55,0.55,0,0,1,.4-0.5h0.2a0.37,0.37,0,0,1,.3.1,1,1,0,0,1-.1.9,1.87,1.87,0,0,1-.6.7A2.54,2.54,0,0,1,56.8,129.2Z"/><path d="M115.8,52.8c-4.4,4.2-11.5,7.1-17.4,5.1,4,0.6,8.6.6,11.5-2.3,1.3-1.3,1.6-3.9-.4-4.5-1.8-.6-2.3,1.5-1.9,2.8a0.29,0.29,0,0,0,.5-0.1l-0.2-1.2q1.65-1.5,2.4-.3c1.2,1.7-.9,3.7-2.1,4.4a10.35,10.35,0,0,1-4.9,1.1,26.38,26.38,0,0,1-6.3-.5c-0.1,0-.1-0.1-0.2-0.1s-0.6.1-.4,0.3c0.1,0,.2.1,0.3,0.1h0.1c5.3,2.6,11.7.8,16.4-2.2a42.76,42.76,0,0,0,7.5-6.6,2.25,2.25,0,0,1,2.6,0,2.08,2.08,0,0,1,.8,2c-0.2.8-1.5-.2-0.9-0.9,0.1-.1-0.4,0-0.4,0a0.9,0.9,0,0,0,1,1.4c1-.2,1-1.2.6-2-0.7-1.4-2-1.4-3.3-.8a64.17,64.17,0,0,1,5.4-5.1,9.52,9.52,0,0,1,4.5-2.2,6.71,6.71,0,0,1,2.8.6,3.2,3.2,0,0,1,1.6,2.3v1.4c-0.3,2.4-2.1,2.9-5.2,1.4,0-.2-0.5-0.1-0.5.1a2.4,2.4,0,0,0,3.1,1.9,4.41,4.41,0,0,0,3.2-4.2c0.3-3.5-4-4.4-6.4-3.5C124.1,43,119.7,49.1,115.8,52.8Z"/><path d="M86.8,57.7h0.1c0.1,0,.1-0.1.2-0.1s0.1-.1.2-0.1c0.3-.2,0-0.4-0.2-0.2-0.1,0-.1.1-0.2,0.1H86.8a27.46,27.46,0,0,1-5.7.5A12.78,12.78,0,0,1,76,57a6,6,0,0,1-2.4-2.1,2.7,2.7,0,0,1-.4-2.3c0.5-1.3,1.3-.9,2.3,1.3-0.1.3,0.4,0.3,0.5,0.1,1.3-4.1-5.1-3-2.8,1.2,2.1,3.9,8.3,3.5,12.3,2.8-5.2,1.9-11.3-.3-15.6-3.4C64.5,50.8,60.5,43.4,54,41.2a4.65,4.65,0,0,0-6.2,3.7c-0.4,3.5,5.5,6.2,6.2,2.1,0-.2-0.5-0.1-0.5.1-2.7,1.6-4.4,1.3-5-.9a3.76,3.76,0,0,1-.1-2.1c0.2-2.3,2.7-2.9,4.3-2.8s2.8,1,4,1.8a52.32,52.32,0,0,1,6.1,5.4,2.55,2.55,0,0,0-3.3.8c-0.5.7-.6,2.2,0.5,2.1,0.7-.1,1.6-0.8,1-1.6-0.1-.1-0.5.1-0.4,0.2,0.5,0.7-.6,1.6-0.9.7-0.3-.7.3-1.5,0.8-2,1-.9,2.7.1,3.5,0.9,1.8,1.8,3.6,3.6,5.5,5.2C74.1,58.5,81.3,60.4,86.8,57.7Z"/><path d="M115.5,19.5c0.7,0.2.4-.7,0.8-0.8a3,3,0,0,1,2.8.3c-0.5-1.1-.2-1.4-0.2-2.5-0.9,0-1.7-.1-2.1.4-0.1.4,0.4,0.3,0.3,0.7A2.25,2.25,0,0,0,115.5,19.5Z"/><path d="M67.2,18.8c0.4,0.2.1,1,.8,0.8a2.47,2.47,0,0,0-1.5-1.9c-0.1-.4.4-0.3,0.3-0.7a3.16,3.16,0,0,0-2.1-.4c-0.1,1.1.2,1.4-.2,2.5C65.2,18.5,66,18.5,67.2,18.8Z"/><path d="M118.8,7.8a13.78,13.78,0,0,0,.5-2.5A4.71,4.71,0,0,0,118,6.8C118.3,7.1,118.2,7.7,118.8,7.8Z"/><path d="M65.8,6.4c-1-1-2-2.1-3.3-1.9-0.8.1-1.6,0.2-1.7,1.3,0.9-.1,2.2.3,2.4,0.8A3.6,3.6,0,0,0,64,11c-0.4.2-1.1,0.1-.9,0.8,0.6,0.3,1.1-.4,1.8-0.4,0-.9-0.8-1.6-0.6-2.7C64.3,7.6,65.2,7.1,65.8,6.4Z"/><path d="M67.7,5a26.75,26.75,0,0,0,1.8,2.8,1.66,1.66,0,0,0,1.2.5c0.1,0,.2.1,0.3,0.1s0.2,0,.2-0.1L71.8,8l0.3-.3V7.6h0.1c0.1,0,0-.1,0-0.1a3.25,3.25,0,0,1-1.8-1c-0.4-.3-0.7-0.6-1.1-0.9a8.34,8.34,0,0,0-.8-1.2c-1-.9-2.4-1.9-3.8-1.4V3.1H64.5V3.2A4.07,4.07,0,0,1,67.7,5Z"/><path d="M105.8,6.2c-0.3-1.7-2.1-1.8-2.6-3.3C102.3,5.2,105,5.1,105.8,6.2Z"/><path d="M98.8,6.7c0.7,0,1.6-1.2.9-1.8A10.08,10.08,0,0,0,98.8,6.7Z"/><path d="M103.2,7.7c-0.5-.7-0.3-2.1-1.1-2.6C101.8,6.1,102.3,7.5,103.2,7.7Z"/><path d="M105.3,6.4c-1.2.3-1.3-.5-2.1-0.7a1.45,1.45,0,0,0,1.4,1.8A1.29,1.29,0,0,0,105.3,6.4Z"/><path d="M86.2,7.5c-0.3.5,0.7,1,1,1a1.4,1.4,0,0,0,.9-0.3,1.59,1.59,0,0,1,1-.5,0.1,0.1,0,0,0,.1-0.1c-0.1-.3-0.8,0-1,0.1a3,3,0,0,1-1,.2A2.11,2.11,0,0,1,86.2,7.5Z"/><path d="M103.5,18.3c-1.4.4-3.1,0.2-4.1,1.1a0.38,0.38,0,0,1,.2.2,0.37,0.37,0,0,0,.3.1,0.19,0.19,0,0,1,.1.3,1.34,1.34,0,0,0,1.6.4h0.2a0.32,0.32,0,0,0-.1-0.6h-1.2V19.7C101.2,18.8,103.4,19.6,103.5,18.3Z"/><path d="M84.5,9c0,0.6.5,0.6,1,.7C85.5,9.2,85,9.1,84.5,9Z"/><path d="M84.7,13c-0.5-.5-2-1.2-2.8-0.8a1.08,1.08,0,0,0-.4,1.5c0.3-.4.7-0.4,0.8-0.1a2,2,0,0,0-.4.8,1,1,0,0,1,.4-0.1c0.2,0,.3-0.1.4,0.1a0.44,0.44,0,0,0,.6.2c0.1-.7.5-0.4,0.9-0.5,0-.9-1.3-0.5-1.7-0.8C82.5,12.8,84.2,12.9,84.7,13Z"/><path d="M83,2.4c-0.8-.2-0.9-1.2-1.7-1.4A2.14,2.14,0,0,0,83,2.4Z"/><path d="M102,13a8.87,8.87,0,0,0,1.7-.8C103.2,11.4,102,12.2,102,13Z"/><path d="M104.3,12.9c-2.1-.5-3.1,2-0.5,1.4a0.93,0.93,0,0,0-.1-0.7A0.88,0.88,0,0,0,104.3,12.9Z"/><path d="M81.1,1.6C81.6,3.2,82.9,4,84,4.9,83.5,3.8,82,2.7,81.1,1.6Z"/><path d="M96.2,1.7c1,0,2.1-.9,3-0.9C98.5,0.3,96.4,1,96.2,1.7Z"/><path d="M83.5,1.2A9.91,9.91,0,0,0,81.8.1a6.42,6.42,0,0,0,1.6,2,3,3,0,0,0,2.4.6c0.1,0,.1-0.1,0-0.1a0.6,0.6,0,0,0-.4-0.1,1.24,1.24,0,0,1-.6-0.8A4.88,4.88,0,0,0,84.5,1,0.38,0.38,0,0,0,84.3.8a3.09,3.09,0,0,1,.8.2,10.44,10.44,0,0,1,2.4,1.1A8.39,8.39,0,0,0,83.6.2,1.42,1.42,0,0,0,83,0a2.34,2.34,0,0,1,.7.7c0.2,0.3.3,0.6,0.5,0.9V1.7C84,1.5,83.7,1.4,83.5,1.2Z"/><path d="M89.3,19.2a4.23,4.23,0,0,0,.5-0.7,0.1,0.1,0,0,0-.1-0.1,1,1,0,0,0-.5.4,1.21,1.21,0,0,0-.5.5c0,0.1,0,.2.1,0.2A0.85,0.85,0,0,0,89.3,19.2Z"/><path d="M104.7,12.3c0.6,0.8-.3.7-0.3,1.6C105.5,13.9,105.8,11.9,104.7,12.3Z"/><path d="M83.9,5.5c-0.5-.6-0.8-1.3-1.6-1.4A2.67,2.67,0,0,0,83.9,5.5Z"/><path d="M80.3,16.5c-0.4.1-.4,0.1-0.2,0.6a0.75,0.75,0,0,0,.5-0.1C80.6,16.6,80.5,16.4,80.3,16.5Z"/><path d="M92.2,45.8a1,1,0,0,0-.4-0.5C91.5,45.6,91.9,46.1,92.2,45.8Z"/><path d="M73.8,38.2c0.4,1,0,2.7.8,3.3,0.4-.8,0-1.7.3-2.7A3,3,0,0,0,73.8,38.2Z"/><path d="M87.4,41.1c-0.6-1.2-2.2-1.3-3.7-1.5C84.1,40.9,86.2,41.1,87.4,41.1Z"/><path d="M78.7,41.1c-0.4-.2-0.7-0.6-1.1-0.8C77.6,40.9,78.3,41.8,78.7,41.1Z"/><path d="M106.8,40.7c-0.2,0-.2-0.2-0.4-0.1-0.1.5-.8,0.4-0.8,1a0.85,0.85,0,0,0,.5.3A1.69,1.69,0,0,0,106.8,40.7Z"/><path d="M76.8,43.2a1.13,1.13,0,0,0,.3-1.1c-0.9.4-1.2-1-1.4-.4A1.63,1.63,0,0,0,76.8,43.2Z"/><path d="M81.8,43.9a12.45,12.45,0,0,1-1.6-2.2c-1.3-.5-3.2,1-2.2,1.9,0.2-1.3,1.4-1.2,2.5-1-0.1.5,0.4,0.8,0.1,1.1a6.37,6.37,0,0,0-1.4-.8,0.77,0.77,0,0,0-.4,1c1-.2.7,1.1,1.2,1.5,0.4-.1.1-0.9,0.4-1.1h0.4a1.35,1.35,0,0,1-.9,1.6c-0.3-.1-0.2-0.4-0.7-0.3a1,1,0,0,0-.4,1.4c0.5,0.1.6-.4,1.2-0.3-0.2.5-.9,0.6-1.7,0.5,0.4,1.5,2.3,0,2.6-.7,1.3,0.7,1,3.3,2.8,3.5-1.9-1.6-1.6-5.9-.3-8-0.5-.1-0.4.3-0.8,0.3,0.1-.2.2-0.2,0-0.4a0.77,0.77,0,0,0-.7.8c0.3,0.1.5-.6,0.7-0.1C82.1,42.9,82.1,43.6,81.8,43.9Z"/><path d="M103,43.6a10.84,10.84,0,0,0,.8-1.9c-0.7-.1-0.7.6-1.1,1a13.63,13.63,0,0,1-1.7-.4c0.4,1.3,1.3,2,1,3.8,0.2,0.3.7-.3,0.8,0.3a27.88,27.88,0,0,0-.9,3.4c1.1-.4.5-2.5,1.8-2.7a2.24,2.24,0,0,0,2.8,1.1c0.1-.6-0.6-0.3-0.5-0.8h0.5c0.1-1.2.7-1.3,0.8-2.2,0.1-1.6-1.7-3.9-3.3-2.9a1.1,1.1,0,0,0,0,.8c-0.8,0-.7.9-1.2,1.2a2.33,2.33,0,0,1-.7-1.4A9.69,9.69,0,0,1,103,43.6Z"/><path d="M69.7,43.4a2.47,2.47,0,0,0,.9.4,1.38,1.38,0,0,1,.1-1.1,2.5,2.5,0,0,0-1.3-.4C69.6,42.7,70,42.8,69.7,43.4Z"/><path d="M73.1,42.6c-0.3.7-1.5,0.5-1.8,1.1,0.3,0.7.9,0.1,1.6,0.1,0.2,0.4.3,1.1,0.8,1.2a1.79,1.79,0,0,1,.4-1.4c0.5,0.2.8-.4,1.1,0-0.2.8-.6,0.3-1.2,0.3a0.83,0.83,0,0,0,.7,1.1c0.5,0,.5-0.4.9-0.4,0.5,0.5.7,1.3,1.6,1.5-0.8-1.1-.6-3.2-1.8-3.8a13.35,13.35,0,0,1-1.8.7C73.3,42.8,73.4,42.5,73.1,42.6Z"/><path d="M84.6,46.2a16.45,16.45,0,0,1,2.2,1.4,6.1,6.1,0,0,0,1.6-1.2c0,1.3-.9,1.8-0.8,2.6H87.4a1,1,0,0,0,.1.3c-0.5,0-.3-0.5-0.6-0.7-0.6.1-1.4,0.1-1.6-.5a2.48,2.48,0,0,0,.9.1,3.25,3.25,0,0,0-2.6-1.5c-0.4,2.4,1.5,2.9,3.2,2.7-0.2.7-1.4,0.4-1.6,1.1a2.11,2.11,0,0,0,1.7-.3c0.7,1.2,2.6.8,3.5,0,0.3,0.5,1.9,1.3,2.2.5a17.9,17.9,0,0,0-2.4-1.2c-0.6.3-1.9,1.2-2.5,0.3,2.4-.2,2.7-2.6,3.3-4.7h0.2c0-.5.5-0.4,0.5-0.8a0.45,0.45,0,0,0-.5,0,4.06,4.06,0,0,1,.5-0.9c-0.5-.4-0.6.5-1.2,0.5a0.75,0.75,0,0,0-.1-0.5c-1.3.3-.9-1.1-2-1.1,1.1,1.5,2.3,5.6-.3,6.4a1,1,0,0,0-.3-0.4c2.6-.8,1-3.3-0.1-4.6,0.2,0,.7.1,0.5-0.3a2.18,2.18,0,0,0-.4-0.5c-0.7.1-1.5,0.1-1.7,0.7,0.3,0.6,1.6.2,1.4,1.2a11.79,11.79,0,0,0-2-.4,10.63,10.63,0,0,1-.3,1.4c-0.3-.2.1-1.1-0.3-1.2,0.2-.4,1.1-0.6.8-1.1-0.6-.9-1.2.6-1.7,0.3-0.1-.5.4-0.6,0.3-1.1-0.6-.2-0.9.9-1.2,1.4C84.5,44.2,84.4,45.4,84.6,46.2Z"/><path d="M95,42.6c-0.1.5,0.5,0.3,0.4,0.8-0.2,0-.1.5-0.4,0.4-0.5.1-.6-0.2-1.1-0.1-0.4.5,0.6,0.8,0.3,1.1,0-.2-0.3-0.1-0.5-0.1a2.06,2.06,0,0,1-.3,2.9V46.9a0.81,0.81,0,0,0-1,.8c-0.3,0-.2-0.5-0.7-0.4a2.92,2.92,0,0,0-.5,1.4c0.7,0.3.9,1.1,1.8,1.1,0.1-.7-0.5-0.6-0.4-1.2,0.8,0,.8.7,1,1.2-0.1.5-.4,0.6-0.5,1.1a1.69,1.69,0,0,0,1.7-.1c0.5,0.7,2.3.5,2.9,0a2.12,2.12,0,0,0,2.2.3c0-.8-1.1-0.6-1.3-1.2,1-.2,2-0.3,2.2-1.2a0.84,0.84,0,0,1-.4-0.7c1.1-.6.3-2.4,0.9-3.3a2.76,2.76,0,0,0-1.5-1.5c-0.4.3,0.3,0.9-.1,1.1-0.5-.2-0.8-0.7-1.3-0.4-0.1.8,0.8,0.6,0.9,1.4s-0.5,1.8-1.3,1.6a1.64,1.64,0,0,0,.8-2,3.38,3.38,0,0,1-2,.1,1.27,1.27,0,0,1,1.3-.7c0.2-.9-1.3-0.8-1.6-0.8-0.4.4,0.1,0.6,0.1,1-1.8.9-.3,3.5,1.4,3.5,0.8-.7,1.8-1.2,2.1-2.5,0.6,1.4-.5,2.2-1.4,2.5a1.7,1.7,0,0,0,0,1,2.25,2.25,0,0,1-1.2.1,1,1,0,0,1-.4.8,2.25,2.25,0,0,1-.1-1.2c-0.7-.2-0.5.6-1.1,0.5-2-1.5-1.1-4.9.1-6.5C95.8,43,95.4,42.2,95,42.6Z"/><path d="M70.1,41.1c0,1.1.8,1.3,1.4,1.8,0.8-.2,1.4-0.6,2.1-0.7-0.1-1.5-1.3-3-.9-4.2a1.28,1.28,0,1,0-2.2,1.2c0.5-.1.9-1.2,1.4-0.8-0.1.8-1.1,0.7-1.2,1.6a6.46,6.46,0,0,0,.9.8c0.1-.1,0-0.5.4-0.4C73.2,42.1,71,41.9,70.1,41.1Z"/><path d="M109.1,45a1.1,1.1,0,0,0,1,.4c0,0.5-.8.6-0.4,1.1,1.2-.1,1.3-1.3,1.7-2.2,0.4-.3.7,0.3,1.1,0.4a1.6,1.6,0,0,0,.5-1c-1.3-.5-2.3-0.6-3.4-1.1a1.74,1.74,0,0,1,.8-1.2c0.1-.9-0.4-1.6.5-1.6-0.1,1,.3,1.7,0,2.5a2,2,0,0,0,2.4.5,3.1,3.1,0,0,0-1.3-4.1c-0.6-.1-0.5.6-1.2,0.4,0.6-1.7,2.1-.2,3,0.1,0.4-.6-0.3-1.2-0.5-1.6-2.1-.4-2.8.6-4.1,1.1,0,0.6.6,1.4,0,1.8a4.18,4.18,0,0,0-.4-1c-0.4-.1-0.3.4-0.8,0.3a7.12,7.12,0,0,1-.5,2.2c0.8-.1.6-1.2,1.1-1.6,1,2.2-.7,4.2-1.3,6.1C108.3,46.5,108.2,45.3,109.1,45Z"/><path d="M90.8,8a1.19,1.19,0,0,0-1.1-.4V7.7a1,1,0,0,1,.5.4,0.1,0.1,0,0,0,.1.1,1.42,1.42,0,0,1,.2.6V8.9C90,8.4,89.2,8,88.8,8.7c1.4,0.3,2,2,2.2,3.2a5,5,0,0,1-.1,1.7c0,0.1.1,0.1,0.1,0a4.28,4.28,0,0,0,.6-1.7c0.1,0.3.1,0.8,0.2,1.2-0.1.2-.2,0.5-0.3,0.7a11.4,11.4,0,0,1-1,1.9,0.76,0.76,0,0,0-.1-0.4c-0.6-.3-1,1.1-1.4.7,0-.5.9-0.8,0.7-1.5-0.3-.2-0.6.3-0.7,0,0.6-.3,1.6-2.1.4-2.6-0.3.3,0.1,1.3-.5,1.2-0.3-.5-0.3-1.8-0.9-1.9a36.18,36.18,0,0,0-.4,5.4c0,1.5-.5,1.7-1.1,2.5A20,20,0,0,1,89.4,17c0.1,0,.3,0,0.2.2a5.84,5.84,0,0,0-1.3,1.4c0.5,0.3,1.8-1.5,2.1-1.2a0.9,0.9,0,0,1,.1.5,5.47,5.47,0,0,1-1.7,3c-0.4.4-1.6,0.9-2.1,1.4a17.93,17.93,0,0,0-1.9,3.2,33.11,33.11,0,0,1-1.5,3.3,2.34,2.34,0,0,0,2-.1c0.9-.7-0.7-1.5,0-2.3a18,18,0,0,0,2-1.9c0.3-.4.9-2.1,1.4-2.8,0.3-.5,1.5-1.5,2-2.2,0.2-.2.8-2.4,0.9-1.4a6.67,6.67,0,0,1-1.2,3.5,10,10,0,0,0-1.5,4.3,23.41,23.41,0,0,1-1.7,3.9c-0.5,1.8.2,2.1,0.4,4,0.1,0.4.9,0.1,0.9,0.7-1,0-1.1,2.1-2.4,2.3-1.8-.7-2.5-3.2-2.1-5.7a4.67,4.67,0,0,0-3,3.8,1.64,1.64,0,0,0,1,.1c1.2,2,3.8,2.6,6,3.4-2.9-.3-5-1.5-7.2-2.4,0.6,1.5,2.6,1.5,3.7,2.4-0.4,0-.8-0.4-0.9.1a14.18,14.18,0,0,0,4.9.7c1.7-.2,4,0.3,5.3-0.7a5.2,5.2,0,0,1-4.6-1.8c0.3-.2-0.1-1.2.5-1.1,0.2,0.2,0,.9.3,1.1,0.6,0.2.2-.6,0.7-0.5-0.2.7-.4,1,0.1,1.5,1.5-.5,3.5,0,4.7-1a4.12,4.12,0,0,0-2.2.1A0.86,0.86,0,0,1,93,36a2.25,2.25,0,0,0,1.7-1.4c-0.3-.3-1.1.3-1.4-0.1a1.07,1.07,0,0,0,.1-1.1H92.5a3.53,3.53,0,0,0-1.3-2.3,2.58,2.58,0,0,1,1-2.2l0.9-.6c2.1-1.4,3.3-1.9,4.1-3.9a2.12,2.12,0,0,0,.7.3c-0.2-2.3-3.7-2.3-2.7-6.5,0.8,1.3,2.4,2.9,3.2,3.1-3.1-3.6-2.4-4.6-1.5-5.5,0.3-.4-0.6-0.6,0-0.6,0.8-.1,1-0.6,2-0.4,0.6,1.1-.1,3.5,1.1,3.8a2.17,2.17,0,0,0,.6-1.6c-0.1-.2-1.1,0-0.7-1,0.8-1.9.1-3.6-1.4-4a8.65,8.65,0,0,0-3.1,1.7,8.3,8.3,0,0,0,1-3.8,1.33,1.33,0,0,1-.9.6,1,1,0,0,1-1.1-.5V9.9a1.48,1.48,0,0,0,.7.1,1.08,1.08,0,0,0,.8-0.7C97,6.7,98.5,6.8,99.3,5a2.82,2.82,0,0,1-2.2.3c0.2-.2.4-0.3,0.5-0.4a7.56,7.56,0,0,0,2.3-2.4c0.1-.1-0.1-0.2-0.1-0.1l-0.6.3c-0.2.1-.3,0.2-0.5,0.3s-0.3.2-.4,0.3a0.66,0.66,0,0,1-.6.1,10.08,10.08,0,0,1,2.1-2c-1.7-.3-2.1,1.6-3.1,2.4a2,2,0,0,1-1.9,1.1V4.8a18.47,18.47,0,0,1,1.4-1.4l0.3-.3c-0.4,0-.2-0.1-0.1-0.2L97,2.3a0.35,0.35,0,0,1,.1-0.2c-1.2.2-1.5,2-2.7,1.9,0.1-.8.9-0.8,0.9-1.6-2.1.8-2,4-3.2,5.4a1.42,1.42,0,0,0,.6-0.2c0,0.2-.1.3-0.1,0.5a0.9,0.9,0,0,1-.1.5,0.35,0.35,0,0,1-.1.2C90.9,7,90.8,3.1,88.2,2.9A8.9,8.9,0,0,1,90.8,8C90.7,8,90.7,7.9,90.8,8Z"/><path d="M182.4,74.6a42.25,42.25,0,0,0-9.3-18.4,88.62,88.62,0,0,1-11-15.2l-1-1.9-0.3-.6-0.6.2-2,.5c-0.2,0-.6.1-1.2,0.1-1.1,0-5.1-.3-9.7-4a18.72,18.72,0,0,1-6.4-8.9l-0.6-3.2-0.2-1-0.9.3-3,1.1a6.77,6.77,0,0,1-2.6.4c-3.4,0-7.8-1.4-11.9-3.1a4.21,4.21,0,0,0-.2-0.5,1.68,1.68,0,0,0,.9-1.9,1.7,1.7,0,0,0-.1-0.7c0-.1.1-0.1,0.2-0.1a1.38,1.38,0,0,0,.4.3,0.83,0.83,0,0,0,.7.3h0.2a2.74,2.74,0,0,0,2.4-2.4,3.38,3.38,0,0,0-1.2-2.7c0.4-.8.7-0.5,1.9-0.7,1.5-.3,2.6-3.4.9-4.5,1-1,2.2-4.1.6-5.5-1.8.2-3.2-.6-4.6-0.5a7.57,7.57,0,0,0-1.5.1,6.82,6.82,0,0,0-3.7,2c0.5-.2,1.1-0.3,1.6-0.5s1.4-.6,1.5-0.6a19.2,19.2,0,0,1,2.4,0,2.37,2.37,0,0,0-.3,1c0.5,0,.2-0.8.8-0.8-0.4,1.1-.8,2.3-1.9,2.3-0.9,0-1.1-1.3-2-1.1a2.73,2.73,0,0,0,.5,2.6c1.1-.2,1.7-0.6,2.9-0.2a2.26,2.26,0,0,0-.4.9c1.8-.9,3.2-1.8,3.9-3.1a1.46,1.46,0,0,1-.4,1.8c-0.5.6-.9,0.8-1.5,1.5s-1.6,1.5-1,2.4a5.73,5.73,0,0,0-2.4.9c-0.3-.1-0.1-0.8-0.6-0.7,0.1,1-1,1.5-.7,2.5,0.8,0,.9-0.4,1.6-0.4a3.19,3.19,0,0,1,1.6.6,9.25,9.25,0,0,0,.3,1c0.5,0.7,1,.4,1.2,1,0.2,0.8-.3,2.3-1.2,2.2a0.46,0.46,0,0,1-.5-0.7,4.48,4.48,0,0,1-1.2.1c-0.6-.6-0.9-1.4-2-1.5a6.85,6.85,0,0,1,.4,2.9c-0.2.8-1.8,0.2-1.9,1.1a3.25,3.25,0,0,1,1.3,1.3,3.18,3.18,0,0,1,.3.9,4.25,4.25,0,0,1,.2,1.1,1.17,1.17,0,0,1-.2.7,0.25,0.25,0,0,1-.4-0.1,2.36,2.36,0,0,0-.5-0.5,0.22,0.22,0,0,0-.3.3,0.76,0.76,0,0,1,.2.4c0.2,0.6-.6.5-1.1,0.5-0.5,1.1-1,3-2.3,2.7h-0.1a0.86,0.86,0,0,0,.7-0.6c0-.1-0.1-0.2-0.2-0.1a0.76,0.76,0,0,1-.4.2,0.53,0.53,0,0,1-.4,0L116,26c1.2-.7,0-2.7,1-3.5a1.37,1.37,0,0,0,1.6-.9c-0.6-.6-0.7-1.8-1.6-2.1-0.2,1.3-.1,2.8-1.1,3.3-1.3-.4-1.3-2.1-1.9-3.2,1-1.7-.5-3.2.4-4.7a1.3,1.3,0,0,0,1.3.4c0-.6-0.4-0.8-0.4-1.5,0.7-.4,1.8.4,2.4-0.2,0.2-.7-0.7-0.8-0.1-1.6-0.4-.4-0.9.5-1.3,0-0.2-1.1,1.1-1.6.2-2.2-0.4.1-.2,0.7-0.4,1-1.2-.1-1.5,3.2-2.6,3.3a1.31,1.31,0,0,1-1.3-1.7c0.5,0.4,1,.1,1.4.6,0.1-2.7,1.6-3.8,3.2-4.9a3.22,3.22,0,0,0-3.4,1.3,1,1,0,0,0-1.5.4c-0.3.7-.1,2.2-1.3,2.2a8.2,8.2,0,0,0,.2-2.2,3.78,3.78,0,0,0-.6-1.7,1.92,1.92,0,0,1,1.5,1.1,3.52,3.52,0,0,1,2.3-3,6.08,6.08,0,0,0,2.4-1.5,7,7,0,0,0-3.3,1.2A14.78,14.78,0,0,1,111,7.2c-1.7.4-1.9-1.8-2.7-3.2A7.3,7.3,0,0,0,103.2.5a16.67,16.67,0,0,1,3.1,2,6.62,6.62,0,0,1,1.5,2.2c0.3,0.6.2,0.8-.2,1A1.87,1.87,0,0,1,106.1,9a1.52,1.52,0,0,0,2.4.7,2.45,2.45,0,0,1,.6,2.6,1.4,1.4,0,0,1-1.4-1.3,4.14,4.14,0,0,0-.2,1.6,1.61,1.61,0,0,0,1.6,1.7c0.9-.1,1.3-1.7,1.3-1.6,0,0.8,0,2.4-.9,3a1.49,1.49,0,0,1-1.8-.1,2,2,0,0,0,.1,1.3c0.4,0.8.9,0.7,0.9,1.6a2.14,2.14,0,0,1,.1.6,6.73,6.73,0,0,1-.6,1.9,28.05,28.05,0,0,1-2.6,2.1c0.9,1.6,4.6,4.7,5.4,5.9a3.74,3.74,0,0,1,1.1,2.5c-0.4.9-1.6,1-2.6,0.8a14.44,14.44,0,0,1-3.4-2.8,4.23,4.23,0,0,1-.5-0.7,16.36,16.36,0,0,1-1.8-3.8c-0.6-1.8-.2-2.5.7-3.2s2.9-1.9,2.9-3a0.94,0.94,0,0,0-.3-0.8,3.51,3.51,0,0,1-.5.8c-1.1,1.4-3.5,3.8-4.8,3.9-1.1.1-2.8-1.2-2.8-1.1s0.3,0.4.4,0.9a6.6,6.6,0,0,1,.1,1.4A16.59,16.59,0,0,1,98,29.4a16.11,16.11,0,0,1-.8,2.3c-0.5,1-1.6,1.7-1.6,2.7,2.2,0,3.3-2.3,3.4-4.8l0.1-.1a9.85,9.85,0,0,0,.2-1.7c1-.3,1.5-1.3,1.2-2.7,0.3-.4.7-1.1,1.2-0.8,0.8,0.4,1,1.5,1.5,2.9a13.43,13.43,0,0,0,1.2,2.4,5.73,5.73,0,0,1,.4,1.4,9.31,9.31,0,0,1-3.3,2.6c-0.3-1.4,1.4-2.9,1.1-4.2a4.32,4.32,0,0,0-.6-0.9,4.35,4.35,0,0,0-.6.7,0.37,0.37,0,0,0-.1.3c-0.4.6-.8,1.1-1.2,1.7s-0.5,1.4-.9,2c-0.9,1.6-2.9,1.2-4.2,2.5,0.6,0.4,1-.4,1.6-0.4,1.8,0.8,2.5-1.3,4.7-1,0,0.4-.8.1-0.7,0.7,2.2,2.1,5.2-1.3,6.8-1.9-1.2,3.5-6.3,2.9-9.1,4.6,1.8,0.3,3-.7,4.3-0.4-0.5.8-1.9,0.8-2.9,1.1-0.1,1.1-1.5.8-1.8,1.6,2.7-.1,4.8-1.5,6.8-1.8-0.2.5-.8,0.4-1.1,0.8,2.5-.4,4.9-2,7.2-3,0,0.5-.5.5-0.4,1.1a0.92,0.92,0,0,0,.9-1c0.1-.6-0.6-0.3-0.5-0.8a1.05,1.05,0,0,1,.9-0.5c0.1,0.3-.2,1.1.3,1,1.2-1,.4-2.2,0-3.5,0-.7,1.6-1.8,1.8-0.5-0.4.2-.9,0.1-0.9,0.7-0.2.6,0.8-.2,0.9,0.3s-0.2.7-.1,1.1a10.34,10.34,0,0,1,1.2-.3c-0.2-.7-0.3-0.8.3-1.1-0.2-.6-0.5-1.1-0.7-1.7,0.3,0,.6.1,0.9,0.1s0.6,0.1.9,0.1a1.65,1.65,0,0,0-1,1c0.7,0.4.7-.5,1.4-0.4,0.4,0.3.4,1,.8,1.4-0.8.6,0,1.2-.5,2-0.8.5-1.3-.4-1.8-0.5-0.3.5,0.1,0.9-.1,1.4-0.8-.6-1.1,1-1.7.5,0-.9.9-0.8,1.2-1.5a1.39,1.39,0,0,0-.8-0.7c-0.4.8-1.5,1-1.1,2.3a1.87,1.87,0,0,1,1.2,1.1c0.7-.5,1.7-0.7,1.8-1.8a1.38,1.38,0,0,1,.3.4,2.05,2.05,0,0,1-1.8,2,15.64,15.64,0,0,0,.5,2.7c0.9-.4.5-1.9,0.8-2.6a2.91,2.91,0,0,1,1.1-1.1c1.3-1.3,2.2-4.1,2.6-5.7a3.46,3.46,0,0,0,.3-1.2c0-.6-1-2.4-0.9-3a5.94,5.94,0,0,1,1.2-2.2,2.33,2.33,0,0,0,1.4-.1c4.1,1.6,8.4,2.8,12,2.8a12.3,12.3,0,0,0,3.5-.5,21.64,21.64,0,0,0,7.7,10.9c5.5,4.4,10.3,4.9,12.1,4.9a11.07,11.07,0,0,0,1.9-.2,93.51,93.51,0,0,0,11.4,15.8c8.8,9.8,11.7,24.8,7.9,40.1-1.2,4.7-4.2,7.8-7.3,11.1-2.6,2.7-5.3,5.5-6.9,9.3-1.7,4-3.5,8.5-3.3,11.5-1.8,0-11,.2-16,4.1-4.7,3.6-8.5,9.7-8.9,12.2-0.9-.1-3.6-0.2-6.3-0.2a37,37,0,0,0-5.3.3c-3.6.6-6.8,2.2-10.2,3.9-5.3,2.6-11.3,5.6-20.5,5.6H90.1c-9.1,0-15.1-3-20.5-5.6-3.4-1.7-6.6-3.3-10.2-3.9a41.74,41.74,0,0,0-5.6-.3c-2.6,0-5.1.1-5.9,0.2-0.4-2.5-4.2-8.5-8.9-12.2s-13.4-4.1-16-4.1H22.9c0.1-3-1.5-7.3-3.3-11.5-1.6-3.8-4.3-6.6-6.9-9.3-3.2-3.3-6.1-6.4-7.3-11.1-3.8-15.4-.9-30.4,7.9-40.1A87.55,87.55,0,0,0,24.7,42.9a11.08,11.08,0,0,0,1.9.2c1.8,0,6.7-.5,12.1-4.9a22.48,22.48,0,0,0,7.7-10.9,12.3,12.3,0,0,0,3.5.5c3.6,0,8-1.3,12.1-2.9a2.62,2.62,0,0,0,1.5.1,5.94,5.94,0,0,1,1.2,2.2c0.2,0.6-.9,2.4-0.9,3a4.91,4.91,0,0,0,.3,1.2c0.4,1.6,1.3,4.4,2.6,5.7a5.7,5.7,0,0,1,1.1,1.1c0.3,0.7-.1,2.2.8,2.6a1.27,1.27,0,0,0,.1-0.6c0.2-.8.1-1,0.3-2.1a2.28,2.28,0,0,1-1.7-1.5V36a0.53,0.53,0,0,0,.2-0.3c0.2,1.1,1.1,1.3,1.8,1.8a1.67,1.67,0,0,1,1.2-1.1c0.5-1.3-.6-1.5-1.1-2.3a1.12,1.12,0,0,0-.8.7c0.2,0.7,1.2.6,1.2,1.5-0.6.4-.9-1.2-1.7-0.5-0.2-.5.2-0.9-0.1-1.4-0.5.2-1,1.1-1.8,0.5-0.5-.9.2-1.4-0.5-2V32.8a8.27,8.27,0,0,1,.7-1.3c0.8-.1.8,0.8,1.4,0.4,0-.6-0.6-0.7-1-1,0.3,0,.7-0.1.9-0.1s0.6-.1.9-0.1a12.21,12.21,0,0,1-.7,1.7c0.6,0.3.5,0.4,0.3,1.1a10.34,10.34,0,0,1,1.2.3,3.75,3.75,0,0,1-.1-1.1c0.1-.5,1.1.3,0.9-0.3,0-.6-0.6-0.5-0.9-0.7,0.2-1.3,1.8-.1,1.8.5-0.4,1.3-1.2,2.6,0,3.5,0.5,0.1.2-.6,0.3-1a1.93,1.93,0,0,1,.9.5c0.1,0.6-.6.3-0.5,0.8a1.06,1.06,0,0,0,.9,1c0.1-.6-0.4-0.6-0.4-1.1,0.3,0.1.6,0.3,0.9,0.4l0.1-2.4h0.1c1.2,1.7,2.6,3.9,4.7,4.2-0.2-.4-1.1-0.8-0.9-1.1,1.8,1,4,2.3,6,2.6-0.8-1.2-2.6-1.5-3.7-2.4a7.71,7.71,0,0,1-1.4-1.9,1.17,1.17,0,0,0,.9-0.1,2.2,2.2,0,0,1,.5-1.6c-1.7-.3,0-2.6-1.4-3.1a6.37,6.37,0,0,1-.8,1.4,14.31,14.31,0,0,0-1.1-1.5,6.87,6.87,0,0,1-1.8-4.9c-1.5-1.4-.7-5.1,1-5.2,1.4-.1,2.2,2.2,3.4,3.2,0.6,0.5,1.3.1,1,.9-0.4,1-.7-0.2-1.4.2,0,0.8.5,0.4,0.4,1.2a3,3,0,0,0-1.1,2.9A4.78,4.78,0,0,1,79,26.4a29.13,29.13,0,0,1,4.8-4.5,6.83,6.83,0,0,0,1.7-1.5,8.71,8.71,0,0,1-2.4.7,2,2,0,0,0-1.1.2,3.19,3.19,0,0,1-.6.7,1.47,1.47,0,0,1-1.1.2c-0.7-.1-0.6-0.7-0.4-0.8a2.55,2.55,0,0,0,1.2-.9,0.48,0.48,0,0,0,0-.4A0.1,0.1,0,0,1,81,20c-0.4-.2-1.2.2-1.1-0.5a6.1,6.1,0,0,0,1.3-.3,3.18,3.18,0,0,0,.9-0.3c0.3-.2.4-0.4,0.1-0.6-1.2.2-3.3,0.7-3.1-.9,0.4,0,.1.8,0.7,0.7,0.5-2-1.2-1.6-.7-2.6,0.8-1.5.9-1.9,0.3-3.4s-1.1-1.4-2.5-.6a2.91,2.91,0,0,1,3.5-.6c0-1.1-1-1.3-1.6-1.9,1.2,0.1,1.9,1.1,2.5,1-0.6-.6-0.7-1.2-0.2-1a5.52,5.52,0,0,0,3,.7c-1.6-.7-3.4-1.5-4.3-2.9,0-.2.2-0.1,0.4-0.1,0-.7-1-1.2-0.8-1.7,0.5,0.3,1,1.1,1.7.7-0.8-1-3.3-2.3-2.3-3.9a1.33,1.33,0,0,0,.9,1.4,3.37,3.37,0,0,0-.8-1.7c0.3-.9,1.7-1,2.2-1.4a6.19,6.19,0,0,0-5.6,3.2,3.43,3.43,0,0,1,2-1.2A4.77,4.77,0,0,0,75.2,5a2,2,0,0,1,0-1.2c-0.9,1.2-1,2.3-1.5,3A4.9,4.9,0,0,1,72,8.6a2,2,0,0,1,1.3-.1A3.08,3.08,0,0,0,72.2,10a3,3,0,0,0,.5,2.5c-1.1-.1-1.6-1-1.4-2.4-0.6.7-1.4-.2-2.3-1.1l-0.4-.4c-0.8-.7-1.7-1.2-2.7-0.6a1.34,1.34,0,0,0-.5,1.8,1.45,1.45,0,0,1,2.7.5c0,1.8-1.4,2.4-2.8,1.7a2.22,2.22,0,0,1-.8,2.1c1.4,0.6,2.1-.6,3.1,0a1.67,1.67,0,0,1,.9,1.1,0.2,0.2,0,0,1,.2.1,6.82,6.82,0,0,0,.2,2.1c-0.5.1-.5-0.5-0.9-0.2,0.1,0.8,1.2,1.8,1.8,2.7-0.7,1.7-1,2.8-1.9,3.1-0.9-.5-0.9-2-1.1-3.3-0.9.3-1,1.4-1.6,2.1,0.2,0.9.9,0.9,1.6,0.9,1,0.8-.3,2.8,1,3.5l-0.1.1a0.53,0.53,0,0,1-.4,0,1.42,1.42,0,0,1-.4-0.2c-0.1-.1-0.2,0-0.2.1a1.06,1.06,0,0,0,.7.6H67.3c-1.2.3-1.7-1.6-2.3-2.7-0.5-.1-1.3,0-1.1-0.5a0.76,0.76,0,0,1,.2-0.4,0.22,0.22,0,0,0-.3-0.3,1.2,1.2,0,0,0-.5.5,0.33,0.33,0,0,1-.4.1,1,1,0,0,1-.2-0.7,4.25,4.25,0,0,1,.2-1.1l0.3-.9c0.3-.6-0.5-1,0-1.3a0.37,0.37,0,0,0-.1-0.3l0.1-.1a0.51,0.51,0,0,0-.4-0.4H62.1a0.9,0.9,0,0,1-.5-0.1,0.76,0.76,0,0,1-.2-0.4,5.14,5.14,0,0,1,.1-1.7,2.26,2.26,0,0,1,1.3-1.4,0.21,0.21,0,0,0,0-.4,0.25,0.25,0,0,0-.1-0.4c-0.4-.2-0.9.4-1.2,0.6-1.5.6-2.1,2.1-4.1,2.1,0.2-.8-0.5-0.8-0.5-1.4a2,2,0,0,0,.9-1.5c0.5-.5,1.7-0.2,2.1-0.7a1.89,1.89,0,0,0-1.8-.3,15.06,15.06,0,0,1-1-1.7c0.2-.5,1.1-0.2,1.3-0.7C58.1,10,57.1,9,57.1,8.3c0.9-.3,1.2.7,2,1,0.5-.4-0.7-0.6-0.3-1,1.3,0.1,1.4.6,2.4,1.1,0.4,0.2,1.1.7,1.3,0.3-0.6-.6-0.9-2-1.7-2.4-2,.7-4-0.6-5-2.1a2.26,2.26,0,0,1-2.1-.7C53.8,4,53.5,3.1,54,3c1,0.4,1.3,1.6,2.5,1.8,0.2-.6-0.8-1-0.8-1.8,0.5,0,.3.6,0.8,0.7,0-.2-0.1-0.7.3-0.5,0.2,0.2.3,0.5,0.5,0.7-0.4.1-.7,0.3-0.5,1a6.87,6.87,0,0,0,1.7-.5c0-.6-0.5-0.7-0.4-1.4,0.4,0.2.3,0.9,0.8,1,0.5-.2-0.5-0.7,0-1,0.7-.2.4,0.6,0.8,0.7a1.61,1.61,0,0,1,.9-0.3,0.37,0.37,0,0,0,.3-0.1h0.6a8.81,8.81,0,0,0,1.7-.2V3l-1.6-.3H60.9l-0.1-.1a4.28,4.28,0,0,0-1.3-.5c-1.4-.8-2.9.4-5.4,0.2-2.3,1.2-.6,4.4.5,5.6-0.5.6-1.1,0.6-1.2,1.4-0.4,2.5,2.8,2.7,4,3.9a5.26,5.26,0,0,0-1.1,1.4,2.34,2.34,0,0,0,.4,2.3,1.33,1.33,0,0,0,1.4.9,3.4,3.4,0,0,0,1,.1s2.1-1.3,1.6.5l-0.6.2a1.88,1.88,0,0,0,.9,1.9,4.75,4.75,0,0,1,.09.8C57.19,22.8,53.2,24,50,24a6.77,6.77,0,0,1-2.6-.4l-2.9-1.1-0.9-.3-0.2,1-0.6,3.2s-1.1,4.7-6.4,8.9c-4.6,3.7-8.6,4-9.7,4-0.6,0-1-.1-1.2-0.1l-2-.5-0.6-.2-0.3.6-1,1.9a86.69,86.69,0,0,1-11,15.2A42.25,42.25,0,0,0,1.3,74.6a54.25,54.25,0,0,0,.5,25.6c1.4,5.8,4.9,9.5,8.3,13,2.5,2.6,4.8,5,6.1,8.1,0.8,1.9,3.2,7.5,3,9.8l-0.4,4.2h1l3.1-.1h0.3c4.7,0,10.7,1,13.6,3.2,4.1,3.2,7,8.2,7.3,9.4v3.9l0.9-.1,3-.2c0.3,0,3.4-.2,6.6-0.2a32.53,32.53,0,0,1,4.4.3c2.6,0.4,5,1.6,7.8,3l1.2,0.6a5.36,5.36,0,0,0,1.1.5c5.3,2.7,11.4,5.8,20.4,5.8h4.8c9,0,15.1-3.1,20.4-5.8a5.36,5.36,0,0,1,1.1-.5c0.7-.3,1.3-0.7,2-1a21.38,21.38,0,0,1,7-2.8,26.3,26.3,0,0,1,4.4-.2,64.55,64.55,0,0,1,6.6.3l3,0.3,0.9,0.1v-3.9c0.3-1.2,3.2-6.2,7.3-9.4,3.1-2.4,9.3-3.2,13.6-3.2h0.3l3.1,0.1h1l-0.1-1-0.3-3.2c-0.2-2.3,2.2-7.9,3-9.8,1.4-3.1,3.7-5.6,6.1-8.1,3.4-3.5,6.9-7.2,8.3-13A54.6,54.6,0,0,0,182.4,74.6ZM181.1,100c-1.4,5.6-4.8,9.1-8.1,12.6-2.5,2.6-4.9,5.1-6.3,8.4-0.9,2.1-3.3,7.7-3.1,10.2l0.3,3.2-3.1-.1h-0.3c-4.5,0-10.9.9-14.1,3.4-4.2,3.3-7.4,8.6-7.7,10.1v3l-3-.3s-3.3-.3-6.7-0.3h-0.7a18.74,18.74,0,0,0-3.8.3c-3.1.5-5.9,2.3-9.2,3.9-5.5,2.7-11.7,6.2-21.1,6.2H89.4c-9.5,0-15.7-3.5-21.1-6.2-3.3-1.7-6.2-3.3-9.2-3.8a26.42,26.42,0,0,0-4.5-.3c-3.3,0-6.6.2-6.7,0.2l-3,.2v-3c-0.3-1.4-3.5-6.8-7.7-10.1-2.5-2-7-3-11-3.3-1.1-.1-2.2-0.1-3.2-0.1H22.6l-3.1.1,0.3-3.2c0.2-2.6-2.2-8.1-3.1-10.2-1.4-3.3-3.8-5.8-6.3-8.4-3.3-3.5-6.7-7-8.1-12.6a54.25,54.25,0,0,1-.3-25,40.47,40.47,0,0,1,9.1-18A83.34,83.34,0,0,0,22.2,41.5l1-1.9,2,0.5a4.92,4.92,0,0,0,1.4.1c1.2,0,5.4-.3,10.2-4.2a19.11,19.11,0,0,0,6.7-9.5l0.6-3.2L47,24.4a8.12,8.12,0,0,0,2.9.4c3.2,0,7.2-1.2,11.1-2.7,0,0.7.1,1.4,0.1,1.9a0.85,0.85,0,0,0,.2.6c-4,1.5-8.1,2.7-11.5,2.7a9.69,9.69,0,0,1-3.6-.6l-0.4-.1-0.1.4c0,0.1-1.2,5.8-7.6,10.9-5.3,4.3-10,4.7-11.7,4.7a12.31,12.31,0,0,1-2-.2l-0.2-.1-0.1.2A87.26,87.26,0,0,1,12.6,58.4C3.7,68.3.7,83.6,4.6,99.2c1.2,4.9,4.4,8.2,7.5,11.4,2.6,2.7,5.2,5.4,6.8,9.1,1.8,4.1,3.5,8.7,3.3,11.5v0.4H23c1.8,0,10.8.2,15.6,3.9,5,3.9,8.6,10.2,8.6,12v0.4h0.3s3-.2,6.2-0.2a39.12,39.12,0,0,1,5.5.3c3.5,0.5,6.7,2.1,10,3.8,5.4,2.7,11.5,5.7,20.7,5.7h3.3c9.3,0,15.4-3,20.7-5.7,3.4-1.7,6.5-3.3,10-3.8a35.42,35.42,0,0,1,5.2-.3c3.3,0,6.5.2,6.6,0.2h0.4v-0.4c0-1.8,3.7-8.1,8.6-12,4.8-3.7,13.8-3.9,15.6-3.9h0.8v-0.4c-0.3-2.8,1.5-7.4,3.3-11.5,1.6-3.7,4.2-6.5,6.8-9.1,3.1-3.2,6.3-6.5,7.5-11.4,3.9-15.6.9-30.8-8-40.8a93.59,93.59,0,0,1-11.5-15.9l-0.1-.2-0.2.1a12.31,12.31,0,0,1-2,.2c-1.8,0-6.4-.5-11.7-4.7A22.57,22.57,0,0,1,137.6,27l-0.1-.4-0.4.1a10.06,10.06,0,0,1-3.6.6,33.37,33.37,0,0,1-11.3-2.6,0.91,0.91,0,0,0,.3-0.7,8.8,8.8,0,0,0-.4-2c4,1.6,8.2,2.8,11.5,2.8a8.48,8.48,0,0,0,2.9-.4l2.9-1.1,0.6,3.2c0,0.2,1.1,5,6.7,9.4,4.8,3.9,9.1,4.2,10.2,4.2,0.7,0,1.2-.1,1.4-0.1l2-.5,1,1.9a89.54,89.54,0,0,0,11.1,15.4,41.52,41.52,0,0,1,9.1,18A52.53,52.53,0,0,1,181.1,100Z"/><g id="schastye"><path d="M44.2,84.2a6.38,6.38,0,0,0,1.4.8,1.88,1.88,0,0,0,.8.2h0.4a3.87,3.87,0,0,0,.9-0.1,0.48,0.48,0,0,0,.4-0.1c0.3-.1,3.9-0.9,4-0.9V99.4h5V65.2h-5V80.1a0.1,0.1,0,0,1-.1.1,0.2,0.2,0,0,1-.2.1H47.6a0.2,0.2,0,0,1-.2-0.1c-0.1,0-.1-0.1-0.1-0.2V65.2h-5V80a4.53,4.53,0,0,0,.3,1.6A4.16,4.16,0,0,0,44.2,84.2Z"/><path d="M48.2,85.7H47.8a3.87,3.87,0,0,1-.9.1H46.4a2.92,2.92,0,0,1-.9-0.2,6,6,0,0,1-1.5-.9l-0.6-.6c0.3,0.4.7,0.7,1,1.1a6,6,0,0,0,1.5.9,2.92,2.92,0,0,0,.9.2h0.5a4.59,4.59,0,0,0,1-.1h0.4c0.1,0,1.7-.4,2.9-0.7l-0.1-.6C50.4,85.2,48.3,85.6,48.2,85.7Z"/><path d="M47.8 65.2H48.4V79.7H47.8z"/><path d="M57.6 100.1L52 100 52 100.5 58.2 100.6 58.2 65.2 57.6 65.2 57.6 100.1z"/><path d="M69.6 100L63.9 100.1 63.8 100.5 70.2 100.5 70.8 95.7 75.3 95.7 75.3 95.3 70.2 95.3 69.6 100z"/><path d="M76.1,65.2H69.4L64,99.4h5.1l0.6-4.8h6l0.7,4.8h5.1ZM70.4,89.9l2.3-17.2,2.4,17.2H70.4Z"/><path d="M71 89.3L71.7 89.3 73 79.2 72.7 76.8 71 89.3z"/><path d="M76.7 65.2L82.2 100 76.5 100 76.6 100.5 82.8 100.5 77.2 65.2 76.7 65.2z"/><path d="M96.5,99.4a5.23,5.23,0,0,0,5.1-5.3V85.6h-5v8.5a0.43,0.43,0,0,1-.4.4h-4a0.43,0.43,0,0,1-.4-0.4V70.5a0.43,0.43,0,0,1,.4-0.4h4a0.43,0.43,0,0,1,.4.4V79h5V70.5a5.23,5.23,0,0,0-5.1-5.3H91.8a5.23,5.23,0,0,0-5.1,5.3V94.1a5.23,5.23,0,0,0,5.1,5.3h4.7Z"/><path d="M92.9 94L92.9 71.1 96 71.1 96 70.7 92.3 70.7 92.3 94 92.9 94z"/><path d="M98.9,65.2a5.87,5.87,0,0,1,3.2,5.3v9.1H96.5V80h6.2V70.8A5.66,5.66,0,0,0,98.9,65.2Z"/><path d="M102.1,94.1a4.87,4.87,0,0,1-.1,1.2,5.23,5.23,0,0,1-2.2,3.5,5.46,5.46,0,0,1-3.3,1.1H91.8a5.6,5.6,0,0,1-3.5-1.3,5.28,5.28,0,0,0,4,1.7H97v0.2a5.83,5.83,0,0,0,5.7-6V85.6h-0.6v8.5Z"/><path d="M30.8,99.5a5.23,5.23,0,0,0,5.1-5.3V85.7h-5v8.5a0.43,0.43,0,0,1-.4.4h-4a0.43,0.43,0,0,1-.4-0.4V70.5a0.43,0.43,0,0,1,.4-0.4h4a0.43,0.43,0,0,1,.4.4V79h5V70.5a5.23,5.23,0,0,0-5.1-5.3H26.1A5.23,5.23,0,0,0,21,70.5V94.2a5.23,5.23,0,0,0,5.1,5.3h4.7Z"/><path d="M27.2 94L27.2 71.1 30.3 71.1 30.3 70.7 26.6 70.7 26.6 94 27.2 94z"/><path d="M33.1,65.2a5.87,5.87,0,0,1,3.2,5.3v9.1H30.7V80h6.2V70.8H37A5.87,5.87,0,0,0,33.1,65.2Z"/><path d="M36.4,94.1a4.87,4.87,0,0,1-.1,1.2,5.23,5.23,0,0,1-2.2,3.5,5.46,5.46,0,0,1-3.3,1.1H26.1a5.6,5.6,0,0,1-3.5-1.3,5.28,5.28,0,0,0,4,1.7h4.7a5.83,5.83,0,0,0,5.7-6V85.6H36.4v8.5Z"/><path d="M111.7 99.4L116.7 99.4 116.7 70.1 121.3 70.1 121.3 65.2 107.1 65.2 107.1 70.1 111.7 70.1 111.7 99.4z"/><path d="M121.9 70.6L117.3 70.6 117.3 100 111.7 100 111.7 100.4 117.9 100.4 117.9 71 122.5 71 122.5 65.2 121.9 65.2 121.9 70.6z"/><path d="M137.1,99.4h0.6a5.2,5.2,0,0,0,4.5-5.2V84.7a5.93,5.93,0,0,0-.5-2.3,5.5,5.5,0,0,0-1.5-1.9,4.12,4.12,0,0,0-2.1-1,3.19,3.19,0,0,0-1,0H137c-0.2,0-.4.1-0.6,0.1-0.4.1-.8,0.2-1.3,0.3l-2.8.7-0.1-15.4h-5V99.4h9.9Zm-4.9-14.7V84.5a0.1,0.1,0,0,1,.1-0.1c0.1,0,.1-0.1.2-0.1h4.1a0.2,0.2,0,0,1,.2.1,0.1,0.1,0,0,1,.1.1v9.6a0.43,0.43,0,0,1-.4.4H132Z"/><path d="M132.7 94L133.4 94 133.4 85.3 136.4 85.3 136.4 84.9 132.7 84.9 132.7 94z"/><path d="M133.4,65.2h-0.6V79.7a1.42,1.42,0,0,0,.6-0.2V65.2Z"/><path d="M140.9,80.4c-0.12-.1-0.25-0.2-0.38-0.29a5.22,5.22,0,0,1,1.48,2,5.83,5.83,0,0,1,.6,2.6V94.8a5.33,5.33,0,0,1-1.7,3.6,5.85,5.85,0,0,1-3.3,1.7H127.1v0.4h11.1a5.85,5.85,0,0,0,5-5.9V85.2a6.6,6.6,0,0,0-.6-2.7A5.65,5.65,0,0,0,140.9,80.4Z"/><path d="M138.6,79.3a4.25,4.25,0,0,1,1.92.81L140.4,80A2.88,2.88,0,0,0,138.6,79.3Z"/><path d="M161.4 94.5L153.3 94.5 153.3 84.7 159.9 84.7 159.9 79.8 153.3 79.8 153.3 70.1 161.4 70.1 161.4 65.2 148.3 65.2 148.3 99.4 161.4 99.4 161.4 94.5z"/><path d="M161.9 65.2L161.9 70.6 153.9 70.6 153.9 79.2 154.6 79.2 154.6 71 162.6 71 162.6 65.2 161.9 65.2z"/><path d="M153.9 93.9L154.6 93.9 154.6 85.6 161.1 85.6 161.1 79.8 160.4 79.8 160.5 85.3 153.9 85.3 153.9 93.9z"/><path d="M162 100L148.3 100 148.3 100.3 162.6 100.3 162.6 94.5 162 94.5 162 100z"/></g></svg>