<svg viewBox="0 0 20 20" xmlns="http://www.w3.org/2000/svg"><path d="M17.4 4.3c0 .5-.4.9-.9.9h-1.2c-.5 0-.9-.4-.9-.9V3.1c0-.5.4-.9.9-.9h1.2c.5 0 .9.4.9.9v1.2zm0 12.8H2.6V7.5h2.7c-.3.6-.5 1.4-.5 2.1 0 2.9 2.3 5.2 5.2 5.2 2.9 0 5.2-2.3 5.2-5.2 0-.8-.2-1.5-.5-2.1h2.7v9.6zM7.6 7.5C8.2 6.8 9 6.4 10 6.4s1.8.4 2.4 1.1c.5.6.8 1.3.8 2.1 0 1.8-1.4 3.2-3.2 3.2-1.8 0-3.2-1.4-3.2-3.2 0-.8.3-1.6.8-2.1zM18.3.2H1.7C1.1.2.6.7.6 1.3V18c0 .6.5 1.1 1.1 1.1h16.6c.6 0 1.1-.5 1.1-1.1V1.4c0-.7-.5-1.2-1.1-1.2z" fill="#3C3C3B" fill-rule="evenodd"/></svg>