<svg id="Слой_1" xmlns="http://www.w3.org/2000/svg" xmlns:xlink="http://www.w3.org/1999/xlink" viewBox="0 0 22 27"><style>.st0{clip-path:url(#SVGID_2_);fill:#3c3c3b}</style><defs><path id="SVGID_1_" d="M7.1,22.6C3,20.9,0.1,16,1.6,10.9c1.6-5.3,7.1-8.2,12.4-6.5c5.2,1.7,8,7.4,6.1,12.6 c-1.9,5.2-7.4,7.4-11.9,6c0,0,0-0.1,0.1-0.1c0.4-0.7,0.7-1.3,0.9-2.1c0.2-0.8,0.4-1.6,0.6-2.5c0,0,0-0.1,0-0.1c0,0,0,0,0,0 c0.3,0.5,0.8,0.8,1.3,1c0.5,0.2,1.1,0.2,1.6,0.2c1-0.1,1.9-0.5,2.6-1.2c0.7-0.6,1.2-1.4,1.5-2.3c0.3-0.8,0.5-1.6,0.5-2.4 c0.1-0.7,0-1.5-0.2-2.2c-0.5-1.5-1.4-2.6-2.8-3.4c-0.7-0.4-1.5-0.6-2.3-0.7c-1.4-0.1-2.8,0-4.1,0.6c-1.7,0.8-2.8,2-3.4,3.8 c-0.4,1.2-0.4,2.5,0.1,3.7C5,16,5.5,16.5,6.1,16.9C6.2,16.9,6.3,17,6.5,17c0.2,0.1,0.4,0,0.4-0.2c0.1-0.3,0.2-0.6,0.2-1 c0-0.1-0.1-0.2-0.1-0.3c-0.1-0.2-0.3-0.4-0.4-0.6c-0.2-0.5-0.3-1-0.3-1.5c0-0.7,0.2-1.4,0.5-2c0.7-1.4,1.8-2.2,3.3-2.5 c0.9-0.2,1.8-0.1,2.7,0.2c1.3,0.5,2.1,1.4,2.3,2.8c0.1,0.5,0.1,1.1,0,1.6c-0.1,0.6-0.2,1.3-0.4,1.9c-0.2,0.6-0.5,1.1-1,1.6 c-0.5,0.5-1,0.8-1.7,0.8c-0.7,0-1.4-0.5-1.5-1.3c-0.1-0.3,0-0.6,0.1-0.8c0.2-0.7,0.4-1.4,0.6-2.1c0.1-0.4,0.2-0.8,0.2-1.3 c0-0.4-0.1-0.8-0.5-1.1c-0.4-0.4-0.9-0.4-1.4-0.2c-0.5,0.2-0.8,0.6-1,1c-0.3,0.6-0.3,1.1-0.3,1.7c0,0.4,0.1,0.8,0.3,1.1 c0,0,0,0.1,0,0.1c-0.4,1.7-0.8,3.5-1.2,5.2c-0.2,0.7-0.2,1.4-0.2,2.1C7.1,22.5,7.1,22.5,7.1,22.6"/></defs><use xlink:href="#SVGID_1_" overflow="visible" fill-rule="evenodd" clip-rule="evenodd" fill="#3c3c3b"/><clipPath id="SVGID_2_"><use xlink:href="#SVGID_1_" overflow="visible"/></clipPath><path class="st0" d="M-3.8 -1.1H25.8V28.5H-3.8z"/></svg>