<svg viewBox="0 0 20 21" xmlns="http://www.w3.org/2000/svg"><path d="M6.1 19.6C2 17.9-.9 13 .6 7.9 2.2 2.6 7.7-.3 13 1.4c5.2 1.7 8 7.4 6.1 12.6-1.9 5.2-7.4 7.4-11.9 6 0 0 0-.1.1-.1.4-.7.7-1.3.9-2.1.2-.8.4-1.6.6-2.5v-.1c.3.5.8.8 1.3 1 .5.2 1.1.2 1.6.2 1-.1 1.9-.5 2.6-1.2.7-.6 1.2-1.4 1.5-2.3.3-.8.5-1.6.5-2.4.1-.7 0-1.5-.2-2.2-.5-1.5-1.4-2.6-2.8-3.4-.7-.4-1.5-.6-2.3-.7-1.4-.1-2.8 0-4.1.6-1.7.8-2.8 2-3.4 3.8-.4 1.2-.4 2.5.1 3.7.4.7.9 1.2 1.5 1.6.1 0 .2.1.4.1.2.1.4 0 .4-.2.1-.3.2-.6.2-1 0-.1-.1-.2-.1-.3-.1-.2-.3-.4-.4-.6-.2-.5-.3-1-.3-1.5 0-.7.2-1.4.5-2C6.5 7 7.6 6.2 9.1 5.9c.9-.2 1.8-.1 2.7.2 1.3.5 2.1 1.4 2.3 2.8.1.5.1 1.1 0 1.6-.1.6-.2 1.3-.4 1.9-.2.6-.5 1.1-1 1.6s-1 .8-1.7.8-1.4-.5-1.5-1.3c-.1-.3 0-.6.1-.8l.6-2.1c.1-.4.2-.8.2-1.3 0-.4-.1-.8-.5-1.1-.4-.4-.9-.4-1.4-.2-.5.2-.8.6-1 1-.3.6-.3 1.1-.3 1.7 0 .4.1.8.3 1.1v.1c-.4 1.7-.8 3.5-1.2 5.2-.2.7-.2 1.4-.2 2.1v.4" fill="#3C3C3B" fill-rule="evenodd"/></svg>