<svg width="39" height="10" viewBox="0 0 39 10" xmlns="http://www.w3.org/2000/svg"><title>Untitled 2</title><g id="Page-1" fill="none" fill-rule="evenodd"><path d="M33.5628805,6.73713186 C33.5628805,6.73713186 33.3803164,8.57802232 35.3755467,8.5780224 C37.3707769,8.57802248 37.6160482,6.30263484 37.6160482,6.30263484 C37.6160482,6.30263484 36.7793501,1.83783944 33.2197065,1.83783938 C29.660063,1.83783932 25.0713428,4.77679711 25.0713428,4.77679711 C25.0713428,4.77679711 20.0905856,7.43965656 16.1468089,7.43965668 C12.2030323,7.4396568 13.2868232,3.82865272 13.2868232,3.82865272 C13.2868232,3.82865272 13.4677276,3.20989852 13.8960907,3.20989852 C14.3244538,3.20989852 14.4310775,3.74628432 14.4310775,3.74628432 C14.4310775,3.74628432 13.9679651,7.51773321 7.91316915,7.4103573 C1.85837316,7.30298139 0.741715704,3.72028628 0.741715704,3.72028628 C0.741715704,3.72028628 -0.134841651,1.06460717 2.74212914,0.604483086 C4.04498846,0.3961122 4.26534535,1.48680792 4.26534535,1.48680795 C4.34920504,2.59873909 3.56431816,3.09451759 3.56431816,3.09451759" id="Path-3" stroke="#979797" transform="matrix(-1 0 0 1 38.232 0)"/></g></svg>