<svg id="Слой_1" xmlns="http://www.w3.org/2000/svg" viewBox="0 0 56.5 12.3"><style>.st0{fill:#4a4a4a}</style><path class="st0" d="M0.9,11c1.5,1.7,5,2,5.8-0.6C7,9.5,5.7,9.2,5.4,10c-0.3,1.2-1.9,1.1-2.8,0.7c-1.3-0.6-1.4-2.1-1.2-3.3	c0.5-2.8,3.6-3.6,6-3.7c5-0.4,9.7,2.8,14.1,4.9c3,1.4,6.1,2.6,9.4,2.8c2.2,0.2,4.9,0,6.3-2c0.5,0.3,1,0.6,1.3,0.7	c3.6,1.5,7.9,1.7,11.5,0.7c2.8-0.8,6.2-3.4,6.4-6.7c0.1-2.8-1.9-4.7-4.7-4c-2,0.5-2.6,3.7-0.7,4.7c0.8,0.4,1.4-0.8,0.7-1.2	c-1.4-0.7,0.1-2.2,1-2.3c1.5-0.2,2.3,1,2.4,2.4c0.2,2.1-1.9,4-3.4,4.9c-3.6,2.2-8.6,1.7-12.4,0.3c-0.5-0.2-1-0.4-1.5-0.7	C38,7.6,38,6.8,37.6,6.1c-0.3-0.7-1.5-1.8-2.3-1.2c-1.6,1.3-0.6,2.8,0.8,3.9c-0.6,0.6-1.5,1.1-2.1,1.2c-2.7,0.7-5.8-0.1-8.3-1	C18.8,6.5,10.1-1,2.5,3.8C0.3,5.1-1,8.9,0.9,11z M36.7,7.6C36.4,7.3,36.2,7,36,6.7c-0.5-1.2,0.3-0.1,0.5,0.1	C36.7,7.1,36.7,7.3,36.7,7.6z"/></svg>