<svg id="Слой_1" xmlns="http://www.w3.org/2000/svg" viewBox="0 0 56.5 12.3"><style>.st0{fill:#4a4a4a}</style><path class="st0" d="M53.9,3.8C46.4-1,37.7,6.5,30.7,8.9c-2.5,0.9-5.6,1.7-8.3,1c-0.6-0.2-1.5-0.6-2.1-1.2c1.4-1.1,2.5-2.6,0.8-3.9	c-0.8-0.6-2,0.5-2.3,1.2c-0.3,0.7-0.4,1.5-0.2,2.2c-0.5,0.3-1,0.5-1.5,0.7c-3.8,1.4-8.8,1.9-12.4-0.3c-1.6-1-3.6-2.9-3.4-4.9	c0.1-1.4,1-2.5,2.4-2.4c0.9,0.1,2.4,1.6,1,2.3C4,4,4.6,5.2,5.4,4.8c1.9-1,1.3-4.2-0.7-4.7C2-0.5-0.1,1.3,0,4.1	c0.1,3.2,3.5,5.9,6.4,6.7c3.7,1.1,8,0.8,11.5-0.7c0.3-0.1,0.8-0.4,1.3-0.7c1.4,1.9,4.1,2.2,6.3,2c3.3-0.3,6.4-1.4,9.4-2.8	C39.3,6.5,44,3.4,49,3.7c2.3,0.2,5.5,0.9,6,3.7c0.2,1.2,0.1,2.7-1.2,3.3c-0.8,0.4-2.4,0.4-2.8-0.7c-0.2-0.8-1.5-0.5-1.3,0.4	c0.7,2.6,4.3,2.3,5.8,0.6C57.5,8.9,56.1,5.1,53.9,3.8z M20,6.8c0.1-0.2,0.9-1.3,0.5-0.1C20.3,7,20,7.3,19.7,7.6	C19.7,7.3,19.8,7.1,20,6.8z"/></svg>