<svg id="Слой_1" xmlns="http://www.w3.org/2000/svg" xmlns:xlink="http://www.w3.org/1999/xlink" viewBox="0 0 22 27"><style>.st0,.st1,.st2{clip-path:url(#SVGID_2_);fill:#3c3c3b}.st1,.st2{clip-path:url(#SVGID_4_)}.st2{clip-path:url(#SVGID_6_)}</style><defs><path id="SVGID_1_" d="M0 9.9c0-.6.4-1 1-1h20c.6 0 1 .4 1 1s-.4 1-1 1H1c-.6 0-1-.5-1-1z"/></defs><use xlink:href="#SVGID_1_" overflow="visible" fill-rule="evenodd" clip-rule="evenodd" fill="#3c3c3b"/><clipPath id="SVGID_2_"><use xlink:href="#SVGID_1_" overflow="visible"/></clipPath><path class="st0" d="M-5 3.9h32v12H-5z"/><g><defs><path id="SVGID_3_" d="M0 17.9c0-.6.4-1 1-1h20c.6 0 1 .4 1 1s-.4 1-1 1H1c-.6 0-1-.5-1-1z"/></defs><use xlink:href="#SVGID_3_" overflow="visible" fill-rule="evenodd" clip-rule="evenodd" fill="#3c3c3b"/><clipPath id="SVGID_4_"><use xlink:href="#SVGID_3_" overflow="visible"/></clipPath><path class="st1" d="M-5 11.9h32v12H-5z"/></g><g><defs><path id="SVGID_5_" d="M0 25.9c0-.6.4-1 1-1h20c.6 0 1 .4 1 1s-.4 1-1 1H1c-.6 0-1-.5-1-1z"/></defs><use xlink:href="#SVGID_5_" overflow="visible" fill-rule="evenodd" clip-rule="evenodd" fill="#3c3c3b"/><clipPath id="SVGID_6_"><use xlink:href="#SVGID_5_" overflow="visible"/></clipPath><path class="st2" d="M-5 19.9h32v12H-5z"/></g></svg>