<svg id="Слой_1" xmlns="http://www.w3.org/2000/svg" viewBox="0 0 56.5 12.3"><style>.st0{fill:#4a4a4a}</style><path class="st0" d="M53.9 3.8C46.4-1 37.7 6.5 30.7 8.9c-2.5.9-5.6 1.7-8.3 1-.6-.2-1.5-.6-2.1-1.2 1.4-1.1 2.5-2.6.8-3.9-.8-.6-2 .5-2.3 1.2-.3.7-.4 1.5-.2 2.2-.5.3-1 .5-1.5.7-3.8 1.4-8.8 1.9-12.4-.3-1.6-1-3.6-2.9-3.4-4.9.1-1.4 1-2.5 2.4-2.4.9.1 2.4 1.6 1 2.3-.7.4-.1 1.6.7 1.2C7.3 3.8 6.7.6 4.7.1 2-.5-.1 1.3 0 4.1c.1 3.2 3.5 5.9 6.4 6.7 3.7 1.1 8 .8 11.5-.7.3-.1.8-.4 1.3-.7 1.4 1.9 4.1 2.2 6.3 2 3.3-.3 6.4-1.4 9.4-2.8C39.3 6.5 44 3.4 49 3.7c2.3.2 5.5.9 6 3.7.2 1.2.1 2.7-1.2 3.3-.8.4-2.4.4-2.8-.7-.2-.8-1.5-.5-1.3.4.7 2.6 4.3 2.3 5.8.6 2-2.1.6-5.9-1.6-7.2zM20 6.8c.1-.2.9-1.3.5-.1-.2.3-.5.6-.8.9 0-.3.1-.5.3-.8z"/></svg>