<svg viewBox="0 0 194 126" xmlns="http://www.w3.org/2000/svg">
  <g fill="#E9E3D6" fill-rule="evenodd">
    <path d="M100.014 112.546c.02-.778-.668-.85-1.134-1.142-.72.708.432 1.865 1.134 1.142M134.507 15.386c-.65-4.257-5.34-4.46-6.675-8.012-2.104 5.685 4.637 5.352 6.675 8.012M119.16 12.38c-.677 1.53-1.845 2.61-2.33 4.345 1.804-.04 4.115-2.905 2.33-4.345M127.833 19.06c-1.297-1.707-.835-5.166-2.67-6.34-.816 2.544.385 5.8 2.67 6.34M133.17 16.057c-3 .668-3.317-1.345-5.338-1.673-.28 2.97 1.168 4.185 3.676 4.35.865-.572 1.688-1.206 1.66-2.677M53.085 93.94c.984 2.354.09 6.585 2.002 8.037 1.093-1.898.052-4.112.66-6.7-.968-.363-1.247-1.407-2.662-1.336M78.44 97.286c1.063 3.08 6.413 3.586 9.347 3.674-1.552-2.793-5.628-3.047-9.347-3.674M65.768 100.96c-.948-.598-1.7-1.42-2.683-2.004-.335 1.743 1.68 3.72 2.683 2.005M137.19 99.967c-.437-.02-.48-.43-1.008-.344-.137 1.308-1.915.996-2.004 2.355.204.444.712.61 1.33.657.84-.603 1.587-1.292 1.682-2.668M60.763 106.318c.76-.346.694-1.544.66-2.682-2.285 1.05-3.1-2.515-3.664-1 .558 1.667 1.42 3.024 3.003 3.682M73.444 107.994c-1.61-1.515-2.81-3.422-4.013-5.36-3.246-1.134-8.072 2.39-5.676 4.69.585-3.124 3.513-2.974 6.35-2.347-.197 1.24 1.034 1.937.335 2.674-1.33-.54-1.99-1.794-3.685-1.998-.85.25-1.15 1.064-.987 2.342 2.592-.374 1.713 2.74 3.002 3.675.895-.32.34-2.105.995-2.675h1.013c.202 2.325-.754 3.485-2.343 4.01-.638-.14-.602-.958-1.68-.663-1.12.253-1.837 2.154-.987 3.35 1.376.16 1.47-.982 3.002-.675-.555 1.345-2.38 1.398-4.335 1.34.9 3.632 5.87.02 6.673-1.672 3.392 1.834 2.438 8.032 7.006 8.692-4.78-3.994-4-14.392-.67-19.74-1.243-.343-.945.84-2.008.672.14-.475.405-.553 0-1.007-1.003.21-1.7.746-1.663 2.018.853.35 1.168-1.454 1.663-.343-1.134.53-1.04 2.3-1.992 3.017M127.496 107.322c.51-1.726 1.834-2.617 2.006-4.688-1.82-.164-1.764 1.58-2.67 2.344-1.938-.63-2.047-.06-4.335-1.002.922 3.086 3.223 4.797 2.666 9.36.445.657 1.77-.666 2 .676-.798 2.76-1.877 5.254-2.326 8.37 2.9-.885 1.37-6.2 4.665-6.692.77 2.29 3.98 3.763 7.02 2.673.252-1.376-1.608-.63-1.347-2.005h1.346c.192-2.823 1.852-3.073 1.995-5.35.243-3.81-4.206-9.574-8.34-7.032-.303.986-.303 1.026 0 2.008-1.943.065-1.902 2.11-3.013 3.012-.696-.766-1.977-2.678-1.663-3.344.88.342 1.124 1.317 1.996 1.67zm2.68-1.004c2.232-1.495 4.02-1.002 5.103.387-.4.106-.722.287-1.078.436-.324-.29-.79-.44-1.034-.822-1.055.72-1.752 1.8-3.33 2-.238-1.016.576-.984.338-2zm0 3.686c1.53-.204-.193 2.87 1.66 2.337.377-1.507.842-2.912 1.968-3.663-.033.072-.08.144-.16.22.82.143 1.105-.258 1.6-.454-.103-.66.05-1.063.243-1.432 1.164 1.782 1.325 4.704.023 7.002-1.934-.027-2.607-1.09-4 0-.924-.518-3.095-3.004-1.334-4.008zM42.735 106.65c.84.286 1.304.922 2.33 1-.41-1.46-.08-1.486.345-2.674-1.007-.436-1.815-1.078-3.333-1 .4.993 1.514 1.292.658 2.675M51.41 104.65c-.81 1.628-3.707 1.184-4.682 2.672.838 1.782 2.225.257 4.018.33.633 1.04.75 2.586 2.003 3.017.256-1.136-.154-2.488.995-3.348 1.167.47 2.13-.94 2.673 0-.388 1.958-1.537.83-2.996.67-.196 1.644.428 2.463 1.665 2.677 1.196.083 1.216-1.01 2.335-1.01 1.29 1.262 1.82 3.295 4 3.677-2.056-2.615-1.438-7.926-4.666-9.36-1.16.96-3.23.992-4.686 1.675-.017-.526.054-1.158-.66-1.003"/>
    <path d="M80.783 113.676c2.054.96 3.753 2.255 5.666 3.352 1.82-.535 2.648-2.044 4.012-3.016.04 3.17-2.22 4.315-2.127 6.31-.137-.032-.283-.053-.43-.075.02.367.14.63.346.805-1.153.11-.767-1.338-1.45-1.692-1.45.316-3.67.343-4.022-1.342.776.11 1.254.53 2.34.346-1.184-2.41-4.267-3.44-6.678-3.68-.92 5.818 3.832 7.016 8.01 6.686-.44 1.785-3.555.895-4.01 2.674 1.09.586 3.35-.098 4.36-.667 1.81 2.936 6.71 1.875 8.998 0 .86 1.247 4.89 3.19 5.68 1.335-1.993-1.02-3.816-2.202-6.02-3.008-1.435.765-4.886 2.973-6.33.68 6.1-.562 6.884-6.46 8.487-11.527.2.024.4.048.582.09-.074-1.207 1.23-1.04 1.363-2.05-.388-.15-.822-.13-1.247-.007.328-.803.7-1.56 1.152-2.238-1.208-.89-1.63 1.317-3 1.342.03-.587-.053-1.043-.338-1.342-3.288.736-2.383-2.732-5-2.676 2.817 3.714 5.76 13.7-.665 15.727-.08-.48-.563-.567-.668-1.01 6.485-1.938 2.45-8.166-.334-11.37.584-.077 1.668.334 1.334-.67-.096-.682-.908-.66-1-1.332-1.705.29-3.824.188-4.342 1.664.776 1.454 3.974.49 3.677 3.02-1.208-.806-3.51-.52-5.006-1.01-.607.93-.328 3.086-.673 3.348-.85-.372.135-2.593-.672-3.014.39-1.098 2.806-1.463 2.014-2.676-1.51-2.102-3.06 1.578-4.353.67-.22-1.335.894-1.35.672-2.673-1.424-.547-2.195 2.167-2.998 3.344 2.172.61 1.92 3.642 2.67 5.682zm8.677-.338c-.725.514-.776 1.68-2.016 1.68 1.032-1.795-.578-2.676-.995-4.01 1.682.097 2.577.985 3.01 2.33zm-3.335 1.003c-1.083.09-1.612-.387-1.678-1.336 1.098-.09 1.612.395 1.678 1.337z"/>
    <path d="M107.143 104.65c-.187 1.185 1.195.825 1 2-.633.04-.23 1.114-1 1-1.235.248-1.43-.562-2.67-.327-1.097 1.266 1.455 1.91.673 2.68-.073-.5-.803-.312-1.337-.34 1.48 1.99 1.698 5.633-.667 7.022v-1.333c-1.694-.13-2.323.794-2.662 2.006-.794-.104-.625-1.16-1.672-1-.59.976-1.222 1.89-1.343 3.345 1.75.696 2.307 2.602 4.676 2.68.256-1.61-1.186-1.49-1-3.023 1.966-.07 2.066 1.732 2.67 3.023-.147 1.18-1.12 1.54-1.342 2.668 1.788.773 3.007.495 4.345-.34 1.344 1.62 5.902 1.23 7.334 0 .805 1.176 4.1 1.358 5.672.67-.018-2.083-2.753-1.478-3.328-2.997 2.484-.42 5.142-.64 5.668-3.023-.39-.5-.953-.81-1.006-1.67 2.69-1.443.746-5.98 2.354-8.028-1.106-1.355-1.71-3.216-3.69-3.675-1.055.686.64 2.188-.325 2.67-1.22-.373-2.074-1.623-3.338-1.006-.132 1.884 2.046 1.453 2.348 3.357.295 2.046-1.264 4.437-3.364 4.01 1.838-1.19 2.675-2.656 2.007-5.014-1.392.453-3.54.624-5.002.33.65-1.04 1.467-1.88 3.35-1.676.454-2.322-3.2-2.016-4.017-2.006-.92.922.303 1.408.336 2.346-4.678 2.307-.672 8.62 3.68 8.694 2.15-1.633 4.505-3.053 5.33-6.02 1.476 3.422-1.18 5.463-3.677 6.02-.45 1.06-.065 1.122 0 2.343-.54.558-1.946.264-3 .34-.252.742-.183 1.812-.995 2.01-.567-.555-.266-1.975-.334-3.023-1.84-.51-1.19 1.5-2.672 1.34-5.054-3.698-2.763-12.07.332-16.05-1.38 1.065-2.338-.794-3.335 0zm6.683 11.366c-1.11-.117-1.457-.998-2.012-1.675.317-1.357 1.195-2.15 2.67-2.34-.316 1.36-1.64 2.35-.658 4.016zm-4.68 7.03c1.097.01 1.66.568 3 .33-.22 1.145-3.29 1.642-3-.33zM43.744 100.96c.032 2.635 2.16 3.18 3.66 4.36 2.084-.402 3.454-1.4 5.343-1.683-.358-3.664-3.346-7.454-2.334-10.362-1.567-4.383-8.5-1.664-5.677 3.01 1.318-.355 2.21-2.917 3.67-2.01-.345 1.98-2.92 1.74-2.996 4.013.57.88 1.67 1.22 2.333 2.01.355-.307.112-1.236 1-1.01 2.928 4.13-2.618 3.656-5 1.673zm3.66-2.672c.04-.842.49-1.296 1.34-1.334-.04.84-.493 1.292-1.34 1.334zM142.862 110.668c.372 1.08 2.238.867 2.657 1.002-.075 1.124-1.95 1.564-.987 2.67 3.004-.204 3.355-3.078 4.325-5.344.975-.814 1.75.72 2.68 1.007.794-.415 1.076-1.373 1.323-2.352-3.297-1.143-5.802-1.587-8.678-2.672.357-1.325 1.008-2.335 2.003-3 .213-2.214-.988-3.842 1.328-4.017-.337 2.37.842 4.194 0 6.015 1.297 1.384 4.05 2.55 6.023 1.346 1.842-4.27.153-8.454-3.346-10.044-1.6-.268-1.204 1.464-3 1.008 1.565-4.142 5.237-.414 7.676.338.995-1.587-.673-3.012-1.33-4.026-5.214-.86-7.104 1.578-10.35 2.68-.04 1.36 1.627 3.5 0 4.347-.364-.745-.548-1.662-1-2.345-1.044-.158-.76 1.03-2.008.683-.11 2.112-.754 3.707-1.33 5.35 1.995-.223 1.53-2.93 2.67-4.02 2.596 5.463-1.682 10.33-3.332 15.05 2.728-.038 2.585-2.972 4.676-3.672zm7.328-9.36c1.497.922 2.094-.754 3.004 0-.505 1.038-1.89 1.2-2.34 2.328-1.308-.043-.975-1.494-.664-2.328zm-7.004 6.686c1.097.014 1.657.563 3 .323-.446.79-1.49.963-2.327 1.345-.145-.64-.962-.605-.674-1.668zM159.108 48.07c1.796.466 1.057-1.628 2.018-1.997 2.906-.678 5.106-.675 7.05.745-1.235-2.676-.382-3.418-.625-6.06-2.185-.09-4.326-.136-5.35.952-.276 1.043.894.664.662 1.693-1.913.89-3.3 2.293-3.754 4.668M36.355 46.352c.96.37.222 2.464 2.02 1.998-.455-2.374-1.843-3.778-3.756-4.667-.233-1.03.937-.65.66-1.694-1.022-1.09-3.164-1.042-5.35-.952-.242 2.64.61 3.384-.624 6.06 1.944-1.42 4.143-1.424 7.05-.746M84.79 18.618c0-.007-.012 0-.018.004-.846 1.262 1.698 2.48 2.612 2.566.894.088 1.545-.202 2.282-.695.722-.482 1.71-1.447 2.656-1.2.082.023.19-.062.153-.155-.358-.855-2.05-.037-2.612.127-.815.23-1.64.537-2.493.537-1.173.003-1.61-1.003-2.58-1.184M128.675 45.056c-3.45.935-7.82.442-10.326 2.8.203.16.4.3.61.423.265.13.552.233.865.3.36.07.42.398.3.65.737 1.486 2.578 1.157 4.083.987.122-.01.238-.02.36-.04.015 0 .035 0 .045-.005.072-.01.137-.013.205-.024.863-.168.603-1.443-.208-1.475-.69-.034-1.37.06-2.064.045-.27 0-.596-.024-.927-.08-.028-.085-.05-.173-.073-.262 1.375-2.132 6.824-.1 7.128-3.32M80.36 22.386c.063 1.39 1.37 1.52 2.65 1.71-.172-1.27-1.417-1.498-2.65-1.71M80.907 32.255C79.68 31 75.752 29.32 73.69 30.25c-1.274.578-1.782 2.306-.97 3.606.88-1.044 1.777-.992 1.96-.143-.22.756-1.118.916-1.047 2.043.7-.19.7-.19 1.116-.27.602-.056.74-.124.89.146.057.11.384 1.006 1.544.558.28-1.64 1.306-1.047 2.217-1.204.008-2.225-3.297-1.328-4.228-1.948.187-1.386 4.46-1.03 5.735-.783M76.502 6.224c-2.015-.575-2.29-2.854-4.32-3.412.736 1.608 2.84 3.627 4.32 3.412M124.79 32.258c1.505-.606 3.035-1.19 4.37-1.978-1.147-2.166-4.25-.014-4.37 1.978M130.81 31.978c-5.235-1.116-7.997 4.81-1.368 3.346.62-.58-.14-.972-.317-1.676.692-.425 1.702-.52 1.684-1.67M167.45 19.25c.425-1.843 1.732-4.54 1.376-6.025-1.175 1.15-2.642 2.025-3.368 3.658.83.62.582 2.304 1.99 2.368M79.117 12.297c-1.186-2.628-5.146-5.355-7.28-8.14 1.108 4.01 4.484 5.783 7.28 8.14M110.174 4.396c2.432-.02 5.242-2.156 7.578-2.255-1.675-1.248-7.076.668-7.578 2.256M77.555 5.43c1.72 1.27 4.103 2.025 6.193 1.32.164-.06.164-.277 0-.332-.374-.133-.73-.218-1.074-.294-.76-.516-1.272-1.006-1.558-1.92-.21-.643-.43-1.152-.856-1.693-.147-.194-.328-.39-.515-.578.764.236 1.548.425 2.26.692 2.05.763 4.21 1.526 6.01 2.78.027.025.06-.02.04-.046-2.782-2.82-6.298-3.6-9.892-4.582-.505-.247-1.04-.4-1.576-.384-.037 0-.058.055-.03.08.67.568 1.288 1.04 1.79 1.778.453.682.723 1.568 1.26 2.18.035.038.073.083.11.13-.572-.413-1.173-.79-1.77-1.2-1.333-.914-2.742-2.054-4.27-2.59-.05-.018-.098.05-.067.092 1.286 1.703 2.196 3.27 3.945 4.567M124.357 40.987l-1.34-.01c-.28 1.293 1.593 1.314 1.34.01M92.68 47.236c.522-.452.852-.985 1.15-1.6.047-.1-.056-.238-.16-.166-.438.325-.92.575-1.33.918-.478.383-1.09.602-1.335 1.183-.095.197.017.406.236.422.618.045 1.003-.376 1.44-.756M131.826 30.304c1.576 1.886-.863 1.806-.717 4.035 2.71.09 3.444-4.908.716-4.036M78.763 13.625c-1.143-1.307-1.825-3.072-3.987-3.394.71 1.586 2.746 3.426 3.987 3.395"/>
    <path d="M96.782 19.867c-.188 0-.33-.035-.467-.08-.02-.02-.038-.04-.05-.057-.663-.61-1.744-1.18-2.654-.872-.07.024-.07.12 0 .147.458.164.898.568 1.238 1.054.056.122.127.228.216.32.283.493.474 1.027.464 1.482 0 .092.01.192.027.288-1.296-1.164-3.34-2.28-4.41-.56-.01 0 0 .02.014.02 3.532.645 5.026 4.83 5.714 7.955.277 1.277.065 2.69-.143 4.127-.016.137.15.212.233.092.713-1.074 1.344-2.785 1.446-4.178.214.845.33 1.885.442 2.977-.32.56-.63 1.13-.89 1.766-.658 1.61-1.5 3.15-2.483 4.588.04-.29.01-.592-.215-.945-1.59-.684-2.616 2.73-3.44 1.677-.008-1.26 2.195-2.033 1.786-3.703-.83-.45-1.633.723-1.677-.017 1.432-.817 4.147-5.167 1.07-6.385-.763.7.2 3.145-1.37 3.018-.77-1.14-.733-4.308-2.27-4.67-.97 6.662-.878 7.49-1.035 13.208-.092 3.604-1.285 4.18-2.824 6.233 1.73-1.318 4.24-3.703 7.428-5.22.23-.098.71 0 .396.378-1.22 1.465-2.25 1.558-3.363 3.474 1.194.68 4.464-3.778 5.215-3.02.364.374.337.754.232 1.292-.355 1.85-1.157 4.117-4.287 7.3-.9.916-4.05 2.226-5.293 3.366-1.207.965-4.42 6.838-4.747 7.826-1.412 2.727-2.032 5.543-3.874 8.028-.2.27 3.697.866 5.137-.257 2.2-1.718-1.865-3.765-.06-5.725 1.578-1.73 3.92-2.584 5.1-4.675.77-1.027 2.387-5.102 3.482-6.782.79-1.22 3.702-3.618 5.135-5.332.423-.507 1.916-5.89 2.356-3.347.322 1.857-1.257 6.22-3.05 8.633-1.733 2.338-2.685 5.174-3.93 10.574-.78 3.373-4.32 9.436-4.36 9.564-.004.008-.01.02-.015.025h.007c-1.352 4.33.51 5.035 1.12 9.78.324 1.006 2.375.285 2.33 1.674-2.59.07-2.88 5.065-6.015 5.685-4.483-1.788-6.365-7.804-5.338-14.044-3.483.866-6.823 4.733-7.67 9.362.487.515 1.712.298 2.663.337 2.925 4.992 9.54 6.274 15.357 8.353-7.463-.655-12.683-3.565-18.35-6.01 1.455 3.665 6.54 3.684 9.33 6.01-.98.097-2.022-.93-2.326.344 3.307 1.308 9.46 2.007 12.348 1.675 4.278-.498 10.277.752 13.347-1.675-5.743.406-9.025-1.655-11.69-4.352.778-.57-.308-2.995 1.343-2.675.626.488.045 2.19.668 2.675 1.44.438.405-1.592 1.668-1.344-.422 1.684-.92 2.55.33 3.684 3.928-1.134 8.876.008 12.015-2.34-1.64-.858-4.03.102-5.673.34-.296-.603-.93-.855-.668-2.018 2.162-.388 3.448-1.668 4.337-3.34-.682-.707-2.697.662-3.67-.333.55-.81.863-1.625.336-2.665h-2.323c-.506-2.52-1.554-4.48-3.347-5.698-.447-2.175 1.48-4.727 2.424-5.514.79-.46 1.62-.976 2.392-1.486 5.26-3.484 8.338-4.713 10.483-9.537.614.146 1.16.838 1.665.7-.53-5.7-9.42-5.666-6.876-15.878 1.992 3.09 6.05 7.116 8.018 7.52-7.772-8.874-6.05-11.167-3.915-13.607.798-.913-1.507-1.46 0-1.584 1.94-.165 2.588-1.44 5.047-.958 1.42 2.714-.375 8.575 2.91 9.428.87-1.007 1.602-1.79 1.407-3.93-.2-.58-2.798.007-1.687-2.46 2.067-4.633.283-8.83-3.553-9.722-2.162.71-5.726 2.136-7.758 4.244 1.76-3.223 2.42-6.585 2.52-9.38-.46.68-1.617 1.413-2.234 1.58-1.217.323-2.336-.126-2.898-1.125-.05-.08-.007-.177.088-.156.566.127 1.136.263 1.787.133.648-.127 1.497-.517 1.97-1.598 2.767-6.27 6.62-6.15 8.677-10.53-1.248.68-4.048 1.372-5.712.664.46-.384.896-.757 1.282-1.048 2.37-1.765 4.317-3.288 5.845-5.858.133-.233-.133-.49-.365-.36-.508.288-1.003.57-1.48.853-.457.21-.88.5-1.282.788-.334.212-.662.428-.982.66-.53.298-1.05.452-1.61.226 1.35-1.998 3.305-3.24 5.29-4.958-4.328-.78-5.286 3.97-7.933 5.902-1.248 1.79-3 3.156-4.924 2.612-.068-.02-.085-.103-.04-.155 1.074-1.207 2.305-2.217 3.455-3.36.218-.22.432-.452.647-.684.22-.338.505-.626.81-.882.493-.545.988-1.075 1.506-1.568.1-.184.18-.38.232-.602-3.124.46-3.925 5.003-6.75 4.627.22-1.913 2.265-1.968 2.39-4.007-5.387 1.957-5.172 9.875-8.176 13.352.61.01 1.053-.174 1.46-.383.023.03.054.058.088.075-.068.408-.13.818-.177 1.228-.072.407-.12.818-.144 1.24-.07.19-.142.38-.237.54C97.03 17.512 96.817 7.866 90.21 7.37c3.322 3.063 5.604 7.132 6.572 12.497zM89.13 88.25c.264-.618.55-1.22.665-2 .737 1.358 1.357 2.265 1.668 4.684-2.02.34-.75-2.597-2.334-2.684zm23.915-55.106c-.712.948-1.472 1.872-3.034 1.972.4-1.277 1.563-1.783 3.035-1.972zm-9.647-1.718c.317-.475.833-.75 1.65-.718-.194.934-.845 2.13-.446 2.82 0 0-.01-.007-.013-.007.227.44.46.915.537 1.38.017.106-.11.158-.167.075-.665-.88-1.903-.92-2.07-2.176-.068-.53.137-1.03.508-1.374zm-.088 5.647c1.596.082 2.598.766 2.304 2.72-.845.123-1.854.076-3.01.637-.696-.962.136-2.622.706-3.357zm.954 4.034c1.095.993.458 3.823-1.3 4.014-1.58.17-.845-2.213 1.3-4.013zm.642 11.854c.276.63 2.004 9.148.04 10.678-.023.017-2.963 2.758-4.044 3.624.04-1.968 1.217-11.41 4.004-14.3zM32.878 15.833c-2.56-2.37-4.985-5.212-8.48-4.77-2.057.263-4.12.49-4.246 3.305 2.318-.345 5.486.845 6.008 2.074-2.575 4.034-.617 8.226 1.92 10.776-.962.506-2.69.212-2.373 1.988 1.483.814 2.868-1.034 4.68-.95.053-2.277-1.953-3.89-1.59-6.736.35-2.745 2.635-3.966 4.08-5.687M29.618 7.79c3.547.404 6.145 2.215 8.202 4.737 1.51 2.258 2.697 4.876 4.498 6.834.743.8 1.855 1.27 2.967 1.35.235.085.47.16.712.22.26.066.48-.098.553-.313.562-.124 1.088-.37 1.527-.74.352-.19.68-.438.874-.73.042-.06.042-.118.025-.17l.027-.027c.105-.03.21-.068.317-.113.166-.08.063-.315-.09-.32-1.858-.115-3.294-1.452-4.7-2.537-.916-.71-1.837-1.43-2.755-2.15-.624-1.01-1.183-2.08-2.073-2.894-2.51-2.306-6.063-4.685-9.545-3.4-.048.022-.072.083-.055.135-.164-.01-.324-.01-.487-.006-.082.007-.08.117.003.127M69.623 40.697c-.9.225-.89.346-.518 1.4.566.033 1.033-.07 1.343-.325.045-.846-.282-1.205-.825-1.075M26.93 66.162c.023-.006.045-.004.067-.012l.108-.04c.49-.176.744-.717.568-1.21-.176-.49-.716-.742-1.205-.57l-.128.048c-.286.107-.486.34-.57.612.45.336.843.73 1.16 1.172"/>
    <path d="M126.628 73.05s-.8-1.515-1.578-2.15c-.47.61-.975 1.07-1.48 1.79-.153.223-.285.467-.353.685-1.094 1.398-2.144 2.754-3.06 4.177-1.07 1.653-1.36 3.407-2.334 5.025-2.384 3.93-7.252 2.976-10.68 6.018 1.48.974 2.488-.96 4.008-1.002 4.612 2.04 6.465-3.237 12.022-2.35-.033 1.087-1.997.234-1.675 1.682 5.474 5.065 13.18-3.28 17.35-4.69-2.96 8.507-15.923 7.01-23.015 11.367 4.454.684 7.593-1.73 11-1.006-1.387 1.964-4.78 1.902-7.34 2.68-.16 2.74-3.847 1.938-4.67 4.013 6.785-.21 12.175-3.625 17.35-4.342-.413 1.154-2.146.968-2.67 2.006 6.24-1.002 12.51-4.844 18.36-7.353.077 1.305-1.202 1.247-.996 2.675 1.23-.325 2.326-.782 2.326-2.353.268-1.375-1.598-.622-1.33-2 .583-.64 1.242-1.203 2.33-1.342.254.766-.594 2.616.663 2.337 3-2.356 1.14-5.445 0-8.696.078-1.638 4.078-4.422 4.682-1.328-.916.43-2.355.313-2.342 1.67-.44 1.47 1.98-.597 2.342.673.256 1.252-.405 1.596-.342 2.672 1.69-.212 1.676-.617 3.022-.672-.51-1.658-.847-1.9.657-2.674-.542-1.568-1.176-2.69-1.666-4.17.805.082 1.61.15 2.414.234.75.072 1.556.15 2.414.235-.894.733-2.37.874-2.494 2.357 1.71 1.034 1.744-1.26 3.658-.99 1.045.738 1.01 2.563 2.006 3.35-1.99 1.523-.095 2.844-1.332 5.003-2.054 1.275-3.277-.86-4.67-1.338-.767 1.208.146 2.113-.33 3.353-2.147-1.517-2.747 2.38-4.33 1.327-.03-2.232 2.403-2.033 2.984-3.673-.54-.673-.893-1.555-1.99-1.67-1.024 1.908-3.928 2.448-2.676 5.68 1.318.587 2.656 1.128 3.007 2.674 1.838-1.152 4.283-1.72 4.667-4.34.245.313.552.565.766.914-.287 3.077-2.605 4.76-4.483 4.95.515 3.016.143 3.21 1.26 6.503 2.248-1.035 1.155-4.55 2.01-6.358.575-1.183 1.892-1.935 2.67-2.667 3.28-3.09 5.578-10.03 6.673-13.963.478-1.327.72-2.315.728-2.867.028-1.51-2.572-5.838-2.19-7.323.748-2.88 3.066-5.294 3.066-5.294.88.21 2.26.183 3.484-.21.077.03.155.057.232.086.834-1.076 1.652-2.036 2.36-3.157.013-1.317-.527-3.1-1.143-4.72.797.302 1.598.597 2.4.888-.068-.463-.21-.983-.43-1.61-.12-.34-.198-.665-.245-.98-.958-.358-1.915-.72-2.867-1.09l-.012.027c-.333-.75-.555-1.242-.51-1.256 2.7-1.327 2.327-3.774 2.262-4.66-.05-.57-.126-1.184-.167-1.732-.02-.27.31-.328.475-.19.307.245.607.49.91.745.62.71 1.535.652 1.866.738.11 0 .223-.01.34-.01.06 0 .13-.007.2-.007 3.723-.22 5.9-3.56 5.998-5.782.12-2.817-.83-4.538-3.15-6.715.896-1.91 1.892-1.153 4.753-1.758 3.93-.832 6.555-8.346 2.408-10.934 2.53-2.504 5.682-10.172 1.494-13.42-4.58.613-8.21-1.4-11.598-1.16-1.27.09-2.588.11-3.806.278-2.005.283-7.424 2.132-9.425 4.99 1.183-.54 2.786-.64 3.99-1.154 1.138-.302 3.573-1.36 3.696-1.41 2.574-.613 3.808.235 6.073.024-.304.73-.88 1.132-.696 2.34 1.28-.058.61-2.074 2.04-1.99-1.14 2.76-2.094 5.72-4.768 5.666-2.167-.06-2.77-3.272-4.994-2.745-.453 3.134-.252 4.684 1.276 6.39 2.697-.498 4.303-1.456 7.37-.605-.557.92-1.072 1.54-1.096 2.304 4.632-2.113 8.154-4.54 9.853-7.585.742 2.088.275 3.18-.905 4.51-1.32 1.496-2.28 1.935-3.765 3.62-1.313 1.445-3.942 3.772-2.493 5.907-2.43.35-4.348 1.226-6.06 2.3-.815-.304-.337-1.886-1.65-1.694.13 2.566-2.643 3.785-1.73 6.02 1.938.09 2.333-1.075 4.01-.96.786.166 2.835.34 4.008 1.387.528.48.082 1.564.668 2.358 1.27 1.823 2.637 1.067 2.967 2.385.5 1.95-.66 5.728-3.048 5.35-.734-.12-1.79-.265-1.334-1.7-1.118.01-1.667.55-3.018.302-1.473-1.42-2.308-3.493-4.982-3.744.304 1.107 1.52 3.99.924 7.067-.53 1.937-4.474.4-4.737 2.635 1.184.74 2.565 1.766 3.294 3.23.334.678.67 1.352.85 2.098.217.918.387 1.605.404 2.676.02.845-.15 1.44-.426 1.684-.286.25-.668.147-.944-.216-.382-.492-.798-.866-1.375-1.122-.42-.192-.963.222-.68.684.16.247.39.79.48 1.068.48 1.403-1.44 1.163-2.71 1.324-1.323 2.81-2.646 7.296-5.756 6.653-.065-.014-.13-.04-.19-.073.76-.163 1.452-.58 1.714-1.35.103-.29-.15-.415-.44-.176-.372.322-.7.517-.99.61-.323.102-.59.14-.954.01-.102-.034-.224-.155-.235-.216 3.11-1.76-.08-6.563 2.45-8.558 1.73-.11 3.545-.2 4.127-2.293-1.462-1.552-1.66-4.355-3.973-5.077-.514 3.107-.378 6.83-2.772 8.038-3.178-1.08-3.27-5.193-4.945-7.78 2.527-4.165-1.25-7.826 1.142-11.413.716.747 1.61 1.294 3.33 1.037.046-1.585-1.052-2.057-.943-3.706 1.708-1.006 4.675 1.036 6.002-.606.56-1.755-1.76-1.916-.284-4.038-.928-.975-2.196 1.167-3.352-.037-.628-2.725 2.738-3.81.402-5.366-1.054.18-.45 1.784-.965 2.52-3.174-.196-3.832 7.744-6.52 8.15-1.275.21-3.802-.944-3.297-4.065 1.323 1.05 2.435.257 3.66 1.383.228-6.556 4.177-9.298 8.163-12.008-3.778-1.115-6.903 1.263-8.747 3.268-1.33-1.33-3.128-.3-3.74.903-.885 1.736-.33 5.436-3.354 5.405.5-1.642.508-3.703.422-5.37-.095-1.946-.975-2.95-1.524-4.075 1.637.052 3.22 1.554 3.833 2.64.078-3.82 3.42-6.226 5.883-7.276 2.878-1.236 3.703-1.544 5.995-3.628-3.482.28-5.163 1.19-8.423 2.994-3.114 1.715-4.7 3.162-5.402 3.302-4.443.873-4.955-4.524-6.96-7.798-2.746-4.53-7.158-7.628-12.966-8.538 2.96 1.61 6.227 3.26 7.993 4.787 1.678 1.45 2.837 3.46 3.79 5.414.702 1.45.538 1.957-.52 2.35 4.04 3.145.87 9.16-3.764 8.018.65 2.76 4.314 3.265 6.012 1.804 0 0 2.79 2.11 1.6 6.457-2.078-.52-2.715-.606-3.653-3.18-.37 1.106-.72 2.536-.467 3.884.355 2.225 1.52 4.398 4.154 4.104 2.267-.25 3.18-4.23 3.18-3.83.045 2.04-.088 5.942-2.178 7.272-1.753 1.116-3.237.562-4.485-.256-.126.602-.403 1.73.293 3.203.958 2.043 2.19 1.75 2.37 4.02.16.798.236 1.438.236 1.438-.167 2.184-1.58 4.644-1.58 4.644-1.414 1.185-3.212 2.96-6.536 5.182 2.28 3.924 11.683 11.57 13.76 14.416 2.907 2.498 2.624 5.36 2.895 6.113-1.112 2.22-4.174 2.57-6.674 2.006-2.726-1.726-6.014-3.897-8.524-6.978-.396-.527-.778-1.058-1.146-1.6-2.064-3.054-3.63-6.397-4.683-9.432-1.552-4.477-.63-6.09 1.78-7.97 2.58-2.01 7.288-4.65 7.278-7.42-.004-1.786-.856-1.83-.87-1.854-.262.654-.638 1.143-1.268 1.93-2.8 3.46-8.915 9.318-12.216 9.544-2.915.21-7.232-2.97-7.19-2.816.122.513.807 1.102.96 2.09.23 1.438.216 2.05.205 3.49-.26 4.67-1.91 9.487-3.935 13.408-.126.23-1.25 4.123-2.098 5.6-1.33 2.375-4.045 4.07-3.99 6.69 5.513.117 8.35-5.62 8.723-11.717.075-.083.138-.183.18-.296.47-1.242.26-2.94.63-4.23 2.63-.76 3.87-3.258 3.096-6.543.81-.88 1.675-2.67 3.046-1.988 1.923.947 2.52 3.794 3.94 7.096.956 2.187 1.883 4.162 3.068 5.877.46 1.055.83 2.158 1.01 3.436-2.567 2.337-4.705 5.092-8.337 6.355-.83-3.326 3.457-7.006 2.79-10.186zm31.215.135c.088-.065 2.942-2.204 3.966-2.624.65-.266 1.36-.07 1.908.34 1.18-.11 2.097.937 1.66 1.926-.558 1.266-2.65 1.697-4.204 1.73-.96.022-1.923-.01-2.88.005-.998.018-1.345-.677-.45-1.375zm-16.1-13.52c2.202.027 8.283 2.63 9.286 4.366-.585-3.174-3.558-10.46-3.302-11.75.52-2.67 5.01.548 6.332 6.095.83 3.504 2.3 9.246-1.664 15.82-1.183-3.788-6.298-9.93-10.654-14.53zM1.33 22.91c-1.054 6.14 7.012 6.737 10.28 9.52-1.008 1.344-2.105 1.693-2.726 3.312-1.21 3.13 1.016 5.64 1.016 5.64.542 1.372 1.682 2.268 3.543 2.138.843-.06 1.886.384 2.635.226 0 0 5.214-3.21 4.148 1.31l-1.726.83c-.077.94-.36 3.287 2.267 4.58.07.02.135 1.082.204 2.522-.02-.158-.043-.31-.063-.472-.567.214-1.136.425-1.705.633.142.732.26 1.464.36 2.195.498-.18.996-.363 1.493-.548.075 1.65.155 3.43.248 4.687.038.62.265 1.128.605 1.547-.655.24-1.31.474-1.968.706.498.44 1.072.833 1.678 1.182.67-.24 1.336-.484 2.002-.73 1.287.48 2.81.525 3.757.3 0 0 2.318 2.413 3.065 5.294.383 1.485-2.217 5.814-2.19 7.323.01.552.25 1.54.728 2.867 1.094 3.934 3.392 10.873 6.673 13.963.778.732 2.095 1.484 2.67 2.668.856 1.808-.238 5.32 2.01 6.358l.013-.037c.022.012.04.027.064.038.196-.578.312-1.045.376-1.445.56-1.992.38-2.56.807-5.057-1.616-.163-3.555-1.436-4.248-3.75-.05-.457-.06-.95-.032-1.477.182-.22.388-.412.563-.635.384 2.62 2.83 3.187 4.668 4.34.35-1.547 1.69-2.09 3.007-2.677 1.253-3.23-1.65-3.77-2.674-5.68-1.098.117-1.45 1-1.99 1.67.58 1.64 3.013 1.442 2.984 3.674-1.584 1.053-2.184-2.844-4.33-1.327-.477-1.24.436-2.145-.33-3.353-1.394.478-2.617 2.613-4.67 1.338-1.213-2.116.573-3.428-1.23-4.914.014-.082.032-.163.046-.245.836-.844.872-2.497 1.857-3.194 1.914-.27 1.947 2.026 3.658.992-.12-1.483-1.6-1.625-2.493-2.36l2.414-.234c.805-.083 1.61-.152 2.415-.232-.49 1.48-1.124 2.6-1.666 4.17 1.503.774 1.165 1.014.656 2.673 1.346.055 1.333.46 3.022.672.063-1.076-.598-1.42-.342-2.67.362-1.272 2.78.795 2.342-.676.013-1.355-1.425-1.24-2.342-1.668.604-3.094 4.604-.31 4.682 1.328-1.14 3.25-3 6.34 0 8.697 1.257.28.41-1.57.664-2.337 1.087.14 1.746.702 2.328 1.34.27 1.38-1.597.627-1.33 2.002 0 1.57 1.096 2.028 2.327 2.353.206-1.43-1.073-1.37-.997-2.674.752.322 1.51.668 2.274 1.024l-.98-7.11.227.06c3.07 4.184 6.604 9.668 12.017 10.368-.473-.984-2.693-1.968-2.325-2.675 4.64 2.386 10.164 5.628 15.344 6.35-2.094-2.887-6.563-3.593-9.342-6.01-1.58-1.39-2.75-3.227-3.677-4.68.895 0 1.908.126 2.345-.347-.206-1.643.492-2.64 1.332-4.003-4.407-.715.033-6.302-3.677-7.706-.716 1.057-.908 2.657-1.998 3.356-.83-1.244-1.828-2.458-2.813-3.72.08-.003-5.303-5.375-4.454-12.06-3.826-3.533-1.715-12.56 2.483-12.75 3.597-.157 5.61 5.48 8.617 7.823 1.65 1.255 3.346.22 2.558 2.302-.933 2.474-1.844-.585-3.587.38-.017 2.01 1.21.948 1.108 3.042-1.703 1.202-3.548 4.483-2.795 7.087.263-2.32 1.934-4.154 3.28-5.754 3.282-3.894 8.12-8.18 12.162-10.982 2.302-1.59 3.812-2.98 4.355-3.672-1.562.572-3.322 1.387-6.01 1.776-.927.13-2.065-.184-2.867.42-.246.183-.736 1.155-1.627 1.61-.924.468-1.797.75-2.813.61-1.712-.237-1.47-1.695-1.116-2.02.944-.85 2.397-.85 3.05-2.087.15-.574.08-.907-.128-1.1-.072-.05-.143-.09-.218-.15-.945-.406-3.12.47-2.895-1.18 1.387.09 2.14-.478 3.306-.62.815-.135 1.62-.258 2.347-.72.845-.538.91-.973.293-1.49-3.05.6-8.38 1.644-7.908-2.24 1.08.04.218 2.018 1.654 1.7 1.234-4.962-3.124-3.9-1.9-6.276 1.927-3.743 2.166-4.77.658-8.26-1.435-3.333-2.87-3.343-6.237-1.393 2.107-2.707 6.428-2.72 8.986-1.51.033-2.712-2.627-3.17-3.95-4.76 3.086.203 4.938 2.72 6.278 2.544-1.52-1.516-1.77-2.95-.604-2.477 2.378.95 5.344 2.27 7.704 1.758-3.983-1.65-8.56-3.576-10.984-7.183.054-.383.52-.348 1.01-.317-.082-1.715-2.497-2.854-1.99-4.062 1.23.674 2.49 2.765 4.35 1.728-2.16-2.443-8.485-5.666-5.927-9.46.047 1.83.743 3.04 2.304 3.387-.49-1.506-.824-3.17-1.95-4.056.888-2.14 4.23-2.458 5.71-3.472-6.964.028-11.772 3.35-14.197 7.895 1.408-1.26 1.818-2.21 5.112-2.892-1.86 1.267-4.676 2.663-5.757 7.11-.225-.354-.23-1.267.01-3.057-2.223 3.025-2.55 5.543-3.884 7.31-1.05 1.782-2.493 3.35-4.2 4.335 1.094-.256 2.195-.633 3.283-.24-1.736 1.3-2.084 2.303-2.718 3.66-.63 1.343-.192 4.594 1.28 6.08-2.727-.316-4.05-2.56-3.665-5.93-1.572 1.638-3.522-.504-5.794-2.626-.312-.35-.69-.68-1.1-.982-2.033-1.72-4.294-2.987-6.756-1.413-1.278.818-2.343 2.423-1.368 4.37 2.143-3.104 6.76-1.817 6.77 1.225.017 4.442-3.605 5.865-7.158 4.144.474 3.494-1.972 5.252-1.96 5.26 3.525 1.53 5.336-1.5 7.823.02 1.023.63 1.98 1.19 2.234 2.58.164-.082.33-.037.538.288-.33 2.2.376 3.398.6 5.055-1.298.3-1.363-1.323-2.335-.37.152 2.048 3.04 4.47 4.665 6.708-1.81 4.233-2.445 6.845-4.88 7.673-2.395-1.207-2.26-4.93-2.773-8.037-2.314.722-2.51 3.525-3.974 5.078.583 2.096 2.397 2.184 4.126 2.294 2.53 1.995-.658 6.8 2.452 8.558-.01.06-.134.182-.235.216-.366.13-.632.092-.956-.01-.29-.093-.617-.288-.99-.61-.29-.238-.542-.116-.44.174.263.77.956 1.188 1.716 1.352-.06.034-.126.06-.19.073-3.11.643-4.434-3.843-5.757-6.652-1.27-.162-3.19.078-2.71-1.325.09-.277.32-.82.48-1.068.283-.462-.26-.876-.68-.684-.576.256-.992.63-1.374 1.122-.277.363-.658.465-.945.216-.277-.243-.447-.84-.426-1.684.016-1.07.186-1.758.405-2.676.177-.746.514-1.42.85-2.098.73-1.464-1.23-2.49-.046-3.23-.033-.275-.122-.492-.254-.667l.162-.13c-.24-.704-.64-.985-1.128-1.087-.49-.11-1.068-.045-1.668-.066-.4-.013-.802-.064-1.197-.228-.253-.32-.423-.665-.543-1.02-.364-1.158-.105-2.533.345-4.118.583-1.62 1.684-2.655 3.196-3.443.477-.25.388-.798.064-1.076.23-.3.243-.625-.273-.923-.962-.557-2.384.924-2.984 1.575-.013-.02-.027-.05-.04-.075-3.81 1.42-5.33 5.184-10.446 5.27.53-2.08-1.2-1.934-1.306-3.38.968-1.03 2.288-1.722 2.38-3.677 1.18-1.173 4.253-.386 5.368-1.61-.935-1.28-3.005-.935-4.67-.72-.643-1.6-2.134-2.347-2.645-4.062.44-1.237 2.903-.437 3.377-1.648-1.037-2.023-3.47-4.315-3.63-6.087 2.41-.843 3.033 1.82 5 2.4 1.167-.888-1.858-1.5-.643-2.36 3.26.34 3.59 1.397 6.008 2.77 1.074.6 2.69 1.655 3.363.837-1.545-1.475-2.347-4.843-4.338-5.903-5.006 1.76-10.204-1.5-12.665-5.175-2.57.202-4.222-.5-5.334-1.728.218-1.25-.512-3.478.706-3.7 2.588 1.007 3.195 3.97 6.308 4.442.485-1.352-1.933-2.454-1.943-4.395 1.33-.09.882 1.557 1.966 1.705.1-.596-.3-1.688.703-1.338.732.27.817 1.184 1.312 1.693-1.098.127-1.66.79-1.354 2.338 2.41-.182 2.538-.852 4.368-1.3-.092-1.373-1.245-1.668-.978-3.36.978.488.736 2.155 1.985 2.363 1.15-.417-1.26-1.803.027-2.344 1.743-.506.9 1.547 1.984 1.69.795-.406 1.556-.673 2.296-.847.33.074.613-.028.822-.223.5.075 1.033.112 1.65.045 1.48-.154 2.98.033 4.42-.428.095-.03.116-.193 0-.21-1.433-.212-2.818-.514-4.236-.777-.593-.11-1.173-.028-1.763-.075-.054-.055-.122-.11-.204-.15-1.348-.733-2.198-1.04-3.35-1.106-3.52-2.03-7.274.872-13.668.267-5.8 3.007-1.603 10.71 1.207 13.79-1.266 1.35-2.75 1.587-3.04 3.33zm59.09 8.732c.844-.972 2.87-1.084 3.45.223.144.304-.19.58-.453.36-.47-.42-1.218-.306-1.787-.42-.366-.078-.955.186-1.21-.13-.008-.005-.008-.016 0-.033zm-1.64 8.015c.01-.042 1.196-.66 1.84-1.19.918-.765 1.477-1.688 1.443-1.93-.01-.05-.82-.326-1.453-.7-.832-.492-1.136-.88-1.27-1.012-.043-.045-.03-.147.04-.158.558-.082 2.962.612 3.027.63 1.153.246 1.398.838 1.42 1.047.043.38-.158 3.186-1.672 6.276-.444 1.65 2.315 4.507 1.354 5.615-3.005-1.3-4.27-3.795-4.78-6.83-.17-.982-.098-1.362.05-1.748zm-9.155 40.7c-.888-.35-1.63-.93-2.067-1.803.147-.406.147-1.43.57-2.68 1.34.76 1.557 2.678 1.497 4.482zm4.53-7.308c2.072 4.44 6.277 7.318 8.273 10.524.072 1.423-2.094.383-2.676.333.117 1.09 1.772 1.728.682 3.018-2.58-1.11-4.505-2.854-5.01-6.025-2.208-1.237-4.82-5.82-4.816-5.82-.017-.053-.028-.112-.044-.165-.14-.61-.327-1.866-.327-1.866-.033-.448-.045-.91-.01-1.394-.018-.142-.025-.285-.015-.424.026-.302.1-.63.2-.957.005-.028.007-.055.013-.082l.012.01c.22-.68.61-1.347 1.3-1.737.487-.277.81-.274 1.016.34.537 1.607 1.403 4.243 1.403 4.243zm-9.802-14.675c.467-1.96 2.507-5.143 3.82-7.077.167.056.338.112.512.16.01-.006.017-.02.027-.033.16-.147.31-.277.477-.39-.024-.158-.038-.32-.04-.476-.98-2.095.667-4.532.857-6.978.205-3.094-1.582-4.377-2.287-6.417 2.254.55 2.932 2.65 5.674 2.75 2.36 5.866-3.2 8.77-2.51 15.09-1.364 1.786-3.192 3.085-3.41 6.018 1.313.31 1.835-1.933 2.684-.975.534 2.295.526 4.255.154 5.952-.096.69-.316 1.496-.606 2.343-1.342 1.986-3.437 5.043-3.69 5.85-3.962-6.573-2.492-12.314-1.663-15.818zM34.695 70.9c.55-.41 1.258-.606 1.91-.34 1.022.42 3.877 2.56 3.965 2.625.895.698.547 1.393-.45 1.376-.958-.013-1.92.018-2.88-.003-1.556-.034-3.647-.465-4.206-1.73-.436-.99.48-2.038 1.66-1.927z"/>
  </g>
</svg>