<svg width="70" height="69" viewBox="0 0 70 69" xmlns="http://www.w3.org/2000/svg">
  <g fill="#000" fill-rule="evenodd">
    <path d="M44.8 68.4c-6.8 0-15.6-5.2-27-16C-6.2 29.6.7 21 3.7 17.4l.2-.3c.1-.1.2-.2.4-.3.5-.4 2.4-2.3 4-4 .2-.2.4-.3.7-.3.3 0 .5.1.7.3l14.4 13.8c.4.4.4 1 0 1.4l-3.9 4.3c-.7.8-.2 2.4.3 3.5 2.7 5.9 11.9 13.6 16.1 13.6.5 0 .9-.1 1.1-.4.3-.5 1.3-1.6 4.1-4.4.4-.4 1-.4 1.4 0l14.5 13.8c.2.2.3.4.3.7 0 .3-.1.5-.3.7-1.6 1.6-3.4 3.5-3.7 4-.1.1-.1.3-.3.4l-.4.4c-1.5 1.4-4 3.8-8.5 3.8zM5.3 18.5l-.1.1c-2.6 3.2-8.8 10.8 14 32.3C30 61.2 38.6 66.4 44.8 66.4c3.7 0 5.7-1.9 7.2-3.2l.3-.3c.3-.5 1.1-1.4 3.3-3.6l-13-12.4c-1.4 1.4-2.8 2.8-3 3.3 0 .1-.1.2-.2.3-.7.7-1.6 1.1-2.7 1.1-5.4 0-15.1-8.7-17.9-14.8-1.4-3.1-.8-4.8 0-5.7l3.2-3.8L9 14.9c-2.2 2.3-3.1 3.3-3.7 3.6zm63.2 21.6c-.6 0-1-.4-1-1 0-20-16.2-36.2-36.2-36.2-.6 0-1-.4-1-1s.4-1 1-1C52.4.9 69.5 18 69.5 39.1c0 .6-.4 1-1 1z"/>
    <path d="M56.4 42.8c-.6 0-1-.4-1-1 0-14.7-12-26.6-26.6-26.6-.6 0-1-.4-1-1s.4-1 1-1c15.8 0 28.6 12.9 28.6 28.6 0 .5-.5 1-1 1z"/>
  </g>
</svg>
