<?xml version="1.0" encoding="utf-8"?>
<!-- Generator: Adobe Illustrator 19.2.1, SVG Export Plug-In . SVG Version: 6.00 Build 0)  -->
<svg version="1.1" id="Слой_1" xmlns="http://www.w3.org/2000/svg" xmlns:xlink="http://www.w3.org/1999/xlink" x="0px" y="0px"
	 viewBox="0 0 22 27" style="enable-background:new 0 0 22 27;" xml:space="preserve">
<style type="text/css">
	.st0{clip-path:url(#SVGID_2_);fill:#3C3C3B;}
</style>
<g>
	<defs>
		<path id="SVGID_1_" d="M18.4,8.3c0,0.5-0.4,0.9-0.9,0.9h-1.2c-0.5,0-0.9-0.4-0.9-0.9V7.1c0-0.5,0.4-0.9,0.9-0.9h1.2
			c0.5,0,0.9,0.4,0.9,0.9V8.3z M18.4,21.1H3.6v-9.6h2.7c-0.3,0.6-0.5,1.4-0.5,2.1c0,2.9,2.3,5.2,5.2,5.2s5.2-2.3,5.2-5.2
			c0-0.8-0.2-1.5-0.5-2.1h2.7V21.1z M8.6,11.5c0.6-0.7,1.4-1.1,2.4-1.1c1,0,1.8,0.4,2.4,1.1c0.5,0.6,0.8,1.3,0.8,2.1
			c0,1.8-1.4,3.2-3.2,3.2c-1.8,0-3.2-1.4-3.2-3.2C7.8,12.8,8.1,12,8.6,11.5z M19.3,4.2H2.7c-0.6,0-1.1,0.5-1.1,1.1V22
			c0,0.6,0.5,1.1,1.1,1.1h16.6c0.6,0,1.1-0.5,1.1-1.1V5.4C20.4,4.7,19.9,4.2,19.3,4.2z"/>
	</defs>
	<use xlink:href="#SVGID_1_"  style="overflow:visible;fill-rule:evenodd;clip-rule:evenodd;fill:#3C3C3B;"/>
	<clipPath id="SVGID_2_">
		<use xlink:href="#SVGID_1_"  style="overflow:visible;"/>
	</clipPath>
	<rect x="-3.4" y="-0.8" class="st0" width="28.8" height="28.8"/>
</g>
</svg>
