<?xml version="1.0" encoding="UTF-8" standalone="no"?>
<svg width="107px" height="27px" viewBox="0 0 107 27" version="1.1" xmlns="http://www.w3.org/2000/svg" xmlns:xlink="http://www.w3.org/1999/xlink">
    <!-- Generator: Sketch 3.8.3 (29802) - http://www.bohemiancoding.com/sketch -->
    <title>Imported Layers Copy</title>
    <desc>Created with Sketch.</desc>
    <defs></defs>
    <g id="Welcome" stroke="none" stroke-width="1" fill="none" fill-rule="evenodd">
        <g id="iPhone-6-Plus-restaurant" transform="translate(-18.000000, -23.000000)" fill="#3C3C3B">
            <g id="Imported-Layers-Copy" transform="translate(18.000000, 23.000000)">
                <path d="M17.8832168,14.625 C18.1825175,14.85 18.5566434,15.075 18.9307692,15.225 C19.0804196,15.3 19.3048951,15.375 19.5293706,15.375 L19.6041958,15.375 L19.8286713,15.375 C19.8286713,15.375 20.2776224,15.375 20.5020979,15.3 C20.6517483,15.3 20.7265734,15.3 20.8013986,15.225 C21.0258741,15.15 23.7195804,14.55 23.7944056,14.55 L23.7944056,26.025 L27.5356643,26.025 L27.5356643,0.375 L23.7944056,0.375 L23.7944056,11.4 L23.7944056,11.475 L23.7944056,11.55 C23.7944056,11.55 23.7944056,11.625 23.7195804,11.625 C23.6447552,11.7 23.6447552,11.7 23.5699301,11.7 L20.5020979,11.7 C20.5020979,11.7 20.5020979,11.7 20.4272727,11.7 C20.3524476,11.7 20.3524476,11.7 20.2776224,11.625 C20.2027972,11.625 20.2027972,11.55 20.2027972,11.475 L20.2027972,0.375 L16.4615385,0.375 L16.4615385,11.475 C16.4615385,11.85 16.5363636,12.3 16.686014,12.675 C16.7608392,13.5 17.2097902,14.175 17.8832168,14.625" id="Fill-1"></path>
                <path d="M23.2706294,15.15 C22.4475524,15.375 20.8762238,15.675 20.8013986,15.75 L20.6517483,15.75 L20.5020979,15.75 C20.2776224,15.825 19.8286713,15.825 19.8286713,15.825 L19.6041958,15.825 L19.4545455,15.825 C19.2300699,15.825 19.0055944,15.75 18.7811189,15.675 C18.406993,15.525 18.0328671,15.3 17.6587413,15 C17.5090909,14.85 17.3594406,14.7 17.2097902,14.55 C17.4342657,14.85 17.7335664,15.075 17.958042,15.375 C18.3321678,15.675 18.7062937,15.9 19.0804196,16.05 C19.3048951,16.125 19.5293706,16.2 19.7538462,16.2 L19.9034965,16.2 L20.127972,16.2 C20.2027972,16.2 20.5769231,16.2 20.8762238,16.125 L21.0258741,16.125 L21.1755245,16.125 C21.2503497,16.125 22.4475524,15.825 23.3454545,15.6 L23.2706294,15.15" id="Fill-2"></path>
                <polygon id="Fill-3" points="20.5020979 0.45 20.951049 0.45 20.951049 11.325 20.5020979 11.325"></polygon>
                <polyline id="Fill-4" points="28.2839161 0.45 27.9097902 0.45 27.834965 26.55 23.6447552 26.55 23.6447552 26.925 28.2839161 26.925 28.2839161 0.45"></polyline>
                <polyline id="Fill-5" points="37.7118881 23.325 41.1538462 23.325 41.079021 22.95 37.2629371 22.95 36.813986 26.55 32.548951 26.55 32.4741259 26.85 37.2629371 26.85 37.7118881 23.325"></polyline>
                <path d="M41.7524476,0.45 L36.7391608,0.45 L32.6986014,26.1 L36.5146853,26.1 L36.9636364,22.5 L41.4531469,22.5 L41.9769231,26.1 L45.793007,26.1 L41.7524476,0.45 L41.7524476,0.45 Z M37.4125874,18.9 L39.1335664,6 L40.9293706,18.9 L37.4125874,18.9 L37.4125874,18.9 Z" id="Fill-6"></path>
                <polyline id="Fill-7" points="38.3853147 18.45 39.4328671 10.875 39.1335664 9.15 37.9363636 18.45 38.3853147 18.45"></polyline>
                <polyline id="Fill-8" points="42.5755245 0.375 42.1265734 0.375 46.241958 26.55 41.9769231 26.55 42.0517483 26.85 46.6909091 26.85 42.5755245 0.375"></polyline>
                <path d="M53.4251748,0.45 C51.3300699,0.45 49.6090909,2.25 49.6090909,4.425 L49.6090909,22.125 C49.6090909,24.3 51.3300699,26.1 53.4251748,26.1 L56.941958,26.1 C59.0370629,26.1 60.758042,24.3 60.758042,22.125 L60.758042,15.75 L57.0167832,15.75 L57.0167832,22.125 C57.0167832,22.275 56.8671329,22.425 56.7174825,22.425 L53.7244755,22.425 C53.5748252,22.425 53.4251748,22.275 53.4251748,22.125 L53.4251748,4.35 C53.4251748,4.2 53.5748252,4.05 53.7244755,4.05 L56.7174825,4.05 C56.8671329,4.05 57.0167832,4.2 57.0167832,4.35 L57.0167832,10.725 L60.758042,10.725 L60.758042,4.35 C60.758042,2.175 59.0370629,0.375 56.941958,0.375 L53.4251748,0.375 L53.4251748,0.45" id="Fill-9"></path>
                <polyline id="Fill-10" points="54.3230769 22.05 54.3230769 4.8 56.5678322 4.8 56.5678322 4.5 53.7993007 4.5 53.7993007 22.05 54.3230769 22.05"></polyline>
                <path d="M58.8125874,0.375 C60.2342657,1.05 61.206993,2.625 61.206993,4.35 L61.206993,11.175 L57.0167832,11.175 L57.0167832,11.475 L61.6559441,11.475 L61.6559441,4.575 C61.6559441,2.7 60.4587413,1.05 58.8125874,0.375" id="Fill-11"></path>
                <path d="M57.3909091,26.85 C59.7853147,26.85 61.6559441,24.825 61.6559441,22.35 L61.6559441,15.675 L61.206993,15.675 L61.206993,22.05 C61.206993,22.35 61.206993,22.65 61.1321678,22.95 C60.9825175,24.075 60.3090909,24.975 59.486014,25.575 C58.8125874,26.1 57.9146853,26.4 57.0167832,26.4 L53.5,26.4 C52.5272727,26.4 51.6293706,26.025 50.8811189,25.425 C51.6293706,26.25 52.6769231,26.7 53.8741259,26.7 L57.3909091,26.7 L57.3909091,26.85" id="Fill-12"></path>
                <path d="M0.448951049,22.125 C0.448951049,24.3 2.16993007,26.1 4.26503497,26.1 L7.78181818,26.1 C9.87692308,26.1 11.5979021,24.3 11.5979021,22.125 L11.5979021,15.75 L7.85664336,15.75 L7.85664336,22.125 C7.85664336,22.275 7.70699301,22.425 7.55734266,22.425 L4.56433566,22.425 C4.41468531,22.425 4.26503497,22.275 4.26503497,22.125 L4.26503497,4.35 C4.26503497,4.2 4.41468531,4.05 4.56433566,4.05 L7.55734266,4.05 C7.70699301,4.05 7.85664336,4.2 7.85664336,4.35 L7.85664336,10.725 L11.5979021,10.725 L11.5979021,4.35 C11.5979021,2.175 9.87692308,0.375 7.78181818,0.375 L4.26503497,0.375 C2.16993007,0.375 0.448951049,2.175 0.448951049,4.35 L0.448951049,22.125" id="Fill-13"></path>
                <polyline id="Fill-14" points="5.08811189 22.05 5.08811189 4.8 7.40769231 4.8 7.40769231 4.5 4.63916084 4.5 4.63916084 22.05 5.08811189 22.05"></polyline>
                <path d="M12.4958042,4.65 C12.4958042,2.7 11.2986014,1.05 9.57762238,0.45 C10.9993007,1.125 11.972028,2.7 11.972028,4.425 L11.972028,11.25 L7.78181818,11.25 L7.78181818,11.55 L12.420979,11.55 L12.420979,4.65 L12.4958042,4.65" id="Fill-15"></path>
                <path d="M12.4958042,15.75 L11.972028,15.75 L11.972028,22.125 C11.972028,22.425 11.972028,22.725 11.8972028,23.025 C11.7475524,24.15 11.0741259,25.05 10.251049,25.65 C9.57762238,26.175 8.67972028,26.475 7.78181818,26.475 L4.26503497,26.475 C3.29230769,26.475 2.39440559,26.1 1.64615385,25.5 C2.39440559,26.325 3.44195804,26.775 4.63916084,26.775 L8.15594406,26.775 C10.5503497,26.775 12.420979,24.75 12.420979,22.275 L12.420979,15.75 L12.4958042,15.75" id="Fill-16"></path>
                <polyline id="Fill-17" points="75.5734266 0.375 64.8734266 0.375 64.8734266 4.05 68.3153846 4.05 68.3153846 26.025 72.1314685 26.025 72.0566434 4.05 75.5734266 4.05 75.5734266 0.375"></polyline>
                <polyline id="Fill-18" points="72.9545455 4.8 76.4713287 4.8 76.4713287 0.375 75.9475524 0.375 75.9475524 4.5 72.5055944 4.5 72.5055944 26.475 68.3153846 26.475 68.3153846 26.775 72.9545455 26.775 72.9545455 4.8"></polyline>
                <path d="M83.6545455,0.375 L79.9132867,0.375 L79.9132867,26.025 L87.320979,26.025 L87.7699301,26.025 C89.6405594,25.8 91.1370629,24.15 91.1370629,22.125 L91.1370629,15 C91.1370629,14.4 90.9874126,13.8 90.7629371,13.275 C90.5384615,12.75 90.0895105,12.225 89.6405594,11.85 C89.1916084,11.475 88.6678322,11.175 88.0692308,11.1 C87.9944056,11.1 87.6202797,11.025 87.320979,11.1 C87.320979,11.1 87.320979,11.1 87.2461538,11.1 C87.0965035,11.1 86.9468531,11.175 86.7972028,11.175 C86.4979021,11.25 86.1986014,11.325 85.8244755,11.4 C85.5251748,11.475 83.7293706,11.925 83.7293706,11.925 L83.6545455,0.375 L83.6545455,0.375 Z M83.6545455,15.075 L83.6545455,15.075 C83.6545455,15 83.6545455,15 83.6545455,15.075 L83.6545455,14.925 C83.6545455,14.85 83.7293706,14.85 83.7293706,14.85 C83.8041958,14.85 83.8041958,14.775 83.879021,14.775 L86.9468531,14.775 C87.0216783,14.775 87.0216783,14.775 87.0965035,14.85 C87.1713287,14.85 87.1713287,14.925 87.1713287,14.925 L87.1713287,15.075 L87.1713287,22.125 C87.1713287,22.275 87.0216783,22.425 86.872028,22.425 C86.872028,22.425 86.872028,22.425 86.7972028,22.425 L83.5048951,22.425 L83.6545455,15.075 L83.6545455,15.075 Z" id="Fill-19"></path>
                <polyline id="Fill-20" points="84.1034965 22.05 84.5524476 22.05 84.5524476 15.45 86.7972028 15.45 86.7972028 15.225 84.1034965 15.225 84.1034965 22.05"></polyline>
                <path id="Fill-21"></path>
                <path d="M89.7902098,11.55 C90.313986,12 90.7629371,12.525 90.9874126,13.125 C91.2867133,13.725 91.4363636,14.4 91.4363636,15.075 L91.4363636,22.2 L91.4363636,22.65 C91.3615385,23.7 90.9125874,24.675 90.1643357,25.35 C89.4909091,26.025 88.6678322,26.475 87.6951049,26.625 L87.1713287,26.625 L79.8384615,26.625 L79.8384615,26.925 L87.6202797,26.925 L88.1440559,26.925 C90.313986,26.625 91.8853147,24.75 91.8853147,22.5 L91.8853147,15.45 C91.8853147,14.775 91.7356643,14.1 91.4363636,13.425 C91.1370629,12.825 90.7629371,12.3 90.1643357,11.85 C89.6405594,11.4 89.041958,11.1 88.4433566,11.025 C88.9671329,10.95 89.4160839,11.175 89.7902098,11.55" id="Fill-22"></path>
                <polyline id="Fill-23" points="95.7013986 0.45 95.7013986 26.025 105.503497 26.025 105.503497 22.425 99.5174825 22.425 99.5174825 15 104.381119 15 104.381119 11.4 99.5174825 11.4 99.5174825 4.05 105.503497 4.05 105.503497 0.375 95.7013986 0.375 95.7013986 0.45"></polyline>
                <polyline id="Fill-24" points="105.952448 4.5 99.8916084 4.5 99.8916084 10.95 100.415385 10.95 100.415385 4.725 106.401399 4.725 106.401399 0.375 105.952448 0.375 105.952448 4.5"></polyline>
                <polyline id="Fill-25" points="105.279021 11.4 104.83007 11.4 104.83007 15.45 99.8916084 15.45 99.8916084 21.975 100.415385 21.975 100.415385 15.675 105.279021 15.675 105.279021 11.4"></polyline>
                <polyline id="Fill-26" points="106.401399 22.425 105.952448 22.425 105.952448 26.475 95.7013986 26.475 95.7013986 26.7 106.476224 26.7 106.401399 22.425"></polyline>
            </g>
        </g>
    </g>
</svg>